<svg xmlns="http://www.w3.org/2000/svg" xmlns:xlink="http://www.w3.org/1999/xlink" viewBox="0 0 605.05 626.41"><defs><style>.cls-1,.cls-2{fill:none;stroke-miterlimit:10;}.cls-1{opacity:0.86;stroke:url(#Gradiente_sem_nome_236);}.cls-2{opacity:0.34;stroke:url(#Gradiente_sem_nome_236-2);}</style><linearGradient id="Gradiente_sem_nome_236" x1="-289.6" y1="-894.91" x2="-360.3" y2="-288.55" gradientTransform="translate(-14.95 -273.59) rotate(180)" gradientUnits="userSpaceOnUse"><stop offset="0" stop-color="#ef4335"/><stop offset="0.25" stop-color="#ec3c3f"/><stop offset="0.69" stop-color="#e3285a"/><stop offset="1" stop-color="#db1672"/></linearGradient><linearGradient id="Gradiente_sem_nome_236-2" x1="-522.76" y1="-415.81" x2="-151.85" y2="-775.54" xlink:href="#Gradiente_sem_nome_236"/></defs><title>bg-body-due</title><g id="Camada_2" data-name="Camada 2"><g id="Camada_1-2" data-name="Camada 1"><path class="cls-1" d="M580,360.34,473.45,542.65c-51.77,88.59-170.17,110.49-250.21,46.28L115.58,502.56A168,168,0,0,1,53.05,382.42L39.84,179.7C31.52,52.07,163.16-37.68,278.92,16.68L506.34,123.47C595.73,165.45,629.82,275.08,580,360.34Z"/><path class="cls-2" d="M234.8,56.75,69.42,170.17c-80.37,55.12-92.48,166.37-25.59,235.11l90,92.46c30.73,31.58,73.82,49,118.74,48l193.59-4.38C568,538.58,643.62,409.53,583.46,307L465.27,105.45C418.82,26.25,312.15,3.71,234.8,56.75Z"/></g></g></svg>