<svg xmlns="http://www.w3.org/2000/svg" xmlns:xlink="http://www.w3.org/1999/xlink" viewBox="0 0 1732.63 1229.98"><defs><style>.cls-1{fill:url(#Gradiente_sem_nome_236);}.cls-2{fill:url(#Gradiente_sem_nome_236-2);}.cls-3{fill:url(#Gradiente_sem_nome_236-3);}.cls-4{fill:url(#Gradiente_sem_nome_236-4);}.cls-5{fill:url(#Gradiente_sem_nome_236-5);}.cls-6{opacity:0.53;fill:url(#Gradiente_sem_nome_236-6);}.cls-7{opacity:0.86;fill:url(#Gradiente_sem_nome_236-7);}</style><linearGradient id="Gradiente_sem_nome_236" x1="715.67" y1="938.96" x2="746.17" y2="938.96" gradientUnits="userSpaceOnUse"><stop offset="0" stop-color="#ef4335"/><stop offset="0.25" stop-color="#ec3c3f"/><stop offset="0.69" stop-color="#e3285a"/><stop offset="1" stop-color="#db1672"/></linearGradient><linearGradient id="Gradiente_sem_nome_236-2" x1="15.62" y1="1148.84" x2="43.59" y2="1148.84" xlink:href="#Gradiente_sem_nome_236"/><linearGradient id="Gradiente_sem_nome_236-3" x1="186.71" y1="74.26" x2="215.63" y2="74.26" xlink:href="#Gradiente_sem_nome_236"/><linearGradient id="Gradiente_sem_nome_236-4" x1="549.74" y1="561.08" x2="566.81" y2="561.08" xlink:href="#Gradiente_sem_nome_236"/><linearGradient id="Gradiente_sem_nome_236-5" x1="0" y1="399.26" x2="9.16" y2="399.26" xlink:href="#Gradiente_sem_nome_236"/><linearGradient id="Gradiente_sem_nome_236-6" x1="675.45" y1="614.99" x2="1732.63" y2="614.99" xlink:href="#Gradiente_sem_nome_236"/><linearGradient id="Gradiente_sem_nome_236-7" x1="676.17" y1="588.66" x2="1732.63" y2="588.66" xlink:href="#Gradiente_sem_nome_236"/></defs><title>Ativo 29due</title><g id="Camada_2" data-name="Camada 2"><g id="Camada_1-2" data-name="Camada 1"><path class="cls-1" d="M715.67,948.37a22.85,22.85,0,0,1,1.88,15.14c26.68-8,30.42-32.67,28-44a21,21,0,0,0-8.2-5.12C740.21,927.17,734.19,943.6,715.67,948.37Z"/><path class="cls-2" d="M15.62,1153.27a18.18,18.18,0,0,0,5.45,11.32c18.15-4,23.68-20.72,22.33-30.76a23.78,23.78,0,0,0-8.43-.61C34.36,1149.67,19,1153.71,15.62,1153.27Z"/><path class="cls-3" d="M186.71,96C214,85,222,66,210.68,52.57,213.53,70.94,206.59,86.78,186.71,96Z"/><path class="cls-4" d="M566.81,553.58c-7.38,1-15.58,8.14-17.07,15A20.29,20.29,0,0,0,566.81,553.58Z"/><path class="cls-5" d="M3.9,394.83l4.18,1.55A1.83,1.83,0,0,1,9,398.81L7.6,402.47a1.9,1.9,0,0,1-2.34,1.22l-4.18-1.55a1.84,1.84,0,0,1-.93-2.44l1.41-3.65A1.89,1.89,0,0,1,3.9,394.83Z"/><path class="cls-6" d="M937.58,0,855.92,54.52C663.14,183.24,616.82,448.71,755.85,628.08l353.72,456.34c162.64,209.83,476.63,185.35,623.06-25.56V0Z"/><path class="cls-7" d="M1159.8,0l-20.53,3.76A368.53,368.53,0,0,0,893.42,170.51L732.59,427C613,617.72,690.82,870.11,897,960.4l424.26,185.82c145.4,63.68,307.89,25.84,411.38-79.76V0Z"/></g></g></svg>