<svg xmlns="http://www.w3.org/2000/svg" xmlns:xlink="http://www.w3.org/1999/xlink" viewBox="0 0 99.54 88.06"><defs><style>.cls-1{opacity:0.53;fill:url(#Gradiente_sem_nome_236);}.cls-2{opacity:0.86;fill:url(#Gradiente_sem_nome_236-2);}.cls-3{opacity:0.95;}.cls-4{fill:#fff;}</style><linearGradient id="Gradiente_sem_nome_236" x1="554.66" y1="496.02" x2="642.53" y2="496.02" gradientTransform="matrix(0.25, 0.94, -0.97, 0.23, 377.65, -638.55)" gradientUnits="userSpaceOnUse"><stop offset="0" stop-color="#ef4335"/><stop offset="0.25" stop-color="#ec3c3f"/><stop offset="0.69" stop-color="#e3285a"/><stop offset="1" stop-color="#db1672"/></linearGradient><linearGradient id="Gradiente_sem_nome_236-2" x1="325.87" y1="-820.92" x2="419" y2="-820.92" gradientTransform="matrix(-0.59, -0.8, 0.8, -0.59, 934.41, -140.58)" xlink:href="#Gradiente_sem_nome_236"/></defs><title>devweb-due</title><g id="Camada_2" data-name="Camada 2"><g id="Camada_1-2" data-name="Camada 1"><path class="cls-1" d="M61.66,4.65,88.4,23c13,8.91,14.95,26.89,4.13,38L78,75.94a25.94,25.94,0,0,1-19.2,7.75L27.5,83C7.8,82.54-4.42,61.68,5.3,45.1L24.41,12.53C31.92-.28,49.16-3.92,61.66,4.65Z"/><path class="cls-2" d="M87.26,23.65l7.13,31.47a25.67,25.67,0,0,1-23.1,31.27l-21,1.6A25.7,25.7,0,0,1,30.74,81.1L8.11,59.85A25.68,25.68,0,0,1,17.79,16.7L54.32,4.89A25.68,25.68,0,0,1,87.26,23.65Z"/><g class="cls-3"><path class="cls-4" d="M62.76,24.29H34.26A3.75,3.75,0,0,0,30.51,28V48.29A3.76,3.76,0,0,0,34.26,52H44.51l-1.07,3.75H41v1.5H56v-1.5H53.57L52.5,52H62.76a3.76,3.76,0,0,0,3.75-3.75V28A3.76,3.76,0,0,0,62.76,24.29ZM45,55.79,46.07,52h4.87L52,55.79Zm20-7.5a2.25,2.25,0,0,1-2.25,2.25H34.26A2.25,2.25,0,0,1,32,48.29v-1.5H65Zm0-3H32V28a2.24,2.24,0,0,1,2.25-2.25h28.5A2.25,2.25,0,0,1,65,28Z"/><path class="cls-4" d="M54.51,58.79h-21a.74.74,0,0,0-.75.75v9a.75.75,0,0,0,.75.75h21a.76.76,0,0,0,.75-.75v-9A.75.75,0,0,0,54.51,58.79Zm-.75,9H34.26v-7.5h19.5Z"/><rect class="cls-4" x="35.76" y="64.79" width="1.5" height="1.5"/><rect class="cls-4" x="35.76" y="61.79" width="1.5" height="1.5"/><rect class="cls-4" x="38.76" y="61.79" width="1.5" height="1.5"/><rect class="cls-4" x="41.76" y="61.79" width="1.5" height="1.5"/><rect class="cls-4" x="47.76" y="61.79" width="1.5" height="1.5"/><rect class="cls-4" x="44.76" y="61.79" width="1.5" height="1.5"/><rect class="cls-4" x="50.76" y="64.79" width="1.5" height="1.5"/><rect class="cls-4" x="50.76" y="61.79" width="1.5" height="1.5"/><rect class="cls-4" x="38.76" y="64.79" width="10.5" height="1.5"/><path class="cls-4" d="M60.51,58.79a3.74,3.74,0,0,0-3.75,3.75v3a3.75,3.75,0,0,0,7.5,0v-3A3.75,3.75,0,0,0,60.51,58.79Zm2.25,6.75a2.25,2.25,0,0,1-4.5,0v-3a2.25,2.25,0,0,1,4.5,0Z"/><rect class="cls-4" x="59.76" y="61.79" width="1.5" height="1.5"/><rect class="cls-4" x="43.04" y="35.55" width="10.92" height="1.5" transform="matrix(0.28, -0.96, 0.96, 0.28, 0.26, 72.94)"/><path class="cls-4" d="M44.49,33.11l-1-1.15L39,35.71a.75.75,0,0,0-.1,1.06l.1.09,4.5,3.75,1-1.15-3.81-3.17Z"/><path class="cls-4" d="M58.08,35.81l-.09-.1L53.49,32l-1,1.15,3.8,3.18-3.8,3.17,1,1.15L58,36.86A.75.75,0,0,0,58.08,35.81Z"/></g></g></g></svg>