<svg xmlns="http://www.w3.org/2000/svg" xmlns:xlink="http://www.w3.org/1999/xlink" viewBox="0 0 99.54 88.06"><defs><style>.cls-1{opacity:0.53;fill:url(#Gradiente_sem_nome_236);}.cls-2{opacity:0.86;fill:url(#Gradiente_sem_nome_236-2);}.cls-3{opacity:0.95;}.cls-4{fill:#fff;}</style><linearGradient id="Gradiente_sem_nome_236" x1="453.9" y1="689.43" x2="541.77" y2="689.43" gradientTransform="matrix(0.25, 0.94, -0.97, 0.23, 589.97, -588.76)" gradientUnits="userSpaceOnUse"><stop offset="0" stop-color="#ef4335"/><stop offset="0.25" stop-color="#ec3c3f"/><stop offset="0.69" stop-color="#e3285a"/><stop offset="1" stop-color="#db1672"/></linearGradient><linearGradient id="Gradiente_sem_nome_236-2" x1="577.33" y1="-627.89" x2="670.46" y2="-627.89" gradientTransform="matrix(-0.59, -0.8, 0.8, -0.59, 928.38, 176.37)" xlink:href="#Gradiente_sem_nome_236"/></defs><title>emailmkt-due</title><g id="Camada_2" data-name="Camada 2"><g id="Camada_1-2" data-name="Camada 1"><path class="cls-1" d="M61.66,4.65,88.4,23c13,8.91,14.95,26.89,4.13,38L78,75.94a25.94,25.94,0,0,1-19.2,7.75L27.5,83C7.8,82.54-4.42,61.68,5.3,45.1L24.41,12.53C31.92-.28,49.16-3.92,61.66,4.65Z"/><path class="cls-2" d="M87.26,23.65l7.13,31.47a25.67,25.67,0,0,1-23.1,31.27l-21,1.6A25.7,25.7,0,0,1,30.74,81.1L8.11,59.85A25.68,25.68,0,0,1,17.79,16.7L54.32,4.89A25.68,25.68,0,0,1,87.26,23.65Z"/><g class="cls-3"><path class="cls-4" d="M60.24,34.32,52,25.16h0a.55.55,0,0,0-.43-.2H39.81a3.63,3.63,0,0,0-3.62,3.63v7.87L29.7,40.38a2.49,2.49,0,0,0-1.19,2.13V61.19A4.85,4.85,0,0,0,33.35,66H63.23a4.85,4.85,0,0,0,4.84-4.85V42.51a2.49,2.49,0,0,0-1.19-2.13L60.6,36.51l-.06,0-.15-.07V34.71A.56.56,0,0,0,60.24,34.32ZM48.29,55,37.34,48.28v-2.4h21.9v2.4ZM35.8,44.73a.38.38,0,0,1-.38-.39V39.93a.38.38,0,0,1,.38-.39h25a.39.39,0,0,1,.39.39v4.41a.39.39,0,0,1-.39.39ZM52.16,27l5.52,6.16h-3a2.48,2.48,0,0,1-2.47-2.47Zm-12.35-.92H51v4.61a3.63,3.63,0,0,0,3.63,3.62h4.08l.53.59v3.46H37.34V28.58A2.47,2.47,0,0,1,39.81,26.11ZM30.3,41.36l5.89-3.57v.6H35.8a1.54,1.54,0,0,0-1.53,1.54v4.41a1.54,1.54,0,0,0,1.53,1.54h.39v1.69l-6.53-4V42.51A1.35,1.35,0,0,1,30.3,41.36ZM63.23,64.89H33.35a3.7,3.7,0,0,1-3.69-3.7V44.93l6.7,4.1a.64.64,0,0,0,.22.14l11.41,7a.59.59,0,0,0,.6,0l11.4-7a.68.68,0,0,0,.23-.14l6.7-4.1V61.19A3.7,3.7,0,0,1,63.23,64.89Zm3.05-23.53a1.37,1.37,0,0,1,.64,1.15v1.07l-6.53,4V45.88h.38a1.54,1.54,0,0,0,1.54-1.54V39.93a1.54,1.54,0,0,0-1.54-1.54h-.38v-.66Z"/><path class="cls-4" d="M41.5,41.25a.88.88,0,1,0,0,1.76.87.87,0,0,0,.88-.88A.89.89,0,0,0,41.5,41.25Zm0,1.16a.28.28,0,0,1,0-.55.28.28,0,1,1,0,.55Z"/><path class="cls-4" d="M44.9,41.25a.88.88,0,1,0,.87.88A.88.88,0,0,0,44.9,41.25Zm0,1.16a.28.28,0,1,1,0-.55.28.28,0,0,1,0,.55Z"/><path class="cls-4" d="M48.29,41.25a.88.88,0,1,0,.88.88A.89.89,0,0,0,48.29,41.25Zm0,1.16a.28.28,0,1,1,.27-.28A.27.27,0,0,1,48.29,42.41Z"/><path class="cls-4" d="M51.68,41.25a.88.88,0,1,0,0,1.76.87.87,0,0,0,.88-.88A.89.89,0,0,0,51.68,41.25Zm0,1.16a.28.28,0,1,1,.27-.28A.27.27,0,0,1,51.68,42.41Z"/><path class="cls-4" d="M55.07,41.25a.88.88,0,1,0,0,1.76.87.87,0,0,0,.88-.88A.89.89,0,0,0,55.07,41.25Zm0,1.16a.28.28,0,0,1,0-.55.28.28,0,1,1,0,.55Z"/><path class="cls-4" d="M38.11,41.25a.88.88,0,1,0,.88.88A.88.88,0,0,0,38.11,41.25Zm0,1.16a.28.28,0,1,1,.27-.28A.27.27,0,0,1,38.11,42.41Z"/><path class="cls-4" d="M58.47,41.25a.88.88,0,1,0,.88.88A.89.89,0,0,0,58.47,41.25Zm0,1.16a.28.28,0,1,1,0-.55.28.28,0,0,1,0,.55Z"/></g></g></g></svg>