<svg xmlns="http://www.w3.org/2000/svg" xmlns:xlink="http://www.w3.org/1999/xlink" viewBox="0 0 99.54 88.06"><defs><style>.cls-1{opacity:0.53;fill:url(#Gradiente_sem_nome_236);}.cls-2{opacity:0.86;fill:url(#Gradiente_sem_nome_236-2);}.cls-3{opacity:0.95;}.cls-4{fill:#fff;}</style><linearGradient id="Gradiente_sem_nome_236" x1="683.37" y1="779.75" x2="771.24" y2="779.75" gradientTransform="matrix(0.25, 0.94, -0.97, 0.23, 619.58, -826.59)" gradientUnits="userSpaceOnUse"><stop offset="0" stop-color="#ef4335"/><stop offset="0.25" stop-color="#ec3c3f"/><stop offset="0.69" stop-color="#e3285a"/><stop offset="1" stop-color="#db1672"/></linearGradient><linearGradient id="Gradiente_sem_nome_236-2" x1="766.99" y1="-925.65" x2="860.12" y2="-925.65" gradientTransform="matrix(-0.59, -0.8, 0.8, -0.59, 1280.58, 152.2)" xlink:href="#Gradiente_sem_nome_236"/></defs><title>inboundmkt-due</title><g id="Camada_2" data-name="Camada 2"><g id="Camada_1-2" data-name="Camada 1"><path class="cls-1" d="M61.66,4.65,88.4,23c13,8.91,14.95,26.89,4.13,38L78,75.94a25.94,25.94,0,0,1-19.2,7.75L27.5,83C7.8,82.54-4.42,61.68,5.3,45.1L24.41,12.53C31.92-.28,49.16-3.92,61.66,4.65Z"/><path class="cls-2" d="M87.26,23.65l7.13,31.47a25.67,25.67,0,0,1-23.1,31.27l-21,1.6A25.7,25.7,0,0,1,30.74,81.1L8.11,59.85A25.68,25.68,0,0,1,17.79,16.7L54.32,4.89A25.68,25.68,0,0,1,87.26,23.65Z"/><g class="cls-3"><path class="cls-4" d="M49,52.42a.78.78,0,0,0-1.11,0,.83.83,0,0,0-.23.55.79.79,0,0,0,1.57,0A.83.83,0,0,0,49,52.42Z"/><path class="cls-4" d="M65.51,45.47a.79.79,0,0,0-.79.79v3.43H51.29V47.76A5.84,5.84,0,0,0,46.18,42a4,4,0,0,0,.91-2.57V33.92a.78.78,0,0,0-.78-.78H42.22a3.29,3.29,0,0,0-3.3,3.29v3A4.1,4.1,0,0,0,39.83,42a5.84,5.84,0,0,0-5.11,5.78v1.93H32.07V30.92a.6.6,0,0,1,.61-.6H48.92a.79.79,0,0,0,0-1.57H32.68a2.17,2.17,0,0,0-2.17,2.17V54.09a2.17,2.17,0,0,0,2.17,2.16H44.57v3.61a3.92,3.92,0,0,0-3.52,3.89.78.78,0,0,0,.78.79H55a.78.78,0,0,0,.78-.79,3.91,3.91,0,0,0-3.51-3.89V56.25H64.11a2.17,2.17,0,0,0,2.18-2.16V46.26A.78.78,0,0,0,65.51,45.47Zm-25-9a1.73,1.73,0,0,1,1.73-1.73h3.3V36a1.12,1.12,0,0,1-1.12,1.12H40.49Zm0,2.2H44.4a2.78,2.78,0,0,0,1.12-.24v1h0a2.52,2.52,0,1,1-5,0Zm3.43,4.87-.91.91-.92-.91Zm-7.63,4.26a4.27,4.27,0,0,1,3.64-4.22l2.52,2.52a.78.78,0,0,0,.56.23.74.74,0,0,0,.55-.23l2.52-2.52a4.27,4.27,0,0,1,3.64,4.22v1.93H36.29ZM54,63H42.75A2.34,2.34,0,0,1,45,61.41h6.87A2.34,2.34,0,0,1,54,63Zm-7.91-3.13V56.25h4.53v3.59Zm18.59-5.75a.6.6,0,0,1-.61.6H32.68a.6.6,0,0,1-.61-.6V51.25H64.72Z"/><path class="cls-4" d="M66.06,42.76a.79.79,0,1,0-.55,1.33.82.82,0,0,0,.55-.22.78.78,0,0,0,0-1.11Z"/><path class="cls-4" d="M65.51,28.21H59.65a.78.78,0,0,0,0,1.56h5.86a.78.78,0,1,0,0-1.56Z"/><path class="cls-4" d="M57,28.44a.8.8,0,1,0,.22.55A.79.79,0,0,0,57,28.44Z"/><path class="cls-4" d="M65.51,31.65H56.44a.78.78,0,0,0,0,1.56h9.07a.78.78,0,0,0,0-1.56Z"/><path class="cls-4" d="M65.51,35.08H56.44a.79.79,0,0,0,0,1.57h9.07a.79.79,0,0,0,0-1.57Z"/><path class="cls-4" d="M66.6,24.54H55.35a3.91,3.91,0,0,0-3.91,3.9V36.8a3.91,3.91,0,0,0,3.47,3.88v2a.78.78,0,0,0,.78.79.78.78,0,0,0,.55-.23l2.56-2.56h7.8a3.92,3.92,0,0,0,3.91-3.91V28.44A3.91,3.91,0,0,0,66.6,24.54ZM68.94,36.8a2.35,2.35,0,0,1-2.34,2.35H58.47a.78.78,0,0,0-.55.23l-1.45,1.45v-.9a.78.78,0,0,0-.78-.78h-.34A2.35,2.35,0,0,1,53,36.8V28.44a2.34,2.34,0,0,1,2.34-2.34H66.6a2.34,2.34,0,0,1,2.34,2.34Z"/></g></g></g></svg>