<svg xmlns="http://www.w3.org/2000/svg" xmlns:xlink="http://www.w3.org/1999/xlink" viewBox="0 0 99.54 88.06"><defs><style>.cls-1{opacity:0.53;fill:url(#Gradiente_sem_nome_236);}.cls-2{opacity:0.86;fill:url(#Gradiente_sem_nome_236-2);}.cls-3{opacity:0.95;}.cls-4{fill:#fff;}</style><linearGradient id="Gradiente_sem_nome_236" x1="809.2" y1="682.93" x2="897.07" y2="682.93" gradientTransform="matrix(0.25, 0.94, -0.97, 0.23, 494.34, -922.7)" gradientUnits="userSpaceOnUse"><stop offset="0" stop-color="#ef4335"/><stop offset="0.25" stop-color="#ec3c3f"/><stop offset="0.69" stop-color="#e3285a"/><stop offset="1" stop-color="#db1672"/></linearGradient><linearGradient id="Gradiente_sem_nome_236-2" x1="660.8" y1="-1128.03" x2="753.93" y2="-1128.03" gradientTransform="matrix(-0.59, -0.8, 0.8, -0.59, 1380.39, -53.4)" xlink:href="#Gradiente_sem_nome_236"/></defs><title>smmanager-due</title><g id="Camada_2" data-name="Camada 2"><g id="Camada_1-2" data-name="Camada 1"><path class="cls-1" d="M61.66,4.65,88.4,23c13,8.91,14.95,26.89,4.13,38L78,75.94a25.94,25.94,0,0,1-19.2,7.75L27.5,83C7.8,82.54-4.42,61.68,5.3,45.1L24.41,12.53C31.92-.28,49.16-3.92,61.66,4.65Z"/><path class="cls-2" d="M87.26,23.65l7.13,31.47a25.67,25.67,0,0,1-23.1,31.27l-21,1.6A25.7,25.7,0,0,1,30.74,81.1L8.11,59.85A25.68,25.68,0,0,1,17.79,16.7L54.32,4.89A25.68,25.68,0,0,1,87.26,23.65Z"/><g class="cls-3"><path class="cls-4" d="M67.52,28.93H52.87V27.47A2.93,2.93,0,0,0,50,24.54H29.45a2.93,2.93,0,0,0-2.93,2.93v16.1c0,8,7.69,8,10.25,8a.73.73,0,1,0,0-1.46,2.94,2.94,0,0,1-2.93-2.93v-.29a3.08,3.08,0,0,1,3.07-2.64H47v1.47H40.43a.69.69,0,0,0-.73.73A6.59,6.59,0,0,0,41.45,51a7,7,0,0,0-.29,2.12,7.39,7.39,0,0,0,4.39,6.73c0,.44-.22,1.32-2.19,1.32A3.62,3.62,0,0,0,39.7,64.8v3.66h1.46V64.8a2.17,2.17,0,0,1,2.05-2.19l3.59,1.75a4.66,4.66,0,0,0,1,.37v3.73h1.46V64.73a3.85,3.85,0,0,0,1-.29l3.58-1.76a2.17,2.17,0,0,1,2,2.2v3.66h1.47V64.88a3.62,3.62,0,0,0-3.66-3.66c-2,0-2.2-.88-2.2-1.32a7.28,7.28,0,0,0,4.39-7v-.51a5.85,5.85,0,0,0-.73-2.93H60a3.08,3.08,0,0,1,3.07,2.64,3,3,0,0,1-2.64,3.22h-.29a.73.73,0,0,0,0,1.46c2.56,0,10.25,0,10.25-8V31.86A2.83,2.83,0,0,0,67.52,28.93ZM36.91,42.84a4.58,4.58,0,0,0-4.54,3.95,4.63,4.63,0,0,0,.88,3.08c-3.58-.73-5.27-2.71-5.27-6.3V27.47A1.47,1.47,0,0,1,29.45,26H50a1.47,1.47,0,0,1,1.46,1.47V41.38A1.47,1.47,0,0,1,50,42.84Zm4.32,4.39h8a5.13,5.13,0,0,1,5.06,4.39h-8A5.12,5.12,0,0,1,41.23,47.23Zm9.23,11.35a.71.71,0,0,0-.51.66v.44a2.57,2.57,0,0,0,1.46,2.49l-1.9.95a2.72,2.72,0,0,1-2.13,0l-1.83-.95A2.6,2.6,0,0,0,47,59.68v-.37a.71.71,0,0,0-.52-.66,5.93,5.93,0,0,1-3.88-5.56,4.18,4.18,0,0,1,.08-1,6.61,6.61,0,0,0,3.58,1h8.06A5.77,5.77,0,0,1,50.46,58.58ZM69,48.7c0,3.58-1.68,5.56-5.27,6.29a4.6,4.6,0,0,0,.88-3.07,4.54,4.54,0,0,0-4.54-4H54.12a6.55,6.55,0,0,0-4.91-2.19h-.73V44.3H50a2.92,2.92,0,0,0,2.92-2.92v-11H67.52A1.47,1.47,0,0,1,69,31.86V48.7Z"/><path class="cls-4" d="M43.36,32.59h-.74a.69.69,0,0,1-.73-.73v-2.2a2.2,2.2,0,0,0-4.39,0v2.2a.69.69,0,0,1-.73.73.69.69,0,0,0-.73-.73H33.11a.7.7,0,0,0-.74.73v8a.7.7,0,0,0,.74.74H36a.7.7,0,0,0,.73-.74h6.59a2.15,2.15,0,0,0,2.19-2.19V34.79A2.15,2.15,0,0,0,43.36,32.59ZM35.3,39.91H33.84V33.32H35.3Zm8.79-1.46a.69.69,0,0,1-.73.73H36.77V34.05A2.15,2.15,0,0,0,39,31.86v-2.2a.7.7,0,0,1,.74-.73.69.69,0,0,1,.73.73v2.2a2.15,2.15,0,0,0,2.19,2.19h.74a.7.7,0,0,1,.73.74Z"/><path class="cls-4" d="M66.78,31.86H63.86a.7.7,0,0,0-.74.73H56.53a2.15,2.15,0,0,0-2.19,2.2v3.66a2.15,2.15,0,0,0,2.19,2.19h.74a.7.7,0,0,1,.73.74v2.19a2.2,2.2,0,1,0,4.39,0V41.38a.7.7,0,0,1,.73-.74.7.7,0,0,0,.74.74h2.92a.7.7,0,0,0,.74-.74v-8A.7.7,0,0,0,66.78,31.86Zm-3.66,7.32a2.15,2.15,0,0,0-2.19,2.2v2.19a.74.74,0,0,1-1.47,0V41.38a2.15,2.15,0,0,0-2.19-2.2h-.74a.69.69,0,0,1-.73-.73V34.79a.7.7,0,0,1,.73-.74h6.59Zm2.93.73H64.59V33.32h1.46Z"/><rect class="cls-4" x="53.61" y="43.57" width="2.93" height="1.46"/><polygon class="cls-4" points="46.28 28.2 46.28 27.46 44.82 27.46 44.82 28.2 44.09 28.2 44.09 29.66 44.82 29.66 44.82 30.39 46.28 30.39 46.28 29.66 47.02 29.66 47.02 28.2 46.28 28.2"/></g></g></g></svg>