<svg xmlns="http://www.w3.org/2000/svg" xmlns:xlink="http://www.w3.org/1999/xlink" viewBox="0 0 99.54 88.06"><defs><style>.cls-1{opacity:0.53;fill:url(#Gradiente_sem_nome_236);}.cls-2{opacity:0.86;fill:url(#Gradiente_sem_nome_236-2);}.cls-3{fill:#fff;opacity:0.95;}</style><linearGradient id="Gradiente_sem_nome_236" x1="714.07" y1="557.08" x2="801.94" y2="557.08" gradientTransform="matrix(0.25, 0.94, -0.97, 0.23, 396.59, -803.37)" gradientUnits="userSpaceOnUse"><stop offset="0" stop-color="#ef4335"/><stop offset="0.25" stop-color="#ec3c3f"/><stop offset="0.69" stop-color="#e3285a"/><stop offset="1" stop-color="#db1672"/></linearGradient><linearGradient id="Gradiente_sem_nome_236-2" x1="455.2" y1="-1028.22" x2="548.33" y2="-1028.22" gradientTransform="matrix(-0.59, -0.8, 0.8, -0.59, 1178.01, -159.59)" xlink:href="#Gradiente_sem_nome_236"/></defs><title>socialmedia-due</title><g id="Camada_2" data-name="Camada 2"><g id="Camada_1-2" data-name="Camada 1"><path class="cls-1" d="M61.66,4.65,88.4,23c13,8.91,14.95,26.89,4.13,38L78,75.94a25.94,25.94,0,0,1-19.2,7.75L27.5,83C7.8,82.54-4.42,61.68,5.3,45.1L24.41,12.53C31.92-.28,49.16-3.92,61.66,4.65Z"/><path class="cls-2" d="M87.26,23.65l7.13,31.47a25.67,25.67,0,0,1-23.1,31.27l-21,1.6A25.7,25.7,0,0,1,30.74,81.1L8.11,59.85A25.68,25.68,0,0,1,17.79,16.7L54.32,4.89A25.68,25.68,0,0,1,87.26,23.65Z"/><path class="cls-3" d="M48.51,64.54a17.89,17.89,0,0,1-9.9-3L32.42,63.5a.71.71,0,0,1-.88-.88l1.93-6.19a18,18,0,1,1,15,8.11ZM38.72,60.1a.72.72,0,0,1,.4.12,16.6,16.6,0,1,0-4.3-4.3.73.73,0,0,1,.09.61l-1.63,5.23,5.24-1.63A.64.64,0,0,1,38.72,60.1Z"/><path class="cls-3" d="M48.51,56.73a.72.72,0,0,1-.4-.12,46.36,46.36,0,0,1-4.88-3.91c-3.33-3.08-5-5.74-5-7.89A6.54,6.54,0,0,1,44.47,38a6,6,0,0,1,4,1.6,6,6,0,0,1,4-1.6,6.54,6.54,0,0,1,6.26,6.78c0,2.15-1.69,4.81-5,7.89a46.36,46.36,0,0,1-4.88,3.91A.71.71,0,0,1,48.51,56.73Zm-4-17.29a5.14,5.14,0,0,0-4.85,5.37c0,3.38,6.08,8.38,8.89,10.36,2.8-2,8.88-7,8.88-10.36a5.14,5.14,0,0,0-4.85-5.37A4.58,4.58,0,0,0,49,41.09a.7.7,0,0,1-1.07,0A4.58,4.58,0,0,0,44.47,39.44Z"/></g></g></svg>