<svg xmlns="http://www.w3.org/2000/svg" xmlns:xlink="http://www.w3.org/1999/xlink" viewBox="0 0 99.54 88.06"><defs><style>.cls-1{opacity:0.53;fill:url(#Gradiente_sem_nome_236);}.cls-2{opacity:0.86;fill:url(#Gradiente_sem_nome_236-2);}.cls-3{opacity:0.95;}.cls-4{fill:#fff;}</style><linearGradient id="Gradiente_sem_nome_236" x1="576.91" y1="645.43" x2="664.78" y2="645.43" gradientTransform="matrix(0.25, 0.94, -0.97, 0.23, 516.5, -694.59)" gradientUnits="userSpaceOnUse"><stop offset="0" stop-color="#ef4335"/><stop offset="0.25" stop-color="#ec3c3f"/><stop offset="0.69" stop-color="#e3285a"/><stop offset="1" stop-color="#db1672"/></linearGradient><linearGradient id="Gradiente_sem_nome_236-2" x1="546.27" y1="-812.2" x2="639.4" y2="-812.2" gradientTransform="matrix(-0.59, -0.8, 0.8, -0.59, 1058.25, 41.95)" xlink:href="#Gradiente_sem_nome_236"/></defs><title>targetads-due</title><g id="Camada_2" data-name="Camada 2"><g id="Camada_1-2" data-name="Camada 1"><path class="cls-1" d="M61.66,4.65,88.4,23c13,8.91,14.95,26.89,4.13,38L78,75.94a25.94,25.94,0,0,1-19.2,7.75L27.5,83C7.8,82.54-4.42,61.68,5.3,45.1L24.41,12.53C31.92-.28,49.16-3.92,61.66,4.65Z"/><path class="cls-2" d="M87.26,23.65l7.13,31.47a25.67,25.67,0,0,1-23.1,31.27l-21,1.6A25.7,25.7,0,0,1,30.74,81.1L8.11,59.85A25.68,25.68,0,0,1,17.79,16.7L54.32,4.89A25.68,25.68,0,0,1,87.26,23.65Z"/><g class="cls-3"><path class="cls-4" d="M72.12,44.15a2.39,2.39,0,0,0-2.27,1.62H63.09A14.64,14.64,0,0,0,49.27,32V25.19a2.39,2.39,0,1,0-1.53,0V32A14.64,14.64,0,0,0,33.92,45.77H27.16a2.4,2.4,0,1,0,0,1.53h6.76A14.63,14.63,0,0,0,47.74,61.12v6.76a2.4,2.4,0,1,0,1.53,0V61.12A14.63,14.63,0,0,0,63.09,47.3h6.76a2.39,2.39,0,1,0,2.27-3.15ZM24.9,47.4a.87.87,0,1,1,.86-.86A.87.87,0,0,1,24.9,47.4ZM47.64,22.93a.87.87,0,1,1,.87.86A.87.87,0,0,1,47.64,22.93Zm1.73,47.22a.87.87,0,1,1-.86-.87A.87.87,0,0,1,49.37,70.15Zm-.86-10.53A13.08,13.08,0,1,1,61.58,46.54,13.09,13.09,0,0,1,48.51,59.62ZM72.12,47.4a.87.87,0,1,1,.86-.86A.87.87,0,0,1,72.12,47.4Z"/><path class="cls-4" d="M54.28,48.32l-2.54-1a.05.05,0,0,1,0-.05V45.7a4,4,0,0,0,.81-2.42V40.84c0-1.77-1.8-3.21-4-3.21s-4,1.44-4,3.21v2.44a4,4,0,0,0,.81,2.42v1.56a.05.05,0,0,1,0,.05l-2.54,1a2.39,2.39,0,0,0-1.5,2.22v2.51a1.58,1.58,0,0,0,1.58,1.58h6.51a.77.77,0,0,0,.76-.77.76.76,0,0,0-.76-.76H42.81a.06.06,0,0,1-.06-.05V50.54a.88.88,0,0,1,.55-.81l2.53-1a1.55,1.55,0,0,0,1-1.46v-.33a4,4,0,0,0,3.37,0v.33a1.55,1.55,0,0,0,1,1.46l2.53,1a.86.86,0,0,1,.55.8v2.51a.06.06,0,0,1-.06.05H52.58a.76.76,0,0,0-.77.76.77.77,0,0,0,.77.77H54.2a1.58,1.58,0,0,0,1.58-1.58V50.54A2.39,2.39,0,0,0,54.28,48.32Zm-3.28-5a2.5,2.5,0,0,1-5,0V40.84c0-.91,1.14-1.68,2.5-1.68S51,39.93,51,40.84Z"/><path class="cls-4" d="M46,29.61a.77.77,0,0,0-.9-.6A17.84,17.84,0,0,0,31,43.14a.76.76,0,0,0,.6.89h.15a.75.75,0,0,0,.74-.62A16.34,16.34,0,0,1,45.39,30.51.77.77,0,0,0,46,29.61Z"/><path class="cls-4" d="M66,43.14A17.84,17.84,0,0,0,51.91,29a.76.76,0,1,0-.29,1.5A16.34,16.34,0,0,1,64.54,43.42a.75.75,0,0,0,.74.62h.15A.76.76,0,0,0,66,43.14Z"/><path class="cls-4" d="M45.39,62.57A16.37,16.37,0,0,1,32.47,49.65a.76.76,0,1,0-1.49.29A17.84,17.84,0,0,0,45.1,64.06l.15,0a.77.77,0,0,0,.75-.62A.76.76,0,0,0,45.39,62.57Z"/><path class="cls-4" d="M65.43,49.05a.76.76,0,0,0-.89.6A16.37,16.37,0,0,1,51.62,62.57a.76.76,0,0,0-.61.89.77.77,0,0,0,.75.62l.15,0A17.84,17.84,0,0,0,66,49.94.76.76,0,0,0,65.43,49.05Z"/></g></g></g></svg>