<?xml version="1.0"?>
<svg xmlns="http://www.w3.org/2000/svg" height="512px" viewBox="0 -5 502.424 502" width="512px"><path d="m0 68.898438v315.3125h110.726562c6.867188 15.648437 18.601563 28.65625 33.273438 37.175781v71.769531l40-20 40 20v-71.769531c14.671875-8.519531 26.40625-21.527344 33.273438-37.175781h94.726562v-384h-283.3125zm64-41.375v36.6875h-36.6875zm144 439.746093-24-12-24 12v-38.746093c7.585938 2.382812 15.640625 3.6875 24 3.6875s16.414062-1.304688 24-3.6875zm-24-51.058593c-35.289062 0-64-28.710938-64-64 0-35.285157 28.710938-64 64-64s64 28.714843 64 64c0 35.289062-28.710938 64-64 64zm152-48h-73.617188c1.058594-5.167969 1.617188-10.519532 1.617188-16 0-44.109376-35.886719-80-80-80s-80 35.890624-80 80c0 5.480468.558594 10.832031 1.617188 16h-89.617188v-288h64v-64h256zm0 0" fill="#E52C54"/><path d="m173.808594 370.707031-16.152344-16.152343-11.3125 11.3125 31.847656 31.847656 44.96875-89.925782-14.320312-7.152343zm0 0" fill="#E52C54"/><path d="m320 32.210938h-48v128h48zm-16 112h-16v-96h16zm0 0" fill="#E52C54"/><path d="m256 64.210938h-48v96h48zm-16 80h-16v-64h16zm0 0" fill="#E52C54"/><path d="m192 160.210938v-64h-48v64zm-32-48h16v32h-16zm0 0" fill="#E52C54"/><path d="m32 176.210938h16v16h-16zm0 0" fill="#E52C54"/><path d="m64 176.210938h128v16h-128zm0 0" fill="#E52C54"/><path d="m32 208.210938h16v16h-16zm0 0" fill="#E52C54"/><path d="m64 208.210938h128v16h-128zm0 0" fill="#E52C54"/><path d="m32 240.210938h16v16h-16zm0 0" fill="#E52C54"/><path d="m64 240.210938h128v16h-128zm0 0" fill="#E52C54"/><path d="m432 119.164062 70.425781-46.953124-70.425781-46.949219v22.949219h-32v16h48v-9.046876l25.574219 17.046876-25.574219 17.050781v-9.050781h-80v16h64zm0 0" fill="#E52C54"/><path d="m368 48.210938h16v16h-16zm0 0" fill="#E52C54"/><path d="m432 168.210938h-64v16h80v-9.046876l25.574219 17.046876-25.574219 17.050781v-9.050781h-80v16h64v22.953124l70.425781-46.953124-70.425781-46.949219zm0 0" fill="#E52C54"/><path d="m432 288.210938h-64v16h80v-9.054688l25.574219 17.054688-25.574219 17.058593v-9.058593h-48v16h32v22.945312l70.425781-46.945312-70.425781-46.941407zm0 0" fill="#E52C54"/><path d="m368 320.210938h16v16h-16zm0 0" fill="#E52C54"/></svg>
