<?xml version="1.0"?>
<svg xmlns="http://www.w3.org/2000/svg" height="512px" viewBox="-86 0 512 512.00101" width="512px"><path d="m311.148438 0h-283.089844c-15.46875 0-28.058594 12.582031-28.058594 28.046875v134.351563c0 4.191406 3.398438 7.589843 7.589844 7.589843s7.589844-3.394531 7.589844-7.589843v-134.351563c0-7.09375 5.777343-12.867187 12.882812-12.867187h283.089844c7.097656 0 12.871094 5.773437 12.871094 12.867187v182.597656c0 7.097657-5.773438 12.871094-12.871094 12.871094h-92.632813c-5.371093 0-10.4375 2.097656-14.269531 5.914063l-29.953125 29.953124c-1.949219 1.949219-5.125 1.949219-7.078125-.003906l-11.851562-11.84375-1.699219-63.21875c-.039063-1.464844-.21875-2.894531-.511719-4.277344 3.652344-1.132812 7.003906-3.144531 9.785156-5.925781l75.652344-75.648437c9.320312-9.324219 9.320312-24.5 0-33.824219-9.328125-9.324219-24.5-9.324219-33.824219 0l-15.59375 15.589844c-2.964843 2.964843-2.964843 7.769531 0 10.734375 2.964844 2.964844 7.769531 2.964844 10.734375 0l15.589844-15.589844c3.410156-3.410156 8.953125-3.410156 12.359375-.003906 3.40625 3.410156 3.40625 8.953125 0 12.363281l-75.648437 75.644531c-1.648438 1.652344-3.84375 2.5625-6.179688 2.5625-1.128906 0-2.222656-.214844-3.242188-.625-.601562-.371094-1.222656-.714844-1.859374-1.03125-.378907-.273437-.742188-.570312-1.078126-.90625l-34.652343-34.652344c-1.652344-1.652343-2.558594-3.84375-2.558594-6.179687s.90625-4.527344 2.558594-6.179687c3.40625-3.40625 8.949219-3.40625 12.359375 0l23.109375 23.109374c1.421875 1.421876 3.351562 2.222657 5.363281 2.222657s3.941406-.800781 5.367188-2.222657l26.164062-26.164062c2.964844-2.964844 2.964844-7.769531 0-10.734375-2.964844-2.960937-7.769531-2.960937-10.730469 0l-20.804687 20.800781-17.742188-17.742187c-9.324218-9.324219-24.5-9.324219-33.824218 0-4.515626 4.515625-7.003907 10.523437-7.003907 16.910156 0 6.390625 2.488281 12.394531 7.003907 16.914063l25.210937 25.210937c-7.191406 3.902344-12.085937 11.523437-12.085937 20.265625v38.578125h-79.527344c-7.101563 0-12.878906-5.773437-12.878906-12.871094v-14.347656c0-4.191406-3.398438-7.589844-7.589844-7.589844s-7.589844 3.398438-7.589844 7.589844v14.347656c0 15.464844 12.585938 28.050781 28.058594 28.050781h79.527344v56.707032l-7.816407 8.015625c-10.585937 10.855469-16.414062 25.1875-16.414062 40.347656v33.144531c0 4.191406 3.398437 7.589844 7.589843 7.589844 4.191407 0 7.585938-3.398438 7.585938-7.589844v-33.144531c0-9.621094 3.191406-18.785156 9.054688-26.253906v39.71875c0 4.191406 3.398437 7.589843 7.589843 7.589843 4.191407 0 7.589844-3.398437 7.589844-7.589843v-126.058594c0-.023437.003906-.046875.003906-.070313 0-.023437-.003906-.042968-.003906-.066406v-46.097656c0-4.339844 3.527344-7.867188 7.867187-7.867188 1.054688 0 2.058594.207032 2.976563.578126.53125.320312 1.070313.617187 1.621094.898437 1.925781 1.378906 3.195312 3.609375 3.265625 6.179687l3.660156 136.105469c.113281 4.1875 3.609375 7.523438 7.789062 7.382813 4.191407-.113282 7.496094-3.601563 7.382813-7.792969l-.007813-.269531c.003907-.066406.011719-.132813.011719-.203125v-34.226563c0-5.347656 4.347657-9.695312 9.695313-9.695312 5.34375 0 9.691406 4.347656 9.691406 9.695312v59.304688c0 4.191406 3.398438 7.589844 7.589844 7.589844s7.589844-3.398438 7.589844-7.589844v-34.226563c0-5.347656 4.347656-9.695312 9.695312-9.695312 5.34375 0 9.695312 4.347656 9.695312 9.695312v64.050781c0 4.191407 3.398438 7.589844 7.589844 7.589844s7.585938-3.398437 7.585938-7.589844v-34.230468c0-5.34375 4.351562-9.691406 9.695312-9.691406 5.347656 0 9.695313 4.347656 9.695313 9.691406v93.296875c0 7.445312-2.507813 14.789062-7.058594 20.679687-6.59375 8.53125-10.222656 19.171875-10.222656 29.953125v16.925781c0 4.191407 3.394531 7.589844 7.585937 7.589844s7.589844-3.394531 7.589844-7.589844v-16.925781c0-7.441406 2.507812-14.785156 7.058594-20.675781 6.59375-8.535156 10.226562-19.171875 10.226562-29.957031v-93.296875c0-13.710938-11.160156-24.871094-24.875-24.871094-3.4375 0-6.710937.703125-9.691406 1.96875v-6.917969c0-13.714843-11.160156-24.875-24.875-24.875-3.4375 0-6.714844.703125-9.691406 1.96875v-2.171875c0-6.25-2.324219-11.964844-6.144532-16.339844l29.210938-29.210937c.960938-.957031 2.21875-1.480469 3.550781-1.480469h92.632813c15.464844 0 28.046875-12.582031 28.046875-28.050781v-182.59375c0-15.464844-12.582031-28.046875-28.050781-28.046875zm0 0" fill="#6D2FD1"/><path d="m98.53125 407.433594c0-4.195313-3.394531-7.589844-7.585938-7.589844-4.191406 0-7.589843 3.394531-7.589843 7.589844 0 17.023437 6.171875 33.457031 17.378906 46.277344 8.789063 10.046874 13.628906 22.9375 13.628906 36.285156v14.414062c0 4.191406 3.398438 7.589844 7.589844 7.589844s7.585937-3.394531 7.585937-7.589844v-14.414062c0-17.027344-6.171874-33.460938-17.378906-46.277344-8.789062-10.050781-13.628906-22.9375-13.628906-36.285156zm0 0" fill="#6D2FD1"/></svg>
