<svg height="681pt" viewBox="-21 -46 681.33387 681" width="681pt" xmlns="http://www.w3.org/2000/svg"><path d="m308.644531 496.484375c.933594.769531.003907 0 0 0 7.285157 5.992187 14.222657 5.992187 21.496094-.003906 37.5625-30.960938 84.308594-69.488281 102.113281-121.828125 17.292969-50.832032.246094-113.839844-39.644531-146.5625-42.425781-34.800782-104.007813-34.800782-146.429687 0-38.964844 31.957031-56.40625 90.894531-41.484376 140.140625 15.886719 52.421875 61.984376 93.6875 103.949219 128.253906zm-46.566406-249.003906c16.605469-13.621094 36.960937-20.429688 57.3125-20.429688 20.355469 0 40.707031 6.808594 57.308594 20.429688 31.707031 26.007812 45.683593 78.320312 31.808593 119.097656-14.785156 43.464844-53.523437 76.851563-89.109374 106.25-37.664063-31.3125-77.457032-68.160156-90.699219-111.871094-11.910157-39.3125 2.433593-88.097656 33.378906-113.476562zm0 0"/><path d="m319.390625 389.203125c37.207031 0 67.472656-30.273437 67.472656-67.476563 0-37.207031-30.265625-67.472656-67.472656-67.472656-37.203125 0-67.476563 30.265625-67.476563 67.472656 0 37.203126 30.273438 67.476563 67.476563 67.476563zm0-109.871094c23.375 0 42.394531 19.019531 42.394531 42.394531 0 23.378907-19.019531 42.394532-42.394531 42.394532-23.378906 0-42.394531-19.015625-42.394531-42.394532 0-23.375 19.015625-42.394531 42.394531-42.394531zm0 0"/><path d="m72.386719 197.066406c6.304687 5.195313 13.183593 5.222656 19.539062-.007812 24.765625-20.417969 55.59375-45.820313 67.53125-80.925782 11.765625-34.585937.128907-77.488281-27.066406-99.804687-29.113281-23.878906-71.371094-23.878906-100.480469 0-26.566406 21.792969-38.46875 61.960937-28.300781 95.503906 10.648437 35.148438 41.082031 62.421875 68.777344 85.234375zm-24.570313-161.347656c9.945313-8.15625 22.140625-12.234375 34.335938-12.234375 12.195312 0 24.386718 4.078125 34.332031 12.234375 19.222656 15.765625 27.667969 47.539062 19.230469 72.339844-8.800782 25.882812-31.753906 46.421875-53.546875 64.527344-23.039063-19.359376-46.640625-41.914063-54.554688-68.027344-7.234375-23.863282 1.449219-53.453125 20.203125-68.839844zm0 0"/><path d="m120.890625 80.417969c0-21.359375-17.378906-38.738281-38.742187-38.738281-21.359376 0-38.738282 17.378906-38.738282 38.738281 0 21.363281 17.378906 38.742187 38.742188 38.742187 21.359375 0 38.738281-17.382812 38.738281-38.742187zm-52.402344 0c0-7.527344 6.128907-13.660157 13.664063-13.660157 7.53125 0 13.660156 6.132813 13.660156 13.660157 0 7.535156-6.128906 13.660156-13.660156 13.660156-7.535156 0-13.664063-6.125-13.664063-13.660156zm0 0"/><path d="m607.113281 16.328125c-29.109375-23.878906-71.371093-23.878906-100.484375 0-26.5625 21.792969-38.46875 61.960937-28.300781 95.503906 10.652344 35.148438 41.085937 62.421875 68.769531 85.226563 6.316406 5.203125 13.109375 5.304687 19.546875 0 24.769531-20.414063 55.59375-45.820313 67.535157-80.925782 11.769531-34.585937.132812-77.492187-27.066407-99.804687zm3.324219 91.730469c-8.808594 25.882812-31.753906 46.421875-53.546875 64.527344-23.046875-19.359376-46.644531-41.914063-54.558594-68.027344-7.230469-23.863282 1.457031-53.457032 20.203125-68.839844 9.949219-8.15625 22.140625-12.238281 34.335938-12.238281 12.195312 0 24.390625 4.082031 34.335937 12.238281 19.21875 15.765625 27.664063 47.539062 19.230469 72.339844zm0 0"/><path d="m556.875 41.679688c-21.367188 0-38.742188 17.378906-38.742188 38.738281 0 21.363281 17.375 38.742187 38.742188 38.742187 21.359375 0 38.738281-17.378906 38.738281-38.742187 0-21.359375-17.378906-38.738281-38.738281-38.738281zm0 52.398437c-7.535156 0-13.664062-6.125-13.664062-13.660156 0-7.527344 6.128906-13.660157 13.664062-13.660157 7.527344 0 13.660156 6.132813 13.660156 13.660157 0 7.535156-6.132812 13.660156-13.660156 13.660156zm0 0"/><path d="m541.289062 422.15625c-6.324218-2.832031-13.738281.003906-16.570312 6.328125-36.171875 80.859375-116.773438 133.105469-205.328125 133.105469-123.96875 0-224.820313-100.851563-224.820313-224.816406v-22.296876c20.203126-5.515624 35.101563-24.023437 35.101563-45.953124 0-26.273438-21.375-47.644532-47.640625-47.644532-26.273438 0-47.644531 21.371094-47.644531 47.644532 0 21.929687 14.902343 40.4375 35.105469 45.957031v22.292969c0 137.796874 112.101562 249.902343 249.898437 249.902343 98.433594 0 188.015625-58.078125 228.222656-147.949219 2.828125-6.324218-.003906-13.742187-6.324219-16.570312-6.324218-2.832031 6.320313 2.828125 0 0zm-481.820312-153.632812c0-12.441407 10.121094-22.566407 22.5625-22.566407s22.5625 10.125 22.5625 22.566407c0 12.441406-10.121094 22.5625-22.5625 22.5625s-22.5625-10.121094-22.5625-22.5625zm0 0"/><path d="m556.753906 220.878906c-26.273437 0-47.648437 21.375-47.648437 47.644532 0 20.421874 12.917969 37.878906 31.015625 44.644531v23.566406c0 16.101563 25.078125 16.125 25.078125 0v-21.332031c22.253906-4 39.195312-23.488282 39.195312-46.878906 0-26.269532-21.375-47.644532-47.640625-47.644532zm0 70.207032c-12.441406 0-22.566406-10.121094-22.566406-22.5625 0-12.441407 10.125-22.566407 22.566406-22.566407s22.5625 10.125 22.5625 22.566407c0 12.441406-10.121094 22.5625-22.5625 22.5625zm0 0"/><path d="m552.652344 373.726562c-6.8125 0-12.539063 5.726563-12.539063 12.539063 0 6.816406 5.726563 12.539063 12.539063 12.539063 6.625.003906 12.222656-5.390626 12.515625-11.988282.3125-7.019531-5.476563-13.089844-12.515625-13.089844zm0 0"/></svg>