<svg xmlns="http://www.w3.org/2000/svg" viewBox="0 0 300 300"><defs><style>.cls-1,.cls-5{fill:#b8b8b8;}.cls-1,.cls-2{fill-rule:evenodd;}.cls-2,.cls-4{fill:#878787;}.cls-3{fill:#fff;}.cls-6{fill:none;}</style></defs><title>logo3</title><g id="Layer_2" data-name="Layer 2"><g id="Layer_1-2" data-name="Layer 1"><path class="cls-1" d="M62.27,143.58s35.11-42.1,141-42.1l-2.59,18.33C141.64,110.54,97,121,63.77,144.36Z"/><path class="cls-2" d="M254.13,152.19a23.88,23.88,0,0,0-12.95.49l-.66-.7a13,13,0,0,0-7.74-4.37,9.48,9.48,0,0,0-3.65,0s-35.92-6.08-35.87-5.12l-.53,4.14c-2.79-2.88-6.85-4.71-12-5.07-6.78-.44-12.11,1.51-15.79,4.76l-.35-19-20.41.34.15,12.5a18.42,18.42,0,0,0-3.65-.3,16.82,16.82,0,0,0-10.51,3.54,13.05,13.05,0,0,0-8.19-2,9.85,9.85,0,0,0-3.53.95L99.33,144l.43,4.64A23.1,23.1,0,0,0,83,145.19c-9.79,1.66-19.36,9.69-17.18,21.5a5.14,5.14,0,0,1,.13,1.59,24.24,24.24,0,0,1-5.25,2.12c-4.07,1-7.8-.17-9.19-5.17-1.5-5.35,1.27-8,4.69-8.89a28,28,0,0,1,5.23-.8l4.09.1,2.18-15.43-4.44-.66a35.85,35.85,0,0,0-12.18.78c-14.75,3.79-24.5,15.74-20.56,29.83,4.21,15.1,19.84,20.23,34.19,16.54A33.85,33.85,0,0,0,75,182l2-1.37a23,23,0,0,0,12.77,1.27,22.24,22.24,0,0,0,12.51-6.28l.38,4.2L123,178.11l-1.44-16a6.87,6.87,0,0,1,.3-2.32,3.23,3.23,0,0,1,.61-.12,4,4,0,0,1,1,0c.59,7.83,5.41,17.67,17.49,17.48a15.44,15.44,0,0,0,4.44-.74l20.08-.34,0-2.49a20.1,20.1,0,0,0,12,5.13,50.38,50.38,0,0,0,11.26-.52l17.47,2.05,17.74,3,2.89-15.79a6.65,6.65,0,0,1,.94-2.15,3.51,3.51,0,0,1,.63.05,5.87,5.87,0,0,1,.84.19c-2.49,10.57,4.11,20,15.53,22.8,11.65,2.78,22.26-2.81,25.06-13.57C272.81,163.15,263.77,154.51,254.13,152.19Z"/><path class="cls-3" d="M84.41,147.39a21.72,21.72,0,0,0-2.57.24c-5.53,1-10.45,4.15-12.59,8.79a12.61,12.61,0,0,0-.91,7.66,15.57,15.57,0,0,0,.91,3c2.36,5.74,8,9.2,15.16,8.86A20.12,20.12,0,0,0,87,175.7c9.56-1.61,14.92-8.76,13.4-17.06C99,150.85,91.77,147.07,84.41,147.39Zm1.7,23.55a3.2,3.2,0,0,1-1.7-.15c-2.64-.93-4.09-5.12-4.75-8.64-.74-4-.58-9.13,3-9.74a3.71,3.71,0,0,1,1.7.13c2.56.83,4.06,4.68,4.67,8C89.86,164.79,89.84,170.3,86.11,170.94Z"/><path class="cls-3" d="M126.16,145.53l-.08-.05a8.57,8.57,0,0,0-5.68-1.56c-4.12.37-5,4.74-5.38,6l-.77,2.25-.63-7-11.27,1,2.46,27.06,11.27-.92-1-11.6c-.51-5.54,2.49-7,5.08-7.2a9.39,9.39,0,0,1,3.27.27l2.69-8Z"/><path class="cls-3" d="M66.18,170.25a28.14,28.14,0,0,1-6.27,2.52c-6,1.56-12.61-.47-14.79-8.28-2.21-8,2.41-12.83,7.92-14.27a32.31,32.31,0,0,1,6.54-.95l1-7.25a32.36,32.36,0,0,0-10.3.68c-10.69,2.76-17.62,10-18,18.67V163a17.46,17.46,0,0,0,.69,4.18c3.34,12,15.83,16.69,28.57,13.42a30.3,30.3,0,0,0,7.69-3.3c.41-.24.76-.48,1.1-.7l-1.1-1.69Z"/><path class="cls-3" d="M251.08,154.59a22.61,22.61,0,0,0-3.53-.52c-5.76-.31-11.42,1.88-14.29,6.76a12.94,12.94,0,0,0-1.44,3.49,13.61,13.61,0,0,0,1.44,10.74c2.06,3.39,5.74,6,10.64,7.18a21.69,21.69,0,0,0,3.65.56c7.79.49,14-3.81,15.84-10.91C265.62,163.35,259.15,156.54,251.08,154.59Zm1.17,14.61c-.84,3.18-2.39,6.86-4.7,8.06a3.61,3.61,0,0,1-2.44.29c-3.67-.9-3.22-6.39-2.15-10.57.78-3,2.31-6.39,4.59-7.46a3.47,3.47,0,0,1,2.31-.22C253.44,160.15,253.26,165.28,252.25,169.2Z"/><path class="cls-3" d="M235.17,153a11.4,11.4,0,0,0-1.91-1.7,8.33,8.33,0,0,0-3.22-1.27c-4.09-.69-6.09,3.34-6.8,4.44l-1.35,2,1.27-6.91L212,147.66l-4.92,26.79,11.16,1.88,2.08-11.44c1-5.47,4.29-6.13,6.86-5.69a8.21,8.21,0,0,1,3.09,1.07l3-4.39Z"/><path class="cls-3" d="M178.42,144.09l-.87,0c-10.15-.32-15.5,6.1-16,12.64-.58,8,6.09,15.23,14.24,15.79.56,0,1.14.07,1.75.07a31.5,31.5,0,0,0,12.11-2L187,164.81a15.58,15.58,0,0,1-7.54,1.44,8.67,8.67,0,0,1-1.88-.36,6,6,0,0,1-4.26-6.52l4.26.29,12.85.86C192,151.07,187.53,144.73,178.42,144.09Zm2.84,11.18-3.71-.24-3.8-.27c0-4.2,1.57-6.18,3.8-6.18h.26C180.47,148.78,181.84,150.83,181.26,155.27Z"/><path class="cls-3" d="M146.84,130.13,147,145.7a8.76,8.76,0,0,0-4.34-2.78,12.94,12.94,0,0,0-3.85-.51c-8.61.14-12.19,7.08-12.72,12.49a11.77,11.77,0,0,0,0,1.66c0,.44,0,.88,0,1.35.59,6.63,4.49,13.15,12.82,13a10.74,10.74,0,0,0,3.75-.73,15.19,15.19,0,0,0,4.83-3.32l.05,3.25,11.32-.17-.72-40Zm-3.91,35.24h-.28c-2.74-.19-4.59-3.63-4.69-8.68-.08-5.33,1.72-8.47,4.44-8.52l.25,0c3,.12,4.55,3.57,4.65,8.52C147.38,161.15,146,165.33,142.93,165.37Z"/><polygon class="cls-3" points="191.84 172.52 203.09 173.87 206.54 146.88 195.29 145.53 191.84 172.52"/><path class="cls-2" d="M248.62,124.74a3.58,3.58,0,1,0-6.16,2.48,3.59,3.59,0,1,0,5.15,0A3.59,3.59,0,0,0,248.62,124.74Z"/><path class="cls-2" d="M242,133c1.87.13,3.51.69,5-.33,1.25-.86-.56-4.61-1.93-5.27.2-.72,4.84-6.28.66-6.28L205.88,120l4.93-23.84c.53-2.27-.54-4.52-3.23-4.36H197.14a3.24,3.24,0,1,0,0,6.47h5.09l-1.88,9.11-4.24,20.52a3.18,3.18,0,0,0,2.25,3.88L198,132c-3.57,2.64-6,7.91-2.1,11.42,2.23,2,5.56,2.15,8.2,1.52a14.57,14.57,0,0,0,4.67-2.22c3.17-2.4,5.45-6.86,3.09-10.3l11.47.34,7,.22-.25.19c-2.87,2.39-4.87,7.08-1.29,10.11,2,1.66,4.77,1.7,6.92,1.17a11.8,11.8,0,0,0,4.19-2.13C242.55,140.16,244.51,136,242,133Z"/><path class="cls-4" d="M246.5,121.16H245l-2.27,1.51h.53a3.56,3.56,0,0,0,2.88,5.68,3.7,3.7,0,0,0,3.57-3.58A3.23,3.23,0,0,0,246.5,121.16Z"/><path class="cls-3" d="M244.72,128.57l-9.71-.39h-.2l-31.45-1-.2,0-1.29,0,.48-2.37L245.8,126a1.49,1.49,0,0,0,1.63-1.34c.1-.74-.46-1.32-1.34-1.34l-43.23-1.08.17-.9.33-1.54,1.21-5.73,2.73-13.33,1.13-5.39c.18-.75-.21-1.34-1.25-1.51l-10-.11a1.2,1.2,0,0,0-1.22,1.2,1.18,1.18,0,0,0,1.18,1.18s8.11,0,8.11,0l-1.87,9-.55,2.68-4.24,20.55c-.18.73.25,1.22,1.42,1.32l3.2.1h.17l31.5.95H235l9.43.41C246.57,131.18,246.72,128.64,244.72,128.57Z"/><path class="cls-3" d="M239.53,134.07a5.18,5.18,0,0,0-4.52-.69l-.13,0a9.87,9.87,0,0,0-3.17,1.63c-2.51,2.1-3.07,5-1.29,6.47a5.27,5.27,0,0,0,4.59.68l.05,0a9.41,9.41,0,0,0,3.25-1.64C240.82,138.43,241.38,135.58,239.53,134.07Zm-3,5a4.15,4.15,0,0,1-1.5.9v0a2.89,2.89,0,0,1-2.79.07c-.86-.73-.28-2.32,1.22-3.56a6.14,6.14,0,0,1,1.5-.91l.07,0a2.79,2.79,0,0,1,2.77,0C238.64,136.24,238.08,137.77,236.51,139.07Z"/><path class="cls-3" d="M203.36,132.11l-.12,0a10.65,10.65,0,0,0-3.74,1.8c-3.17,2.35-4,5.86-1.92,7.76,1.34,1.23,3.57,1.49,5.78,1l.08,0a11.44,11.44,0,0,0,3.78-1.81c3.17-2.39,4-5.86,1.93-7.76C207.81,131.87,205.62,131.6,203.36,132.11Zm1.83,6.88a10.82,10.82,0,0,1-1.8,1h0c-1.44.61-2.81.63-3.5,0-1-.88-.23-2.78,1.68-4.27a13.19,13.19,0,0,1,1.75-1l.07,0c1.47-.59,2.85-.61,3.51,0C207.86,135.65,207.09,137.56,205.19,139Z"/><path class="cls-1" d="M243.62,119l-35-1L212,102l29.1.48a4.19,4.19,0,0,1,4.14,4.61Z"/><path class="cls-5" d="M86.07,192h5.36l2.62,16H89.74l-.44-3.42H83.09L81.16,208H76.69Zm2.13,3.3h0l-3.39,6.26h4.12Z"/><path class="cls-5" d="M101.25,195.4h-6L94.64,192h18.94l-2,3.43h-6L102.89,208H98.56Z"/><path class="cls-5" d="M117.24,192h5.36l2.61,16h-4.3l-.44-3.42h-6.21l-1.9,3.42h-4.63Zm2.13,3.3h-.05l-3.39,6.26h4.13Z"/><path class="cls-5" d="M142.3,195.82a7.54,7.54,0,0,0-4-1c-4.28,0-6,3-6,6,0,2.84,1.81,4.17,4.38,4.17a9,9,0,0,0,4.05-.89l-.46,3.43a15.2,15.2,0,0,1-4.26.62c-5.15,0-8.11-3.05-8.11-7.44,0-5.32,3.74-9.1,9.74-9.1a15.8,15.8,0,0,1,5.66.85Z"/><path class="cls-5" d="M152,192h5.37L160,208h-4.31l-.43-3.42H149L147.11,208h-4.62Zm2.14,3.3h0l-3.39,6.26h4.12Z"/><path class="cls-5" d="M166.69,192h5.11c3,0,6.71.12,6.71,4.08,0,2.82-2.2,3.81-4.65,4.1v0c1.26.11,1.67,1.81,1.9,2.84l1.15,4.93h-4.27l-.82-4.08c-.41-2.09-.55-2.25-2.48-2.25h-.45L167.6,208h-4.28Zm2.81,6.65H171c1.85,0,3.3-.46,3.3-2,0-1.15-.69-1.63-2-1.65h-2Z"/><path class="cls-5" d="M183.76,192H195l-.62,3h-7l-.74,3.3h6.67l-.66,3H186l-.66,2.93h7.31l-.74,3.72H180.32Z"/><path class="cls-5" d="M204.59,202c-.62,2.85-1,5.11-3.73,6a10.48,10.48,0,0,1-2.8.3,11.91,11.91,0,0,1-3.12-.52l.88-3.47a4.52,4.52,0,0,0,1.92.42c2.2,0,2.47-2.29,2.82-3.92l1.88-8.78h4.33Z"/><path class="cls-5" d="M215.06,208.24c-5.2,0-7.11-3.23-7.11-6.51,0-6.07,3.19-10,9.35-10,5.2,0,7.11,3.23,7.11,6.53C224.41,204.28,221.22,208.24,215.06,208.24Zm2-13.38c-3.3,0-4.68,3.83-4.68,6.53,0,2,.76,3.69,3,3.69,3.3,0,4.68-3.83,4.68-6.51C220,196.56,219.25,194.86,217,194.86Z"/><rect class="cls-6" width="300" height="300"/></g></g></svg>