<svg xmlns="http://www.w3.org/2000/svg" viewBox="0 0 300 300"><defs><style>.cls-1,.cls-2{fill:#9b9b9b;}.cls-2{fill-rule:evenodd;}.cls-3{fill:#d3d3d3;}.cls-4{fill:none;}</style></defs><title>logo14</title><g id="Layer_2" data-name="Layer 2"><g id="Layer_1-2" data-name="Layer 1"><path class="cls-1" d="M55.45,182.15a2.44,2.44,0,0,1-1.74-.69A2.35,2.35,0,0,1,53,179.7a2.43,2.43,0,0,1,2.45-2.48,2.45,2.45,0,0,1,1.77.71A2.35,2.35,0,0,1,58,179.7a2.31,2.31,0,0,1-.74,1.73,2.38,2.38,0,0,1-1.77.72Zm1.86,23.1c0,2.18.83,3.27,2.52,3.27a6.3,6.3,0,0,0,1.82-.25v3.42a9.2,9.2,0,0,1-1.17.22A10.59,10.59,0,0,1,59,212a6.1,6.1,0,0,1-2.14-.37,4.73,4.73,0,0,1-1.72-1.13,5.63,5.63,0,0,1-1.16-1.92,7.49,7.49,0,0,1-.42-2.67V188.17h3.8Z"/><path class="cls-1" d="M85.46,211.88h-3.8V198.35q0-7.54-5.51-7.54A6,6,0,0,0,71.44,193a7.87,7.87,0,0,0-1.86,5.39v13.53h-3.8V188.17h3.8v3.94h.1a8.52,8.52,0,0,1,7.77-4.49,7.25,7.25,0,0,1,6,2.52c1.38,1.66,2.06,4.09,2.06,7.25Z"/><path class="cls-1" d="M103.62,211.65a7.43,7.43,0,0,1-3.55.74c-4.16,0-6.23-2.33-6.23-6.95v-14H89.77v-3.24h4.07v-5.78l3.8-1.24v7h6v3.24h-6v13.37a5.43,5.43,0,0,0,.82,3.4,3.23,3.23,0,0,0,2.68,1,4,4,0,0,0,2.48-.78Z"/><path class="cls-1" d="M127.36,201H110.62a8.84,8.84,0,0,0,2.14,6.12,7.33,7.33,0,0,0,5.6,2.14,11.63,11.63,0,0,0,7.36-2.63v3.57a13.77,13.77,0,0,1-8.26,2.26,10.08,10.08,0,0,1-7.9-3.22q-2.88-3.24-2.88-9.09a13,13,0,0,1,3.15-9,10.06,10.06,0,0,1,7.78-3.48,9,9,0,0,1,7.21,3c1.69,2,2.54,4.79,2.54,8.35Zm-3.89-3.21a7.82,7.82,0,0,0-1.58-5.13,5.42,5.42,0,0,0-4.34-1.82,6.12,6.12,0,0,0-4.56,1.92,8.7,8.7,0,0,0-2.33,5Z"/><path class="cls-1" d="M145.47,192a4.63,4.63,0,0,0-2.87-.77,4.88,4.88,0,0,0-4.07,2.29,10.68,10.68,0,0,0-1.63,6.25v12.09h-3.8V188.17h3.8v4.89h.1a8.32,8.32,0,0,1,2.47-3.91,5.69,5.69,0,0,1,3.74-1.4,6.09,6.09,0,0,1,2.26.33Z"/><path class="cls-1" d="M175.8,211.88h-4.31L168,202.57H153.89l-3.3,9.31h-4.33L159,178.68h4Zm-9.11-12.81-5.21-14.14a13.86,13.86,0,0,1-.5-2.22h-.09a13,13,0,0,1-.53,2.22l-5.17,14.14Z"/><path class="cls-1" d="M204.87,209.61a22.19,22.19,0,0,1-11.11,2.82,15.15,15.15,0,0,1-11.49-4.59q-4.4-4.58-4.4-12.12a17.29,17.29,0,0,1,4.88-12.65,16.61,16.61,0,0,1,12.35-4.95,21.06,21.06,0,0,1,9.1,1.76v4.31a17.43,17.43,0,0,0-9.54-2.55,12,12,0,0,0-9.15,3.84,14.08,14.08,0,0,0-3.55,10c0,4.19,1.1,7.5,3.3,9.9a11.65,11.65,0,0,0,9,3.6,14,14,0,0,0,6.73-1.55v-9.31h-7.27v-3.51h11.16Z"/><rect class="cls-1" x="212.58" y="178.68" width="3.89" height="33.19"/><path class="cls-1" d="M249,211.88h-4.62l-5.57-9.31a20.32,20.32,0,0,0-1.48-2.22,8.58,8.58,0,0,0-1.47-1.48,5,5,0,0,0-1.62-.85,6.94,6.94,0,0,0-2-.26h-3.19v14.12H225.2v-33.2h9.91a13.84,13.84,0,0,1,4,.55,8.92,8.92,0,0,1,3.2,1.65,7.71,7.71,0,0,1,2.11,2.76,9.06,9.06,0,0,1,.77,3.89,9.26,9.26,0,0,1-.52,3.18,8.47,8.47,0,0,1-1.48,2.58,8.94,8.94,0,0,1-2.32,1.93,12,12,0,0,1-3,1.25v.08a6.6,6.6,0,0,1,1.46.85,8.12,8.12,0,0,1,1.16,1.12,14.08,14.08,0,0,1,1.11,1.47c.36.55.76,1.18,1.2,1.91Zm-19.91-29.69v12.06h5.28a8,8,0,0,0,2.69-.45,6.25,6.25,0,0,0,2.15-1.27,5.61,5.61,0,0,0,1.41-2,6.69,6.69,0,0,0,.5-2.67,5.17,5.17,0,0,0-1.72-4.15,7.3,7.3,0,0,0-5-1.51Z"/><path class="cls-2" d="M145.86,82.56a41.64,41.64,0,1,1-41.64,41.64,41.63,41.63,0,0,1,41.64-41.64Zm-12.61,39.83c3-5.31-9.23-10.45-5.76-2.58,2,4.36-1.25,3.1-6.7-.09l-1.23-.83c1.44,7,1.81,11.25-1.93,7.64-6.33-5.91-5.64,7.16.49,6.19,3-.41,5.33,10.88,1.44,15.2a8.49,8.49,0,0,1-1.13.9s3.58,1.73,6.59,2.93,5.3,1.86,4-1.22c-3.58-8,8.66-3.18,5.74,2.09a2.11,2.11,0,0,0,.64,3.24,19.87,19.87,0,0,0,3.7,1.62c2.45.85,4.61,1.77,5.64,2.06h0c-3.15-3.52-4.77-20.34-.32-16.23,6.42,6.06,6-6.88,0-6-3.54.64-3.53-3.43-2.65-9.43-2.46-.58-10.42-1.86-8.44-5.49Zm7-29.22c-4.9,2-8.33,3.68-7.11.83,2.84-5.65-6.92-4-3.73.83,1.75,2.61-1.55,2.79-6.58,2.87-.74,5.15-.67,7.63,1.79,5.59,2.39-1.76,3.9-.09,4,1.92s-1.22,4.6-3.89,3.76-2.28,4.5-1.49,7.38a23.38,23.38,0,0,0,4.27-.74c2.54-.66,2.8-1.56,1.78-3.21-1.5-2.34.59-4.28,2.77-4.64,2-.33,4,.73,2.88,3.39-.42.91-.54,1.5-.38,1.84.43.84,2.67,0,6.21-1.41.83-5.13.32-8-1.76-6.24s-3.72.69-4.14-1c-.54-2.13.49-5.57,3.36-4.7,3,1,3.14-1.69,2-6.48Zm9.35.57c4,1.7,6.39,2.06,5.15-.62-2.68-5.63,6.25-3.79,4.17.74-1.21,2.46,1.18,3,5.08,3.14l.9-.07c-.67,4.76-.49,7.92,1.77,7.11,4.43-1.7,5.06,8.31.41,4.72-2.75-2.23-2.06,1.91-.94,7.14a30.2,30.2,0,0,1-4.16-1c-1.43-.46-2.94-1.41-2.25-3,2.14-4.58-7.09-6.72-4.49-1.17,1.52,3.09-1.19,3-5.24,1.36l-.84-.3c.59-4.85,1.12-8.43-1.46-7.37-4.37,1.61-4.79-8.34-.08-4.64,2.4,1.83,2.25-1.33,1.05-6.5Zm-.35,35.81c6.52-1.42,10.7-3.18,9-5.81-3.43-5.12,9.75-10.82,6.18-2.85-2.25,4.75,2,2.75,8.66-1.26,1.12,6,1.25,10-2.63,9.56-6.59-.56-6.69,12.28.12,5.95,3.31-3,4.86,6.51.94,14.57-.37.76-.23.83-1,1.36a18.73,18.73,0,0,1-2.38,1.27,17.52,17.52,0,0,1-2.68,1.2c-2.29.85-3,.22-1.89-2.36,3.69-8.1-9.14-2.17-5.83,2.91,1,1.4.91,2.06-.32,2.83a25.33,25.33,0,0,1-2.72,1.39,33.51,33.51,0,0,1-3.92,1.51.69.69,0,0,1-.77-.2c-4.12-5.18-2.23-16.63,1.11-16.37,6.67.65,7.09-12.33.37-6.15-4,3.77-3.67-.51-2.28-7.55Z"/><path class="cls-3" d="M136.66,93.62c.76,0,1.52,0,2.26.1-4.18,1.75-6.92,2.88-5.8.29a.49.49,0,0,1,.08-.18,26.25,26.25,0,0,1,3.46-.21Zm3.74.24a28.5,28.5,0,0,1,8.89,2.69c0,.24.07.47.1.69a29.38,29.38,0,0,0-8.48.19,20.39,20.39,0,0,0-.51-3.57ZM128,103.27a28.53,28.53,0,0,0-10.17,16.51A38.55,38.55,0,0,1,109,115a28.68,28.68,0,0,1,20.28-20.37c0,.08.1.15.15.24,1.75,2.6-1.55,2.78-6.58,2.86-.74,5.17-.68,7.63,1.79,5.6,1.51-1.1,2.67-.85,3.35,0Zm-10.77,22.86c-5.81-4.84-5.05,7.44.87,6.6a28.87,28.87,0,0,0,3.54,8.23,12.78,12.78,0,0,1-.86,5.08A28.6,28.6,0,0,1,108,122.25a27.41,27.41,0,0,1,.23-3.65,43,43,0,0,0,9,4.8h0c-.05.73-.09,1.49-.09,2.24,0,.17,0,.33,0,.49Zm11.47,23.61a6,6,0,0,1-.32-1.41,28.55,28.55,0,0,0,3.08,2.07,27.74,27.74,0,0,1-2.76-.66Z"/><path class="cls-3" d="M95,219.49a1.28,1.28,0,0,1,1,.44,1.59,1.59,0,0,1,.41.84,4,4,0,0,1-.26,2,6.21,6.21,0,0,1-1,1.75c-.29.33-.53.5-.72.5a.57.57,0,0,1-.39-.2.5.5,0,0,1-.16-.3c0-.22.11-.46.43-.74a4.22,4.22,0,0,0,1-1.27,2.84,2.84,0,0,0,.4-1.7.69.69,0,0,0-.2-.42.57.57,0,0,0-.38-.14,2.25,2.25,0,0,0-1.3.73,11.66,11.66,0,0,0-1.85,2.24,12.57,12.57,0,0,0-1.67,3.54,7,7,0,0,0-.3,3.07,1.83,1.83,0,0,0,.53,1,1.37,1.37,0,0,0,1,.48c.65,0,1.39-.5,2.21-1.53a11.13,11.13,0,0,0,.87-1.35,5.67,5.67,0,0,0,.4-.8c.06-.18.15-.27.28-.27a.22.22,0,0,1,.23.19,4.36,4.36,0,0,1-.72,1.85,6.6,6.6,0,0,1-1.55,1.94,3.12,3.12,0,0,1-2,.86,2.23,2.23,0,0,1-1.81-1,3.08,3.08,0,0,1-.6-1.4,9,9,0,0,1,1-5,14.91,14.91,0,0,1,2.67-4.11A3.59,3.59,0,0,1,95,219.49Z"/><path class="cls-3" d="M99.67,229.81a7.08,7.08,0,0,1-.55.87,1.18,1.18,0,0,1-1,.58.94.94,0,0,1-.75-.39,1.6,1.6,0,0,1-.29-.68,4.56,4.56,0,0,1,.56-2.69,3.64,3.64,0,0,1,.75-1.08.81.81,0,0,1,.53-.31.42.42,0,0,1,.26.11.42.42,0,0,1,.12.21c0,.12-.06.3-.24.56a7.72,7.72,0,0,0-.88,1.66A2.85,2.85,0,0,0,98,230a.25.25,0,0,0,.09.19.19.19,0,0,0,.17.08c.32,0,.68-.45,1.08-1.34a6.85,6.85,0,0,0,.48-1.53,2.89,2.89,0,0,1,.3-.81.54.54,0,0,1,.45-.31.34.34,0,0,1,.25.11.47.47,0,0,1,.17.28,3.8,3.8,0,0,1-.39,1.48,2.82,2.82,0,0,0-.21,1.32,2,2,0,0,0,.46,1,2.18,2.18,0,0,0,.56.35.5.5,0,0,1,.26.39.3.3,0,0,1-.09.28.42.42,0,0,1-.32.12,1.34,1.34,0,0,1-.89-.37,2.11,2.11,0,0,1-.59-.94c0-.07-.05-.22-.12-.48Z"/><path class="cls-3" d="M104.52,225.74a.41.41,0,0,1,.28.12.45.45,0,0,1,.1.21,1,1,0,0,1-.18.54,14.44,14.44,0,0,0-.94,2.41,18.35,18.35,0,0,0-.43,2c0,.31-.18.45-.38.45a.39.39,0,0,1-.31-.14.56.56,0,0,1-.15-.25,8.81,8.81,0,0,1,.29-1.83,10.44,10.44,0,0,1,1-2.7,3.09,3.09,0,0,1,.39-.64.37.37,0,0,1,.3-.18Zm1.17-3.38a.44.44,0,0,1,.48.43,1.14,1.14,0,0,1-.26.84.87.87,0,0,1-.66.46.46.46,0,0,1-.31-.13.61.61,0,0,1-.15-.3,1.19,1.19,0,0,1,.32-.93.81.81,0,0,1,.58-.37Z"/><path class="cls-3" d="M109.12,225.89c.4-1.26.79-2.37,1.18-3.31a13.62,13.62,0,0,1,.78-1.72c.17-.27.34-.39.52-.39a.37.37,0,0,1,.28.12.47.47,0,0,1,.16.25,1.52,1.52,0,0,1-.2.7,44.21,44.21,0,0,0-1.71,4.33,8.61,8.61,0,0,0-.67,3.83,1.71,1.71,0,0,0,.34.82,2.42,2.42,0,0,0,.38.29.33.33,0,0,1,.08.18.4.4,0,0,1-.09.33.36.36,0,0,1-.29.15.87.87,0,0,1-.5-.25,1.78,1.78,0,0,1-.58-.83c0-.14-.11-.39-.19-.76-.44,1.15-1,1.73-1.53,1.73a1.08,1.08,0,0,1-.89-.57,1.89,1.89,0,0,1-.34-.84,4.27,4.27,0,0,1,.57-2.86,2.31,2.31,0,0,1,2-1.42,1.39,1.39,0,0,1,.71.22Zm-.19.76a.87.87,0,0,0-.45-.18,1.56,1.56,0,0,0-1.31.94,3.54,3.54,0,0,0-.51,2.36.64.64,0,0,0,.1.26.41.41,0,0,0,.37.23c.21,0,.43-.2.67-.62a9.43,9.43,0,0,0,.82-1.94c.08-.25.16-.51.23-.77l.06-.16Z"/><path class="cls-3" d="M114.42,229.7a4.61,4.61,0,0,1-.44.89,1.24,1.24,0,0,1-1,.71,1,1,0,0,1-.84-.46,1.45,1.45,0,0,1-.29-.71,4.62,4.62,0,0,1,.26-2.24,4.84,4.84,0,0,1,1.38-2.08,1.83,1.83,0,0,1,1.18-.48,1.07,1.07,0,0,1,.69.24.79.79,0,0,1,.29.48,1.3,1.3,0,0,1-.06.55.7.7,0,0,1,.19.34,1.39,1.39,0,0,1-.15.63,5.32,5.32,0,0,0-.33,1.19,3.54,3.54,0,0,0-.07,1.26,1,1,0,0,0,.32.63,4.24,4.24,0,0,0,.41.21.45.45,0,0,1,.29.38.32.32,0,0,1-.07.28.45.45,0,0,1-.31.12,1.27,1.27,0,0,1-.92-.45,1.48,1.48,0,0,1-.44-.88,4.72,4.72,0,0,1-.07-.61Zm.65-3a1,1,0,0,0-.29-.29.44.44,0,0,0-.28-.09c-.46,0-.91.39-1.31,1.21a3.87,3.87,0,0,0-.53,2.27.71.71,0,0,0,.15.35.38.38,0,0,0,.28.12q.43,0,.87-.93a14.94,14.94,0,0,0,.57-1.51,5.46,5.46,0,0,1,.32-.86,1.07,1.07,0,0,1,.22-.27Z"/><path class="cls-3" d="M118.83,228.08l.19-.21c1.06-1.24,1.81-1.87,2.23-1.87.24,0,.38.13.42.4a.91.91,0,0,1-.21.64,5.08,5.08,0,0,0-1.15,3.58,2.23,2.23,0,0,0,.43,1,.89.89,0,0,1,.19.33.27.27,0,0,1-.08.21.33.33,0,0,1-.26.13.92.92,0,0,1-.7-.48,2.62,2.62,0,0,1-.43-1.09,4.73,4.73,0,0,1,.47-2.71,5.78,5.78,0,0,0-1.83,2.8q-.19.48-.51.48a.35.35,0,0,1-.27-.11.55.55,0,0,1-.19-.33,8.21,8.21,0,0,1,.7-2.58c.28-.74.51-1.3.68-1.63s.35-.51.51-.51a.37.37,0,0,1,.25.12.51.51,0,0,1,.18.29,1,1,0,0,1-.17.57,10,10,0,0,0-.45,1Z"/><path class="cls-3" d="M126.07,225.89c.4-1.26.79-2.37,1.18-3.31a13.62,13.62,0,0,1,.78-1.72c.17-.27.34-.39.52-.39a.37.37,0,0,1,.28.12.4.4,0,0,1,.15.25,1.36,1.36,0,0,1-.19.7c-.65,1.42-1.22,2.87-1.72,4.33a8.72,8.72,0,0,0-.66,3.83,1.82,1.82,0,0,0,.34.82,2.12,2.12,0,0,0,.37.29s.07.08.09.18a.44.44,0,0,1-.09.33.35.35,0,0,1-.29.15.87.87,0,0,1-.5-.25,1.78,1.78,0,0,1-.58-.83c0-.14-.1-.39-.19-.76-.45,1.15-1,1.73-1.54,1.73a1.11,1.11,0,0,1-.89-.57,1.88,1.88,0,0,1-.33-.84,4.33,4.33,0,0,1,.57-2.86,2.31,2.31,0,0,1,2-1.42,1.45,1.45,0,0,1,.71.22Zm-.18.76a.93.93,0,0,0-.47-.18,1.54,1.54,0,0,0-1.29.94,3.49,3.49,0,0,0-.52,2.36.8.8,0,0,0,.09.26.42.42,0,0,0,.37.23c.22,0,.44-.2.68-.62a9.43,9.43,0,0,0,.82-1.94c.08-.25.16-.51.23-.77a1.66,1.66,0,0,0,0-.16Z"/><path class="cls-3" d="M131.48,225.33c.49,0,.79.3.89.91a5.69,5.69,0,0,1-.61,3.07c-.6,1.34-1.27,2-2,2a1,1,0,0,1-.85-.49,1.39,1.39,0,0,1-.22-.59,4.57,4.57,0,0,1,.38-2.53,4.85,4.85,0,0,1,1.42-2,1.67,1.67,0,0,1,1-.41Zm-.38,3.45c-.17-.13-.26-.23-.27-.29s.07-.18.22-.4a2.11,2.11,0,0,0,.57-1.49.29.29,0,0,0-.06-.15.3.3,0,0,0-.25-.12c-.19,0-.45.18-.76.56a4.72,4.72,0,0,0-.87,1.5,3,3,0,0,0-.2,1.46.46.46,0,0,0,.13.28.41.41,0,0,0,.32.17c.29,0,.57-.23.83-.66a2.12,2.12,0,0,0,.27-.57,1.62,1.62,0,0,0,.07-.29Z"/><path class="cls-3" d="M141.57,225.89c.39-1.26.79-2.37,1.18-3.31a12.25,12.25,0,0,1,.78-1.72c.16-.27.34-.39.51-.39a.38.38,0,0,1,.29.12.44.44,0,0,1,.15.25,1.4,1.4,0,0,1-.2.7c-.64,1.42-1.21,2.87-1.71,4.33a8.72,8.72,0,0,0-.66,3.83,1.62,1.62,0,0,0,.34.82,1.75,1.75,0,0,0,.37.29.27.27,0,0,1,.09.18.44.44,0,0,1-.09.33.36.36,0,0,1-.29.15.89.89,0,0,1-.51-.25,1.85,1.85,0,0,1-.58-.83c0-.14-.1-.39-.18-.76-.45,1.15-1,1.73-1.54,1.73a1.1,1.1,0,0,1-.89-.57,1.77,1.77,0,0,1-.33-.84,4.27,4.27,0,0,1,.57-2.86,2.3,2.3,0,0,1,2-1.42,1.45,1.45,0,0,1,.71.22Zm-.19.76a.87.87,0,0,0-.46-.18,1.55,1.55,0,0,0-1.3.94,3.48,3.48,0,0,0-.51,2.36.62.62,0,0,0,.09.26.42.42,0,0,0,.37.23c.22,0,.44-.2.68-.62a10,10,0,0,0,.82-1.94c.08-.25.15-.51.23-.77a.93.93,0,0,0,0-.16Z"/><path class="cls-3" d="M146.87,229.7a4.59,4.59,0,0,1-.45.89,1.24,1.24,0,0,1-1,.71,1.06,1.06,0,0,1-.85-.46,1.67,1.67,0,0,1-.29-.71,4.52,4.52,0,0,1,.27-2.24,4.74,4.74,0,0,1,1.37-2.08,1.88,1.88,0,0,1,1.19-.48,1,1,0,0,1,.68.24.76.76,0,0,1,.3.48,1.34,1.34,0,0,1-.07.55.73.73,0,0,1,.2.34,1.31,1.31,0,0,1-.16.63,6,6,0,0,0-.32,1.19,3.59,3.59,0,0,0-.08,1.26,1.08,1.08,0,0,0,.33.63,3.63,3.63,0,0,0,.4.21.45.45,0,0,1,.3.38.3.3,0,0,1-.08.28.41.41,0,0,1-.3.12,1.29,1.29,0,0,1-.93-.45,1.61,1.61,0,0,1-.44-.88c0-.13,0-.34-.06-.61Zm.65-3a1.13,1.13,0,0,0-.29-.29.46.46,0,0,0-.28-.09c-.47,0-.91.39-1.31,1.21a3.87,3.87,0,0,0-.53,2.27.71.71,0,0,0,.15.35.37.37,0,0,0,.28.12c.29,0,.58-.31.86-.93a12.84,12.84,0,0,0,.57-1.51,5.18,5.18,0,0,1,.33-.86,1.07,1.07,0,0,1,.22-.27Z"/><path class="cls-3" d="M157.94,225.16a1.51,1.51,0,0,1,.87.21.85.85,0,0,1,.39.61A1.56,1.56,0,0,1,159,227a2.08,2.08,0,0,1-1,.76,2,2,0,0,1-.68.16.4.4,0,0,1-.44-.34.3.3,0,0,1,.17-.35,3.65,3.65,0,0,1,.59-.16,1.17,1.17,0,0,0,.56-.32.48.48,0,0,0,.17-.45.43.43,0,0,0-.15-.29.59.59,0,0,0-.34-.09,1.88,1.88,0,0,0-1.1.42,1.14,1.14,0,0,0-.54,1.15,2.59,2.59,0,0,0,.67,1.18,3.23,3.23,0,0,1,.75,1.31,1.21,1.21,0,0,1-.51,1.25,1.55,1.55,0,0,1-.94.29,1.82,1.82,0,0,1-1.43-.63,2,2,0,0,1-.49-1.06,1.78,1.78,0,0,1,.16-1.19c.13-.21.27-.32.44-.32a.23.23,0,0,1,.26.19.4.4,0,0,1-.06.22,1.85,1.85,0,0,0,0,.92,1.27,1.27,0,0,0,.44.75,1,1,0,0,0,.69.27.58.58,0,0,0,.52-.23.71.71,0,0,0,.08-.51,2.24,2.24,0,0,0-.6-1,3.43,3.43,0,0,1-.85-1.52,1.68,1.68,0,0,1,.73-1.61,3.06,3.06,0,0,1,1.94-.68Z"/><path class="cls-3" d="M162.62,229.81a7,7,0,0,1-.56.87,1.16,1.16,0,0,1-.94.58.93.93,0,0,1-.76-.39,1.6,1.6,0,0,1-.29-.68,4.5,4.5,0,0,1,.57-2.69,3.83,3.83,0,0,1,.74-1.08.83.83,0,0,1,.54-.31.47.47,0,0,1,.26.11.51.51,0,0,1,.12.21,1.08,1.08,0,0,1-.24.56,7.8,7.8,0,0,0-.89,1.66A3,3,0,0,0,161,230a.33.33,0,0,0,.08.19.24.24,0,0,0,.19.08c.31,0,.66-.45,1.08-1.34a7.41,7.41,0,0,0,.47-1.53,2.89,2.89,0,0,1,.3-.81.55.55,0,0,1,.45-.31.36.36,0,0,1,.26.11.45.45,0,0,1,.16.28,3.91,3.91,0,0,1-.38,1.48,2.48,2.48,0,0,0-.21,1.32,1.8,1.8,0,0,0,.46,1,1.71,1.71,0,0,0,.56.35.5.5,0,0,1,.26.39.3.3,0,0,1-.1.28.44.44,0,0,1-.32.12,1.32,1.32,0,0,1-.88-.37,2,2,0,0,1-.59-.94c0-.07-.06-.22-.12-.48Z"/><path class="cls-3" d="M168.4,229.7a4.61,4.61,0,0,1-.44.89,1.24,1.24,0,0,1-1,.71,1.07,1.07,0,0,1-.85-.46,1.54,1.54,0,0,1-.28-.71,4.5,4.5,0,0,1,.26-2.24,4.75,4.75,0,0,1,1.38-2.08,1.83,1.83,0,0,1,1.18-.48,1.07,1.07,0,0,1,.69.24.79.79,0,0,1,.29.48,1.48,1.48,0,0,1-.06.55.7.7,0,0,1,.19.34,1.39,1.39,0,0,1-.15.63,5.32,5.32,0,0,0-.33,1.19,3.59,3.59,0,0,0-.08,1.26,1.08,1.08,0,0,0,.33.63,4.24,4.24,0,0,0,.41.21.45.45,0,0,1,.29.38.32.32,0,0,1-.07.28.45.45,0,0,1-.31.12,1.27,1.27,0,0,1-.92-.45,1.48,1.48,0,0,1-.44-.88,4.72,4.72,0,0,1-.07-.61Zm.65-3a1,1,0,0,0-.29-.29.44.44,0,0,0-.28-.09c-.46,0-.91.39-1.31,1.21a3.87,3.87,0,0,0-.53,2.27.71.71,0,0,0,.15.35.38.38,0,0,0,.28.12q.44,0,.87-.93a13.15,13.15,0,0,0,.56-1.51,5.18,5.18,0,0,1,.33-.86,1.07,1.07,0,0,1,.22-.27Z"/><path class="cls-3" d="M177.07,226.91A26.45,26.45,0,0,1,179,222a11.49,11.49,0,0,1,1.19-1.86.91.91,0,0,1,.63-.4.28.28,0,0,1,.21.07.34.34,0,0,1,.17.25.88.88,0,0,1-.23.57,21.57,21.57,0,0,0-2.74,5.5,6.16,6.16,0,0,1,2-.55,1.29,1.29,0,0,1,.73.2.77.77,0,0,1,.36.5.35.35,0,0,1-.06.26.34.34,0,0,1-.32.17,1.9,1.9,0,0,1-.66-.25.86.86,0,0,0-.34-.06,3.52,3.52,0,0,0-2,.84,1.92,1.92,0,0,1,.88.67,3.5,3.5,0,0,1,.56,1.45,9.13,9.13,0,0,1-.57,4.71,5.59,5.59,0,0,1-.84,1.6,1.39,1.39,0,0,1-1.08.59,1,1,0,0,1-.81-.44,2,2,0,0,1-.4-1,11.81,11.81,0,0,1,.36-4.06q.08-.33.45-1.68c.07-.22.13-.46.19-.72l-.14,0c-.16,0-.26-.1-.29-.28s.25-.73.92-1.23Zm.51,1.2a29.28,29.28,0,0,0-.83,3.11,9.38,9.38,0,0,0-.31,3.4.94.94,0,0,0,.19.42.44.44,0,0,0,.33.19c.38,0,.77-.64,1.17-1.9a8.18,8.18,0,0,0,.41-3.86,2.13,2.13,0,0,0-.43-1,1.83,1.83,0,0,0-.53-.32Z"/><path class="cls-3" d="M184.29,229.7a4.59,4.59,0,0,1-.45.89,1.24,1.24,0,0,1-1,.71,1.05,1.05,0,0,1-.84-.46,1.67,1.67,0,0,1-.29-.71,4.42,4.42,0,0,1,.28-2.24,4.65,4.65,0,0,1,1.37-2.08,1.86,1.86,0,0,1,1.19-.48,1.07,1.07,0,0,1,.68.24.79.79,0,0,1,.29.48,1.48,1.48,0,0,1-.06.55.79.79,0,0,1,.19.34,1.39,1.39,0,0,1-.15.63,6.56,6.56,0,0,0-.34,1.19,3.54,3.54,0,0,0-.07,1.26,1.14,1.14,0,0,0,.33.63,4.24,4.24,0,0,0,.41.21.45.45,0,0,1,.29.38.3.3,0,0,1-.08.28.41.41,0,0,1-.3.12,1.29,1.29,0,0,1-.93-.45,1.61,1.61,0,0,1-.44-.88c0-.13,0-.34-.06-.61Zm.65-3a1.11,1.11,0,0,0-.28-.29.52.52,0,0,0-.3-.09c-.46,0-.89.39-1.31,1.21a3.83,3.83,0,0,0-.51,2.27.56.56,0,0,0,.13.35.43.43,0,0,0,.29.12q.43,0,.87-.93a13.15,13.15,0,0,0,.56-1.51,8.09,8.09,0,0,1,.33-.86,1.36,1.36,0,0,1,.22-.27Z"/><path class="cls-3" d="M188.56,228.17a10.11,10.11,0,0,1,1.14-1.26q.78-.69,1.08-.69a.45.45,0,0,1,.28.11.39.39,0,0,1,.13.23,1,1,0,0,1-.22.56,4.2,4.2,0,0,0-.52,1Q192.25,226,193,226a.57.57,0,0,1,.3.1.42.42,0,0,1,.17.28.87.87,0,0,1-.29.65c-1,1.19-1.38,2.16-1.25,2.91a1.27,1.27,0,0,0,.27.68l.28.29a.36.36,0,0,1,0,.49.34.34,0,0,1-.27.15.84.84,0,0,1-.62-.39,2.1,2.1,0,0,1-.49-1.08,3.21,3.21,0,0,1,.19-1.69c.09-.2.22-.46.42-.81a6.9,6.9,0,0,0-1.31,1.63,7,7,0,0,0-.72,1.54c-.09.28-.24.42-.42.42s-.33-.11-.37-.35a4.48,4.48,0,0,1,.26-1.54,10.33,10.33,0,0,1,.49-1.41,5.89,5.89,0,0,0-1.81,3.27c-.07.3-.22.46-.43.46a.35.35,0,0,1-.26-.11.47.47,0,0,1-.14-.27,5.44,5.44,0,0,1,.28-1.94,13.48,13.48,0,0,1,1-2.67c.28-.56.52-.83.71-.83a.3.3,0,0,1,.33.29,1.74,1.74,0,0,1-.24.64,8.94,8.94,0,0,0-.55,1.42Z"/><path class="cls-3" d="M196.44,225.74a.37.37,0,0,1,.27.12.47.47,0,0,1,.11.21,1.12,1.12,0,0,1-.18.54,14.09,14.09,0,0,0-.95,2.41,18.84,18.84,0,0,0-.42,2c-.05.31-.18.46-.38.46a.45.45,0,0,1-.32-.14.67.67,0,0,1-.14-.26,8.81,8.81,0,0,1,.29-1.83,10,10,0,0,1,1-2.7,3.09,3.09,0,0,1,.39-.64.38.38,0,0,1,.31-.18Zm1.71-3.89a.38.38,0,0,1,.28.11.51.51,0,0,1,.14.21,3.32,3.32,0,0,1-.62,1.24,6.83,6.83,0,0,1-.49.69.46.46,0,0,1-.32.17c-.19,0-.3-.11-.34-.32a1,1,0,0,1,.25-.63,7.36,7.36,0,0,0,.64-1.09c.15-.25.31-.38.46-.38Z"/><path class="cls-3" d="M199.23,228.18c-.1.48-.18.85-.22,1.15a2,2,0,0,0,0,.61.25.25,0,0,0,.26.23c.21,0,.46-.21.74-.62a7.49,7.49,0,0,0,.55-1.09c.09-.21.21-.31.35-.31a.24.24,0,0,1,.27.23,3.32,3.32,0,0,1-.64,1.58c-.49.83-1,1.25-1.54,1.25a.74.74,0,0,1-.6-.3.87.87,0,0,1-.24-.5,4.23,4.23,0,0,1,.08-1.41,18.93,18.93,0,0,1,.55-2.2,25.57,25.57,0,0,1,2.31-5.41c.69-1.15,1.31-1.71,1.88-1.71a.64.64,0,0,1,.48.21.81.81,0,0,1,.27.48q.21,1.27-1.58,4.24a17.76,17.76,0,0,1-2,2.64l-.87.93Zm.41-1.43a13.13,13.13,0,0,0,2.71-4.1,3.94,3.94,0,0,0,.5-1.71c0-.13-.09-.2-.21-.2-.33,0-.83.67-1.49,2a23.41,23.41,0,0,0-1.51,4Z"/><path class="cls-3" d="M204.54,225.74a.34.34,0,0,1,.26.12.35.35,0,0,1,.12.21,1.24,1.24,0,0,1-.18.54,14.63,14.63,0,0,0-1,2.41,18.34,18.34,0,0,0-.42,2c-.05.31-.18.45-.38.45a.41.41,0,0,1-.32-.14.53.53,0,0,1-.14-.25,8.44,8.44,0,0,1,.28-1.83,10.44,10.44,0,0,1,1-2.7,3.75,3.75,0,0,1,.38-.64.41.41,0,0,1,.32-.18Zm1.17-3.38a.45.45,0,0,1,.48.43,1.19,1.19,0,0,1-.27.84.84.84,0,0,1-.66.46A.48.48,0,0,1,205,224a.54.54,0,0,1-.15-.3,1.17,1.17,0,0,1,.33-.93.76.76,0,0,1,.58-.37Z"/><path class="cls-3" d="M208.75,229.7a6.15,6.15,0,0,1-.44.89,1.26,1.26,0,0,1-1,.71,1,1,0,0,1-.84-.46,1.8,1.8,0,0,1-.29-.71,4.52,4.52,0,0,1,.27-2.24,4.75,4.75,0,0,1,1.38-2.08,1.81,1.81,0,0,1,1.18-.48,1,1,0,0,1,.68.24.67.67,0,0,1,.29.48,1.3,1.3,0,0,1-.06.55.62.62,0,0,1,.19.34,1.22,1.22,0,0,1-.14.63,5.84,5.84,0,0,0-.34,1.19,3.8,3.8,0,0,0-.07,1.26,1.08,1.08,0,0,0,.33.63,4.24,4.24,0,0,0,.41.21.45.45,0,0,1,.29.38.3.3,0,0,1-.08.28.41.41,0,0,1-.3.12,1.27,1.27,0,0,1-.93-.45,1.61,1.61,0,0,1-.44-.88c0-.13,0-.34-.06-.61Zm.64-3a1,1,0,0,0-.28-.29.47.47,0,0,0-.29-.09c-.46,0-.9.39-1.31,1.21a3.85,3.85,0,0,0-.52,2.27.63.63,0,0,0,.15.35.36.36,0,0,0,.27.12c.3,0,.58-.31.88-.93a15.38,15.38,0,0,0,.56-1.51,8.87,8.87,0,0,1,.32-.86,1.36,1.36,0,0,1,.22-.27Z"/><path class="cls-3" d="M212.72,230.54a.49.49,0,0,1,.37.18.56.56,0,0,1,.14.3,1.89,1.89,0,0,1-.09.9c-.11.34-.3.5-.57.5s-.44-.15-.5-.47a1.75,1.75,0,0,1,.14-1c.13-.3.3-.44.51-.44Z"/><rect class="cls-4" width="300" height="300"/></g></g></svg>