<svg xmlns="http://www.w3.org/2000/svg" xmlns:xlink="http://www.w3.org/1999/xlink" viewBox="0 0 300 300"><defs><style>.cls-1,.cls-2{fill:#9b9b9b;}.cls-2,.cls-4{fill-rule:evenodd;}.cls-3{clip-path:url(#clip-path);}.cls-4{fill:#d3d3d3;}.cls-5{fill:none;}</style><clipPath id="clip-path"><rect class="cls-1" x="81.68" y="213.65" width="134.85" height="1.2"/></clipPath></defs><title>logo27</title><g id="Layer_2" data-name="Layer 2"><g id="Layer_1-2" data-name="Layer 1"><path class="cls-2" d="M157.52,102.18c-2.19,10.36-13.1,22-30.3,34.47-.48.31,2.7,7,3.38,6.76a97.67,97.67,0,0,0,16.18-7.33l.84,1.37c2.87,8.68,2.32,7.94,4.16,9.18,4.18,3.12,6.9,3.52,10.35,5.26,8,3.19,6.27,2.43,11.37,1.42l-3.27-2.72a2.63,2.63,0,0,1-.67-.94L163,131.54c-.3-1.24-.77-1.8-1.36-1.9l-4.76-.67c-.48-.16-.57-.65-.31-1.41l1.1-3.83c.47-1.4.9-1.14,4-.73,2.67.36,3,.36,4,2.63l2.77,6.94c1.38,3.27,1,1.82,3.14,2.23Z"/><path class="cls-2" d="M68.87,208.47a1.44,1.44,0,0,1-.42,1.07,1.49,1.49,0,0,1-1.07.44H46.52v-3.33H50.7v-27H46.52v-3.33H66.69a1.45,1.45,0,0,1,1.49,1.49V184H64.51v-4.32H54.37v11.86H64.2v3.33H54.37v11.79H65.2V203h3.67Zm129,1.65h8.58a6,6,0,0,0,5.83-5.87V179.67h4.17v-3.33h-7.85v27a3.31,3.31,0,0,1-1,2.42,5.73,5.73,0,0,1-2.86.85h-6.36a4.29,4.29,0,0,1-2.2-.5,3.37,3.37,0,0,1-1.14-1.44,4.35,4.35,0,0,1-.18-1.36v-27h-7.86v3.33h4.17v24.77a5,5,0,0,0,1.19,3.24,5.67,5.67,0,0,0,2.65,1.94,7.62,7.62,0,0,0,2.82.5ZM90.12,206.63h0l-2,3.35H81.73v-3.33H86.1l8.5-14-7.95-13H82.77v-3.33h5.89l2,3.33h0l5.92,9.73,5.92-9.73h0l2-3.33h5.88v3.33h-3.88l-8,13,8.51,14h4.37V210h-6.37l-2-3.33h0l-4.74-7.8L96.58,196l-3.4,5.59Zm46.4,3.35h-12v-3.33h4.18v-27h-4.18v-3.33h12v3.33h-4.17v27h4.17Zm37.64-26h-3.67v-4.32h-6.36v27h4.17V210h-12v-3.33h4.17v-27h-6.37V184h-3.67v-6.16a1.54,1.54,0,0,1,1.49-1.49h20.76a1.44,1.44,0,0,1,1.07.42,1.47,1.47,0,0,1,.42,1.07ZM251.7,204.3a5.53,5.53,0,0,1-1.59,4.08,5.65,5.65,0,0,1-4.18,1.6h-7.79a5.44,5.44,0,0,1-3.93-1.6,5.25,5.25,0,0,1-1.64-3.93v-2.93h3.68v2.39a2.84,2.84,0,0,0,.71,1.92,2.55,2.55,0,0,0,2,.82h6.16a2.65,2.65,0,0,0,2.13-1,3.08,3.08,0,0,0,.8-2V196.9a2,2,0,0,0-.62-1.41,2.12,2.12,0,0,0-1.53-.63h-8.45a5.06,5.06,0,0,1-3.4-1.24,4.16,4.16,0,0,1-1.45-3.34v-8.66a4.92,4.92,0,0,1,1.4-3.38,5.45,5.45,0,0,1,4.25-1.9H248.8a1.59,1.59,0,0,1,1.11.4,1.35,1.35,0,0,1,.44,1.09V184h-3.67v-4.32h-7.52a2.91,2.91,0,0,0-2.91,2.79v7.08a1.83,1.83,0,0,0,.6,1.5,3.26,3.26,0,0,0,2.05.49h9a3.54,3.54,0,0,1,2.72,1.18,4,4,0,0,1,1.08,2.8Z"/><rect class="cls-1" x="81.68" y="213.65" width="134.85" height="1.2"/><g class="cls-3"><rect class="cls-1" x="81.68" y="213.65" width="134.85" height="1.2"/></g><path class="cls-4" d="M131.26,144.55c-6.54,7.32-5,9,7,3.23,3.67-2.42,5.31-8.36,8.89-10.32a97.46,97.46,0,0,1-15.65,7.19.29.29,0,0,1-.24-.1Z"/><path class="cls-4" d="M108.43,155.21h0c9.86-2.37,13.22-11,11.43-20.21-4.12-21,2.58-29.58,32.78-30.7a31.71,31.71,0,0,0,2.41-4.45c-39.42-1.84-46.63,15.27-39.6,38.62.82,3.36,2,11.1-7.07,16.75Z"/><path class="cls-4" d="M158.54,85.1c-46.8-1.39-62.64,16.68-48.45,52.21,2.56,6.46,3.76,7.63,2.12,13.33,3.81-6.45,2.76-8.88,1-15.67-1.63-6.32-12.5-40.13,42.38-36.76a29.22,29.22,0,0,0,2.93-13.11Z"/><polygon class="cls-4" points="125.81 108.24 123.03 110.8 130.74 121.36 133.52 118.79 125.81 108.24"/><path class="cls-4" d="M150.34,111c-3.81.52-7.67.58-11.49,1.36-9.57,1.93-16.3,7-12.84,21.55l.07.14c11-8.06,19.28-15.79,24.26-23Z"/><polygon class="cls-2" points="46.52 169.54 57.34 168.6 68.18 169.54 68.18 172.81 57.33 171.87 46.52 172.81 46.52 169.54"/><path class="cls-2" d="M255.86,157.61H42.36v1.25h4.88v3.62h-1.1v1.21h3.14v-1.21H48.17v-3.62H53.7v3.62H52.6v1.21h3.13v-1.21h-1.1v-3.62h5.52v3.62h-1.1v1.21h3.14v-1.21h-1.1v-3.62h5.52v3.62h-1.1v1.21h3.14v-1.21H67.54v-3.62h5.53v3.62H72v1.21H75.1v-1.21H74v-3.62h5.52v3.62h-1.1v1.21h3.14v-1.21h-1.1v-3.62H86v3.62h-1.1v1.21H88v-1.21H86.9v-3.62h5.54v3.62H91.32v1.21h3.14v-1.21h-1.1v-3.62h5.52v3.62h-1.1v1.21h3.14v-1.21h-1.1v-3.62h5.52v3.62h-1.1v1.21h3.14v-1.21h-1.11v-3.62h5.53v3.62h-1.11v1.21h3.14v-1.21h-1.1v-3.62h5.52v3.62h-1.1v1.21h3.14v-1.21h-1.1v-3.62h5.52v3.62h-1.1v1.21h3.14v-1.21h-1.11v-3.62h5.53v3.62h-1.11v1.21h3.14v-1.21h-1.1v-3.62h5.52v3.62h-1.1v1.21h3.14v-1.21h-1.1v-3.62h5.52v3.62H143v1.21h3.13v-1.21H145v-3.62h5.54v3.62h-1.12v1.21h3.14v-1.21h-1.1v-3.62H157v3.62h-1.1v1.21H159v-1.21h-1.1v-3.62h5.52v3.62h-1.1v1.21h3.13v-1.21h-1.1v-3.62h5.52v3.62h-1.1v1.21h3.14v-1.21h-1.1v-3.62h5.52v3.62h-1.1v1.21h3.14v-1.21h-1.11v-3.62h5.53v3.62h-1.1v1.21h3.13v-1.21h-1.1v-3.62h5.52v3.62h-1.1v1.21h3.14v-1.21h-1.11v-3.62h5.53v3.62h-1.11v1.21h3.15v-1.21h-1.12v-3.62h5.54v3.62h-1.12v1.21h3.14v-1.21h-1.1v-3.62h5.52v3.62h-1.1v1.21h3.14v-1.21h-1.1v-3.62h5.52v3.62H214v1.21h3.14v-1.21H216v-3.62h5.53v3.62h-1.11v1.21h3.14v-1.21h-1.1v-3.62H228v3.62h-1.1v1.21H230v-1.21h-1.1v-3.62h5.52v3.62h-1.1v1.21h3.14v-1.21h-1.11v-3.62h5.53v3.62H239.8v1.21h3.14v-1.21h-1.11v-3.62h5.53v3.62h-1.11v1.21h3.15v-1.21h-1.11v-3.62h5.53v3.62h-1.11v1.21h3.15v-1.21h-1.12v-3.62h1.12ZM42.36,165v1.25h213.5V165h-4.33v-3.63h1.1v-1.21h-3.14v1.21h1.1V165h-5.52v-3.63h1.1v-1.21H243v1.21h1.11V165h-5.53v-3.63h1.11v-1.21h-3.14v1.21h1.1V165h-5.52v-3.63h1.11v-1.21h-3.15v1.21h1.11V165H225.7v-3.63h1.11v-1.21h-3.13v1.21h1.1V165h-5.52v-3.63h1.1v-1.21h-3.14v1.21h1.1V165H212.8v-3.63h1.1v-1.21h-3.14v1.21h1.11V165h-5.53v-3.63h1.1v-1.21h-3.13v1.21h1.1V165h-5.52v-3.63H201v-1.21h-3.14v1.21H199V165h-5.52v-3.63h1.1v-1.21h-3.14v1.21h1.11V165H187v-3.63h1.11v-1.21h-3.14v1.21h1.11V165h-5.53v-3.63h1.11v-1.21h-3.15v1.21h1.11V165h-5.53v-3.63h1.11v-1.21H172v1.21h1.12V165H167.6v-3.63h1.12v-1.21h-3.14v1.21h1.1V165h-5.52v-3.63h1.1v-1.21h-3.14v1.21h1.1V165H154.7v-3.63h1.1v-1.21h-3.14v1.21h1.11V165h-5.53v-3.63h1.11v-1.21h-3.14v1.21h1.1V165h-5.52v-3.63h1.1v-1.21h-3.14v1.21h1.1V165h-5.52v-3.63h1.1v-1.21h-3.14v1.21h1.12V165h-5.54v-3.63H130v-1.21h-3.15v1.21H128V165h-5.53v-3.63h1.11v-1.21h-3.15v1.21h1.11V165H116v-3.63h1.11v-1.21h-3.13v1.21H115V165h-5.53v-3.63h1.11v-1.21h-3.14v1.21h1.1V165h-5.52v-3.63h1.1v-1.21H101v1.21h1.1V165H96.6v-3.63h1.1v-1.21H94.57v1.21h1.1V165H90.15v-3.63h1.1v-1.21H88.11v1.21h1.1V165H83.69v-3.63h1.1v-1.21H81.65v1.21h1.12V165H77.23v-3.63h1.1v-1.21H75.2v1.21h1.11V165H70.78v-3.63h1.11v-1.21H68.74v1.21h1.11V165H64.32v-3.63h1.11v-1.21H62.29v1.21H63.4V165H57.87v-3.63H59v-1.21H55.84v1.21h1.1V165H51.42v-3.63h1.1v-1.21H49.38v1.21h1.1V165H45v-3.63h1.1v-1.21H42.92v1.21H44V165Z"/><rect class="cls-5" width="300" height="300"/></g></g></svg>