<svg xmlns="http://www.w3.org/2000/svg" viewBox="0 0 300 300"><defs><style>.cls-1,.cls-10,.cls-8{fill:#878787;}.cls-2,.cls-4,.cls-7{fill:#b7b7b7;}.cls-3{fill:#fff;}.cls-4{font-size:15.52px;}.cls-10,.cls-4,.cls-7,.cls-8{font-family:Lato-BlackItalic, Lato;font-style:italic;}.cls-5{letter-spacing:-0.02em;}.cls-6{letter-spacing:-0.02em;}.cls-7{font-size:33.72px;letter-spacing:-0.05em;}.cls-10,.cls-8{font-size:60.48px;}.cls-8{letter-spacing:-0.04em;}.cls-9{letter-spacing:-0.02em;}.cls-10{letter-spacing:-0.05em;}.cls-11{fill:none;}</style></defs><title>logo2</title><g id="Layer_2" data-name="Layer 2"><g id="Layer_1-2" data-name="Layer 1"><path class="cls-1" d="M196.66,98.57a14.69,14.69,0,0,0-7.87-13L154.16,67.44a14.74,14.74,0,0,0-13.78.06L105.91,86a14.7,14.7,0,0,0-7.76,13l.15,34.54a14.69,14.69,0,0,0,7.87,12.95l34.63,18.17a14.68,14.68,0,0,0,13.78-.06l34.47-18.47a14.69,14.69,0,0,0,7.76-13ZM187,142l-35,18.76a9.29,9.29,0,0,1-8.68,0l-35.17-18.46a9.28,9.28,0,0,1-5-8.17l-.14-32.44c0-7.22,1.73-10,7.92-13.28l32-17.13a9.26,9.26,0,0,1,8.68,0L186.8,89.74a9.29,9.29,0,0,1,5,8.17l.15,35.89A9.27,9.27,0,0,1,187,142Z"/><path class="cls-1" d="M187.71,98.09a5.3,5.3,0,0,0-3.19-5.25L150.1,74.78a5.39,5.39,0,0,0-5.56,0L110.31,93.12A6.16,6.16,0,0,0,108,95.55h3.73a5.44,5.44,0,0,1,.57,0h.1l.49.07.12,0,.47.11.09,0A6,6,0,0,1,117,98.45l14,23.2.1.16a6.08,6.08,0,0,0,5.23,2.9H159.8a6.39,6.39,0,0,0,3-.6,6.71,6.71,0,0,0,2.2-2.3l2.42-4c.9-1.57,1-2.16-.06-3.7l-5.88-9.72a5.53,5.53,0,0,1-.82-2.9,5.79,5.79,0,0,1,3-5,6.28,6.28,0,0,1,8.33,2.13L180.2,112a0,0,0,0,1,0,0l0,0a6.91,6.91,0,0,1,1.16,3.91,7.73,7.73,0,0,1-1.1,3.86l-8.23,13.61a4.86,4.86,0,0,1-.42.59h0c-1.66,2.81-3,2.05-3.59,5.24h0a6.12,6.12,0,0,1-12.12-.83c0-.1,0-.2,0-.31h0c.14-1.41-.56-1.77-1.7-1.79H142c-1.14,0-1.84.38-1.7,1.79h0c0,.11,0,.21,0,.31a6.12,6.12,0,0,1-12.12.83h0c-.6-3.19-1.94-2.43-3.6-5.24h0a8.61,8.61,0,0,1-.86-1.3L109,108.52a2.78,2.78,0,0,0-1.89-1.29l.11,26.81a5.47,5.47,0,0,0,3.12,5.18l34.5,18.1a5.81,5.81,0,0,0,5.52,0l34.33-18.39a6.26,6.26,0,0,0,3.14-5.23Z"/><path class="cls-2" d="M148.7,120.06l-5.8-9.48-7.37-12.19-.21-.3-3.81-6.29a6.33,6.33,0,0,0-8.41-2.15,5.75,5.75,0,0,0-2.26,8l8.32,13.74.08.12,2.09,3.43,1.84,3,.12.17.71,1.14a4.13,4.13,0,0,0,3.64,2h10.2C148.77,121.35,149.16,120.83,148.7,120.06Z"/><path class="cls-2" d="M164,115.29l-1.84-3a.75.75,0,0,0-.07-.12l-8.31-13.75-.21-.3-3.81-6.29a6.33,6.33,0,0,0-8.41-2.15,5.76,5.76,0,0,0-2.26,8l7.35,12.13h0l4.54,7.46.45.75,0,0,1.18,2a2.63,2.63,0,0,0,2.26,1.29h4.58c1.69,0,1.55-.11,2.33-1l2.17-3.33A1.64,1.64,0,0,0,164,115.29Z"/><path class="cls-3" d="M180.23,112.06l0,0a0,0,0,0,0,0,0l-8.14-13.44a6.28,6.28,0,0,0-8.33-2.13,5.79,5.79,0,0,0-3,5,5.53,5.53,0,0,0,.82,2.9l5.88,9.72c1,1.54,1,2.13.06,3.7l-2.42,4a6.71,6.71,0,0,1-2.2,2.3,6.39,6.39,0,0,1-3,.6H136.38a6.08,6.08,0,0,1-5.23-2.9l-.1-.16-14-23.2a6,6,0,0,0-3.42-2.62l-.09,0-.47-.11-.12,0-.49-.07h-.1a5.44,5.44,0,0,0-.57,0H108a6.5,6.5,0,0,0-.92,2.93l0,8.7h0v0a2.78,2.78,0,0,1,1.89,1.29l14.65,24.21a8.61,8.61,0,0,0,.86,1.3h0c1.66,2.81,3,2.05,3.6,5.24h0a6.12,6.12,0,0,0,12.12-.83c0-.1,0-.2,0-.31h0c-.14-1.41.56-1.77,1.7-1.79h12.29c1.14,0,1.84.38,1.7,1.79h0c0,.11,0,.21,0,.31a6.12,6.12,0,0,0,12.12.83h0c.59-3.19,1.93-2.43,3.59-5.24h0a4.86,4.86,0,0,0,.42-.59l8.23-13.61a7.73,7.73,0,0,0,1.1-3.86A6.91,6.91,0,0,0,180.23,112.06Z"/><text class="cls-4" transform="translate(91.34 232.4)">Superme<tspan class="cls-5" x="57.91" y="0">r</tspan><tspan x="63.42" y="0">cado e </tspan><tspan class="cls-6" x="108.52" y="0">P</tspan><tspan x="117.44" y="0">adaria</tspan></text><text class="cls-7" transform="translate(131.88 215.7)">de</text><text class="cls-8" transform="translate(39.2 215.07)">P<tspan class="cls-9" x="33.26" y="0">ão</tspan></text><text class="cls-10" transform="translate(163.83 215.85)">Mel</text><rect class="cls-11" width="300" height="300"/></g></g></svg>