<svg xmlns="http://www.w3.org/2000/svg" viewBox="0 0 300 300"><defs><style>.cls-1,.cls-2{fill:#d3d3d3;}.cls-1{fill-rule:evenodd;}.cls-3{fill:#9b9b9b;}.cls-4{fill:none;}</style></defs><title>logo22</title><g id="Layer_2" data-name="Layer 2"><g id="Layer_1-2" data-name="Layer 1"><path class="cls-1" d="M41.23,136.1l.23-.27-.11-.17m-.07.19,0,.14h0v.11m.05-.25.07-.17m39.78,40.95-1.45-3.14M62.83,113.61l-.3.08-.86.31-.15,0-.6.25h0l-.6.24-.88.39-.32.13-.39.21-1.42.73-.72.39-.63.36,0,0-.13.07-.19.11-.18.13-.17.12h0l-.21.13-.2.13-.19.13-.06,0-.13.08-.34.23L54,118l-.05.06-.06,0-.08.06-.5.37h0l-.62.49-.3.25-.32.25-.19.16-.41.35-.24.21-.35.32-.57.54-.09.09,0,0-1.53,1.55,0,0-.45.49-.07.11-.25.27-.06.07c-.13.11-.19.13-.2.3l-.17.17-.65.79-.17.24,0,0-.19.27-.24.35,0,0-.38.56,0,.08c-.15.09-.13.15-.25.32l-.18.31h0l-.26.41-.15.27-.66,1.16-.07.17-1,1.87-.15.33h0l-.3.75-.11.23-.09.2-.08.23,0,.08-.06.13-.23.62h0l-.07.22-.13.39-.43,1.35v0l.11.17-.23.27-.09.26-.11.41-.31,1.4L40.38,140l0,.23,0,.2,0,.21,0,.19h0l0,.24v.21l0,.17A29.87,29.87,0,0,0,40,145l0,1.71.05.83.08.83,0,.47h0l0,.36.12.82.15.82.19,1v0l.07.42,0,.16.12.5.07.29.1.35.1.38.25.84,0,.09A37.68,37.68,0,0,0,43.11,159l.12.26,0,0,.09.23.71,1.32,0,0,0,.05.17.32.1.17h0l.22.41.13.23,0,.05.09.17.28.43.06.07.07.14.11.18.3.45.06.08h0L46,164l.11.14.09.16.38.5.07.11.21.27.65.8.09.09.14.17.34.39.52.6.15.19.33.36.06,0,1.12,1.13.57.54.59.53.27.24.56.47.32.24,0,0,.2.11.12.13,0,0,.23.17.11.08.11.09.19.13.34.24.05,0,.56.39,0,0,.52.36.16.07.22.11.19.16c1,.61,2,1.17,3.07,1.68v0h0l.68.32.51.2,1,.44.15,0,.19.07.18.08.25.07.54.21.2.06.19.07.4.14v0l.2.08,2.23.61.14,0,1.08.23h.06l1.27.25.19,0,.63.07v0l.32,0,.32,0,.21,0h.11l.28,0h.28l.15,0h.12l.22,0,.19,0,1.7.06h.94l1.79-.1h.16l0,0h.17l.56-.07,1.23-.11v0l.6-.09h.06l.13,0h.08l.13,0h.08l.07,0h0l.08,0H79l.13,0,0,0,.18,0,0,0-2-2.62-1.54-2-2.34-3-.07-.08,0,0L69.67,165l0-.06a2.72,2.72,0,0,0-.3-.41l-2.12-2.68-.15-.22-1.33-1.69-.06-.07-2.09-2.68-.15-.15-.11-.19L61.15,154l-1.35-1.71,0,.07s0,.09-.1.14l-6-8.13v0l-.25-.32-.28-.34H54l.21,0h1.38l1,0h3.78l2.84,0,3.65,0-.08-.21-.12-.24-3.11-6.25-.13-.25-.11-.22-.28-.58-.11-.19v0l-.06-.13-.08-.14-1.66-3.34,0-.06,0-.05,0,0,0-.1-2.55-5.13-.06-.11,0-.09-.06-.08,0-.09-1.34-2.7-.31-.6h41.2l-.27-.31,0,0h0l-.26-.28-.28-.3v0l-.3-.3-.3-.3-.31-.31-.17-.17-.14-.12-.12-.13-.19-.17,0-.06-.11-.07,0,0-.13-.14-.32-.28-.31-.28-.34-.28,0,0-.6-.5h0l-.35-.29-.34-.24,0,0-.32-.23-.07-.06s0,0,0,0l-.25-.14-.35-.27-.09-.07-.27-.17-.28-.19-.07,0-.36-.25-.28-.18-.09,0-.38-.23-.49-.27-.26-.14,0,0v0l-.08,0L86.84,115l-.21-.1-.19-.09h0l-.38-.17h0l-.19-.1-.19-.07h0l-.18-.07-.19-.08v0l-.19,0-.17-.08,0,0-.12,0-.15-.07-.14-.06-.21-.07,0,0-.11,0H84l-.17-.06-.65-.23-.23-.07-.2-.06v0l-.23-.06-.43-.12-.18-.05h0l-.65-.17-.17,0,0,0-.22,0-.17,0,0,0-.22,0-.17,0,0,0-.23,0-.18,0h0l-.22-.06-.19,0h0l-.22,0-.17,0h-.06l-.22,0-.17,0h-.06l-.22,0-.17,0h-.06l-.22,0-.15,0-.09,0-.23,0-.13,0-.11,0h-.14l-.5-.06h-.15l0,0-.2,0h-.21v0h-.2l-.21,0H75.3l-.15,0h-.74l0,0h-.45l-.29,0H72.4l-.24,0h-.85v0H70.9l-.37,0h-.06l-.32,0-1.1.11-.25,0-.11,0-.35,0-.36.06h0l-.34.05-.35.08-.1,0-.27,0-.32.07-.81.17-.1,0-.1,0-.1,0-2.58.73Zm16.46,23.27H79l.13.36.1.2.09.25.09.24.12.28.11.3.11.3.12.3.13.32.11.32,2.49,6.31h0l0,0v.06l0,.15.06.15,2.41,6.1.1.27H83l-3.93,0H70.15l1.58,3.44h0l.12.34L73,158.92l1.33,2.88,1.54,3.38,1,2.2L78.54,171l1.13,2.44,1.46,3.18.14.34,1.33-.38.1,0,.3-.08.26-.1h.06l.58-.21h0l1.89-.75.07,0,.55-.22v0l.44-.18.17-.1h0l.9-.45.22-.11,0,0,.17-.07.19-.1.17-.09.07-.05.06,0,0,0,0,0,.06,0,.37-.2.59-.34.58-.36.11-.05.32-.21.13-.09.33-.21.23-.17.5-.37,0,0,.54-.4,1-.82.53-.41.08-.07.37-.32,0-.06.29-.28.06,0h0l.11-.1v0l.79-.73.16-.19.08-.05.4-.43.08-.08.25-.26.13-.15.12-.11.33-.37.08-.08.17-.19.61-.74.43-.53.12-.15,1.06-1.46,0,0,.13-.21.13-.2.07-.11.07-.1.12-.2.15-.22,0,0,.1-.17.13-.2.48-.85.12-.19.11-.19.07-.14,0,0,.09-.16.1-.17.07-.15,0,0,.06-.08.16-.36.1-.19.3-.59.28-.62.06-.15,1.16-3,0-.08.17-.58,0,0,.06-.19.13-.41v0l.06-.15,0-.21.05-.19,0-.11,0-.07.19-.77,0-.17,0-.19,0-.15,0,0,0-.17.06-.31,0-.17,0-.17.1-.7.19-1.19v0l.08-.7,0-.41,0-.29,0-.21.06-.88v-.32l0-.17a2,2,0,0,1,0-.35l0-.06V145l0-1.18v-.25l-.06-.91,0-.17v-.1l-.13-1.28V141l-.28-1.76,0-.13h0V139l-.41-1.93,0,0v0l0-.08H79.29Z"/><polygon class="cls-2" points="131.32 136.81 131.32 144 109.92 144 109.92 113.98 130.94 113.98 130.94 121.16 118.17 121.16 118.17 125.39 129.08 125.39 129.08 132.07 118.17 132.07 118.17 136.81 131.32 136.81"/><polygon class="cls-2" points="140.66 121.76 143.84 127.21 144.25 128.1 144.68 127.21 147.85 121.76 156.01 121.76 148.57 132.88 156.22 144 148.06 144 144.64 138.54 144.25 137.69 143.88 138.54 140.45 144 132.29 144 139.94 132.88 132.5 121.76 140.66 121.76"/><path class="cls-2" d="M173.56,142.77a25.61,25.61,0,0,1-3.62,1.21,15.55,15.55,0,0,1-3.78.48,9.51,9.51,0,0,1-2.58-.34,5.41,5.41,0,0,1-2.13-1.1,5,5,0,0,1-1.44-2,7.5,7.5,0,0,1-.53-3V127.8h-2.75v-6h2.75v-7h8v7h4.36v6h-4.36v7.36a2.07,2.07,0,0,0,.47,1.54,1.74,1.74,0,0,0,1.27.45,5.52,5.52,0,0,0,1.35-.19,9.16,9.16,0,0,0,1.52-.53Z"/><path class="cls-2" d="M191,128.61a16.36,16.36,0,0,0-4.23.5,5.15,5.15,0,0,0-2.83,1.7V144h-8V121.76h7.35V126a9.33,9.33,0,0,1,2.94-3.45,6.58,6.58,0,0,1,3.78-1.21,6.43,6.43,0,0,1,1,0Z"/><path class="cls-2" d="M199.77,144.42a8.46,8.46,0,0,1-3.08-.55,7.79,7.79,0,0,1-2.48-1.5,7,7,0,0,1-1.5-8.18,7.21,7.21,0,0,1,2-2.41,9.11,9.11,0,0,1,3-1.57,13.16,13.16,0,0,1,3.87-.55,10.43,10.43,0,0,1,4.48.85v-.68a2.83,2.83,0,0,0-.91-2.32,4.51,4.51,0,0,0-2.93-.77,9.83,9.83,0,0,0-3.52.62,17.81,17.81,0,0,0-3.38,1.8l-2.32-5a18.08,18.08,0,0,1,10-2.84q5.33,0,8.2,2.37c1.92,1.58,2.87,4,2.87,7.11v4.31a2.28,2.28,0,0,0,.43,1.58,2.32,2.32,0,0,0,1.52.53V144c-.73.14-1.42.25-2.07.31a14.19,14.19,0,0,1-1.73.11,5.74,5.74,0,0,1-3.28-.78,3.61,3.61,0,0,1-1.46-2.31l-.17-.8a10.3,10.3,0,0,1-3.42,2.9,9,9,0,0,1-4.15,1Zm2.41-5.75a5.35,5.35,0,0,0,1.49-.23,5.57,5.57,0,0,0,1.35-.62,3.54,3.54,0,0,0,.76-.73,1.44,1.44,0,0,0,.29-.83v-1.65a10.37,10.37,0,0,0-1.56-.42A8.12,8.12,0,0,0,203,134a4,4,0,0,0-2.45.72,2.2,2.2,0,0,0-1,1.81,1.89,1.89,0,0,0,.74,1.53,3,3,0,0,0,1.88.59Z"/><polygon class="cls-3" points="129.94 174.55 129.94 176.49 109.94 176.49 109.94 146.47 129.55 146.47 129.55 148.42 112.09 148.42 112.09 160.21 127.36 160.21 127.36 162.07 112.09 162.07 112.09 174.55 129.94 174.55"/><polygon class="cls-3" points="135.26 150.53 135.26 176.49 133.11 176.49 133.11 146.47 134.75 146.47 155.81 172.9 155.81 146.51 157.97 146.51 157.97 176.49 155.98 176.49 135.26 150.53"/><polygon class="cls-3" points="183.09 174.55 183.09 176.49 163.09 176.49 163.09 146.47 182.7 146.47 182.7 148.42 165.24 148.42 165.24 160.21 180.51 160.21 180.51 162.07 165.24 162.07 165.24 174.55 183.09 174.55"/><path class="cls-3" d="M186.26,176.49v-30h12.51a7.68,7.68,0,0,1,3.51.81,8.48,8.48,0,0,1,2.75,2.13,10.6,10.6,0,0,1,1.8,3,9.24,9.24,0,0,1,.65,3.36A9.88,9.88,0,0,1,207,159a9.36,9.36,0,0,1-1.44,2.77,8.06,8.06,0,0,1-2.24,2,7.86,7.86,0,0,1-2.87,1l7.48,11.67h-2.49l-7.27-11.33h-9.72v11.33Zm2.16-13.32h10.52a5.48,5.48,0,0,0,2.62-.63,6.7,6.7,0,0,0,2-1.67,7.35,7.35,0,0,0,1.29-2.37,8.49,8.49,0,0,0,.45-2.73,7.72,7.72,0,0,0-2-5.11,7.16,7.16,0,0,0-2.12-1.63,5.58,5.58,0,0,0-2.59-.61H188.42Z"/><path class="cls-3" d="M233.36,171.84a13.18,13.18,0,0,1-10.07,4.86,12.31,12.31,0,0,1-5.64-1.31,14.32,14.32,0,0,1-4.46-3.47,16.55,16.55,0,0,1-2.92-4.9,15.5,15.5,0,0,1-1.05-5.58,16.15,16.15,0,0,1,3.91-10.57,13.92,13.92,0,0,1,4.35-3.37,12.42,12.42,0,0,1,5.52-1.24,15.84,15.84,0,0,1,4.08.49,11.66,11.66,0,0,1,3.19,1.35,10.84,10.84,0,0,1,2.44,2.07,13.23,13.23,0,0,1,1.75,2.65l-1.73,1.05a10,10,0,0,0-4.09-4.29,11.88,11.88,0,0,0-5.68-1.33,10,10,0,0,0-4.8,1.14,12,12,0,0,0-3.66,3,13.61,13.61,0,0,0-2.33,4.23,15.19,15.19,0,0,0-.8,4.86,13.76,13.76,0,0,0,.93,5.05,13.5,13.5,0,0,0,2.56,4.21,12.52,12.52,0,0,0,3.83,2.9,10.62,10.62,0,0,0,4.73,1.08,11.08,11.08,0,0,0,5.18-1.27,16.34,16.34,0,0,0,4.76-4v-5.83h-6.81V161.9h8.71v14.59h-1.9Z"/><polygon class="cls-3" points="236.57 146.47 247.06 163.09 257.63 146.47 260 146.47 248.16 165.16 248.16 176.49 246.01 176.49 246.01 165.07 234.21 146.47 236.57 146.47"/><polygon class="cls-3" points="59.75 187.23 59.69 188.06 55.59 188.06 56.01 182.09 60.03 182.09 59.98 182.92 56.9 182.92 56.78 184.62 59.45 184.62 59.39 185.4 56.73 185.4 56.6 187.23 59.75 187.23"/><polygon class="cls-3" points="62.23 188.06 62.65 182.09 63.6 182.09 63.23 187.23 66.44 187.23 66.38 188.06 62.23 188.06"/><polygon class="cls-3" points="72.89 187.23 72.83 188.06 68.73 188.06 69.15 182.09 73.17 182.09 73.11 182.92 70.03 182.92 69.91 184.62 72.58 184.62 72.52 185.4 69.86 185.4 69.73 187.23 72.89 187.23"/><polygon class="cls-3" points="80.11 182.92 78.12 182.92 77.77 188.06 76.82 188.06 77.19 182.92 75.19 182.92 75.25 182.09 80.17 182.09 80.11 182.92"/><path class="cls-3" d="M82.1,188.06l.42-6h2.6a1.63,1.63,0,0,1,.73.16,1.7,1.7,0,0,1,.55.44,1.83,1.83,0,0,1,.34.63,1.72,1.72,0,0,1,.09.71,2.85,2.85,0,0,1-.12.58,2.74,2.74,0,0,1-.27.51,2.22,2.22,0,0,1-.4.41,1.8,1.8,0,0,1-.5.25l1.26,2.28H85.73L84.57,186H83.18L83,188.06Zm1.14-2.91h1.65a.82.82,0,0,0,.38-.09,1,1,0,0,0,.3-.25,1.25,1.25,0,0,0,.2-.36,1.13,1.13,0,0,0,.1-.42,1,1,0,0,0-.05-.43,1.15,1.15,0,0,0-.18-.35.77.77,0,0,0-.64-.33H83.4Z"/><polygon class="cls-3" points="89.26 188.06 89.67 182.09 90.62 182.09 90.2 188.06 89.26 188.06"/><path class="cls-3" d="M92.92,185a3.3,3.3,0,0,1,.27-1.08,3.35,3.35,0,0,1,.63-.95,2.94,2.94,0,0,1,.94-.69,2.87,2.87,0,0,1,1.22-.26,2.33,2.33,0,0,1,1.35.37,2,2,0,0,1,.8.93l-.78.5a1.38,1.38,0,0,0-.26-.46,1.64,1.64,0,0,0-.36-.29,1.5,1.5,0,0,0-.42-.15,2,2,0,0,0-.42,0,1.74,1.74,0,0,0-.82.19,2.13,2.13,0,0,0-.62.5,2.55,2.55,0,0,0-.4.7,2.67,2.67,0,0,0-.17.77,2.36,2.36,0,0,0,.08.84,2,2,0,0,0,.34.69,1.74,1.74,0,0,0,.56.49,1.6,1.6,0,0,0,.75.18,1.72,1.72,0,0,0,.44-.06,1.25,1.25,0,0,0,.45-.18,2.26,2.26,0,0,0,.41-.3,1.78,1.78,0,0,0,.32-.44l.76.44a2.37,2.37,0,0,1-.45.59,2.71,2.71,0,0,1-.61.44,3.19,3.19,0,0,1-.69.27,3.05,3.05,0,0,1-.72.08,2.29,2.29,0,0,1-1.12-.26,2.74,2.74,0,0,1-.84-.71,2.78,2.78,0,0,1-.51-1,3,3,0,0,1-.13-1.12Z"/><polygon class="cls-3" points="100.31 188.06 100.73 182.09 101.67 182.09 101.25 188.06 100.31 188.06"/><path class="cls-3" d="M104.13,188.06l.42-6h2.11a3.13,3.13,0,0,1,1.25.23,2.46,2.46,0,0,1,.87.64,2.25,2.25,0,0,1,.48.95,3.34,3.34,0,0,1,.11,1.15,3.53,3.53,0,0,1-.3,1.24,2.8,2.8,0,0,1-.64.93,2.76,2.76,0,0,1-1,.61,3.44,3.44,0,0,1-1.22.22Zm4.28-3a2.66,2.66,0,0,0-.07-.86,1.62,1.62,0,0,0-.34-.68,1.52,1.52,0,0,0-.58-.44,1.92,1.92,0,0,0-.81-.16h-1.18l-.3,4.31h1.18a2.15,2.15,0,0,0,.85-.17,2,2,0,0,0,.64-.45,2.2,2.2,0,0,0,.42-.69,3,3,0,0,0,.19-.86Z"/><path class="cls-3" d="M110.88,188.06l2.82-6h.77l2,6h-1l-.53-1.63h-2.3l-.73,1.63Zm3.13-4.92-1.17,2.6h2Z"/><path class="cls-3" d="M118.71,188.06l.42-6h2.12a3.12,3.12,0,0,1,1.24.23,2.38,2.38,0,0,1,.87.64,2.25,2.25,0,0,1,.48.95,3.11,3.11,0,0,1,.1,1.15,3.32,3.32,0,0,1-.29,1.24,2.8,2.8,0,0,1-.64.93,2.76,2.76,0,0,1-1,.61,3.44,3.44,0,0,1-1.22.22Zm4.28-3a2.66,2.66,0,0,0-.07-.86,1.62,1.62,0,0,0-.34-.68,1.52,1.52,0,0,0-.58-.44,1.86,1.86,0,0,0-.81-.16H120l-.3,4.31h1.18a2.07,2.07,0,0,0,.84-.17,1.89,1.89,0,0,0,.65-.45,2.2,2.2,0,0,0,.42-.69,2.7,2.7,0,0,0,.19-.86Z"/><polygon class="cls-3" points="130.44 187.23 130.38 188.06 126.28 188.06 126.7 182.09 130.72 182.09 130.66 182.92 127.58 182.92 127.47 184.62 130.13 184.62 130.08 185.4 127.41 185.4 127.28 187.23 130.44 187.23"/><polygon class="cls-3" points="139.13 187.23 139.07 188.06 134.98 188.06 135.4 182.09 139.42 182.09 139.36 182.92 136.28 182.92 136.16 184.62 138.83 184.62 138.78 185.4 136.11 185.4 135.98 187.23 139.13 187.23"/><polygon class="cls-3" points="143.68 188.06 144.1 182.09 145.04 182.09 144.62 188.06 143.68 188.06"/><polygon class="cls-3" points="147.5 188.06 147.92 182.09 148.86 182.09 148.5 187.23 151.7 187.23 151.64 188.06 147.5 188.06"/><path class="cls-3" d="M156.24,187.25a1.61,1.61,0,0,0,.8-.18,1.56,1.56,0,0,0,.53-.49,2,2,0,0,0,.32-.68,3.45,3.45,0,0,0,.14-.78l.21-3h.95l-.21,3a4.43,4.43,0,0,1-.23,1.15,3,3,0,0,1-.51.95,2.45,2.45,0,0,1-.85.64,2.81,2.81,0,0,1-1.21.24,2.46,2.46,0,0,1-1.18-.25,1.93,1.93,0,0,1-.75-.66,2.53,2.53,0,0,1-.37-1,5.1,5.1,0,0,1-.06-1.11l.22-3H155l-.21,3a3.36,3.36,0,0,0,0,.78,1.87,1.87,0,0,0,.22.69,1.27,1.27,0,0,0,.47.48,1.47,1.47,0,0,0,.76.18Z"/><polygon class="cls-3" points="166.57 188.06 166.87 183.76 164.87 187.01 164.35 187.01 162.8 183.76 162.49 188.06 161.55 188.06 161.97 182.09 162.98 182.09 164.7 185.74 166.93 182.09 167.94 182.09 167.52 188.06 166.57 188.06"/><polygon class="cls-3" points="170.4 188.06 170.82 182.09 171.76 182.09 171.34 188.06 170.4 188.06"/><polygon class="cls-3" points="175.46 183.85 175.16 188.06 174.22 188.06 174.64 182.09 175.38 182.09 178.49 186.39 178.79 182.09 179.75 182.09 179.33 188.06 178.54 188.06 175.46 183.85"/><path class="cls-3" d="M181.59,188.06l2.83-6h.77l2,6h-1l-.53-1.63h-2.3l-.74,1.63Zm3.14-4.92-1.18,2.6h2Z"/><path class="cls-3" d="M191.14,189.12a1.16,1.16,0,0,0,.31.11,1.85,1.85,0,0,0,.42.06.87.87,0,0,0,.35-.07.25.25,0,0,0,.15-.22.21.21,0,0,0-.11-.23.68.68,0,0,0-.31-.06,2.6,2.6,0,0,0-.37,0l-.31.06.42-.71a2.23,2.23,0,0,1-1.05-.32,2.64,2.64,0,0,1-.78-.71,3.18,3.18,0,0,1-.47-1,3.29,3.29,0,0,1-.12-1.08,3.32,3.32,0,0,1,.9-2,2.87,2.87,0,0,1,1-.69,2.8,2.8,0,0,1,1.22-.26,2.35,2.35,0,0,1,1.35.37,2,2,0,0,1,.79.93l-.77.5a1.6,1.6,0,0,0-.27-.46,1.43,1.43,0,0,0-.36-.29,1.56,1.56,0,0,0-.41-.15,2.1,2.1,0,0,0-.43,0,1.67,1.67,0,0,0-.81.19,1.9,1.9,0,0,0-.62.5,2.58,2.58,0,0,0-.41.7,3,3,0,0,0-.17.77,2.61,2.61,0,0,0,.08.84,2,2,0,0,0,.35.69,1.56,1.56,0,0,0,.56.49,1.53,1.53,0,0,0,.74.18,1.72,1.72,0,0,0,.44-.06,1.3,1.3,0,0,0,.46-.18,2.2,2.2,0,0,0,.4-.3,1.81,1.81,0,0,0,.33-.44l.75.44a1.91,1.91,0,0,1-.39.54,2.79,2.79,0,0,1-.54.42,3.81,3.81,0,0,1-.62.28,3.08,3.08,0,0,1-.66.13l-.25.34.15,0h.14a.84.84,0,0,1,.49.14.43.43,0,0,1,.16.43.66.66,0,0,1-.27.49,1.39,1.39,0,0,1-.77.19,2.21,2.21,0,0,1-.48-.05l-.38-.12Z"/><path class="cls-3" d="M196.05,188.06l2.82-6h.77l2,6h-1l-.52-1.63h-2.31l-.74,1.63Zm3.14-4.92-1.18,2.6h2Zm.65-1.82a.81.81,0,0,1-.33-.06,1,1,0,0,1-.26-.12L199,181a.7.7,0,0,0-.25,0,.41.41,0,0,0-.23.06.3.3,0,0,0-.12.13.27.27,0,0,0-.07.14.32.32,0,0,0,0,.07h-.53l.06-.23a1.11,1.11,0,0,1,.17-.32,1.19,1.19,0,0,1,.3-.29.84.84,0,0,1,.76-.07l.25.13.23.12a.6.6,0,0,0,.27.06.46.46,0,0,0,.25-.06.38.38,0,0,0,.15-.13.37.37,0,0,0,.07-.14s0-.07,0-.08h.53a.55.55,0,0,1-.07.21,1,1,0,0,1-.17.33,1.15,1.15,0,0,1-.32.3.79.79,0,0,1-.47.13Z"/><path class="cls-3" d="M206.33,188.1a2.33,2.33,0,0,1-1.13-.26,2.65,2.65,0,0,1-.84-.68,2.82,2.82,0,0,1-.51-1,3,3,0,0,1-.12-1.12,3,3,0,0,1,.29-1.14,3.47,3.47,0,0,1,.66-1,3.2,3.2,0,0,1,.95-.67,2.79,2.79,0,0,1,1.15-.24,2.33,2.33,0,0,1,1.13.26,2.55,2.55,0,0,1,.84.69,2.89,2.89,0,0,1,.5,1,3.09,3.09,0,0,1-.17,2.25,3.27,3.27,0,0,1-.66,1,3.13,3.13,0,0,1-.94.66,2.61,2.61,0,0,1-1.15.25Zm-1.65-3a2.43,2.43,0,0,0,.08.81,2.09,2.09,0,0,0,.32.71,1.73,1.73,0,0,0,.56.48,1.58,1.58,0,0,0,.76.18,1.66,1.66,0,0,0,.8-.19,1.88,1.88,0,0,0,.62-.5,2.37,2.37,0,0,0,.42-.7,2.74,2.74,0,0,0,.18-.79,2.23,2.23,0,0,0-.08-.82,2,2,0,0,0-.33-.69,1.82,1.82,0,0,0-.55-.48,1.55,1.55,0,0,0-.76-.18,1.62,1.62,0,0,0-.79.19,1.9,1.9,0,0,0-.62.49,2.37,2.37,0,0,0-.42.7,2.68,2.68,0,0,0-.19.79Z"/><path class="cls-3" d="M213.75,188.06l.41-6h2.51a1.57,1.57,0,0,1,.73.16,1.64,1.64,0,0,1,.56.44,1.81,1.81,0,0,1,.33.63,1.73,1.73,0,0,1,.1.71,2.37,2.37,0,0,1-.18.73,2.42,2.42,0,0,1-.42.62,1.9,1.9,0,0,1-.6.44,1.82,1.82,0,0,1-.74.16h-1.62l-.14,2.08Zm1.14-2.91h1.56a.78.78,0,0,0,.37-.09.93.93,0,0,0,.3-.23,1.17,1.17,0,0,0,.21-.36,1.49,1.49,0,0,0,.1-.44,1.27,1.27,0,0,0-.05-.45.89.89,0,0,0-.18-.35.74.74,0,0,0-.3-.23.67.67,0,0,0-.35-.08h-1.5Z"/><path class="cls-3" d="M223.66,181.46l-.6-.18.55-.93h.89Zm-.62,5.79a1.59,1.59,0,0,0,.79-.18,1.7,1.7,0,0,0,.54-.49,2.24,2.24,0,0,0,.32-.68,4.12,4.12,0,0,0,.14-.78l.2-3h1l-.22,3a4.88,4.88,0,0,1-.22,1.15,2.82,2.82,0,0,1-.52.95,2.36,2.36,0,0,1-.85.64,2.79,2.79,0,0,1-1.2.24,2.5,2.5,0,0,1-1.19-.25,2,2,0,0,1-.75-.66,2.52,2.52,0,0,1-.36-1,4.1,4.1,0,0,1-.06-1.11l.21-3h.94l-.21,3a4,4,0,0,0,0,.78,2.07,2.07,0,0,0,.22.69,1.3,1.3,0,0,0,.48.48,1.45,1.45,0,0,0,.76.18Z"/><path class="cls-3" d="M233.15,186.52a1.55,1.55,0,0,1-.2.65,1.52,1.52,0,0,1-.43.48,1.88,1.88,0,0,1-.6.3,2.51,2.51,0,0,1-.72.11h-2.86l.43-6h3.07a1.16,1.16,0,0,1,.56.13,1.22,1.22,0,0,1,.4.35,1.4,1.4,0,0,1,.24.49,1.6,1.6,0,0,1-.23,1.37,1.47,1.47,0,0,1-.67.56,1.4,1.4,0,0,1,.78.56,1.51,1.51,0,0,1,.23,1Zm-1-.18a.81.81,0,0,0,0-.35.73.73,0,0,0-.15-.29.61.61,0,0,0-.24-.21.66.66,0,0,0-.32-.07h-2l-.12,1.82h1.91a.8.8,0,0,0,.34-.07,1.17,1.17,0,0,0,.3-.19,1,1,0,0,0,.2-.29,1.06,1.06,0,0,0,.09-.35Zm-2.54-3.44-.13,1.76h1.74a.72.72,0,0,0,.33-.07.8.8,0,0,0,.27-.18,1,1,0,0,0,.19-.27.86.86,0,0,0,.09-.35.84.84,0,0,0-.17-.64.65.65,0,0,0-.54-.25Z"/><polygon class="cls-3" points="235.56 188.06 235.98 182.09 236.92 182.09 236.57 187.23 239.77 187.23 239.71 188.06 235.56 188.06"/><polygon class="cls-3" points="242.06 188.06 242.48 182.09 243.42 182.09 243 188.06 242.06 188.06"/><path class="cls-3" d="M245.72,185A3.57,3.57,0,0,1,246,184a3.35,3.35,0,0,1,.63-.95,2.83,2.83,0,0,1,.94-.69,2.87,2.87,0,0,1,1.22-.26,2.35,2.35,0,0,1,1.35.37,2,2,0,0,1,.79.93l-.76.5a1.6,1.6,0,0,0-.27-.46,1.64,1.64,0,0,0-.36-.29,1.7,1.7,0,0,0-.41-.15,2.18,2.18,0,0,0-.43,0,1.71,1.71,0,0,0-.82.19,2,2,0,0,0-.62.5,2.32,2.32,0,0,0-.4.7,2.37,2.37,0,0,0-.17.77,2.61,2.61,0,0,0,.08.84,2,2,0,0,0,.34.69,1.59,1.59,0,0,0,.57.49,1.5,1.5,0,0,0,.74.18,1.72,1.72,0,0,0,.44-.06,1.38,1.38,0,0,0,.46-.18,2.2,2.2,0,0,0,.4-.3,2.07,2.07,0,0,0,.32-.44l.75.44a1.79,1.79,0,0,1-.44.59,2.9,2.9,0,0,1-.6.44,3.74,3.74,0,0,1-.7.27,3.08,3.08,0,0,1-.73.08,2.27,2.27,0,0,1-1.11-.26,2.74,2.74,0,0,1-.84-.71,2.78,2.78,0,0,1-.51-1,3.28,3.28,0,0,1-.13-1.12Z"/><path class="cls-3" d="M252.41,188.06l2.82-6H256l2,6h-1l-.52-1.63h-2.3l-.75,1.63Zm3.14-4.92-1.18,2.6h1.95Z"/><rect class="cls-4" width="300" height="300"/></g></g></svg>