<svg xmlns="http://www.w3.org/2000/svg" viewBox="0 0 300 300"><defs><style>.cls-1{fill:#fefefe;}.cls-1,.cls-2,.cls-3{fill-rule:evenodd;}.cls-2{fill:#b8b8b8;}.cls-3{fill:#878787;}.cls-4{fill:none;}</style></defs><title>logo7</title><g id="Layer_2" data-name="Layer 2"><g id="Layer_1-2" data-name="Layer 1"><path class="cls-1" d="M176.54,151.1l-44.63.71c-11,0-18.07-8.77-17.94-19.58l.9-30.48c0-8.77,6.3-16.57,15.36-16.57l46.31-.87c13.38,5.11,16.72,2.17,16.4,14.88L192.45,134c0,8.77-6.85,17.06-15.91,17.06Z"/><path class="cls-2" d="M166.06,120.78l4.22-20.19c1.79-8.29,1.75-6.77-4-7.32l.58-2.49,25,0a2.36,2.36,0,0,0-.52-.77c-.26-.29-.13-.1-.32-.36,0,0-.1-.1-.1-.13l-.23-.35a45.88,45.88,0,0,0-4.18-2.66c-6.07-2.91-11.1-2.17-17.92-2.17H141.68c-9.15,0-16.58-.68-22.42,4.34-6.66,5.66-5.33,11.2-5.33,21.71,0,5-.35,22.72.46,26.31,2.27,10.06,13.31,7.09,16.68,3.69,4.38-4.37,7.4-23.33,9.06-31.13,1.49-7.25,2.3-7.28-4.06-7.41l.68-2.59,26.88.1-.17,2.46c-1.85,0-3.44-.26-4.64.94-1.72,1.78-3,10.41-3.63,13.46s-1.27,6.18-2,9.32c-.36,1.55-2.44,8-2.15,8.93,10.36,1,12.4-4.47,14.48-12.36l.42-1.2a.49.49,0,0,0,.1-.16Z"/><path class="cls-3" d="M184,101.23l.16.36c-2.63,9.16-1.62,21.94-8.41,31-5.68,7.57-15.35,10.41-24.8,9.22-1.52-.2-3-.68-4.47-.78-1.11,2.52-5.13,5.53-8.25,7-4.38,2.07-7.69,2.2-12.92,2.62,2.44,1.72,12.63,1.17,16.39,1.17H159.5c9.94,0,23.34,2,29.74-5.73,3.7-4.43,3.63-6.83,3.63-14,0-2.42.2-33.68-.06-35.27-.43-2.43-3.7-3.14-5.65-1.55-2.5,2-2.27,4.82-3.18,6Z"/><path class="cls-3" d="M98,177.21c-1.17,11.2,9.15,12,15.64,9.42,2-.81,1.75-.42,2.24-2.46a37.35,37.35,0,0,0,.84-3.76l-1.16.36c-.91,1.68-6.79,3.46-9,2.2-4.06-1.17-3-9,0-12.1a7.56,7.56,0,0,1,6.3-2,6.54,6.54,0,0,1,3.15,1.2c2.07,1.48,1.16,1.65,2.62,1.55l1.24-5.4c-2.6-1-4.12-1.78-7.47-1.82-7.37,0-13.63,4.63-14.47,12.85ZM134.09,172,132,181.48c-.33,1.1-.91,1.49-2.83,1.85-4.22.77-3-2.82-2.37-5.51.56-2.45,1.2-4.88,1.66-7.34l-5.39.1c-.58,1.26-2.92,11.84-2.82,13.3.13,2.45,1.72,3.72,4.12,3.91,2.79.2,4.19-.94,6.17-2,.35.62,0,1.36.78,1.53h4.34c.82-.46.23.45.69-1l.71-3.1c.75-3.3,2.5-10.07,2.89-12.72h-5c-.75.45-.59.61-.78,1.55Zm54.63,6.7c-1,6.7-8.83,7.86-7.4.16.42-2.36,1.68-4.66,3.79-5.14,3.38-.78,4,2.2,3.61,5Zm-13.12.36c-1,6.47,3.48,9.51,9.58,8.6,5.06-.77,8.34-4.07,9.18-9.22,2-11.87-16.91-11.26-18.76.62ZM208,173.75c2.27.42,2.89,1.16,4.51,1.81.55-.65,1-3.17,1.07-4.27-1.59-1.17-6-1.56-8.47-1.23-9.25,1.29-8.67,7.73-5.1,9.61,1.92,1,5.94,1.26,6.92,2.65.48,1.91-4.19,2.56-8.08.81a17.43,17.43,0,0,0-2.41-1.2l-1,4.63c1.53.29,2.63.75,4.19,1,12.5,2,15.68-6.92,10.19-9.44a17.67,17.67,0,0,0-3.66-1.14c-6.14-1.45-2.21-3.94,1.88-3.23Zm-42.49-3.69c-9.15,1.26-8.73,7.67-5.13,9.58,2,1,6,1.29,7,2.68-.16,1.68-1.82,1.81-3.44,1.81-4.42,0-5.26-1.78-7-2.2l-1,4.63c2,.42,4,1.23,6,1.23,3.48,0,8.12-.16,10.16-3.49s-.13-5.67-2.92-6.6c-1.39-.49-2.82-.68-4.32-1.17-2.07-.68-1.72-2.07-.09-2.62,3.83-1.26,7.49,1.52,8.47,1.65l.84-4.27c-1.69-1.23-5.9-1.56-8.47-1.23Zm-8.08.48c-3.47-.38-5,1-7.4,2.24l.49-2.3-5.46,0-3.83,16.8,5.42,0,2.66-11c2.44-1.06,4.13-.64,6.89-.45Z"/><path class="cls-3" d="M94.75,210.93H90.34l-1,0a3.8,3.8,0,0,1,3.19-2.65c2.2-.29,3.21.52,3.08,2.65Zm2.79-5.21a11.07,11.07,0,0,0-9.7,1.13c-5.36,3.79-5.07,13.49,3.41,13.49a15.85,15.85,0,0,0,6.29-1c1-.48,1.24-2.75,1.4-4-2,.16-2.11,1.62-6.17,1.62-2.37,0-3.83-.88-3.86-3.33H99.16c1.34,0,2.37-6.28-1.62-7.93Zm26.13-.65c-3-.13-3.63,1.36-5.45,1.84l.29-1.39-4.32,0c-.61.16-.94,2.52-1.13,3.37-.65,2.91-2.24,8.89-2.5,11.06l4.7,0c.3-2.14,1-4.66,1.46-6.7.17-.61.59-2.81.78-3.17.43-.74,2-1.16,3.09-1.16a2.81,2.81,0,0,1,1.59.42c.61,2.2-1.27,8.09-1.76,10.55l4.35.09c.69-.16.65-1.29,1-2.62.48-2.1,1.88-7.25,1.78-8.86-.13-2.17-1.69-3.3-3.83-3.37Zm-51.38-4.34-17-.06-.88,3.75,6,0-3.54,15.4,5,.06,3.54-15.4,6-.06Zm6,6.77.36-2H74l-3.28,14.4,4.74,0,2.14-9.48a15.3,15.3,0,0,1,2.66-.55c1.2-.1,2.47.2,3.31.1l1.07-4.43c-3.57-.39-4.19,1.13-6.3,1.94Zm23.21,12.42c3.34,0,4.35.42,4.81-.61l1.42-6.28c.56-2.43,1.33-5.05,1.72-7.54h-4.54c-.52,1-3.12,12.56-3.41,14.43ZM106,199.86l-.87,3.53H110l.94-3.5Zm81.12,11-1,.1h-4.19l-1.1,0c.91-3.07,6.56-4.2,6.3-.06Zm-3.57-5.66a7.93,7.93,0,0,1-2.21.39c-.75.8-5.81,2.23-5.62,8.86.13,4.66,4,5.92,8.47,5.92l3.41-.35,1.43-.68c.88-.42,1.14-3,1.4-4-1.5.16-2.67,1.68-5.88,1.68-2.5,0-4.15-.74-4.25-3.33l10.78,0c2.69-6.41-2.21-9.42-7.53-8.48Zm-45.41,11.55a3.78,3.78,0,0,1-4.06-.13c-.55-3.2,3.73-3.43,5.71-3.33-.42,2.55-.42,2.91-1.65,3.46Zm-5.42-10.94-.65,3.46,1.75-.38a9.26,9.26,0,0,1,4.19-.65c1.59.1,2.66.39,2.53,2.13a42.44,42.44,0,0,1-4.87.65c-1.49.23-3,1-4.09,1.1-.84,1.17-2.08,1.2-2.43,3.63a5,5,0,0,0,.29,2.58c.52,1,.94.85,1.46,1.72.78,0,1,.23,1.82.29s1.23,0,2,.13c.55-.58,1.85-.52,3.47-1.81l.2.61a1.07,1.07,0,0,0,.06.17l.17.51h4.18a46.55,46.55,0,0,0,1.46-6c1.53-6.53,2.92-10.58-11.58-8.09Zm102.79,8c-1.69,5-7.76,5-5.91-1.91.55-2,1.85-3.78,4.16-3.62,2.53.23,2.5,3.3,1.75,5.53Zm3.12-7.47-.49-.52a7.86,7.86,0,0,1-1.72-.42,6.68,6.68,0,0,0-2-.26c-1.72-.06-2.82.45-4.06.42-1,1.07-4.19,1.49-5.58,6.15-.88,2.91-.55,6,2,7.67a3.28,3.28,0,0,0,.43.26l.52.45c.9-.06,2.1.32,3.53.32,8.8,0,11.62-10,7.76-13.65a2.55,2.55,0,0,0-.45-.42Zm-69.72-1.17c-1.95.2-3.77,1.62-5.1,2.4a18.39,18.39,0,0,0-1.14-1.56c-2.33-1.71-5.74-.45-7.4,1-.29-.39-.29-.2-.06-1.39l-4.71-.07-3.31,14.43h4.74l2.11-9.38c.26-1.07,1.27-1.42,2.34-1.65,3.54-.65,2.37,2.59,1.85,4.76s-1,4.17-1.46,6.21l4.77,0,2.08-9.22c.22-1,.06-.88.94-1.3a3.18,3.18,0,0,1,3.6,0c.52,2-1.46,8.26-1.88,10.49,5.87.1,4.41,1.29,6-5.57.39-1.68,1.27-4.56,1-6.28-.26-2.13-2.07-3.2-4.44-2.91Zm54.88,3.53.68-3.14-4.25,0c0-1.33.78-2.72.65-4.11l-4.51,0-1,4.08-1.65.19c-.62.59-.78,2-.85,2.95l1.82,0c-.87,4.72-3.34,9.77-.23,11.2.59.25,1,.22,1.37.61h3.67c.39-.39.09-.13.81-.36a5.84,5.84,0,0,0,.94-.25l.65-3c-1.37.09-2.73.93-3.9-.23-.42-1.62,1-6.12,1.37-8Zm-15.71-3.11c-3.18-1.06-5,.1-7.17,1.36l-.45-1.39h-4.26l-3.27,14.4,1.36,0h3.34l1.82-7.8c.26-2.1.29-2.45,2.08-3,5.81-1.94,2.14,5.63,1.3,10.84h4.67a65.27,65.27,0,0,0,1.75-7.5c.65-2.95,1.53-5.25-1.17-6.9Zm46,.2h0Zm-.26,0h0Zm-.75.06h0Zm-.45,0h0Zm-.56,2.43c2.05.29,3,1.3,4.22,1.59a9.58,9.58,0,0,0,.85-3.76l-1.59-.55a1.16,1.16,0,0,0-.26-.06h0a.36.36,0,0,0-.16,0h0l-.13,0h0s-.07,0-.1,0h0c-.68-.13-1.36-.26-1.85-.33a25.14,25.14,0,0,0-3.47,0,12.69,12.69,0,0,1-1.82.45,8.18,8.18,0,0,1-1.82.55c-.81,1.16-1.55.77-2.17,2.75-1.82,5.5,6.17,5.11,7.72,6.57,0,1.19-.35,1.36-1.46,1.62a8.24,8.24,0,0,1-3.05,0,11.43,11.43,0,0,1-2.33-.71c-.78-.33-1.34-1-2.15-1l-.94,3.85,2.4.75c.52.22.13,0,.49.25l5.42.2.36-.16c1.88-.62,2.47-.29,4.54-2,1.66-1.78,2.05-4.63-.29-5.92s-6.1-1.3-6.33-2.53c.2-1.68,2.34-1.74,4-1.55Z"/><rect class="cls-4" width="300" height="300"/></g></g></svg>