<svg xmlns="http://www.w3.org/2000/svg" viewBox="0 0 300 300"><defs><style>.cls-1,.cls-3,.cls-4{fill:#9b9b9b;}.cls-2{fill:#c6c6c6;}.cls-3{font-size:50.34px;font-family:FlamaBlack, FlamaBlack;}.cls-4{font-size:15.87px;font-family:Flama-Basic, Flama;letter-spacing:0.3em;}.cls-5{letter-spacing:0.29em;}.cls-6{fill:none;}</style></defs><title>logo6</title><g id="Layer_2" data-name="Layer 2"><g id="Layer_1-2" data-name="Layer 1"><path class="cls-1" d="M66.61,81.67v32.41c0,20,15.17,36.14,33.89,36.14h30.39V81.67Zm16.67,40.56c1.46,9.65,23.16,13.77,27.44,3.59,2.88-10.39-12.1-13.53-15.84-12.21,2.28-3.45,10.5-4.82,17-2.65,5.71,1.9,10.41,6.1,10.21,13.69C121.45,148.6,83.38,145.21,83.28,122.23Z"/><path class="cls-2" d="M83.28,122.24c.65,4.31,5.36,7.51,10.74,8.83-6.38-7.11.6-25.49,6.78-32,4.62-.4,12.17,1.36,13.77,5.19.7,1.69-.45,4.87-2,7a19.76,19.76,0,0,1,2.06.9c9.53-5.95,10.14-15.84-2.14-19.74-2.9-.92-20.32-3.48-30.38,2.49-9.49,5.63-8.12,15.92-5.32,20.56.66-7.09,6-11.72,11.94-13.93A44.65,44.65,0,0,0,83.33,119,28,28,0,0,0,83.28,122.24Z"/><text class="cls-3" transform="translate(65.07 197.12) scale(0.94 1)">BESSA</text><text class="cls-4" transform="translate(67.14 221.81) scale(0.94 1)">TREINAMEN<tspan class="cls-5" x="131.03" y="0">T</tspan><tspan x="145.02" y="0">OS</tspan></text><rect class="cls-2" x="67.14" y="202.34" width="158.87" height="2.92"/><rect class="cls-6" width="300" height="300"/></g></g></svg>