<svg xmlns="http://www.w3.org/2000/svg" xmlns:xlink="http://www.w3.org/1999/xlink" viewBox="0 0 300 300"><defs><style>.cls-1,.cls-3,.cls-9{fill:#606060;}.cls-1,.cls-2{clip-rule:evenodd;}.cls-10,.cls-2,.cls-5{fill:#d3d3d3;}.cls-3,.cls-5,.cls-7,.cls-8{fill-rule:evenodd;}.cls-4{clip-path:url(#clip-path);}.cls-6{clip-path:url(#clip-path-2);}.cls-7{fill:#9b9b9b;}.cls-8{fill:#fefefe;}.cls-11{fill:none;}</style><clipPath id="clip-path"><path class="cls-1" d="M242.14,122l1.81,1.76.09.13.11.44,0,.22h0l.08.36.17.26.05.09.06.16.73.71-.09.16,1.4,1.37,0,0,.08.13-.24.49,0,0-.13.23-.25.22-1.44-1.4,0,.14-.19.18-.11.09,0,.09-1.82-1.76,0-.09.1-.09.2-.18.12-.45.38-.62,0-.05.08-.12-.41-.4-.06-.09,0,0-.18-.53-.05-.09-.17-.26-.08-.36h0l0-.22-.11-.44Zm-2.9,4.62,0,0h0l-1.81-1.76,0,0v0l1.81,1.76Zm-3,.62.07.14-1.81-1.77-.07-.13,0,0-.14-.44,0-.18-.12-.62,0-.13.13-.17-1-1h0l1,1h0l.09-.18.08,0h.08l.09,0,0,0v0l.06-.39-.47-.44v-.18l0-.13,0-.09.51.49,0,0,1.81,1.75,0,.09,0,.09h0v.13l-.07.49v0l0,0-.09,0h-.08l-.08,0-.09.18-.12.18,0,.13.12.62,0,.18.14.44Zm-5.05-1.71,1.81,1.76-.65-.12-1.81-1.76Zm-1.4,3.1.36.34.13.13-.49-.47,0,.09L227.93,127l0-.14,0-.09v-.22l0,0,1.81,1.75,0,.05v.22l0,.09ZM226,127.54l1.81,1.76-.18-.13-1.81-1.76Zm1.35,3-.22-.14-1.81-1.75.22.13.17,0,1.81,1.76Zm-1.65,9.94-.43-.08,0-.05-.08,0-.31-.3h0l-.22-.08-1.81-1.77.22.09.14,0-1.15-1.11V137l0,0,.09,0,.17.08,1.62,1.57.3-.13.2-.14h.22l.86.82h.36l.81-.1L227,139l.18-.05.17-.13.33-.32.16-.13.06-.05.21-.27.17-.18.16-.13.05-.05.21-.22h.17l.13-.05h.18l1.81,1.77h-.18l-.13,0h-.17l-.21.22-.05.05-.16.13-.07.08h0l.44.17.43.13.21.08.22.09.46.45.15,0h.86l.86.21,1.81,1.76-.86-.21h-.86l-.21,0-.18-.08-.46-.45-.19-.07-.43-.13-.44-.17-.21-.09-1.66-1.61,0,0-.21.27-.06,0-.15.14-.34.31-.17.13-.18,0-.38.14-.81.1h-.52l-.34,0h-.18l-.65-.63ZM233,141.9l.49.47-.49-.47Zm2.72,3-.14,0-1.81-1.77.13.05.3.13.44,0h.21l.18.05h.16l.18.08,1.81,1.77-.18-.09h-.16l-.18,0h-.21l-.44,0Zm2.36,6.25-.16-.08-1.82-1.76.17.08.22.08.26.05.51,0,.39.09,1.82,1.75-.39-.07-.19,0,1.67,1.63-.39-.08-.3-.08-.06-.05-.07,0-1.51-1.46Zm.22.09,1.57,1.53-1.57-1.53Zm2.38,3.42-.22,0-1.81-1.75.22,0,.21,0,.17,0,.09,0,1.81,1.76-.09,0-.17,0Zm-2.21.59L240.3,157l0,0-1.82-1.76Zm-.46.59,1.81,1.75h-.05L238,155.85Zm-.09,4.35-.17-.09L236,158.35l.17.09.39.08.56.09.78.75.3,0,.78.53.13.08.31.22,1.08,1,0-.09.06-.18.13-.18.13-.18.08-.09.12-.14.26-.18.47-.36.34-.27.2-.36.17-.31.16-.36.17-.4.11-.22,0,0,.08-.27.08-.31,0-.18.09-.22.12-.18.11-.09.1-.09.3-.18L244,156l.08-.18.15-.49,0,0,.16-.58.08-.58v0l0-.53,0-.14,0-.26,0-.22.06-.14,0,0,.13-.19.21-.18.1-.26,0-.05.26-.31.22-.27,0,0,.3-.19.16-.27.18-.17,0,0,.42-.36.33-.22.14-.1.55-.27.3-.23.09,0,.25-.14.3-.14.38-.13.69-.15.73-.14.29-.24,0,0,.05-.13.12-.23.21-.18.26-.18.51-.23,0-.09,0-.13,0-.17-.1-.09,0-.09-.09-.09v-.18l0-.08.18-.18.3-.28.29-.35.13-.18,0-.09.08-.14.08-.22,0-.22,0,0,.07-.14.12-.18,0-.17.07-.19v0l-.13-.44,0-.13-.06-.26,0-.19,0-.17,0,0,.08-.09.22-.13.21-.36v0l0-.18-.05-.18v-.31l0-.62v0l.08-.58.16-.62,0-.05.11-.22.16-.31v-.09l0-.67v-.17l0-.31,0-.14v-.13l.08-.18.22-.14.25-.18.43-.18v-1l0-.14,0-.17.16-.18.22-.19.22-.13.07,0,.26-.44.05-.14,0-.09.12-.09.31-.14.08-.17.12-.18.47-.41.25-.22.05,0,.15-.58v0l.15-.62v0l.15-.58.17-.66v-.05l-.05-.57,0-.31v-.1l-.35-.34-.22-.31,0-.13,1.81,1.76.05.14,0,0,.48.48,0,.08v.14l0,.31.06.58v0l-.17.67-.15.57v0l-.15.62v0l-.15.59-.05,0-.25.22-.47.41-.12.18-.08.17-.3.15-.13.09,0,.08-.05.14-.26.44-.07,0-.22.13-.22.18-.16.18-.05.19,0,.12v1l-.43.18-.25.18-.21.14-.09.18v.14l0,.13,0,.31v.18l0,.66v.09l-.16.31-.11.22,0,.05-.16.62-.08.57v.05l0,.62v.31l0,.17,0,.19v0l-.21.36-.21.13-.09.09,0,0,0,.17,0,.18.06.27,0,.13.14.44,0,0-.07.18,0,.18-.13.18-.07.14,0,0,0,.22-.08.23-.07.13,0,.09-.13.18-.29.35-.3.27-.17.19,0,.09v.17l.09.09h0l.13.12,0,.22,0,.13,0,.09-.51.23-.26.18-.21.18-.12.22,0,.08.07.05-.34.28-.73.14-.69.15-.38.13-.29.14-.26.14-.09,0-.29.22-.56.27-.13.09-.34.23-.42.36,0,.05-.17.18-.17.26-.3.18,0,.05-.22.27-.26.31,0,0-.1.27-.21.18-.13.17,0,.05-.06.13,0,.22,0,.27,0,.14,0,.53v0l-.08.58-.16.58,0,0-.15.49-.08.18-.17.35-.3.19-.1.09-.1.09-.13.18-.09.22,0,.18-.08.31-.08.26,0,0-.11.23-.17.4-.16.35-.17.31-.2.36-.34.27-.47.36-.25.18-.13.14-.08.09-.13.18-.13.18-.05.18-.11.31-.09.35,0,.14L242,164l-.13.22-.17-.08-1.82-1.77.18.09.13-.22.07-.22,0-.14.09-.35v0l-.42-.28-.52,0h-.13l-.13,0-.79-.78h-.08Zm18-30.7.3.43-1.81-1.75-.3-.44-.09-.13,1.81,1.76Zm-5.79-.53-.06.22-1.81-1.76.06-.22.14-.45,1.81,1.76Z"/></clipPath><clipPath id="clip-path-2"><path class="cls-2" d="M237.76,124.17l.05,0,.12-.09.13-.05.42-.13.18.08.13.09.39.35h0l.3-.14.34-.09.48-.19.25-.09.21-.13.18-.14.09-.14,0,0,.08-.22,0-.23,0-.13h0l0-.31.21-.18.05-.18c.25-.39.48-.39.71,0l.11.44,0,.22h0l.08.36.17.26.05.09.18.53,0,0,.06.09.17.08.35.13-.19.31,0,.05-.38.62-.12.45-.2.18-.1.09,0,.09h.09l.26-.1.28-.09.14,0,.51-.13.52,0h.22l.22.08.12.09,0,0,.07.13-.23.49,0,0-.13.22-.25.23.77-.32.58-.18.14-.06.39,0,.39,0,.39,0,.34,0h.34l.15,0,.16,0,.6.17-.14.45-.06.22,0,0,.08-.09.18-.09.21-.09.21-.09.44.08,1.11.2,1.47,0,.68,0,.73.07.61.13.09.13.3.44.25.22.14.13.3,0h.39l.82,0,.39,0,.34.13.26.17.05,0,.08.08,0,.13.22.31.08.09.05,0,.17.09,0,.09v.13l0,.31.05.57v.05l-.17.66-.15.58v0l-.15.62v0l-.15.58-.05,0-.25.22-.47.41-.12.18-.08.17-.31.14-.12.09,0,.09-.05.14-.26.44-.07,0-.22.13-.22.19-.16.18,0,.17,0,.14v1l-.43.18-.25.18-.22.14-.08.18V138l0,.14,0,.31v.17l0,.67v.09l-.16.31-.11.22,0,.05-.16.62-.08.58v0l0,.62v.31l.05.18,0,.18v0l-.21.36-.22.13-.08.09,0,0,0,.17,0,.19.06.26,0,.13.13.44v0l-.07.19,0,.17-.12.18-.07.14,0,0,0,.22-.08.22-.08.14,0,.09-.13.18-.29.35-.3.28-.18.18,0,.08V147l.09.09,0,.09.09,0,0,.22,0,.13,0,.09-.51.23-.26.18-.21.18-.12.23-.05.13h.09l-.34.27-.73.14-.69.15-.38.13-.3.14-.25.14-.09,0-.3.23-.55.27-.14.1-.33.22-.42.36,0,0-.18.17-.16.27-.3.19,0,0-.22.27-.26.31,0,.05-.1.26-.21.18-.13.19,0,0-.06.14,0,.22,0,.26,0,.14,0,.53v0l-.08.58-.16.58,0,0-.15.49L244,156l-.17.36-.3.18-.1.09-.11.09-.12.18-.09.22,0,.18-.08.31-.08.27,0,0-.11.22-.17.4-.16.36-.17.31-.2.36-.34.27-.47.36-.26.18-.12.14-.08.09-.13.18-.13.18-.06.18-.1.31-.09.35,0,.14-.07.22-.13.22-.18-.09-.13-.13-.08-.12v-.14l0-.09.07-.27.12-.4-.09-.3-.05-.14-.11-.17-.24-.35-.31-.22-.13-.08-.78-.53-.51,0h-.13l-.13,0-.09-.08-.09-.13-.12-.44v0l-.56-.09-.39-.08-.17-.09,0-.09,0-.09.12-.13.18-.13.12-.09.13-.14.08-.13,0-.14,0-.17.12-.4.09-.1.12-.13.21-.18.17-.22.08-.09.13-.14.35-.13H238v-.09l0-.09.21-.19.05,0,.12-.14.09,0,0,0,.22-.31.17-.18.05,0,.16-.18.13-.22.08-.19,0-.26,0-.27v-.13l0-.49-.09,0-.17,0-.21,0-.22,0,.12-.45.05-.17.07-.28,0-.17,0-.18v0l0-.18-.09-.22-.39-.08-.3-.08L238,151l-.06,0-.09-.09-.09-.13,0-.13,0-.22,0-.09v-.62l-.39-.09-.51,0-.26-.05-.22-.08-.17-.08-.13-.13-.05-.09-.08-.18-.1-.4v0l-.11-.66,0-.18,0-.44,0-.44,0-.22,0-.4.17-.09.16-.1,0,0,.05-.09,0-.14.08-.31,0-.08.06-.32-.13-.26,0-.09-.08-.13-.31-.44v0l0-.09,0-.18,0-.17,0-.14-.18-.08h-.16l-.18-.05h-.21l-.44,0-.3-.13-.13-.05,0-.08-.13-.27V142l0-.53v-.62l-.86-.21h-.86l-.22,0-.17-.09-.13-.12-.07-.18,0,0-.22-.09-.21-.08-.43-.13-.44-.17-.21-.08-.17-.18-.14-.18-.08-.22v-.31l0-.26v-.8l-.09-.17-.05,0,0-.05H229l-.13.05h-.17l-.21.22-.05.05-.16.13-.17.18-.21.27-.06.05-.16.13-.33.32-.17.13L227,139l-.38.14-.81.1h-.52l-.34,0h-.18l0-.13v-.4l0-.17-.09-.09h-.22l-.2.14-.31.13-.42-.08,0,0-.08,0,0-.09-.05-.18-.26,0-.22-.09-.13-.13-.06-.17,0-.09-.14-.31,0-.18-.06-.08,0,0-.17-.08-.09,0,0,0v.09l-.09-.45,0-.12.08-.23.15-.45.06-.17.12-.18.13-.14,0-.13,0-.13,0-.27.05-.26,0-.14.43-.41,0-.09.08-.13.12-.31.37-.18.27-.14.6-.27.43-.14.25-.14.09-.09.08-.09.05-.22,0-.18v0l0-.39.07-.27v-.05l0-.31v-.26l0-.36v-.31l0-.31.09-.31.12-.31-.09-.22-.08-.09-.05,0-.17,0-.22-.13.09-.22.12-.14.08,0h.13l.09-.05.13,0,.13-.13.08-.23-.17-.22-.18-.13,0,0v-.22l0-.18.45-.09.67-.15.26-.09.51-.27.21.08.09,0,0,0v.22l0,.09,0,.14.11.09.1,0,.17.14.13.12h0l.22.09,1.19-.64.35-.18.08,0,0-.09.08-.17.07-.14,0,0,.12-.18,0,0,.08,0,.13,0,.3-.27-.65-.12-.09-.13v-.4l0-.32v-.12l0-.18-.13-.18,0-.08v-.14l.12,0,.18,0,.3,0h0l.36.3h0l.16.13.05,0h.08l.09,0,.09,0,.12-.18.17-.31.16-.14.27-.23.46-.23.26-.18h0l.21-.22.17-.23.25-.18.09,0H234l.08,0,0,.09,0,.13v.18l.31,0h.08l.05.08,0,.09h0v.14l-.07.48v0l0,0-.09,0h-.08l-.08,0-.09.18-.13.18,0,.13.12.62,0,.18.14.44,0,0,.07.13,0,0,.22,0h.16l.44-.06.13-.09.08-.09,0,0,.17-.09.13-.09.77-.24.47-.14.21,0,.09,0v0l0,0h0l0,0,.13-.09.14-.09-.05-.18v-.31Zm-.33.72,0,0Zm0,0,0,0Z"/></clipPath></defs><title>logo11</title><g id="Layer_2" data-name="Layer 2"><g id="Layer_1-2" data-name="Layer 1"><path class="cls-3" d="M242.14,122l1.81,1.76.09.13.11.44,0,.22h0l.08.36.17.26.05.09.06.16.73.71-.09.16,1.4,1.37,0,0,.08.13-.24.49,0,0-.13.23-.25.22-1.44-1.4,0,.14-.19.18-.11.09,0,.09-1.82-1.76,0-.09.1-.09.2-.18.12-.45.38-.62,0-.05.08-.12-.41-.4-.06-.09,0,0-.18-.53-.05-.09-.17-.26-.08-.36h0l0-.22-.11-.44Zm-2.9,4.62,0,0h0l-1.81-1.76,0,0v0l1.81,1.76Zm-3,.62.07.14-1.81-1.77-.07-.13,0,0-.14-.44,0-.18-.12-.62,0-.13.13-.17-1-1h0l1,1h0l.09-.18.08,0h.08l.09,0,0,0v0l.06-.39-.47-.44v-.18l0-.13,0-.09.51.49,0,0,1.81,1.75,0,.09,0,.09h0v.13l-.07.49v0l0,0-.09,0h-.08l-.08,0-.09.18-.12.18,0,.13.12.62,0,.18.14.44Zm-5.05-1.71,1.81,1.76-.65-.12-1.81-1.76Zm-1.4,3.1.36.34.13.13-.49-.47,0,.09L227.93,127l0-.14,0-.09v-.22l0,0,1.81,1.75,0,.05v.22l0,.09ZM226,127.54l1.81,1.76-.18-.13-1.81-1.76Zm1.35,3-.22-.14-1.81-1.75.22.13.17,0,1.81,1.76Zm-1.65,9.94-.43-.08,0-.05-.08,0-.31-.3h0l-.22-.08-1.81-1.77.22.09.14,0-1.15-1.11V137l0,0,.09,0,.17.08,1.62,1.57.3-.13.2-.14h.22l.86.82h.36l.81-.1L227,139l.18-.05.17-.13.33-.32.16-.13.06-.05.21-.27.17-.18.16-.13.05-.05.21-.22h.17l.13-.05h.18l1.81,1.77h-.18l-.13,0h-.17l-.21.22-.05.05-.16.13-.07.08h0l.44.17.43.13.21.08.22.09.46.45.15,0h.86l.86.21,1.81,1.76-.86-.21h-.86l-.21,0-.18-.08-.46-.45-.19-.07-.43-.13-.44-.17-.21-.09-1.66-1.61,0,0-.21.27-.06,0-.15.14-.34.31-.17.13-.18,0-.38.14-.81.1h-.52l-.34,0h-.18l-.65-.63ZM233,141.9l.49.47-.49-.47Zm2.72,3-.14,0-1.81-1.77.13.05.3.13.44,0h.21l.18.05h.16l.18.08,1.81,1.77-.18-.09h-.16l-.18,0h-.21l-.44,0Zm2.36,6.25-.16-.08-1.82-1.76.17.08.22.08.26.05.51,0,.39.09,1.82,1.75-.39-.07-.19,0,1.67,1.63-.39-.08-.3-.08-.06-.05-.07,0-1.51-1.46Zm.22.09,1.57,1.53-1.57-1.53Zm2.38,3.42-.22,0-1.81-1.75.22,0,.21,0,.17,0,.09,0,1.81,1.76-.09,0-.17,0Zm-2.21.59L240.3,157l0,0-1.82-1.76Zm-.46.59,1.81,1.75h-.05L238,155.85Zm-.09,4.35-.17-.09L236,158.35l.17.09.39.08.56.09.78.75.3,0,.78.53.13.08.31.22,1.08,1,0-.09.06-.18.13-.18.13-.18.08-.09.12-.14.26-.18.47-.36.34-.27.2-.36.17-.31.16-.36.17-.4.11-.22,0,0,.08-.27.08-.31,0-.18.09-.22.12-.18.11-.09.1-.09.3-.18L244,156l.08-.18.15-.49,0,0,.16-.58.08-.58v0l0-.53,0-.14,0-.26,0-.22.06-.14,0,0,.13-.19.21-.18.1-.26,0-.05.26-.31.22-.27,0,0,.3-.19.16-.27.18-.17,0,0,.42-.36.33-.22.14-.1.55-.27.3-.23.09,0,.25-.14.3-.14.38-.13.69-.15.73-.14.29-.24,0,0,.05-.13.12-.23.21-.18.26-.18.51-.23,0-.09,0-.13,0-.17-.1-.09,0-.09-.09-.09v-.18l0-.08.18-.18.3-.28.29-.35.13-.18,0-.09.08-.14.08-.22,0-.22,0,0,.07-.14.12-.18,0-.17.07-.19v0l-.13-.44,0-.13-.06-.26,0-.19,0-.17,0,0,.08-.09.22-.13.21-.36v0l0-.18-.05-.18v-.31l0-.62v0l.08-.58.16-.62,0-.05.11-.22.16-.31v-.09l0-.67v-.17l0-.31,0-.14v-.13l.08-.18.22-.14.25-.18.43-.18v-1l0-.14,0-.17.16-.18.22-.19.22-.13.07,0,.26-.44.05-.14,0-.09.12-.09.31-.14.08-.17.12-.18.47-.41.25-.22.05,0,.15-.58v0l.15-.62v0l.15-.58.17-.66v-.05l-.05-.57,0-.31v-.1l-.35-.34-.22-.31,0-.13,1.81,1.76.05.14,0,0,.48.48,0,.08v.14l0,.31.06.58v0l-.17.67-.15.57v0l-.15.62v0l-.15.59-.05,0-.25.22-.47.41-.12.18-.08.17-.3.15-.13.09,0,.08-.05.14-.26.44-.07,0-.22.13-.22.18-.16.18-.05.19,0,.12v1l-.43.18-.25.18-.21.14-.09.18v.14l0,.13,0,.31v.18l0,.66v.09l-.16.31-.11.22,0,.05-.16.62-.08.57v.05l0,.62v.31l0,.17,0,.19v0l-.21.36-.21.13-.09.09,0,0,0,.17,0,.18.06.27,0,.13.14.44,0,0-.07.18,0,.18-.13.18-.07.14,0,0,0,.22-.08.23-.07.13,0,.09-.13.18-.29.35-.3.27-.17.19,0,.09v.17l.09.09h0l.13.12,0,.22,0,.13,0,.09-.51.23-.26.18-.21.18-.12.22,0,.08.07.05-.34.28-.73.14-.69.15-.38.13-.29.14-.26.14-.09,0-.29.22-.56.27-.13.09-.34.23-.42.36,0,.05-.17.18-.17.26-.3.18,0,.05-.22.27-.26.31,0,0-.1.27-.21.18-.13.17,0,.05-.06.13,0,.22,0,.27,0,.14,0,.53v0l-.08.58-.16.58,0,0-.15.49-.08.18-.17.35-.3.19-.1.09-.1.09-.13.18-.09.22,0,.18-.08.31-.08.26,0,0-.11.23-.17.4-.16.35-.17.31-.2.36-.34.27-.47.36-.25.18-.13.14-.08.09-.13.18-.13.18-.05.18-.11.31-.09.35,0,.14L242,164l-.13.22-.17-.08-1.82-1.77.18.09.13-.22.07-.22,0-.14.09-.35v0l-.42-.28-.52,0h-.13l-.13,0-.79-.78h-.08Zm18-30.7.3.43-1.81-1.75-.3-.44-.09-.13,1.81,1.76Zm-5.79-.53-.06.22-1.81-1.76.06-.22.14-.45,1.81,1.76Z"/><g class="cls-4"><polygon class="cls-3" points="222.34 164.47 222.34 164.4 260.47 163.82 260.47 163.89 222.34 164.47"/><polygon class="cls-3" points="222.34 164.48 222.34 164.22 260.46 163.65 260.47 163.91 222.34 164.48"/><polygon class="cls-3" points="222.34 164.31 222.34 164.06 260.46 163.47 260.47 163.73 222.34 164.31"/><polygon class="cls-3" points="222.34 164.14 222.34 163.88 260.46 163.31 260.46 163.56 222.34 164.14"/><polygon class="cls-3" points="222.34 163.97 222.33 163.71 260.46 163.13 260.46 163.39 222.34 163.97"/><polygon class="cls-3" points="222.34 163.8 222.33 163.54 260.46 162.96 260.46 163.22 222.34 163.8"/><polygon class="cls-3" points="222.33 163.62 222.33 163.37 260.45 162.79 260.46 163.05 222.33 163.62"/><polygon class="cls-3" points="222.33 163.46 222.32 163.2 260.45 162.62 260.46 162.88 222.33 163.46"/><polygon class="cls-3" points="222.32 163.28 222.32 163.03 260.45 162.45 260.45 162.71 222.32 163.28"/><polygon class="cls-3" points="222.32 163.11 222.32 162.85 260.45 162.28 260.45 162.54 222.32 163.11"/><polygon class="cls-3" points="222.32 162.94 222.32 162.69 260.45 162.1 260.45 162.36 222.32 162.94"/><polygon class="cls-3" points="222.32 162.77 222.32 162.51 260.44 161.94 260.45 162.19 222.32 162.77"/><polygon class="cls-3" points="222.32 162.6 222.31 162.34 260.44 161.76 260.45 162.02 222.32 162.6"/><polygon class="cls-3" points="222.31 162.43 222.31 162.17 260.44 161.59 260.44 161.85 222.31 162.43"/><polygon class="cls-3" points="222.31 162.25 222.3 162 260.43 161.42 260.44 161.68 222.31 162.25"/><polygon class="cls-3" points="222.31 162.09 222.3 161.83 260.43 161.25 260.43 161.51 222.31 162.09"/><polygon class="cls-3" points="222.3 161.91 222.3 161.65 260.43 161.08 260.43 161.34 222.3 161.91"/><polygon class="cls-3" points="222.3 161.74 222.3 161.48 260.43 160.91 260.43 161.17 222.3 161.74"/><polygon class="cls-3" points="222.3 161.57 222.3 161.31 260.43 160.73 260.43 160.99 222.3 161.57"/><polygon class="cls-3" points="222.3 161.4 222.29 161.14 260.42 160.57 260.43 160.82 222.3 161.4"/><polygon class="cls-3" points="222.3 161.22 222.29 160.97 260.42 160.39 260.42 160.65 222.3 161.22"/><polygon class="cls-3" points="222.29 161.06 222.29 160.8 260.41 160.22 260.42 160.47 222.29 161.06"/><polygon class="cls-3" points="222.29 160.88 222.28 160.62 260.41 160.05 260.42 160.31 222.29 160.88"/><polygon class="cls-3" points="222.28 160.71 222.28 160.46 260.41 159.88 260.41 160.13 222.28 160.71"/><polygon class="cls-3" points="222.28 160.54 222.28 160.28 260.41 159.71 260.41 159.96 222.28 160.54"/><polygon class="cls-3" points="222.28 160.37 222.28 160.11 260.41 159.54 260.41 159.79 222.28 160.37"/><polygon class="cls-3" points="222.28 160.2 222.28 159.94 260.4 159.36 260.41 159.62 222.28 160.2"/><polygon class="cls-3" points="222.28 160.03 222.27 159.77 260.4 159.19 260.41 159.45 222.28 160.03"/><polygon class="cls-3" points="222.27 159.85 222.27 159.6 260.4 159.02 260.4 159.28 222.27 159.85"/><polygon class="cls-3" points="222.27 159.69 222.26 159.43 260.39 158.85 260.4 159.1 222.27 159.69"/><polygon class="cls-3" points="222.27 159.51 222.26 159.25 260.39 158.68 260.39 158.94 222.27 159.51"/><polygon class="cls-3" points="222.26 159.34 222.26 159.09 260.39 158.51 260.39 158.76 222.26 159.34"/><polygon class="cls-3" points="222.26 159.17 222.26 158.91 260.39 158.34 260.39 158.59 222.26 159.17"/><polygon class="cls-3" points="222.26 159 222.26 158.74 260.39 158.17 260.39 158.42 222.26 159"/><polygon class="cls-3" points="222.26 158.83 222.25 158.57 260.38 157.99 260.39 158.25 222.26 158.83"/><polygon class="cls-3" points="222.26 158.66 222.25 158.4 260.38 157.82 260.38 158.08 222.26 158.66"/><polygon class="cls-3" points="222.25 158.48 222.25 158.22 260.38 157.65 260.38 157.91 222.25 158.48"/><polygon class="cls-3" points="222.25 158.32 222.25 158.06 260.38 157.48 260.38 157.73 222.25 158.32"/><polygon class="cls-3" points="222.25 158.14 222.25 157.88 260.38 157.31 260.38 157.57 222.25 158.14"/><polygon class="cls-3" points="222.25 157.97 222.24 157.72 260.37 157.14 260.38 157.39 222.25 157.97"/><polygon class="cls-3" points="222.25 157.8 222.24 157.54 260.37 156.97 260.37 157.22 222.25 157.8"/><polygon class="cls-3" points="222.24 157.63 222.24 157.37 260.36 156.8 260.37 157.05 222.24 157.63"/><polygon class="cls-3" points="222.24 157.46 222.23 157.2 260.36 156.62 260.37 156.88 222.24 157.46"/><polygon class="cls-3" points="222.23 157.29 222.23 157.03 260.36 156.45 260.36 156.71 222.23 157.29"/><polygon class="cls-3" points="222.23 157.11 222.23 156.85 260.36 156.28 260.36 156.54 222.23 157.11"/><polygon class="cls-3" points="222.23 156.94 222.23 156.69 260.36 156.11 260.36 156.36 222.23 156.94"/><polygon class="cls-3" points="222.23 156.77 222.23 156.51 260.35 155.94 260.36 156.19 222.23 156.77"/><polygon class="cls-3" points="222.23 156.6 222.22 156.34 260.35 155.77 260.35 156.02 222.23 156.6"/><polygon class="cls-3" points="222.22 156.43 222.22 156.17 260.34 155.59 260.35 155.85 222.22 156.43"/><polygon class="cls-3" points="222.22 156.26 222.21 156 260.34 155.43 260.35 155.68 222.22 156.26"/><polygon class="cls-3" points="222.22 156.09 222.21 155.83 260.34 155.25 260.34 155.51 222.22 156.09"/><polygon class="cls-3" points="222.21 155.92 222.21 155.66 260.34 155.08 260.34 155.34 222.21 155.92"/><polygon class="cls-3" points="222.21 155.74 222.21 155.48 260.34 154.91 260.34 155.17 222.21 155.74"/><polygon class="cls-3" points="222.21 155.57 222.21 155.32 260.33 154.74 260.34 154.99 222.21 155.57"/><polygon class="cls-3" points="222.21 155.4 222.2 155.14 260.33 154.57 260.34 154.82 222.21 155.4"/><polygon class="cls-3" points="222.21 155.23 222.2 154.97 260.33 154.4 260.33 154.65 222.21 155.23"/><polygon class="cls-3" points="222.2 155.06 222.2 154.8 260.32 154.22 260.33 154.48 222.2 155.06"/><polygon class="cls-3" points="222.2 154.88 222.19 154.63 260.32 154.05 260.32 154.31 222.2 154.88"/><polygon class="cls-3" points="222.19 154.72 222.19 154.46 260.32 153.88 260.32 154.14 222.19 154.72"/><polygon class="cls-3" points="222.19 154.54 222.19 154.29 260.32 153.71 260.32 153.97 222.19 154.54"/><polygon class="cls-3" points="222.19 154.37 222.19 154.11 260.32 153.54 260.32 153.8 222.19 154.37"/><polygon class="cls-3" points="222.19 154.2 222.19 153.95 260.31 153.36 260.32 153.62 222.19 154.2"/><polygon class="cls-3" points="222.19 154.03 222.18 153.77 260.31 153.2 260.31 153.45 222.19 154.03"/><polygon class="cls-3" points="222.18 153.85 222.18 153.6 260.3 153.02 260.31 153.28 222.18 153.85"/><polygon class="cls-3" points="222.18 153.69 222.17 153.43 260.3 152.85 260.31 153.11 222.18 153.69"/><polygon class="cls-3" points="222.18 153.51 222.17 153.26 260.3 152.68 260.3 152.94 222.18 153.51"/><polygon class="cls-3" points="222.17 153.34 222.17 153.09 260.3 152.51 260.3 152.77 222.17 153.34"/><polygon class="cls-3" points="222.17 153.17 222.17 152.92 260.3 152.34 260.3 152.59 222.17 153.17"/><polygon class="cls-3" points="222.17 153 222.17 152.74 260.29 152.17 260.3 152.43 222.17 153"/><polygon class="cls-3" points="222.17 152.83 222.16 152.57 260.29 151.99 260.3 152.25 222.17 152.83"/><polygon class="cls-3" points="222.17 152.66 222.16 152.4 260.29 151.82 260.29 152.08 222.17 152.66"/><polygon class="cls-3" points="222.16 152.48 222.16 152.23 260.28 151.65 260.29 151.91 222.16 152.48"/><polygon class="cls-3" points="222.16 152.32 222.16 152.06 260.28 151.48 260.28 151.74 222.16 152.32"/><polygon class="cls-3" points="222.16 152.14 222.16 151.89 260.28 151.31 260.28 151.57 222.16 152.14"/><polygon class="cls-3" points="222.16 151.97 222.15 151.72 260.28 151.14 260.28 151.4 222.16 151.97"/><polygon class="cls-3" points="222.16 151.8 222.15 151.55 260.28 150.97 260.28 151.22 222.16 151.8"/><polygon class="cls-3" points="222.15 151.63 222.15 151.37 260.27 150.8 260.28 151.06 222.15 151.63"/><polygon class="cls-3" points="222.15 151.46 222.14 151.2 260.27 150.62 260.27 150.88 222.15 151.46"/><polygon class="cls-3" points="222.14 151.29 222.14 151.03 260.26 150.46 260.27 150.71 222.14 151.29"/><polygon class="cls-3" points="222.14 151.11 222.13 150.86 260.26 150.28 260.27 150.54 222.14 151.11"/><polygon class="cls-3" points="222.14 150.95 222.13 150.69 260.26 150.11 260.26 150.37 222.14 150.95"/><polygon class="cls-3" points="222.13 150.77 222.13 150.52 260.26 149.94 260.26 150.2 222.13 150.77"/><polygon class="cls-3" points="222.13 150.6 222.13 150.34 260.26 149.77 260.26 150.03 222.13 150.6"/><polygon class="cls-3" points="222.13 150.43 222.13 150.18 260.25 149.59 260.26 149.85 222.13 150.43"/><polygon class="cls-3" points="222.13 150.26 222.12 150 260.25 149.43 260.26 149.69 222.13 150.26"/><polygon class="cls-3" points="222.13 150.09 222.12 149.83 260.25 149.25 260.25 149.51 222.13 150.09"/><polygon class="cls-3" points="222.12 149.92 222.12 149.66 260.25 149.08 260.25 149.34 222.12 149.92"/><polygon class="cls-3" points="222.12 149.74 222.12 149.49 260.25 148.91 260.25 149.17 222.12 149.74"/><polygon class="cls-3" points="222.12 149.57 222.12 149.32 260.24 148.74 260.25 149 222.12 149.57"/><polygon class="cls-3" points="222.12 149.4 222.11 149.15 260.24 148.57 260.25 148.82 222.12 149.4"/><polygon class="cls-3" points="222.12 149.23 222.11 148.97 260.24 148.4 260.24 148.66 222.12 149.23"/><polygon class="cls-3" points="222.11 149.06 222.11 148.8 260.23 148.22 260.24 148.48 222.11 149.06"/><polygon class="cls-3" points="222.11 148.89 222.1 148.63 260.23 148.06 260.23 148.31 222.11 148.89"/><polygon class="cls-3" points="222.1 148.72 222.1 148.46 260.23 147.88 260.23 148.14 222.1 148.72"/><polygon class="cls-3" points="222.1 148.55 222.1 148.29 260.23 147.71 260.23 147.97 222.1 148.55"/><polygon class="cls-3" points="222.1 148.37 222.1 148.11 260.23 147.54 260.23 147.8 222.1 148.37"/><polygon class="cls-3" points="222.1 148.21 222.1 147.95 260.22 147.37 260.23 147.62 222.1 148.21"/><polygon class="cls-3" points="222.1 148.03 222.09 147.77 260.22 147.2 260.22 147.46 222.1 148.03"/><polygon class="cls-3" points="222.09 147.86 222.09 147.6 260.21 147.03 260.22 147.28 222.09 147.86"/><polygon class="cls-3" points="222.09 147.69 222.08 147.43 260.21 146.85 260.22 147.11 222.09 147.69"/><polygon class="cls-3" points="222.09 147.52 222.08 147.26 260.21 146.69 260.21 146.94 222.09 147.52"/><polygon class="cls-3" points="222.08 147.34 222.08 147.09 260.21 146.51 260.21 146.77 222.08 147.34"/><polygon class="cls-3" points="222.08 147.18 222.08 146.92 260.21 146.34 260.21 146.59 222.08 147.18"/><polygon class="cls-3" points="222.08 147 222.08 146.74 260.2 146.17 260.21 146.43 222.08 147"/><polygon class="cls-3" points="222.08 146.83 222.07 146.58 260.2 146 260.21 146.25 222.08 146.83"/><polygon class="cls-3" points="222.08 146.66 222.07 146.4 260.2 145.83 260.2 146.08 222.08 146.66"/><polygon class="cls-3" points="222.07 146.49 222.07 146.23 260.19 145.66 260.2 145.91 222.07 146.49"/><polygon class="cls-3" points="222.07 146.32 222.06 146.06 260.19 145.48 260.19 145.74 222.07 146.32"/><polygon class="cls-3" points="222.06 146.15 222.06 145.89 260.19 145.31 260.19 145.57 222.06 146.15"/><polygon class="cls-3" points="222.06 145.97 222.06 145.72 260.19 145.14 260.19 145.4 222.06 145.97"/><polygon class="cls-3" points="222.06 145.81 222.06 145.55 260.19 144.97 260.19 145.22 222.06 145.81"/><polygon class="cls-3" points="222.06 145.63 222.06 145.37 260.18 144.8 260.19 145.06 222.06 145.63"/><polygon class="cls-3" points="222.06 145.46 222.05 145.21 260.18 144.63 260.18 144.88 222.06 145.46"/><polygon class="cls-3" points="222.05 145.29 222.05 145.03 260.18 144.46 260.18 144.71 222.05 145.29"/><polygon class="cls-3" points="222.05 145.12 222.04 144.86 260.18 144.29 260.18 144.54 222.05 145.12"/><polygon class="cls-3" points="222.05 144.95 222.04 144.69 260.18 144.11 260.18 144.37 222.05 144.95"/><polygon class="cls-3" points="222.04 144.78 222.04 144.52 260.17 143.94 260.18 144.2 222.04 144.78"/><polygon class="cls-3" points="222.04 144.6 222.04 144.34 260.17 143.77 260.17 144.03 222.04 144.6"/><polygon class="cls-3" points="222.04 144.44 222.04 144.18 260.16 143.6 260.17 143.85 222.04 144.44"/><polygon class="cls-3" points="222.04 144.26 222.03 144 260.16 143.43 260.17 143.69 222.04 144.26"/><polygon class="cls-3" points="222.04 144.09 222.03 143.83 260.16 143.26 260.16 143.51 222.04 144.09"/><polygon class="cls-3" points="222.03 143.92 222.03 143.66 260.15 143.09 260.16 143.34 222.03 143.92"/><polygon class="cls-3" points="222.03 143.75 222.03 143.49 260.15 142.92 260.15 143.17 222.03 143.75"/><polygon class="cls-3" points="222.03 143.58 222.03 143.32 260.15 142.74 260.15 143 222.03 143.58"/><polygon class="cls-3" points="222.03 143.41 222.02 143.15 260.15 142.57 260.15 142.83 222.03 143.41"/><polygon class="cls-3" points="222.03 143.23 222.02 142.97 260.15 142.4 260.15 142.66 222.03 143.23"/><polygon class="cls-3" points="222.02 143.06 222.02 142.81 260.14 142.23 260.15 142.48 222.02 143.06"/><polygon class="cls-3" points="222.02 142.89 222.01 142.63 260.14 142.06 260.14 142.31 222.02 142.89"/><polygon class="cls-3" points="222.01 142.72 222.01 142.46 260.14 141.89 260.14 142.14 222.01 142.72"/><polygon class="cls-3" points="222.01 142.55 222.01 142.29 260.14 141.71 260.14 141.97 222.01 142.55"/><polygon class="cls-3" points="222.01 142.37 222.01 142.12 260.14 141.55 260.14 141.8 222.01 142.37"/><polygon class="cls-3" points="222.01 142.21 222.01 141.95 260.13 141.37 260.14 141.63 222.01 142.21"/><polygon class="cls-3" points="222.01 142.03 222 141.78 260.13 141.2 260.13 141.46 222.01 142.03"/><polygon class="cls-3" points="222 141.86 222 141.6 260.12 141.03 260.13 141.29 222 141.86"/><polygon class="cls-3" points="222 141.69 221.99 141.44 260.12 140.85 260.13 141.11 222 141.69"/><polygon class="cls-3" points="222 141.52 221.99 141.26 260.12 140.69 260.12 140.94 222 141.52"/><polygon class="cls-3" points="221.99 141.34 221.99 141.09 260.12 140.51 260.12 140.77 221.99 141.34"/><polygon class="cls-3" points="221.99 141.18 221.99 140.92 260.12 140.34 260.12 140.6 221.99 141.18"/><polygon class="cls-3" points="221.99 141 221.99 140.75 260.11 140.17 260.12 140.43 221.99 141"/><polygon class="cls-3" points="221.99 140.84 221.98 140.58 260.11 140 260.12 140.26 221.99 140.84"/><polygon class="cls-3" points="221.99 140.66 221.98 140.41 260.11 139.83 260.11 140.09 221.99 140.66"/><polygon class="cls-3" points="221.98 140.49 221.98 140.23 260.1 139.66 260.11 139.92 221.98 140.49"/><polygon class="cls-3" points="221.98 140.32 221.97 140.06 260.1 139.48 260.1 139.74 221.98 140.32"/><polygon class="cls-3" points="221.97 140.15 221.97 139.89 260.1 139.32 260.1 139.57 221.97 140.15"/><polygon class="cls-3" points="221.97 139.97 221.97 139.72 260.1 139.14 260.1 139.4 221.97 139.97"/><polygon class="cls-3" points="221.97 139.81 221.97 139.55 260.1 138.97 260.1 139.23 221.97 139.81"/><polygon class="cls-3" points="221.97 139.63 221.97 139.38 260.09 138.8 260.1 139.06 221.97 139.63"/><polygon class="cls-3" points="221.97 139.46 221.96 139.21 260.09 138.63 260.09 138.89 221.97 139.46"/><polygon class="cls-3" points="221.96 139.29 221.96 139.04 260.08 138.46 260.09 138.71 221.96 139.29"/><polygon class="cls-3" points="221.96 139.12 221.95 138.86 260.08 138.29 260.09 138.55 221.96 139.12"/><polygon class="cls-3" points="221.96 138.95 221.95 138.69 260.08 138.11 260.08 138.37 221.96 138.95"/><polygon class="cls-3" points="221.95 138.78 221.95 138.52 260.08 137.94 260.08 138.2 221.95 138.78"/><polygon class="cls-3" points="221.95 138.6 221.95 138.35 260.08 137.77 260.08 138.03 221.95 138.6"/><polygon class="cls-3" points="221.95 138.44 221.95 138.18 260.07 137.6 260.08 137.86 221.95 138.44"/><polygon class="cls-3" points="221.95 138.26 221.94 138.01 260.07 137.43 260.08 137.69 221.95 138.26"/><polygon class="cls-3" points="221.95 138.09 221.94 137.84 260.07 137.26 260.07 137.52 221.95 138.09"/><polygon class="cls-3" points="221.94 137.92 221.94 137.67 260.06 137.09 260.07 137.34 221.94 137.92"/><polygon class="cls-3" points="221.94 137.75 221.94 137.49 260.06 136.92 260.06 137.18 221.94 137.75"/><polygon class="cls-3" points="221.94 137.58 221.94 137.32 260.06 136.74 260.06 137 221.94 137.58"/><polygon class="cls-3" points="221.94 137.41 221.93 137.15 260.06 136.57 260.06 136.83 221.94 137.41"/><polygon class="cls-3" points="221.94 137.23 221.93 136.98 260.06 136.4 260.06 136.66 221.94 137.23"/><polygon class="cls-3" points="221.93 137.07 221.93 136.81 260.05 136.23 260.06 136.49 221.93 137.07"/><polygon class="cls-3" points="221.93 136.89 221.92 136.64 260.05 136.06 260.05 136.32 221.93 136.89"/><polygon class="cls-3" points="221.92 136.72 221.92 136.47 260.05 135.89 260.05 136.15 221.92 136.72"/><polygon class="cls-3" points="221.92 136.55 221.91 136.3 260.05 135.72 260.05 135.97 221.92 136.55"/><polygon class="cls-3" points="221.92 136.38 221.91 136.12 260.05 135.55 260.05 135.81 221.92 136.38"/><polygon class="cls-3" points="221.91 136.21 221.91 135.95 260.04 135.37 260.05 135.63 221.91 136.21"/><polygon class="cls-3" points="221.91 136.04 221.91 135.78 260.04 135.2 260.04 135.46 221.91 136.04"/><polygon class="cls-3" points="221.91 135.86 221.91 135.6 260.03 135.03 260.04 135.29 221.91 135.86"/><polygon class="cls-3" points="221.91 135.69 221.9 135.44 260.03 134.86 260.04 135.12 221.91 135.69"/><polygon class="cls-3" points="221.91 135.52 221.9 135.26 260.03 134.69 260.03 134.94 221.91 135.52"/><polygon class="cls-3" points="221.9 135.35 221.9 135.09 260.03 134.52 260.03 134.78 221.9 135.35"/><polygon class="cls-3" points="221.9 135.18 221.9 134.92 260.03 134.34 260.03 134.6 221.9 135.18"/><polygon class="cls-3" points="221.9 135.01 221.9 134.75 260.02 134.18 260.03 134.43 221.9 135.01"/><polygon class="cls-3" points="221.9 134.84 221.89 134.58 260.02 134 260.03 134.26 221.9 134.84"/><polygon class="cls-3" points="221.9 134.67 221.89 134.41 260.02 133.83 260.02 134.09 221.9 134.67"/><polygon class="cls-3" points="221.89 134.49 221.89 134.23 260.01 133.66 260.02 133.92 221.89 134.49"/><polygon class="cls-3" points="221.89 134.32 221.88 134.07 260.01 133.49 260.01 133.74 221.89 134.32"/><polygon class="cls-3" points="221.88 134.15 221.88 133.89 260.01 133.32 260.01 133.57 221.88 134.15"/><polygon class="cls-3" points="221.88 133.98 221.88 133.72 260.01 133.15 260.01 133.4 221.88 133.98"/><polygon class="cls-3" points="221.88 133.81 221.88 133.55 260.01 132.97 260.01 133.23 221.88 133.81"/><polygon class="cls-3" points="221.88 133.64 221.88 133.38 260 132.81 260.01 133.06 221.88 133.64"/><polygon class="cls-3" points="221.88 133.47 221.87 133.21 260 132.63 260 132.89 221.88 133.47"/><polygon class="cls-3" points="221.87 133.3 221.87 133.04 259.99 132.46 260 132.72 221.87 133.3"/><polygon class="cls-3" points="221.87 133.12 221.86 132.86 259.99 132.29 260 132.55 221.87 133.12"/><polygon class="cls-3" points="221.86 132.95 221.86 132.69 259.99 132.12 259.99 132.37 221.86 132.95"/><polygon class="cls-3" points="221.86 132.78 221.86 132.52 259.99 131.95 259.99 132.2 221.86 132.78"/><polygon class="cls-3" points="221.86 132.61 221.86 132.35 259.99 131.78 259.99 132.03 221.86 132.61"/><polygon class="cls-3" points="221.86 132.44 221.86 132.18 259.98 131.6 259.99 131.86 221.86 132.44"/><polygon class="cls-3" points="221.86 132.27 221.85 132.01 259.98 131.44 259.99 131.69 221.86 132.27"/><polygon class="cls-3" points="221.85 132.09 221.85 131.84 259.98 131.26 259.98 131.52 221.85 132.09"/><polygon class="cls-3" points="221.85 131.93 221.84 131.67 259.97 131.09 259.98 131.34 221.85 131.93"/><polygon class="cls-3" points="221.85 131.75 221.84 131.49 259.97 130.92 259.97 131.18 221.85 131.75"/><polygon class="cls-3" points="221.84 131.58 221.84 131.32 259.97 130.75 259.97 131 221.84 131.58"/><polygon class="cls-3" points="221.84 131.41 221.84 131.15 259.97 130.57 259.97 130.83 221.84 131.41"/><polygon class="cls-3" points="221.84 131.24 221.84 130.98 259.97 130.41 259.97 130.66 221.84 131.24"/><polygon class="cls-3" points="221.84 131.07 221.83 130.81 259.96 130.23 259.97 130.49 221.84 131.07"/><polygon class="cls-3" points="221.84 130.9 221.83 130.64 259.96 130.06 259.96 130.32 221.84 130.9"/><polygon class="cls-3" points="221.83 130.72 221.83 130.47 259.95 129.89 259.96 130.15 221.83 130.72"/><polygon class="cls-3" points="221.83 130.56 221.82 130.3 259.95 129.72 259.96 129.97 221.83 130.56"/><polygon class="cls-3" points="221.82 130.38 221.82 130.12 259.95 129.55 259.95 129.81 221.82 130.38"/><polygon class="cls-3" points="221.82 130.21 221.82 129.95 259.95 129.38 259.95 129.63 221.82 130.21"/><polygon class="cls-3" points="221.82 130.04 221.82 129.78 259.95 129.2 259.95 129.46 221.82 130.04"/><polygon class="cls-3" points="221.82 129.87 221.82 129.61 259.94 129.04 259.95 129.29 221.82 129.87"/><polygon class="cls-3" points="221.82 129.7 221.81 129.44 259.94 128.86 259.95 129.12 221.82 129.7"/><polygon class="cls-3" points="221.81 129.53 221.81 129.27 259.94 128.69 259.94 128.95 221.81 129.53"/><polygon class="cls-3" points="221.81 129.35 221.81 129.09 259.94 128.52 259.94 128.78 221.81 129.35"/><polygon class="cls-3" points="221.81 129.18 221.81 128.93 259.94 128.35 259.94 128.6 221.81 129.18"/><polygon class="cls-3" points="221.81 129.01 221.81 128.75 259.93 128.18 259.94 128.44 221.81 129.01"/><polygon class="cls-3" points="221.81 128.84 221.8 128.58 259.93 128 259.94 128.26 221.81 128.84"/><polygon class="cls-3" points="221.8 128.67 221.8 128.41 259.93 127.83 259.93 128.09 221.8 128.67"/><polygon class="cls-3" points="221.8 128.49 221.79 128.24 259.92 127.66 259.93 127.92 221.8 128.49"/><polygon class="cls-3" points="221.8 128.32 221.79 128.07 259.92 127.49 259.92 127.75 221.8 128.32"/><polygon class="cls-3" points="221.79 128.15 221.79 127.9 259.92 127.32 259.92 127.58 221.79 128.15"/><polygon class="cls-3" points="221.79 127.98 221.79 127.72 259.92 127.15 259.92 127.41 221.79 127.98"/><polygon class="cls-3" points="221.79 127.81 221.79 127.56 259.92 126.97 259.92 127.23 221.79 127.81"/><polygon class="cls-3" points="221.79 127.64 221.78 127.38 259.91 126.81 259.92 127.06 221.79 127.64"/><polygon class="cls-3" points="221.79 127.47 221.78 127.21 259.91 126.63 259.91 126.89 221.79 127.47"/><polygon class="cls-3" points="221.78 127.3 221.78 127.04 259.9 126.46 259.91 126.72 221.78 127.3"/><polygon class="cls-3" points="221.78 127.12 221.77 126.87 259.9 126.29 259.91 126.55 221.78 127.12"/><polygon class="cls-3" points="221.77 126.95 221.77 126.7 259.9 126.12 259.9 126.38 221.77 126.95"/><polygon class="cls-3" points="221.77 126.78 221.77 126.53 259.9 125.95 259.9 126.2 221.77 126.78"/><polygon class="cls-3" points="221.77 126.61 221.77 126.35 259.9 125.78 259.9 126.04 221.77 126.61"/><polygon class="cls-3" points="221.77 126.44 221.77 126.19 259.89 125.6 259.9 125.86 221.77 126.44"/><polygon class="cls-3" points="221.77 126.27 221.76 126.01 259.89 125.44 259.9 125.69 221.77 126.27"/><polygon class="cls-3" points="221.76 126.09 221.76 125.84 259.89 125.26 259.89 125.52 221.76 126.09"/><polygon class="cls-3" points="221.76 125.93 221.75 125.67 259.88 125.09 259.89 125.35 221.76 125.93"/><polygon class="cls-3" points="221.76 125.75 221.75 125.5 259.88 124.92 259.88 125.18 221.76 125.75"/><polygon class="cls-3" points="221.75 125.58 221.75 125.33 259.88 124.75 259.88 125.01 221.75 125.58"/><polygon class="cls-3" points="221.75 125.41 221.75 125.16 259.88 124.58 259.88 124.83 221.75 125.41"/><polygon class="cls-3" points="221.75 125.24 221.75 124.98 259.88 124.41 259.88 124.67 221.75 125.24"/><polygon class="cls-3" points="221.75 125.07 221.74 124.81 259.87 124.23 259.88 124.49 221.75 125.07"/><polygon class="cls-3" points="221.75 124.9 221.74 124.64 259.87 124.06 259.87 124.32 221.75 124.9"/><polygon class="cls-3" points="221.74 124.72 221.74 124.47 259.86 123.89 259.87 124.15 221.74 124.72"/><polygon class="cls-3" points="221.74 124.56 221.73 124.3 259.86 123.72 259.87 123.98 221.74 124.56"/><polygon class="cls-3" points="221.73 124.38 221.73 124.13 259.86 123.55 259.86 123.81 221.73 124.38"/><polygon class="cls-3" points="221.73 124.21 221.73 123.95 259.86 123.38 259.86 123.64 221.73 124.21"/><polygon class="cls-3" points="221.73 124.04 221.73 123.79 259.86 123.2 259.86 123.46 221.73 124.04"/><polygon class="cls-3" points="221.73 123.87 221.73 123.61 259.85 123.04 259.86 123.3 221.73 123.87"/><polygon class="cls-3" points="221.73 123.7 221.72 123.44 259.85 122.86 259.86 123.12 221.73 123.7"/><polygon class="cls-3" points="221.72 123.53 221.72 123.27 259.85 122.69 259.85 122.95 221.72 123.53"/><polygon class="cls-3" points="221.72 123.35 221.72 123.1 259.85 122.52 259.85 122.78 221.72 123.35"/><polygon class="cls-3" points="221.72 123.19 221.72 122.93 259.85 122.35 259.85 122.61 221.72 123.19"/><polygon class="cls-3" points="221.72 123.01 221.72 122.75 259.84 122.18 259.85 122.44 221.72 123.01"/><polygon class="cls-3" points="221.72 122.84 221.71 122.58 259.84 122.01 259.84 122.27 221.72 122.84"/><polygon class="cls-3" points="221.71 122.67 221.71 122.41 259.83 121.83 259.84 122.09 221.71 122.67"/><polygon class="cls-3" points="221.71 122.5 221.71 122.34 259.83 121.77 259.84 121.92 221.71 122.5"/></g><path class="cls-5" d="M237.76,124.17l.05,0,.12-.09.13-.05.42-.13.18.08.13.09.39.35h0l.3-.14.34-.09.48-.19.25-.09.21-.13.18-.14.09-.14,0,0,.08-.22,0-.23,0-.13h0l0-.31.21-.18.05-.18c.25-.39.48-.39.71,0l.11.44,0,.22h0l.08.36.17.26.05.09.18.53,0,0,.06.09.17.08.35.13-.19.31,0,.05-.38.62-.12.45-.2.18-.1.09,0,.09h.09l.26-.1.28-.09.14,0,.51-.13.52,0h.22l.22.08.12.09,0,0,.07.13-.23.49,0,0-.13.22-.25.23.77-.32.58-.18.14-.06.39,0,.39,0,.39,0,.34,0h.34l.15,0,.16,0,.6.17-.14.45-.06.22,0,0,.08-.09.18-.09.21-.09.21-.09.44.08,1.11.2,1.47,0,.68,0,.73.07.61.13.09.13.3.44.25.22.14.13.3,0h.39l.82,0,.39,0,.34.13.26.17.05,0,.08.08,0,.13.22.31.08.09.05,0,.17.09,0,.09v.13l0,.31.05.57v.05l-.17.66-.15.58v0l-.15.62v0l-.15.58-.05,0-.25.22-.47.41-.12.18-.08.17-.31.14-.12.09,0,.09-.05.14-.26.44-.07,0-.22.13-.22.19-.16.18,0,.17,0,.14v1l-.43.18-.25.18-.22.14-.08.18V138l0,.14,0,.31v.17l0,.67v.09l-.16.31-.11.22,0,.05-.16.62-.08.58v0l0,.62v.31l.05.18,0,.18v0l-.21.36-.22.13-.08.09,0,0,0,.17,0,.19.06.26,0,.13.13.44v0l-.07.19,0,.17-.12.18-.07.14,0,0,0,.22-.08.22-.08.14,0,.09-.13.18-.29.35-.3.28-.18.18,0,.08V147l.09.09,0,.09.09,0,0,.22,0,.13,0,.09-.51.23-.26.18-.21.18-.12.23-.05.13h.09l-.34.27-.73.14-.69.15-.38.13-.3.14-.25.14-.09,0-.3.23-.55.27-.14.1-.33.22-.42.36,0,0-.18.17-.16.27-.3.19,0,0-.22.27-.26.31,0,.05-.1.26-.21.18-.13.19,0,0-.06.14,0,.22,0,.26,0,.14,0,.53v0l-.08.58-.16.58,0,0-.15.49L244,156l-.17.36-.3.18-.1.09-.11.09-.12.18-.09.22,0,.18-.08.31-.08.27,0,0-.11.22-.17.4-.16.36-.17.31-.2.36-.34.27-.47.36-.26.18-.12.14-.08.09-.13.18-.13.18-.06.18-.1.31-.09.35,0,.14-.07.22-.13.22-.18-.09-.13-.13-.08-.12v-.14l0-.09.07-.27.12-.4-.09-.3-.05-.14-.11-.17-.24-.35-.31-.22-.13-.08-.78-.53-.51,0h-.13l-.13,0-.09-.08-.09-.13-.12-.44v0l-.56-.09-.39-.08-.17-.09,0-.09,0-.09.12-.13.18-.13.12-.09.13-.14.08-.13,0-.14,0-.17.12-.4.09-.1.12-.13.21-.18.17-.22.08-.09.13-.14.35-.13H238v-.09l0-.09.21-.19.05,0,.12-.14.09,0,0,0,.22-.31.17-.18.05,0,.16-.18.13-.22.08-.19,0-.26,0-.27v-.13l0-.49-.09,0-.17,0-.21,0-.22,0,.12-.45.05-.17.07-.28,0-.17,0-.18v0l0-.18-.09-.22-.39-.08-.3-.08L238,151l-.06,0-.09-.09-.09-.13,0-.13,0-.22,0-.09v-.62l-.39-.09-.51,0-.26-.05-.22-.08-.17-.08-.13-.13-.05-.09-.08-.18-.1-.4v0l-.11-.66,0-.18,0-.44,0-.44,0-.22,0-.4.17-.09.16-.1,0,0,.05-.09,0-.14.08-.31,0-.08.06-.32-.13-.26,0-.09-.08-.13-.31-.44v0l0-.09,0-.18,0-.17,0-.14-.18-.08h-.16l-.18-.05h-.21l-.44,0-.3-.13-.13-.05,0-.08-.13-.27V142l0-.53v-.62l-.86-.21h-.86l-.22,0-.17-.09-.13-.12-.07-.18,0,0-.22-.09-.21-.08-.43-.13-.44-.17-.21-.08-.17-.18-.14-.18-.08-.22v-.31l0-.26v-.8l-.09-.17-.05,0,0-.05H229l-.13.05h-.17l-.21.22-.05.05-.16.13-.17.18-.21.27-.06.05-.16.13-.33.32-.17.13L227,139l-.38.14-.81.1h-.52l-.34,0h-.18l0-.13v-.4l0-.17-.09-.09h-.22l-.2.14-.31.13-.42-.08,0,0-.08,0,0-.09-.05-.18-.26,0-.22-.09-.13-.13-.06-.17,0-.09-.14-.31,0-.18-.06-.08,0,0-.17-.08-.09,0,0,0v.09l-.09-.45,0-.12.08-.23.15-.45.06-.17.12-.18.13-.14,0-.13,0-.13,0-.27.05-.26,0-.14.43-.41,0-.09.08-.13.12-.31.37-.18.27-.14.6-.27.43-.14.25-.14.09-.09.08-.09.05-.22,0-.18v0l0-.39.07-.27v-.05l0-.31v-.26l0-.36v-.31l0-.31.09-.31.12-.31-.09-.22-.08-.09-.05,0-.17,0-.22-.13.09-.22.12-.14.08,0h.13l.09-.05.13,0,.13-.13.08-.23-.17-.22-.18-.13,0,0v-.22l0-.18.45-.09.67-.15.26-.09.51-.27.21.08.09,0,0,0v.22l0,.09,0,.14.11.09.1,0,.17.14.13.12h0l.22.09,1.19-.64.35-.18.08,0,0-.09.08-.17.07-.14,0,0,.12-.18,0,0,.08,0,.13,0,.3-.27-.65-.12-.09-.13v-.4l0-.32v-.12l0-.18-.13-.18,0-.08v-.14l.12,0,.18,0,.3,0h0l.36.3h0l.16.13.05,0h.08l.09,0,.09,0,.12-.18.17-.31.16-.14.27-.23.46-.23.26-.18h0l.21-.22.17-.23.25-.18.09,0H234l.08,0,0,.09,0,.13v.18l.31,0h.08l.05.08,0,.09h0v.14l-.07.48v0l0,0-.09,0h-.08l-.08,0-.09.18-.13.18,0,.13.12.62,0,.18.14.44,0,0,.07.13,0,0,.22,0h.16l.44-.06.13-.09.08-.09,0,0,.17-.09.13-.09.77-.24.47-.14.21,0,.09,0v0l0,0h0l0,0,.13-.09.14-.09-.05-.18v-.31Zm-.33.72,0,0Zm0,0,0,0Z"/><g class="cls-6"><polygon class="cls-5" points="222.23 162.69 222.23 162.76 258.66 162.21 258.66 162.13 222.23 162.69"/><polygon class="cls-5" points="222.23 162.85 222.23 162.6 258.66 162.05 258.66 162.29 222.23 162.85"/><polygon class="cls-5" points="222.23 162.68 222.23 162.43 258.65 161.88 258.66 162.13 222.23 162.68"/><polygon class="cls-5" points="222.23 162.52 222.23 162.27 258.65 161.72 258.66 161.96 222.23 162.52"/><polygon class="cls-5" points="222.23 162.36 222.23 162.11 258.65 161.56 258.65 161.8 222.23 162.36"/><polygon class="cls-5" points="222.23 162.19 222.22 161.94 258.65 161.39 258.65 161.64 222.23 162.19"/><polygon class="cls-5" points="222.22 162.03 222.22 161.78 258.65 161.22 258.65 161.47 222.22 162.03"/><polygon class="cls-5" points="222.22 161.86 222.22 161.61 258.65 161.06 258.65 161.31 222.22 161.86"/><polygon class="cls-5" points="222.22 161.7 222.21 161.45 258.64 160.9 258.65 161.14 222.22 161.7"/><polygon class="cls-5" points="222.21 161.53 222.21 161.29 258.64 160.73 258.64 160.98 222.21 161.53"/><polygon class="cls-5" points="222.21 161.37 222.21 161.12 258.64 160.57 258.64 160.82 222.21 161.37"/><polygon class="cls-5" points="222.21 161.21 222.21 160.96 258.64 160.4 258.64 160.65 222.21 161.21"/><polygon class="cls-5" points="222.21 161.04 222.21 160.79 258.64 160.24 258.64 160.49 222.21 161.04"/><polygon class="cls-5" points="222.21 160.88 222.2 160.63 258.63 160.07 258.64 160.32 222.21 160.88"/><polygon class="cls-5" points="222.2 160.71 222.2 160.47 258.63 159.91 258.63 160.16 222.2 160.71"/><polygon class="cls-5" points="222.2 160.55 222.19 160.3 258.62 159.75 258.63 160 222.2 160.55"/><polygon class="cls-5" points="222.2 160.38 222.19 160.14 258.62 159.58 258.63 159.83 222.2 160.38"/><polygon class="cls-5" points="222.19 160.22 222.19 159.97 258.62 159.42 258.62 159.67 222.19 160.22"/><polygon class="cls-5" points="222.19 160.06 222.19 159.81 258.62 159.25 258.62 159.5 222.19 160.06"/><polygon class="cls-5" points="222.19 159.89 222.19 159.65 258.62 159.09 258.62 159.34 222.19 159.89"/><polygon class="cls-5" points="222.19 159.72 222.19 159.48 258.62 158.93 258.62 159.18 222.19 159.72"/><polygon class="cls-5" points="222.19 159.56 222.18 159.32 258.61 158.76 258.62 159.01 222.19 159.56"/><polygon class="cls-5" points="222.18 159.4 222.18 159.15 258.61 158.6 258.61 158.85 222.18 159.4"/><polygon class="cls-5" points="222.18 159.23 222.17 158.99 258.6 158.43 258.61 158.68 222.18 159.23"/><polygon class="cls-5" points="222.18 159.07 222.17 158.83 258.6 158.27 258.61 158.52 222.18 159.07"/><polygon class="cls-5" points="222.17 158.9 222.17 158.66 258.6 158.11 258.6 158.35 222.17 158.9"/><polygon class="cls-5" points="222.17 158.74 222.17 158.5 258.6 157.94 258.6 158.19 222.17 158.74"/><polygon class="cls-5" points="222.17 158.57 222.17 158.33 258.6 157.78 258.6 158.03 222.17 158.57"/><polygon class="cls-5" points="222.17 158.41 222.16 158.17 258.59 157.61 258.6 157.86 222.17 158.41"/><polygon class="cls-5" points="222.17 158.25 222.16 158 258.59 157.45 258.6 157.69 222.17 158.25"/><polygon class="cls-5" points="222.16 158.08 222.16 157.84 258.59 157.29 258.59 157.53 222.16 158.08"/><polygon class="cls-5" points="222.16 157.92 222.16 157.68 258.58 157.12 258.59 157.37 222.16 157.92"/><polygon class="cls-5" points="222.16 157.75 222.16 157.51 258.58 156.96 258.58 157.2 222.16 157.75"/><polygon class="cls-5" points="222.16 157.59 222.15 157.35 258.58 156.79 258.58 157.04 222.16 157.59"/><polygon class="cls-5" points="222.16 157.43 222.15 157.18 258.58 156.63 258.58 156.87 222.16 157.43"/><polygon class="cls-5" points="222.15 157.26 222.15 157.02 258.58 156.47 258.58 156.71 222.15 157.26"/><polygon class="cls-5" points="222.15 157.1 222.14 156.85 258.57 156.3 258.58 156.54 222.15 157.1"/><polygon class="cls-5" points="222.15 156.93 222.14 156.69 258.57 156.14 258.58 156.38 222.15 156.93"/><polygon class="cls-5" points="222.14 156.77 222.14 156.53 258.57 155.97 258.57 156.22 222.14 156.77"/><polygon class="cls-5" points="222.14 156.61 222.13 156.36 258.56 155.81 258.57 156.05 222.14 156.61"/><polygon class="cls-5" points="222.13 156.44 222.13 156.19 258.56 155.65 258.56 155.89 222.13 156.44"/><polygon class="cls-5" points="222.13 156.28 222.13 156.03 258.56 155.48 258.56 155.72 222.13 156.28"/><polygon class="cls-5" points="222.13 156.11 222.13 155.87 258.56 155.32 258.56 155.56 222.13 156.11"/><polygon class="cls-5" points="222.13 155.95 222.13 155.7 258.56 155.15 258.56 155.39 222.13 155.95"/><polygon class="cls-5" points="222.13 155.79 222.12 155.54 258.55 154.99 258.56 155.23 222.13 155.79"/><polygon class="cls-5" points="222.12 155.62 222.12 155.37 258.55 154.82 258.55 155.07 222.12 155.62"/><polygon class="cls-5" points="222.12 155.46 222.12 155.21 258.55 154.66 258.55 154.9 222.12 155.46"/><polygon class="cls-5" points="222.12 155.29 222.12 155.04 258.55 154.5 258.55 154.74 222.12 155.29"/><polygon class="cls-5" points="222.12 155.13 222.12 154.88 258.55 154.33 258.55 154.57 222.12 155.13"/><polygon class="cls-5" points="222.12 154.97 222.11 154.72 258.54 154.16 258.55 154.41 222.12 154.97"/><polygon class="cls-5" points="222.12 154.8 222.11 154.55 258.54 154 258.55 154.25 222.12 154.8"/><polygon class="cls-5" points="222.11 154.64 222.11 154.39 258.54 153.84 258.54 154.08 222.11 154.64"/><polygon class="cls-5" points="222.11 154.47 222.1 154.22 258.53 153.67 258.54 153.92 222.11 154.47"/><polygon class="cls-5" points="222.1 154.31 222.1 154.06 258.53 153.51 258.53 153.75 222.1 154.31"/><polygon class="cls-5" points="222.1 154.15 222.1 153.9 258.53 153.34 258.53 153.59 222.1 154.15"/><polygon class="cls-5" points="222.1 153.98 222.1 153.73 258.53 153.18 258.53 153.43 222.1 153.98"/><polygon class="cls-5" points="222.1 153.82 222.1 153.57 258.53 153.01 258.53 153.26 222.1 153.82"/><polygon class="cls-5" points="222.1 153.65 222.09 153.4 258.52 152.85 258.53 153.1 222.1 153.65"/><polygon class="cls-5" points="222.09 153.49 222.09 153.24 258.52 152.69 258.52 152.93 222.09 153.49"/><polygon class="cls-5" points="222.09 153.32 222.08 153.08 258.51 152.52 258.52 152.77 222.09 153.32"/><polygon class="cls-5" points="222.09 153.16 222.08 152.91 258.51 152.36 258.52 152.61 222.09 153.16"/><polygon class="cls-5" points="222.08 153 222.08 152.75 258.51 152.19 258.51 152.44 222.08 153"/><polygon class="cls-5" points="222.08 152.83 222.08 152.58 258.51 152.03 258.51 152.28 222.08 152.83"/><polygon class="cls-5" points="222.08 152.67 222.08 152.42 258.51 151.86 258.51 152.11 222.08 152.67"/><polygon class="cls-5" points="222.08 152.5 222.08 152.26 258.51 151.7 258.51 151.95 222.08 152.5"/><polygon class="cls-5" points="222.08 152.34 222.07 152.09 258.5 151.54 258.51 151.79 222.08 152.34"/><polygon class="cls-5" points="222.07 152.17 222.07 151.93 258.5 151.37 258.5 151.62 222.07 152.17"/><polygon class="cls-5" points="222.07 152.01 222.06 151.76 258.49 151.21 258.5 151.46 222.07 152.01"/><polygon class="cls-5" points="222.07 151.84 222.06 151.6 258.49 151.04 258.5 151.29 222.07 151.84"/><polygon class="cls-5" points="222.06 151.68 222.06 151.44 258.49 150.88 258.49 151.13 222.06 151.68"/><polygon class="cls-5" points="222.06 151.51 222.06 151.27 258.49 150.72 258.49 150.97 222.06 151.51"/><polygon class="cls-5" points="222.06 151.35 222.06 151.11 258.49 150.55 258.49 150.8 222.06 151.35"/><polygon class="cls-5" points="222.06 151.19 222.05 150.94 258.48 150.39 258.49 150.64 222.06 151.19"/><polygon class="cls-5" points="222.06 151.02 222.05 150.78 258.48 150.22 258.49 150.47 222.06 151.02"/><polygon class="cls-5" points="222.05 150.86 222.05 150.62 258.48 150.06 258.48 150.31 222.05 150.86"/><polygon class="cls-5" points="222.05 150.69 222.04 150.45 258.47 149.9 258.48 150.14 222.05 150.69"/><polygon class="cls-5" points="222.04 150.53 222.04 150.29 258.47 149.73 258.47 149.98 222.04 150.53"/><polygon class="cls-5" points="222.04 150.36 222.04 150.12 258.47 149.57 258.47 149.81 222.04 150.36"/><polygon class="cls-5" points="222.04 150.2 222.04 149.96 258.47 149.4 258.47 149.65 222.04 150.2"/><polygon class="cls-5" points="222.04 150.04 222.04 149.79 258.47 149.24 258.47 149.49 222.04 150.04"/><polygon class="cls-5" points="222.04 149.87 222.03 149.63 258.46 149.08 258.47 149.32 222.04 149.87"/><polygon class="cls-5" points="222.04 149.71 222.03 149.47 258.46 148.91 258.47 149.16 222.04 149.71"/><polygon class="cls-5" points="222.03 149.54 222.03 149.3 258.46 148.75 258.46 148.99 222.03 149.54"/><polygon class="cls-5" points="222.03 149.38 222.03 149.14 258.45 148.58 258.46 148.82 222.03 149.38"/><polygon class="cls-5" points="222.03 149.22 222.03 148.97 258.45 148.42 258.45 148.66 222.03 149.22"/><polygon class="cls-5" points="222.03 149.05 222.02 148.81 258.45 148.26 258.45 148.5 222.03 149.05"/><polygon class="cls-5" points="222.03 148.89 222.02 148.64 258.45 148.09 258.45 148.33 222.03 148.89"/><polygon class="cls-5" points="222.02 148.72 222.02 148.48 258.45 147.93 258.45 148.17 222.02 148.72"/><polygon class="cls-5" points="222.02 148.56 222.01 148.31 258.44 147.76 258.45 148 222.02 148.56"/><polygon class="cls-5" points="222.01 148.4 222.01 148.15 258.44 147.6 258.44 147.84 222.01 148.4"/><polygon class="cls-5" points="222.01 148.23 222.01 147.99 258.44 147.44 258.44 147.68 222.01 148.23"/><polygon class="cls-5" points="222.01 148.07 222.01 147.82 258.44 147.27 258.44 147.51 222.01 148.07"/><polygon class="cls-5" points="222.01 147.9 222.01 147.66 258.44 147.11 258.44 147.35 222.01 147.9"/><polygon class="cls-5" points="222.01 147.74 222 147.49 258.43 146.94 258.44 147.18 222.01 147.74"/><polygon class="cls-5" points="222.01 147.58 222 147.33 258.43 146.78 258.44 147.02 222.01 147.58"/><polygon class="cls-5" points="222 147.41 222 147.16 258.43 146.61 258.43 146.86 222 147.41"/><polygon class="cls-5" points="222 147.25 221.99 147 258.42 146.45 258.43 146.69 222 147.25"/><polygon class="cls-5" points="221.99 147.08 221.99 146.83 258.42 146.28 258.42 146.53 221.99 147.08"/><polygon class="cls-5" points="221.99 146.92 221.99 146.67 258.42 146.12 258.42 146.36 221.99 146.92"/><polygon class="cls-5" points="221.99 146.76 221.99 146.51 258.42 145.96 258.42 146.2 221.99 146.76"/><polygon class="cls-5" points="221.99 146.59 221.99 146.34 258.42 145.79 258.42 146.04 221.99 146.59"/><polygon class="cls-5" points="221.99 146.43 221.98 146.18 258.41 145.63 258.42 145.87 221.99 146.43"/><polygon class="cls-5" points="221.98 146.26 221.98 146.01 258.41 145.46 258.41 145.71 221.98 146.26"/><polygon class="cls-5" points="221.98 146.1 221.97 145.85 258.4 145.3 258.41 145.54 221.98 146.1"/><polygon class="cls-5" points="221.98 145.94 221.97 145.69 258.4 145.13 258.41 145.38 221.98 145.94"/><polygon class="cls-5" points="221.97 145.77 221.97 145.52 258.4 144.97 258.4 145.22 221.97 145.77"/><polygon class="cls-5" points="221.97 145.61 221.97 145.36 258.4 144.8 258.4 145.05 221.97 145.61"/><polygon class="cls-5" points="221.97 145.44 221.97 145.19 258.4 144.64 258.4 144.89 221.97 145.44"/><polygon class="cls-5" points="221.97 145.28 221.97 145.03 258.4 144.47 258.4 144.72 221.97 145.28"/><polygon class="cls-5" points="221.97 145.12 221.96 144.87 258.39 144.31 258.4 144.56 221.97 145.12"/><polygon class="cls-5" points="221.96 144.95 221.96 144.7 258.39 144.15 258.39 144.4 221.96 144.95"/><polygon class="cls-5" points="221.96 144.78 221.95 144.54 258.38 143.98 258.39 144.23 221.96 144.78"/><polygon class="cls-5" points="221.96 144.62 221.95 144.37 258.38 143.82 258.39 144.07 221.96 144.62"/><polygon class="cls-5" points="221.95 144.46 221.95 144.21 258.38 143.65 258.38 143.9 221.95 144.46"/><polygon class="cls-5" points="221.95 144.29 221.95 144.05 258.38 143.49 258.38 143.74 221.95 144.29"/><polygon class="cls-5" points="221.95 144.13 221.95 143.88 258.38 143.33 258.38 143.58 221.95 144.13"/><polygon class="cls-5" points="221.95 143.96 221.94 143.72 258.37 143.16 258.38 143.41 221.95 143.96"/><polygon class="cls-5" points="221.95 143.8 221.94 143.55 258.37 143 258.38 143.25 221.95 143.8"/><polygon class="cls-5" points="221.94 143.63 221.94 143.39 258.37 142.83 258.37 143.08 221.94 143.63"/><polygon class="cls-5" points="221.94 143.47 221.94 143.23 258.36 142.67 258.37 142.92 221.94 143.47"/><polygon class="cls-5" points="221.94 143.3 221.94 143.06 258.36 142.51 258.37 142.75 221.94 143.3"/><polygon class="cls-5" points="221.94 143.14 221.94 142.9 258.36 142.34 258.36 142.59 221.94 143.14"/><polygon class="cls-5" points="221.94 142.97 221.93 142.73 258.36 142.18 258.36 142.43 221.94 142.97"/><polygon class="cls-5" points="221.93 142.81 221.93 142.57 258.36 142.01 258.36 142.26 221.93 142.81"/><polygon class="cls-5" points="221.93 142.65 221.92 142.41 258.35 141.85 258.36 142.09 221.93 142.65"/><polygon class="cls-5" points="221.93 142.48 221.92 142.24 258.35 141.69 258.36 141.93 221.93 142.48"/><polygon class="cls-5" points="221.92 142.32 221.92 142.08 258.35 141.52 258.35 141.77 221.92 142.32"/><polygon class="cls-5" points="221.92 142.15 221.91 141.91 258.35 141.36 258.35 141.6 221.92 142.15"/><polygon class="cls-5" points="221.91 141.99 221.91 141.75 258.35 141.19 258.35 141.44 221.91 141.99"/><polygon class="cls-5" points="221.91 141.83 221.91 141.59 258.34 141.03 258.35 141.27 221.91 141.83"/><polygon class="cls-5" points="221.91 141.66 221.91 141.42 258.34 140.87 258.35 141.11 221.91 141.66"/><polygon class="cls-5" points="221.91 141.5 221.91 141.25 258.34 140.7 258.34 140.94 221.91 141.5"/><polygon class="cls-5" points="221.91 141.33 221.9 141.09 258.33 140.54 258.34 140.78 221.91 141.33"/><polygon class="cls-5" points="221.9 141.17 221.9 140.93 258.33 140.37 258.33 140.62 221.9 141.17"/><polygon class="cls-5" points="221.9 141.01 221.9 140.76 258.33 140.21 258.33 140.45 221.9 141.01"/><polygon class="cls-5" points="221.9 140.84 221.9 140.6 258.33 140.05 258.33 140.29 221.9 140.84"/><polygon class="cls-5" points="221.9 140.68 221.9 140.43 258.33 139.88 258.33 140.12 221.9 140.68"/><polygon class="cls-5" points="221.9 140.51 221.89 140.27 258.32 139.72 258.33 139.96 221.9 140.51"/><polygon class="cls-5" points="221.9 140.35 221.89 140.1 258.32 139.55 258.33 139.79 221.9 140.35"/><polygon class="cls-5" points="221.89 140.19 221.89 139.94 258.32 139.39 258.32 139.63 221.89 140.19"/><polygon class="cls-5" points="221.89 140.02 221.88 139.78 258.31 139.22 258.32 139.47 221.89 140.02"/><polygon class="cls-5" points="221.88 139.86 221.88 139.61 258.31 139.06 258.31 139.3 221.88 139.86"/><polygon class="cls-5" points="221.88 139.69 221.88 139.44 258.31 138.9 258.31 139.14 221.88 139.69"/><polygon class="cls-5" points="221.88 139.53 221.88 139.28 258.31 138.73 258.31 138.97 221.88 139.53"/><polygon class="cls-5" points="221.88 139.37 221.88 139.12 258.31 138.57 258.31 138.81 221.88 139.37"/><polygon class="cls-5" points="221.88 139.2 221.87 138.95 258.3 138.4 258.31 138.65 221.88 139.2"/><polygon class="cls-5" points="221.87 139.04 221.87 138.79 258.3 138.24 258.3 138.48 221.87 139.04"/><polygon class="cls-5" points="221.87 138.87 221.87 138.62 258.3 138.07 258.3 138.32 221.87 138.87"/><polygon class="cls-5" points="221.87 138.71 221.86 138.46 258.29 137.91 258.3 138.15 221.87 138.71"/><polygon class="cls-5" points="221.86 138.55 221.86 138.3 258.29 137.75 258.29 137.99 221.86 138.55"/><polygon class="cls-5" points="221.86 138.38 221.86 138.13 258.29 137.58 258.29 137.83 221.86 138.38"/><polygon class="cls-5" points="221.86 138.22 221.86 137.97 258.29 137.41 258.29 137.66 221.86 138.22"/><polygon class="cls-5" points="221.86 138.05 221.86 137.8 258.29 137.25 258.29 137.5 221.86 138.05"/><polygon class="cls-5" points="221.86 137.89 221.85 137.64 258.28 137.09 258.29 137.33 221.86 137.89"/><polygon class="cls-5" points="221.85 137.72 221.85 137.48 258.28 136.92 258.28 137.17 221.85 137.72"/><polygon class="cls-5" points="221.85 137.56 221.84 137.31 258.27 136.76 258.28 137.01 221.85 137.56"/><polygon class="cls-5" points="221.85 137.4 221.84 137.15 258.27 136.59 258.28 136.84 221.85 137.4"/><polygon class="cls-5" points="221.84 137.23 221.84 136.98 258.27 136.43 258.27 136.68 221.84 137.23"/><polygon class="cls-5" points="221.84 137.07 221.84 136.82 258.27 136.26 258.27 136.51 221.84 137.07"/><polygon class="cls-5" points="221.84 136.9 221.84 136.66 258.27 136.1 258.27 136.35 221.84 136.9"/><polygon class="cls-5" points="221.84 136.74 221.83 136.49 258.27 135.94 258.27 136.19 221.84 136.74"/><polygon class="cls-5" points="221.84 136.57 221.83 136.33 258.26 135.77 258.27 136.02 221.84 136.57"/><polygon class="cls-5" points="221.83 136.41 221.83 136.16 258.26 135.61 258.26 135.86 221.83 136.41"/><polygon class="cls-5" points="221.83 136.25 221.82 136 258.25 135.44 258.26 135.69 221.83 136.25"/><polygon class="cls-5" points="221.83 136.08 221.82 135.84 258.25 135.28 258.26 135.53 221.83 136.08"/><polygon class="cls-5" points="221.82 135.91 221.82 135.67 258.25 135.12 258.25 135.37 221.82 135.91"/><polygon class="cls-5" points="221.82 135.75 221.82 135.51 258.25 134.95 258.25 135.2 221.82 135.75"/><polygon class="cls-5" points="221.82 135.59 221.82 135.34 258.25 134.79 258.25 135.04 221.82 135.59"/><polygon class="cls-5" points="221.82 135.42 221.81 135.18 258.24 134.62 258.25 134.87 221.82 135.42"/><polygon class="cls-5" points="221.82 135.26 221.81 135.02 258.24 134.46 258.25 134.71 221.82 135.26"/><polygon class="cls-5" points="221.81 135.09 221.81 134.85 258.24 134.3 258.24 134.54 221.81 135.09"/><polygon class="cls-5" points="221.81 134.93 221.81 134.69 258.24 134.13 258.24 134.38 221.81 134.93"/><polygon class="cls-5" points="221.81 134.76 221.81 134.52 258.24 133.97 258.24 134.22 221.81 134.76"/><polygon class="cls-5" points="221.81 134.6 221.8 134.36 258.23 133.8 258.24 134.05 221.81 134.6"/><polygon class="cls-5" points="221.81 134.44 221.8 134.19 258.23 133.64 258.24 133.88 221.81 134.44"/><polygon class="cls-5" points="221.8 134.27 221.8 134.03 258.23 133.48 258.23 133.72 221.8 134.27"/><polygon class="cls-5" points="221.8 134.11 221.79 133.87 258.22 133.31 258.23 133.56 221.8 134.11"/><polygon class="cls-5" points="221.8 133.94 221.79 133.7 258.22 133.15 258.23 133.39 221.8 133.94"/><polygon class="cls-5" points="221.79 133.78 221.79 133.54 258.22 132.98 258.22 133.23 221.79 133.78"/><polygon class="cls-5" points="221.79 133.62 221.79 133.37 258.22 132.82 258.22 133.06 221.79 133.62"/><polygon class="cls-5" points="221.79 133.45 221.79 133.21 258.22 132.66 258.22 132.9 221.79 133.45"/><polygon class="cls-5" points="221.79 133.29 221.78 133.04 258.21 132.49 258.22 132.73 221.79 133.29"/><polygon class="cls-5" points="221.79 133.12 221.78 132.88 258.21 132.33 258.22 132.57 221.79 133.12"/><polygon class="cls-5" points="221.78 132.96 221.78 132.72 258.21 132.16 258.21 132.41 221.78 132.96"/><polygon class="cls-5" points="221.78 132.8 221.77 132.55 258.2 132 258.21 132.24 221.78 132.8"/><polygon class="cls-5" points="221.77 132.63 221.77 132.38 258.2 131.84 258.2 132.08 221.77 132.63"/><polygon class="cls-5" points="221.77 132.47 221.77 132.22 258.2 131.67 258.2 131.91 221.77 132.47"/><polygon class="cls-5" points="221.77 132.3 221.77 132.06 258.2 131.51 258.2 131.75 221.77 132.3"/><polygon class="cls-5" points="221.77 132.14 221.77 131.89 258.2 131.34 258.2 131.58 221.77 132.14"/><polygon class="cls-5" points="221.77 131.98 221.76 131.73 258.19 131.18 258.2 131.42 221.77 131.98"/><polygon class="cls-5" points="221.76 131.81 221.76 131.56 258.19 131.01 258.2 131.26 221.76 131.81"/><polygon class="cls-5" points="221.76 131.65 221.76 131.4 258.19 130.85 258.19 131.09 221.76 131.65"/><polygon class="cls-5" points="221.76 131.48 221.75 131.23 258.18 130.69 258.19 130.93 221.76 131.48"/><polygon class="cls-5" points="221.75 131.32 221.75 131.07 258.18 130.52 258.18 130.76 221.75 131.32"/><polygon class="cls-5" points="221.75 131.16 221.75 130.91 258.18 130.35 258.18 130.6 221.75 131.16"/><polygon class="cls-5" points="221.75 130.99 221.75 130.74 258.18 130.19 258.18 130.44 221.75 130.99"/><polygon class="cls-5" points="221.75 130.83 221.75 130.58 258.18 130.03 258.18 130.27 221.75 130.83"/><polygon class="cls-5" points="221.75 130.66 221.74 130.41 258.17 129.86 258.18 130.11 221.75 130.66"/><polygon class="cls-5" points="221.74 130.5 221.74 130.25 258.17 129.7 258.17 129.94 221.74 130.5"/><polygon class="cls-5" points="221.74 130.34 221.73 130.09 258.16 129.53 258.17 129.78 221.74 130.34"/><polygon class="cls-5" points="221.74 130.17 221.73 129.92 258.16 129.37 258.17 129.62 221.74 130.17"/><polygon class="cls-5" points="221.73 130.01 221.73 129.76 258.16 129.2 258.16 129.45 221.73 130.01"/><polygon class="cls-5" points="221.73 129.84 221.73 129.59 258.16 129.04 258.16 129.29 221.73 129.84"/><polygon class="cls-5" points="221.73 129.68 221.73 129.43 258.16 128.88 258.16 129.12 221.73 129.68"/><polygon class="cls-5" points="221.73 129.51 221.73 129.27 258.16 128.71 258.16 128.96 221.73 129.51"/><polygon class="cls-5" points="221.73 129.35 221.72 129.1 258.15 128.55 258.16 128.8 221.73 129.35"/><polygon class="cls-5" points="221.72 129.19 221.72 128.94 258.15 128.38 258.15 128.63 221.72 129.19"/><polygon class="cls-5" points="221.72 129.02 221.72 128.77 258.14 128.22 258.15 128.47 221.72 129.02"/><polygon class="cls-5" points="221.72 128.85 221.72 128.61 258.14 128.05 258.15 128.3 221.72 128.85"/><polygon class="cls-5" points="221.72 128.69 221.72 128.45 258.14 127.89 258.14 128.14 221.72 128.69"/><polygon class="cls-5" points="221.72 128.53 221.71 128.28 258.14 127.73 258.14 127.98 221.72 128.53"/><polygon class="cls-5" points="221.71 128.36 221.71 128.12 258.14 127.56 258.14 127.81 221.71 128.36"/><polygon class="cls-5" points="221.71 128.2 221.7 127.95 258.13 127.4 258.14 127.65 221.71 128.2"/><polygon class="cls-5" points="221.71 128.03 221.7 127.79 258.13 127.23 258.14 127.48 221.71 128.03"/><polygon class="cls-5" points="221.7 127.87 221.7 127.63 258.13 127.07 258.13 127.32 221.7 127.87"/><polygon class="cls-5" points="221.7 127.7 221.7 127.46 258.13 126.91 258.13 127.16 221.7 127.7"/><polygon class="cls-5" points="221.7 127.54 221.7 127.3 258.13 126.74 258.13 126.99 221.7 127.54"/><polygon class="cls-5" points="221.7 127.38 221.7 127.13 258.13 126.58 258.13 126.83 221.7 127.38"/><polygon class="cls-5" points="221.7 127.21 221.69 126.97 258.12 126.41 258.13 126.66 221.7 127.21"/><polygon class="cls-5" points="221.69 127.05 221.69 126.81 258.12 126.25 258.12 126.5 221.69 127.05"/><polygon class="cls-5" points="221.69 126.88 221.68 126.64 258.11 126.09 258.12 126.33 221.69 126.88"/><polygon class="cls-5" points="221.69 126.72 221.68 126.48 258.11 125.92 258.12 126.17 221.69 126.72"/><polygon class="cls-5" points="221.68 126.55 221.68 126.31 258.11 125.76 258.11 126 221.68 126.55"/><polygon class="cls-5" points="221.68 126.39 221.68 126.15 258.11 125.59 258.11 125.84 221.68 126.39"/><polygon class="cls-5" points="221.68 126.23 221.68 125.98 258.11 125.43 258.11 125.67 221.68 126.23"/><polygon class="cls-5" points="221.68 126.06 221.67 125.82 258.1 125.27 258.11 125.51 221.68 126.06"/><polygon class="cls-5" points="221.68 125.9 221.67 125.66 258.1 125.1 258.11 125.34 221.68 125.9"/><polygon class="cls-5" points="221.67 125.73 221.67 125.49 258.1 124.94 258.1 125.18 221.67 125.73"/><polygon class="cls-5" points="221.67 125.57 221.66 125.33 258.09 124.77 258.1 125.02 221.67 125.57"/><polygon class="cls-5" points="221.66 125.41 221.66 125.16 258.09 124.61 258.09 124.85 221.66 125.41"/><polygon class="cls-5" points="221.66 125.24 221.66 125 258.09 124.45 258.09 124.69 221.66 125.24"/><polygon class="cls-5" points="221.66 125.08 221.66 124.83 258.09 124.28 258.09 124.52 221.66 125.08"/><polygon class="cls-5" points="221.66 124.91 221.66 124.67 258.09 124.12 258.09 124.36 221.66 124.91"/><polygon class="cls-5" points="221.66 124.75 221.65 124.5 258.08 123.95 258.09 124.19 221.66 124.75"/><polygon class="cls-5" points="221.66 124.59 221.65 124.34 258.08 123.79 258.09 124.03 221.66 124.59"/><polygon class="cls-5" points="221.65 124.42 221.65 124.17 258.08 123.63 258.08 123.87 221.65 124.42"/><polygon class="cls-5" points="221.65 124.26 221.64 124.01 258.07 123.46 258.08 123.7 221.65 124.26"/><polygon class="cls-5" points="221.64 124.09 221.64 123.84 258.07 123.3 258.07 123.54 221.64 124.09"/><polygon class="cls-5" points="221.64 123.93 221.64 123.68 258.07 123.13 258.07 123.37 221.64 123.93"/><polygon class="cls-5" points="221.64 123.77 221.64 123.52 258.07 122.97 258.07 123.21 221.64 123.77"/><polygon class="cls-5" points="221.64 123.6 221.64 123.35 258.07 122.8 258.07 123.05 221.64 123.6"/><polygon class="cls-5" points="221.64 123.44 221.63 123.19 258.06 122.64 258.07 122.88 221.64 123.44"/><polygon class="cls-5" points="221.63 123.27 221.63 123.02 258.06 122.47 258.06 122.72 221.63 123.27"/><polygon class="cls-5" points="221.63 123.11 221.62 122.86 258.05 122.31 258.06 122.55 221.63 123.11"/><polygon class="cls-5" points="221.63 122.95 221.62 122.7 258.05 122.14 258.06 122.39 221.63 122.95"/><polygon class="cls-5" points="221.62 122.78 221.62 122.53 258.05 121.98 258.05 122.23 221.62 122.78"/><polygon class="cls-5" points="221.62 122.62 221.62 122.37 258.05 121.81 258.05 122.06 221.62 122.62"/><polygon class="cls-5" points="221.62 122.45 221.62 122.2 258.05 121.65 258.05 121.9 221.62 122.45"/><polygon class="cls-5" points="221.62 122.29 221.62 122.04 258.05 121.48 258.05 121.73 221.62 122.29"/><polygon class="cls-5" points="221.62 122.13 221.62 122.09 258.05 121.53 258.05 121.57 221.62 122.13"/></g><path class="cls-7" d="M247.72,138.73a1.13,1.13,0,0,0,.26,0v0c.09,0,0-.09.08,0v-.05c0,.12.13,0,.13.09a.84.84,0,0,0,0,.36h0c0,.15.25,0,.25.16v0h.09v-.09h0l0,0c.27,0,.52.31.65.31v-.05c.15,0,.29.28.44.24v0h.17s0,0,0-.09H250c.2.3.39.35.4.7h.08v0c0,.05.06,0,.13,0v0c.11,0,.17-.05.3-.05v0c.37,0,.72.44.82.44h0v.17h0c0,.12-.3.36-.29.67h-.22c0,.07,0,.4-.08.4,0,.33.09-.06.09.18h0c.22,0-.1.13.17.13,0,.3.42.35-.08.36v.08c-.11,0-.19.05-.3.05v0c-.18,0-.43-.05-.43.14h.09c0,.07,0,.1.05.22h-.09a.29.29,0,0,1-.25.31c0,.12.13.12.13.36h.18a1.56,1.56,0,0,1,.22.58h-.05c0,.29-.29.57-.28.89-.2,0-.35.13-.47.13s0,.07,0,.14h0v.08h0c0,.19-.08.22-.08.4h0v.1h-.09c-.06.07,0,.18-.12.31h.05c0,.14-.09.42-.08.58-.15,0-.27.18-.43.18h0c-.06,0-.09,0-.13,0h0a1.42,1.42,0,0,1-.55.18v0a6.54,6.54,0,0,1-.82.23v0a1.57,1.57,0,0,1-.3.12h0c-.29.07-.65.36-.89.36v.09h0c0-.13,0,0,0,.09v0c-.07,0,0,0,0,.09v-.05c-.19,0-.25.05-.47.06v0h0c0-.41-.31-.44-.32-.79h.05c0-.13.16-.23,0-.35,0,0,0-.05,0-.09h0c0-.05,0-.08,0-.17h0c0-.54-.16-.27-.44-.26,0-.06,0-.05,0-.09h0v-.14h0c-.08-.08-.09-.08-.09-.22h0c0-.08-.09-.1-.09-.22h0c0-.1,0-.13.09-.13s-.1-.21-.1-.26h0c-.12-.11,0-.24,0-.36s-.06,0-.13,0-.05,0-.05-.09h0v0c-.2,0-.47.17-.47.05-.06.06,0,.13-.12.13s-.09-.09-.09-.13c-.19,0-.69.5-.69.15h-.09v.08c-.08,0-.06.09-.13.09s-.09-.17-.09-.35h.08a2.43,2.43,0,0,1-1-.16v0h-.05v0h-.13c0,.05,0,.08-.08.13h-.05l0,.05h-.13c0,.08-.08.05-.08.13s-.07-.46,0-.53h0c0-.19.22-.33.21-.53h.13v0h0v-.18c.1,0,.2-.31.51-.32v0h.26c-.08-.08,0,0,0-.14s0,0,0,0h0s.09.09.09.13.21-.19.21-.27h0c.13,0,.94-.21.94,0,.14,0,.72-.09.69-.36h.08c0-.07-.17-.31,0-.31s0-.16,0-.27-.1,0-.21,0v-.2l0,0s0,0,0,0v0s.09-.18.13-.18h0s0,0,0,0h0c0-.12.31-.6-.05-.61h-.08c0-.16.07-.38.07-.62h.13v-.09c.06,0,0,0,0,0s.07,0,.18,0,.23-.36,0-.36c0-.12,0-.18,0-.26h0c0-.17-.22-.35.17-.36,0,.11.09,0,.09,0h-.05c0-.12,0-.23,0-.31.19,0,.24.26.35.26s0,0,0-.09c.22,0,0,.33,0,.45.25,0,.5-.49.73-.5h0c.07-.06.3-.27.38-.27h0c.15-.16.33-.22.47-.36Z"/><path class="cls-3" d="M248.05,139a2.17,2.17,0,0,0,.26,0v0c.09,0,0-.08.09,0v0c0,.12.12,0,.12.1a1.07,1.07,0,0,0,0,.36h0c0,.16.26,0,.26.17v0h.08v-.09h0l0,0c.26,0,.52.3.64.3v0c.15,0,.3.27.44.24h.17c0-.05,0,0,0-.09h.09c.2.3.39.35.4.7h.08v0a.16.16,0,0,0,.14,0v0c.12,0,.17,0,.3-.05v.05c.37,0,.72.43.82.43h0v.17h0c0,.12-.29.37-.29.68h-.21c0,.06,0,.4-.08.4,0,.32.08-.07.09.17h-.05c.23,0-.1.14.18.14,0,.29.41.34-.09.35V143c-.11,0-.19.05-.29.05V143c-.19,0-.44,0-.43.15h.08c0,.07,0,.1,0,.22h-.08c0,.13-.11.31-.26.31s.13.11.14.35h.17a1.56,1.56,0,0,1,.22.58h0c0,.29-.29.57-.29.89-.2,0-.35.14-.47.14s0,.06,0,.13h0v.09h0c0,.18-.09.22-.08.4h-.05v.09h-.08c-.07.08,0,.19-.12.32h0c0,.15-.08.42-.08.58-.15,0-.27.18-.43.18v0c-.06,0-.08,0-.12,0h0a1.38,1.38,0,0,1-.56.19v0a6.38,6.38,0,0,1-.81.23v0a1.25,1.25,0,0,1-.3.12h0c-.29.07-.66.37-.9.37v.09h0c0-.14,0,0,0,.09v-.05c-.07,0,0,0,0,.09v0c-.19,0-.26,0-.47.05v0h0c0-.41-.3-.44-.31-.79h0c0-.13.16-.23,0-.34,0,0,0-.05,0-.1h0s0-.07,0-.17h0c0-.54-.16-.27-.44-.26,0-.06,0,0,0-.09h0v-.14h0c-.08-.07-.09-.07-.09-.22h0c0-.07-.08-.1-.09-.22h0c0-.1,0-.12.08-.12s-.09-.21-.09-.27h0c-.11-.11,0-.24,0-.36s-.07,0-.14,0,0,0,0-.08h0v0c-.21,0-.47.17-.47,0-.06.06,0,.13-.12.14s-.09-.09-.1-.14c-.19,0-.68.5-.69.15H244v.08c-.08,0,0,.1-.13.1s-.08-.17-.09-.35h.09a2.47,2.47,0,0,1-1-.17v0h0v0h-.13c-.05,0,0,.08-.09.13h0l0,.05h-.13c0,.08-.09.06-.08.14s-.08-.46,0-.53h.05c0-.2.21-.34.2-.54h.13v-.05h.05v-.18c.11,0,.2-.31.51-.31v0h.26c-.08-.08.05,0,0-.13s0,0,0,0h0s.09.09.09.13a.42.42,0,0,0,.2-.27h0c.13,0,.94-.21,1,0,.13,0,.72-.1.69-.37h.08c0-.06-.18-.31,0-.31s0-.15,0-.26-.1,0-.22,0v-.19s0,0,0,0,0,0,0,.05v0s.08-.18.13-.18h0l0,0h0c0-.11.31-.59-.05-.61h-.09c0-.16.08-.38.08-.62h.13v-.08c.06,0,0,0,0,0s.06-.05.17-.05.24-.36,0-.36c0-.11,0-.18,0-.26h0c0-.16-.21-.35.17-.36,0,.11.09,0,.09,0h0a1.82,1.82,0,0,1,0-.31c.18,0,.23.26.34.26s0,0,0-.09c.23,0,0,.32,0,.44.24,0,.49-.48.72-.5h0c.08-.06.3-.27.39-.27h0c.15-.16.34-.22.47-.36Z"/><path class="cls-8" d="M247.9,138.93c.09,0,.17,0,.26,0v0c.09,0,0-.09.08,0v-.05c0,.11.13,0,.13.09a.84.84,0,0,0,0,.36h0c0,.15.25,0,.25.17v0h.1v-.09h0l.05-.05c.26,0,.51.31.65.3v0c.14,0,.28.28.43.24v0h.17c.05-.05,0,0,0-.1h.09c.2.3.39.35.4.71h.08v0c.05.05.07,0,.13,0v-.05c.11,0,.17,0,.3,0v0c.37,0,.72.44.83.43h-.05v.18h0c0,.12-.3.36-.29.67h-.21c0,.06-.05.4-.09.4,0,.32.09-.06.09.18h0c.22,0-.1.13.17.13,0,.29.42.35-.07.35v.09c-.11,0-.2,0-.3,0v0c-.18,0-.43,0-.43.14h.1a1.49,1.49,0,0,1,0,.22h-.09a.3.3,0,0,1-.25.31c0,.12.13.11.13.35h.18a1.57,1.57,0,0,1,.22.57h0c0,.29-.3.57-.29.88-.2,0-.34.14-.47.14s0,.06,0,.13h.05v.09h0c0,.18-.09.22-.09.41h0v.09H250c-.06.07,0,.18-.12.31h0c0,.14-.08.42-.08.57-.15,0-.27.18-.43.19h0c-.06,0-.08,0-.13,0h0a1.42,1.42,0,0,1-.55.18v0a8,8,0,0,1-.82.23h0a.84.84,0,0,1-.29.13h0c-.3.07-.66.36-.9.36v.09h0c0-.13.05,0,.05.09v0c-.07,0-.05,0,0,.09v0c-.18,0-.25.05-.47.05v.05h-.05c0-.42-.31-.44-.32-.79h0c0-.12.17-.23,0-.34,0,0,0,0,0-.1h0c0-.05.05-.08,0-.18h.05c0-.54-.16-.26-.44-.26,0-.06,0,0,0-.09h0v-.14h0c-.08-.08-.09-.08-.09-.22h0c0-.08-.09-.11-.09-.22h0c0-.11,0-.13.09-.13s-.09-.21-.09-.27h0c-.11-.11,0-.23,0-.36s-.06,0-.13,0,0,0,0-.09h0v-.05c-.21,0-.48.17-.48.05-.05.06,0,.14-.12.14s-.09-.09-.09-.13c-.19,0-.68.49-.68.14h-.09v.09c-.08,0-.06.09-.13.09s-.09-.17-.09-.35h.09a2.44,2.44,0,0,1-1-.17v0h-.05v0h-.13s0,.08-.08.13h0l0,0h-.13c0,.07-.08.05-.08.13s-.07-.46,0-.53h.05c0-.19.21-.33.21-.53h.12v0h0v-.17c.1,0,.2-.32.51-.32v0h.26c-.07-.07,0,0,0-.13s0,0,0,0h0s.09.1.09.14.21-.18.21-.28h0c.14,0,.94-.2.94,0,.14,0,.73-.1.7-.36h.07c0-.06-.17-.3,0-.3s0-.16,0-.27-.11,0-.22,0v-.2l0,0v0s.08-.18.12-.18h0s0,0,0,0h0c0-.12.3-.6-.05-.62h-.09c0-.16.08-.38.08-.62h.12v-.09c.06,0,0,0,0,0s.06,0,.17,0,.24-.37,0-.36c0-.12,0-.18,0-.26h0c0-.17-.22-.36.16-.37,0,.12.09,0,.09,0h0c0-.12,0-.24,0-.31.19,0,.24.26.35.26s.05,0,0-.09c.23,0,0,.32,0,.44.24,0,.49-.48.72-.5h0c.07-.06.3-.27.38-.27h0c.15-.15.33-.22.47-.35Z"/><path class="cls-3" d="M219.1,146.76v-2.18H220a1.6,1.6,0,0,1,.51.06.49.49,0,0,1,.25.2.6.6,0,0,1,.1.35.61.61,0,0,1-.14.4.67.67,0,0,1-.44.2.92.92,0,0,1,.23.18,3.16,3.16,0,0,1,.26.36l.26.43h-.52l-.32-.48A3.65,3.65,0,0,0,220,146a.55.55,0,0,0-.14-.09,1,1,0,0,0-.22,0h-.09v.91Zm.44-1.26h.33a1.54,1.54,0,0,0,.4,0,.27.27,0,0,0,.12-.09.29.29,0,0,0,0-.16.24.24,0,0,0-.05-.18.31.31,0,0,0-.17-.09h-.67Z"/><path class="cls-9" d="M220,143.6a2.06,2.06,0,0,1,1.47.6,2.09,2.09,0,0,1,0,2.93,2.06,2.06,0,0,1-2.93,0,2,2,0,0,1-.61-1.46A2.07,2.07,0,0,1,220,143.6Zm1.2.87a1.7,1.7,0,0,0-1.2-.5,1.68,1.68,0,0,0-1.2.5,1.74,1.74,0,0,0-.49,1.2,1.69,1.69,0,0,0,2.89,1.19,1.62,1.62,0,0,0,.49-1.2,1.65,1.65,0,0,0-.49-1.19Z"/><path class="cls-3" d="M65.87,144.29l-4,18.78H57l3.45-14.34H60.4l-6.93,14.35H49.21l-.83-14.35h-.05l-2.69,14.35H40.82l4-18.78h7.08l.71,11.89h.06l5.93-11.9Zm8.83,0L74,147.86h-5.2l.72-3.58Zm-1.07,5.19-2.9,13.59H65.5l2.89-13.6Zm7.84,2.09a6.74,6.74,0,0,1,5.24-2.42,3.72,3.72,0,0,1,2.77.94,3.24,3.24,0,0,1,.92,2.31,19.45,19.45,0,0,1-.51,3.23L88.33,163H83.1l1.34-6.31a26.51,26.51,0,0,0,.48-2.66c0-.75-.34-1.12-1-1.12a2.5,2.5,0,0,0-2,1.09,7.44,7.44,0,0,0-1.28,3.11l-1.28,5.9H74.09L77,149.47h4.87l-.45,2Zm12.1,1.61a4.72,4.72,0,0,1,2.15-3,10.22,10.22,0,0,1,5.22-1.06c2.66,0,4.47.33,5.4,1a3.39,3.39,0,0,1,1.41,2.93,21.46,21.46,0,0,1-.7,4.21,19.78,19.78,0,0,0-.65,3.87,5.81,5.81,0,0,0,.34,1.89h-5.08a7.06,7.06,0,0,1-.19-1.55,6.56,6.56,0,0,1-4.56,1.88,4.94,4.94,0,0,1-3.7-1.2,4,4,0,0,1-1.13-2.79,3.62,3.62,0,0,1,1-2.76,5.32,5.32,0,0,1,2.48-1.29,32.82,32.82,0,0,1,4-.6,18.52,18.52,0,0,0,3-.48,4.07,4.07,0,0,0,.15-.92.93.93,0,0,0-.51-.82,2.67,2.67,0,0,0-1.38-.3,3.17,3.17,0,0,0-1.45.28,2.42,2.42,0,0,0-1,1.22Zm8.45,3.76A14.46,14.46,0,0,0,97.8,158a1.32,1.32,0,0,0-.62,1.09,1.25,1.25,0,0,0,.44,1,1.72,1.72,0,0,0,1.15.38,3,3,0,0,0,2-.8,4.48,4.48,0,0,0,1.3-2.77Zm22.15-4.27-4.87.53c-.14-.82-.76-1.23-1.83-1.23a2.51,2.51,0,0,0-1.44.35,1,1,0,0,0-.47.8,1,1,0,0,0,.42.79,6.4,6.4,0,0,0,2.3.58,8.08,8.08,0,0,1,4,1.35,3.11,3.11,0,0,1,1,2.41,4.39,4.39,0,0,1-1.94,3.59c-1.29,1-3.27,1.49-5.92,1.49a9.17,9.17,0,0,1-4.76-.94,4,4,0,0,1-1.77-3.12l5.14-.46a2,2,0,0,0,2.18,1.66,3,3,0,0,0,1.52-.38,1.19,1.19,0,0,0,.65-1.07.85.85,0,0,0-.47-.84,7.81,7.81,0,0,0-1.79-.42,8.37,8.37,0,0,1-4.11-1.43,3.09,3.09,0,0,1-1.08-2.42,4,4,0,0,1,.81-2.33,5.25,5.25,0,0,1,2.43-1.8,10.67,10.67,0,0,1,4-.67,8.76,8.76,0,0,1,4.18.8,3.69,3.69,0,0,1,1.82,2.76Zm9.26,1.46-.87,4H125l.86-4Zm4.64-9.92h8.65a20.21,20.21,0,0,1,2.59.14,5.05,5.05,0,0,1,2,.71,4.07,4.07,0,0,1,1.47,1.5,4,4,0,0,1,.53,2.05,4.65,4.65,0,0,1-.83,2.68,4.7,4.7,0,0,1-2.66,1.83v.05a3.81,3.81,0,0,1,3,3.95,5.57,5.57,0,0,1-1.85,4.05,7.26,7.26,0,0,1-5.3,1.81l-11.55,0Zm4.26,7.33h2a8.43,8.43,0,0,0,2-.18,2,2,0,0,0,1.12-.75,1.89,1.89,0,0,0,.43-1.15,1.34,1.34,0,0,0-.47-1.08,3.12,3.12,0,0,0-1.84-.38h-2.46Zm-1.57,7.41h3.1c2.18,0,3.28-.72,3.27-2.18a1.6,1.6,0,0,0-.47-1.21,3,3,0,0,0-1.94-.44h-3.14Zm26.54-9.49-1.91,4a5,5,0,0,0-1.08-.13,3.05,3.05,0,0,0-2.43,1.08,7.87,7.87,0,0,0-1.44,3.44L159.37,163h-5.22l2.88-13.6h4.87l-.6,2.67,0,.06a9.21,9.21,0,0,1,2.14-2.43,3.53,3.53,0,0,1,2-.61,4.63,4.63,0,0,1,1.79.4Zm.75,3.62a4.7,4.7,0,0,1,2.15-3,10.07,10.07,0,0,1,5.21-1.06c2.67,0,4.48.33,5.41,1a3.4,3.4,0,0,1,1.41,2.93,21.46,21.46,0,0,1-.7,4.21,19.67,19.67,0,0,0-.65,3.87,5.73,5.73,0,0,0,.33,1.88h-5.08a7.19,7.19,0,0,1-.18-1.56,6.54,6.54,0,0,1-4.56,1.88,4.88,4.88,0,0,1-3.7-1.2,4,4,0,0,1-1.13-2.78,3.62,3.62,0,0,1,1-2.76,5.29,5.29,0,0,1,2.47-1.29,33,33,0,0,1,4-.6,20,20,0,0,0,3-.48,4.15,4.15,0,0,0,.15-.92.93.93,0,0,0-.51-.82,2.66,2.66,0,0,0-1.38-.31,3.21,3.21,0,0,0-1.46.29,2.47,2.47,0,0,0-1,1.22Zm8.44,3.77a14.59,14.59,0,0,0-4.22,1.07,1.35,1.35,0,0,0-.62,1.09,1.28,1.28,0,0,0,.45,1,1.73,1.73,0,0,0,1.15.38,3.08,3.08,0,0,0,1.95-.8,4.42,4.42,0,0,0,1.29-2.77Zm22.16-4.27-4.88.53c-.14-.83-.75-1.23-1.83-1.23a2.44,2.44,0,0,0-1.42.35,1,1,0,0,0-.49.8.93.93,0,0,0,.43.79,6.49,6.49,0,0,0,2.3.58,8.07,8.07,0,0,1,4,1.35,3.08,3.08,0,0,1,1,2.41,4.42,4.42,0,0,1-1.94,3.59q-2,1.48-5.92,1.49a9.22,9.22,0,0,1-4.76-.94,4,4,0,0,1-1.77-3.12l5.14-.46a1.94,1.94,0,0,0,2.18,1.65,3,3,0,0,0,1.52-.37,1.19,1.19,0,0,0,.65-1.07.84.84,0,0,0-.47-.84,7.3,7.3,0,0,0-1.79-.42,8.38,8.38,0,0,1-4.12-1.43,3.11,3.11,0,0,1-1.07-2.42,4,4,0,0,1,.8-2.33,5.45,5.45,0,0,1,2.43-1.81,11,11,0,0,1,4-.66,8.92,8.92,0,0,1,4.19.79,3.78,3.78,0,0,1,1.82,2.77Zm10.21-8.46-.73,3.58h-5.21l.73-3.58Zm-1.06,5.19-2.91,13.59h-5.23l2.89-13.59Zm9.79-5.2-4,18.78h-5.24l4-18.78Z"/><path class="cls-5" d="M65.05,143.47l-4,18.78H56.21l3.45-14.34h-.08l-6.93,14.35H48.38l-.82-14.35h-.05l-2.69,14.35H40l4-18.78h7.07l.72,11.89h0l5.94-11.9Zm8.83,0L73.14,147H67.93l.73-3.58Zm-1.07,5.18-2.9,13.6H64.68l2.89-13.6Zm7.83,2.1a6.78,6.78,0,0,1,5.25-2.42,3.69,3.69,0,0,1,2.76.94,3.14,3.14,0,0,1,.92,2.31,19.07,19.07,0,0,1-.5,3.23l-1.57,7.41H82.28l1.34-6.31a26.51,26.51,0,0,0,.48-2.66c0-.75-.34-1.12-1-1.12a2.5,2.5,0,0,0-2,1.09,7.57,7.57,0,0,0-1.29,3.11l-1.27,5.9H73.26l2.9-13.59H81l-.45,2Zm12.11,1.61a4.72,4.72,0,0,1,2.15-3,10.18,10.18,0,0,1,5.21-1.06q4,0,5.41,1a3.38,3.38,0,0,1,1.4,2.93,21.23,21.23,0,0,1-.69,4.21,19.78,19.78,0,0,0-.65,3.87,6,6,0,0,0,.33,1.88h-5.08a7.77,7.77,0,0,1-.18-1.55,6.57,6.57,0,0,1-4.56,1.87,4.94,4.94,0,0,1-3.7-1.19,4,4,0,0,1-1.13-2.79,3.62,3.62,0,0,1,1-2.76,5.32,5.32,0,0,1,2.48-1.29,32.21,32.21,0,0,1,4-.6,19.74,19.74,0,0,0,3-.48,4.15,4.15,0,0,0,.15-.92.93.93,0,0,0-.52-.82,2.63,2.63,0,0,0-1.37-.3,3.17,3.17,0,0,0-1.45.28,2.38,2.38,0,0,0-1,1.22Zm8.45,3.76A14.49,14.49,0,0,0,97,157.18a1.35,1.35,0,0,0-.63,1.1,1.26,1.26,0,0,0,.45,1,1.7,1.7,0,0,0,1.15.38,3.06,3.06,0,0,0,2-.8,4.48,4.48,0,0,0,1.3-2.77Zm22.15-4.27-4.87.53q-.23-1.23-1.83-1.23a2.51,2.51,0,0,0-1.44.35,1,1,0,0,0-.48.8,1,1,0,0,0,.43.79,6.34,6.34,0,0,0,2.3.58,8.06,8.06,0,0,1,4,1.35,3.11,3.11,0,0,1,1,2.41,4.39,4.39,0,0,1-1.94,3.59q-2,1.49-5.92,1.49a9.17,9.17,0,0,1-4.76-.94,4,4,0,0,1-1.77-3.12l5.14-.45a2,2,0,0,0,2.18,1.64,3.06,3.06,0,0,0,1.52-.37,1.19,1.19,0,0,0,.65-1.07.84.84,0,0,0-.47-.84,7.94,7.94,0,0,0-1.8-.42,8.33,8.33,0,0,1-4.1-1.43,3.09,3.09,0,0,1-1.08-2.42,4,4,0,0,1,.8-2.33,5.34,5.34,0,0,1,2.44-1.8,10.67,10.67,0,0,1,4-.67,8.76,8.76,0,0,1,4.18.8,3.69,3.69,0,0,1,1.82,2.76Zm9.26,1.46-.87,4h-7.57l.86-4Zm4.64-9.92h8.64a20.53,20.53,0,0,1,2.6.13,5.07,5.07,0,0,1,2,.72,4.14,4.14,0,0,1,1.47,1.5,4,4,0,0,1,.53,2.05,4.6,4.6,0,0,1-3.5,4.51v.05a3.81,3.81,0,0,1,3,3.95,5.57,5.57,0,0,1-1.85,4.05,7.26,7.26,0,0,1-5.3,1.81l-11.55,0Zm4.26,7.33h2a8.27,8.27,0,0,0,2-.18,2,2,0,0,0,1.12-.75,1.85,1.85,0,0,0,.43-1.15,1.31,1.31,0,0,0-.47-1.08,3.1,3.1,0,0,0-1.83-.38h-2.46Zm-1.57,7.41H143c2.18,0,3.27-.73,3.27-2.18a1.6,1.6,0,0,0-.47-1.21,3,3,0,0,0-1.94-.44h-3.14Zm26.54-9.49-1.91,4a5.08,5.08,0,0,0-1.08-.13,3.05,3.05,0,0,0-2.43,1.08,7.76,7.76,0,0,0-1.44,3.44l-1.07,5.09h-5.22l2.88-13.6h4.87l-.6,2.68.05.06a9,9,0,0,1,2.13-2.43,3.59,3.59,0,0,1,2-.62,4.66,4.66,0,0,1,1.8.41Zm.75,3.62a4.7,4.7,0,0,1,2.15-3,10,10,0,0,1,5.21-1.06c2.67,0,4.47.33,5.41,1a3.39,3.39,0,0,1,1.4,2.93,20,20,0,0,1-.7,4.21,20.22,20.22,0,0,0-.64,3.87,5.78,5.78,0,0,0,.33,1.88h-5.08a7,7,0,0,1-.18-1.55,6.56,6.56,0,0,1-4.57,1.88,4.87,4.87,0,0,1-3.69-1.2,4,4,0,0,1-1.13-2.78,3.64,3.64,0,0,1,1-2.77,5.23,5.23,0,0,1,2.47-1.28,32.72,32.72,0,0,1,4-.6,20.21,20.21,0,0,0,3-.48,4.81,4.81,0,0,0,.15-.93.92.92,0,0,0-.52-.81,2.65,2.65,0,0,0-1.37-.31,3.21,3.21,0,0,0-1.46.29,2.42,2.42,0,0,0-1,1.22Zm8.44,3.77a14.49,14.49,0,0,0-4.22,1.07,1.35,1.35,0,0,0-.62,1.09,1.28,1.28,0,0,0,.45,1,1.73,1.73,0,0,0,1.15.38,3.08,3.08,0,0,0,1.95-.8,4.47,4.47,0,0,0,1.29-2.77Zm22.16-4.27-4.88.53c-.14-.83-.75-1.23-1.83-1.23a2.47,2.47,0,0,0-1.43.35,1,1,0,0,0-.48.8.93.93,0,0,0,.43.79,6.48,6.48,0,0,0,2.29.58c2,.3,3.34.74,4,1.35a3.1,3.1,0,0,1,1,2.41,4.38,4.38,0,0,1-1.94,3.58q-2,1.5-5.92,1.5a9.17,9.17,0,0,1-4.77-.95,3.93,3.93,0,0,1-1.76-3.11l5.14-.46a2,2,0,0,0,2.18,1.65,3.19,3.19,0,0,0,1.52-.37,1.19,1.19,0,0,0,.65-1.07.83.83,0,0,0-.47-.84,7.43,7.43,0,0,0-1.79-.42,8.38,8.38,0,0,1-4.12-1.43,3.14,3.14,0,0,1-1.08-2.42,4,4,0,0,1,.81-2.33,5.39,5.39,0,0,1,2.43-1.81,11,11,0,0,1,4-.66,8.74,8.74,0,0,1,4.18.8,3.73,3.73,0,0,1,1.83,2.76ZM208,143.29l-.74,3.58h-5.21l.73-3.58ZM207,148.48l-2.91,13.59h-5.23l2.89-13.59Zm9.78-5.2-4,18.78h-5.24l4-18.79Z"/><path class="cls-3" d="M47.24,130.81l5.55,0a13.89,13.89,0,0,1,3.13.29,4.67,4.67,0,0,1,2.1,1,2.41,2.41,0,0,1,.84,1.75,5.37,5.37,0,0,1-.07,1,4.92,4.92,0,0,1-1.37,2.6,6.14,6.14,0,0,1-2.65,1.45,14.35,14.35,0,0,1-3.75.46l-5.51,0Zm3.81,2-.92,4.55h.94c2,0,3.2-.81,3.47-2.39a3.06,3.06,0,0,0,.06-.83,1.16,1.16,0,0,0-.32-.78,1.62,1.62,0,0,0-.88-.43,7.71,7.71,0,0,0-1.61-.13Zm9.34.27,3.37,0-.23,1.27h0a3.22,3.22,0,0,1,1.29-1.08,4.45,4.45,0,0,1,1.87-.37h.48l-.5,2.48a5,5,0,0,0-.81-.07,3.25,3.25,0,0,0-1.77.43,2.07,2.07,0,0,0-.83,1.41l-.42,2.13-3.73,0ZM73,132.82a10.3,10.3,0,0,1,2.26.24,4.29,4.29,0,0,1,1.75.81,2,2,0,0,1,.75,1.48c0,.1,0,.31,0,.64a3.41,3.41,0,0,1-2,2.54,9.25,9.25,0,0,1-3.94.88,10.06,10.06,0,0,1-2.35-.26,4.14,4.14,0,0,1-1.72-.84,2.1,2.1,0,0,1-.73-1.43c0-.24,0-.47.07-.69a3.38,3.38,0,0,1,1.11-1.88,5.53,5.53,0,0,1,2.14-1.12,10.25,10.25,0,0,1,2.71-.37Zm-.22,1.65a2,2,0,0,0-1.23.37,1.66,1.66,0,0,0-.6.8,4.05,4.05,0,0,0-.22,1.06,1.12,1.12,0,0,0,1.31,1,2,2,0,0,0,1.19-.33,1.87,1.87,0,0,0,.63-.83,2.39,2.39,0,0,0,.15-1,1.08,1.08,0,0,0-1.23-1.12Zm13.82-1.55,3.27,0-1.06,5.27a4.19,4.19,0,0,1-.53,1.41,2.77,2.77,0,0,1-1,.94,5,5,0,0,1-1.62.55,13.87,13.87,0,0,1-2.43.18,10.89,10.89,0,0,1-3-.36c-.93-.24-1.43-.71-1.48-1.39l3.74,0c0,.28.34.42,1,.42a2.47,2.47,0,0,0,1.16-.25,1.32,1.32,0,0,0,.55-.92l.11-.56a5.57,5.57,0,0,1-2.89.69,5.1,5.1,0,0,1-1.7-.26,2.9,2.9,0,0,1-1.25-.76,2,2,0,0,1-.54-1.21c0-.14,0-.35.07-.61a3.51,3.51,0,0,1,1-1.88,4.54,4.54,0,0,1,1.77-1,6.8,6.8,0,0,1,2.11-.33,4.33,4.33,0,0,1,1.58.27,2.86,2.86,0,0,1,1.07.71Zm-2.16,1.59a1.9,1.9,0,0,0-1,.26,1.4,1.4,0,0,0-.51.59,4.94,4.94,0,0,0-.27.88c.08.61.54.9,1.38.9a1.69,1.69,0,0,0,1.35-.53,1.61,1.61,0,0,0,.39-1.18c0-.61-.47-.92-1.3-.92Zm7.08.3a1.94,1.94,0,0,1,.67-1.07A4.37,4.37,0,0,1,94,133a15.9,15.9,0,0,1,3.29-.3,12.31,12.31,0,0,1,2.38.19,2.71,2.71,0,0,1,1.26.51,1.28,1.28,0,0,1,.41.88,3,3,0,0,1-.07.75l-.6,3q0,.23-.09.42a.8.8,0,0,0,.42.45l0,.12-3.84,0,0-.67a7.59,7.59,0,0,1-3.77.88,5.69,5.69,0,0,1-2-.35,1.26,1.26,0,0,1-.92-1.12,1.42,1.42,0,0,1,0-.41,1.82,1.82,0,0,1,1-1.25,4.15,4.15,0,0,1,1.27-.49,15.77,15.77,0,0,1,1.68-.26c.63-.05,1.18-.11,1.64-.16a5.94,5.94,0,0,0,1.11-.17c.39-.11.57-.27.57-.46s-.4-.44-1.13-.43-1.26.2-1.42.61Zm5.77,1.51a7,7,0,0,1-1.26.25,8.78,8.78,0,0,0-1.3.28.58.58,0,0,0-.45.51q0,.48,1,.51a2.72,2.72,0,0,0,1.06-.24,1.63,1.63,0,0,0,.66-.54,1.73,1.73,0,0,0,.27-.77Zm6.42-3.5h3.38l-.25,1.26h0a3.17,3.17,0,0,1,1.3-1.08,4.34,4.34,0,0,1,1.86-.37h.48l-.5,2.48a4.9,4.9,0,0,0-.8-.07,3.27,3.27,0,0,0-1.78.43,2,2,0,0,0-.82,1.41l-.42,2.13-3.73,0Zm8.1,0,3.74,0L114.29,139l-3.7,0Zm.5-2.55,3.73,0-.33,1.75L112,132Zm5,4.43a2,2,0,0,1,.68-1.07,4.6,4.6,0,0,1,1.79-.75,16,16,0,0,1,3.29-.29,12.37,12.37,0,0,1,2.38.18,2.66,2.66,0,0,1,1.26.52,1.24,1.24,0,0,1,.41.87,3,3,0,0,1-.06.76l-.61,3c0,.16,0,.29-.08.42a.78.78,0,0,0,.42.46l0,.12-3.84,0,0-.67a7.67,7.67,0,0,1-3.77.88,5.54,5.54,0,0,1-2-.36,1.29,1.29,0,0,1-.92-1.11,2,2,0,0,1,0-.42,1.84,1.84,0,0,1,1-1.25,4.35,4.35,0,0,1,1.26-.48,13.57,13.57,0,0,1,1.68-.26l1.65-.16a6.94,6.94,0,0,0,1.1-.17c.39-.11.58-.27.57-.46s-.39-.44-1.12-.44-1.27.21-1.43.61Zm5.78,1.52a8.47,8.47,0,0,1-1.27.25,9.06,9.06,0,0,0-1.3.27.61.61,0,0,0-.45.51c0,.33.36.5,1,.52a2.66,2.66,0,0,0,1-.24,1.62,1.62,0,0,0,.67-.55,1.69,1.69,0,0,0,.27-.76Z"/><path class="cls-5" d="M46.59,130.25l5.54,0a13.33,13.33,0,0,1,3.14.3,4.66,4.66,0,0,1,2.11,1,2.41,2.41,0,0,1,.83,1.74,5.66,5.66,0,0,1-.08,1,4.82,4.82,0,0,1-1.37,2.6,6.15,6.15,0,0,1-2.64,1.45,14.79,14.79,0,0,1-3.75.46l-5.51,0Zm3.81,2-.92,4.56h.94c2,0,3.2-.8,3.47-2.39a4.06,4.06,0,0,0,.06-.82,1.21,1.21,0,0,0-.32-.79,1.73,1.73,0,0,0-.88-.43,7.86,7.86,0,0,0-1.62-.12Zm9.34.28,3.37,0-.24,1.27h0a3.08,3.08,0,0,1,1.29-1.08,4.27,4.27,0,0,1,1.87-.37,1.41,1.41,0,0,1,.28,0h.19l-.49,2.49a5.11,5.11,0,0,0-.81-.07,3.09,3.09,0,0,0-1.77.43,2.05,2.05,0,0,0-.83,1.41l-.42,2.13-3.73,0Zm12.62-.24a9.58,9.58,0,0,1,2.25.24,4.23,4.23,0,0,1,1.75.8,2,2,0,0,1,.76,1.48,4.8,4.8,0,0,1,0,.64,3.43,3.43,0,0,1-2,2.55,9.1,9.1,0,0,1-3.94.87,9.61,9.61,0,0,1-2.35-.26,4.14,4.14,0,0,1-1.72-.84,2.06,2.06,0,0,1-.73-1.42c0-.24,0-.48.07-.7a3.38,3.38,0,0,1,1.11-1.88,5.51,5.51,0,0,1,2.14-1.11,10.2,10.2,0,0,1,2.71-.37Zm-.22,1.65a2,2,0,0,0-1.24.36,1.77,1.77,0,0,0-.59.81,4.52,4.52,0,0,0-.22,1,1.13,1.13,0,0,0,1.31,1,1.92,1.92,0,0,0,1.18-.34,1.75,1.75,0,0,0,.64-.82,2.42,2.42,0,0,0,.15-1,1.08,1.08,0,0,0-1.23-1.12ZM86,132.35l3.25,0-1,5.28a4.07,4.07,0,0,1-.54,1.41,2.7,2.7,0,0,1-1,.94,4.88,4.88,0,0,1-1.62.55,13.75,13.75,0,0,1-2.42.18,11.17,11.17,0,0,1-3-.36c-.95-.25-1.44-.72-1.49-1.4l3.74,0c0,.28.33.42,1,.42a2.35,2.35,0,0,0,1.16-.25,1.26,1.26,0,0,0,.55-.92l.1-.56a5.43,5.43,0,0,1-2.88.69A5,5,0,0,1,80,138a2.88,2.88,0,0,1-1.24-.77,1.91,1.91,0,0,1-.54-1.21c0-.14,0-.34.07-.6a3.41,3.41,0,0,1,1-1.88,4.42,4.42,0,0,1,1.77-1.05,6.78,6.78,0,0,1,2.1-.33,4.14,4.14,0,0,1,1.59.28,2.72,2.72,0,0,1,1.06.7ZM83.8,134a1.87,1.87,0,0,0-1,.26,1.32,1.32,0,0,0-.51.58,5.37,5.37,0,0,0-.27.89c.08.6.54.89,1.37.89a1.66,1.66,0,0,0,1.36-.53,1.59,1.59,0,0,0,.39-1.17c0-.62-.47-.93-1.3-.92Zm7.09.29a1.84,1.84,0,0,1,.66-1.07,4.59,4.59,0,0,1,1.8-.75,15.86,15.86,0,0,1,3.29-.29,12.44,12.44,0,0,1,2.38.18,2.66,2.66,0,0,1,1.26.52,1.32,1.32,0,0,1,.41.87,3,3,0,0,1-.07.76l-.61,3c0,.15-.05.29-.08.42a.82.82,0,0,0,.42.46l0,.12-3.84,0,0-.67a7.71,7.71,0,0,1-3.78.88,5.77,5.77,0,0,1-2-.36,1.26,1.26,0,0,1-.91-1.11,1.49,1.49,0,0,1,0-.42,1.82,1.82,0,0,1,1-1.25A4.42,4.42,0,0,1,92,135.1a13.28,13.28,0,0,1,1.68-.26l1.64-.16a8.34,8.34,0,0,0,1.1-.17c.39-.11.59-.27.57-.46s-.39-.44-1.11-.44-1.27.21-1.43.61Zm5.76,1.52a8.47,8.47,0,0,1-1.27.25,8.86,8.86,0,0,0-1.29.27.61.61,0,0,0-.46.51c0,.33.36.5,1,.52a2.72,2.72,0,0,0,1.06-.24,1.74,1.74,0,0,0,.66-.55,1.49,1.49,0,0,0,.27-.76Zm6.42-3.5,3.38,0-.24,1.26h0a3.37,3.37,0,0,1,1.29-1.08,4.46,4.46,0,0,1,1.87-.36h.48l-.5,2.49a4.93,4.93,0,0,0-.81-.07,3.2,3.2,0,0,0-1.77.42,2.1,2.1,0,0,0-.83,1.41l-.42,2.14-3.73,0Zm8.1,0,3.73,0-1.26,6.22-3.7,0Zm.5-2.55,3.73,0-.34,1.76-3.73,0Zm5,4.44a1.86,1.86,0,0,1,.66-1.07,4.51,4.51,0,0,1,1.8-.75,15.9,15.9,0,0,1,3.29-.3,12.31,12.31,0,0,1,2.38.19,2.67,2.67,0,0,1,1.26.51,1.32,1.32,0,0,1,.41.88,3.06,3.06,0,0,1-.07.76l-.6,3c0,.15-.06.29-.09.41a.79.79,0,0,0,.42.46l0,.13-3.84,0,0-.68a7.77,7.77,0,0,1-3.78.89,5.92,5.92,0,0,1-2-.36,1.26,1.26,0,0,1-.92-1.12,1.54,1.54,0,0,1,0-.42,1.81,1.81,0,0,1,.95-1.24,4.42,4.42,0,0,1,1.27-.48,15.6,15.6,0,0,1,1.68-.27l1.64-.15a8,8,0,0,0,1.11-.18c.39-.11.58-.26.57-.46s-.4-.44-1.12-.44-1.27.22-1.43.62Zm5.76,1.52a8,8,0,0,1-1.26.25,6.93,6.93,0,0,0-1.3.27.58.58,0,0,0-.45.51c0,.32.36.49,1,.52a2.71,2.71,0,0,0,1.06-.25,1.58,1.58,0,0,0,.66-.55,1.42,1.42,0,0,0,.27-.75Z"/><path class="cls-10" d="M248.23,142.13a1.13,1.13,0,0,1,1.08-.72,1,1,0,0,1,1.1,1c0,1-1.1,1.93-2.18,2.9-1.1-1-2.18-1.93-2.18-2.9a1,1,0,0,1,1.08-1,1.14,1.14,0,0,1,1.1.72Z"/><path class="cls-9" d="M48.16,169.34l-4.29,6.86H41.54l-1.32-6.86h2.49l.39,4.34h0l2.27-4.34Zm7.05,5.1a3.37,3.37,0,0,1-1.5,1.47,5.32,5.32,0,0,1-2.33.45,3.81,3.81,0,0,1-2.88-.91,3.19,3.19,0,0,1-.86-2.25,3.91,3.91,0,0,1,.4-1.72,4.06,4.06,0,0,1,1.09-1.37,3.83,3.83,0,0,1,1.35-.73,5.58,5.58,0,0,1,1.56-.2,3.75,3.75,0,0,1,2.75.84,2.77,2.77,0,0,1,.84,2,8.62,8.62,0,0,1-.18,1.37H50.22c.08.92.49,1.38,1.24,1.38a1.42,1.42,0,0,0,1.21-.62ZM53,172.17a1.05,1.05,0,0,0,.05-.39,1,1,0,0,0-.31-.79,1.16,1.16,0,0,0-.78-.27,1.32,1.32,0,0,0-.89.36,2.29,2.29,0,0,0-.62,1.09Zm6.8-1.77a3.43,3.43,0,0,1,2.65-1.22,1.86,1.86,0,0,1,1.4.48,1.61,1.61,0,0,1,.46,1.17,9,9,0,0,1-.26,1.62l-.79,3.75H60.63l.68-3.19a10.43,10.43,0,0,0,.24-1.34c0-.37-.16-.57-.51-.57a1.27,1.27,0,0,0-1,.55,4,4,0,0,0-.65,1.57l-.65,3H56.07l1.48-6.86H60l-.23,1Zm14.34-3.68-2,9.48H69.68l.12-.69,0,0a3.46,3.46,0,0,1-1,.7,2.94,2.94,0,0,1-1.08.18,2.15,2.15,0,0,1-1.78-.77,3.26,3.26,0,0,1-.62-2.08,5.05,5.05,0,0,1,.93-3,2.79,2.79,0,0,1,2.35-1.3,2.47,2.47,0,0,1,2.18,1.08l.76-3.53Zm-5.37,7.91a1.2,1.2,0,0,0,1.11-.81,3.89,3.89,0,0,0,.39-1.68,1.2,1.2,0,0,0-.3-.89,1,1,0,0,0-.71-.31,1.19,1.19,0,0,0-1,.74,3.55,3.55,0,0,0-.41,1.76,1.35,1.35,0,0,0,.25.89.77.77,0,0,0,.66.3Zm12.93-.19a3.42,3.42,0,0,1-1.5,1.47,5.32,5.32,0,0,1-2.33.45,3.84,3.84,0,0,1-2.89-.91,3.24,3.24,0,0,1-.86-2.25,3.79,3.79,0,0,1,.41-1.72,4.16,4.16,0,0,1,1.08-1.37,3.92,3.92,0,0,1,1.35-.73,5.65,5.65,0,0,1,1.57-.2,3.75,3.75,0,0,1,2.75.84,2.77,2.77,0,0,1,.84,2,7.84,7.84,0,0,1-.19,1.37H76.71c.08.92.5,1.38,1.25,1.38a1.44,1.44,0,0,0,1.21-.62Zm-2.2-2.27a1.37,1.37,0,0,0,0-.39,1,1,0,0,0-.31-.79,1.13,1.13,0,0,0-.77-.27,1.32,1.32,0,0,0-.89.36,2.29,2.29,0,0,0-.62,1.09Zm9.71-2.78-1,2a2.22,2.22,0,0,0-.54-.07,1.56,1.56,0,0,0-1.23.54,4,4,0,0,0-.73,1.74l-.54,2.57H82.57L84,169.34H86.5l-.31,1.35,0,0a4.46,4.46,0,0,1,1.08-1.23,1.83,1.83,0,0,1,1-.31,2.25,2.25,0,0,1,.9.21Zm7.63.44a3.35,3.35,0,0,1,.86-.5,3,3,0,0,1,1-.15,2.09,2.09,0,0,1,1.78.8,3.33,3.33,0,0,1,.61,2.07,5.2,5.2,0,0,1-.9,3,2.8,2.8,0,0,1-2.4,1.34,2.44,2.44,0,0,1-2.27-1.29l-.25,1.13H92.86l2-9.48h2.64Zm.31,4.75a1.17,1.17,0,0,0,1-.71,3.63,3.63,0,0,0,.42-1.8q0-1.17-.93-1.17a1.21,1.21,0,0,0-1.08.78,3.59,3.59,0,0,0-.41,1.7,1.19,1.19,0,0,0,.31.9,1,1,0,0,0,.7.3Zm5.55-3.36a2.4,2.4,0,0,1,1.09-1.51,5.1,5.1,0,0,1,2.63-.53,5,5,0,0,1,2.73.51,1.71,1.71,0,0,1,.71,1.48,10.05,10.05,0,0,1-.35,2.12,10.36,10.36,0,0,0-.33,2,2.93,2.93,0,0,0,.17.95h-2.57a3.59,3.59,0,0,1-.09-.78,3.34,3.34,0,0,1-2.31.94,2.45,2.45,0,0,1-1.87-.61,2,2,0,0,1-.57-1.41,1.83,1.83,0,0,1,.51-1.39,2.66,2.66,0,0,1,1.25-.64,16.17,16.17,0,0,1,2-.31,9.74,9.74,0,0,0,1.53-.24,2,2,0,0,0,.07-.46.5.5,0,0,0-.25-.42,1.45,1.45,0,0,0-.7-.15,1.57,1.57,0,0,0-.74.15,1.14,1.14,0,0,0-.49.6Zm4.27,1.91a7.43,7.43,0,0,0-2.14.53.69.69,0,0,0-.31.55.67.67,0,0,0,.22.53.89.89,0,0,0,.58.18,1.56,1.56,0,0,0,1-.4,2.24,2.24,0,0,0,.66-1.39Zm10.19-3.74-1,2a2.22,2.22,0,0,0-.54-.07,1.56,1.56,0,0,0-1.23.54,3.88,3.88,0,0,0-.73,1.74l-.54,2.57h-2.64l1.46-6.86h2.46l-.3,1.35,0,0a4.46,4.46,0,0,1,1.07-1.23,1.91,1.91,0,0,1,1-.31,2.29,2.29,0,0,1,.9.21Zm.38,1.83a2.4,2.4,0,0,1,1.09-1.51,5.1,5.1,0,0,1,2.63-.53,5,5,0,0,1,2.73.51,1.69,1.69,0,0,1,.71,1.48,10.25,10.25,0,0,1-.36,2.12,10.36,10.36,0,0,0-.33,2,2.93,2.93,0,0,0,.17.95h-2.56a3.59,3.59,0,0,1-.09-.78,3.36,3.36,0,0,1-2.31.94,2.45,2.45,0,0,1-1.87-.61,2,2,0,0,1-.57-1.41,1.83,1.83,0,0,1,.51-1.39,2.66,2.66,0,0,1,1.25-.64,16.47,16.47,0,0,1,2-.31,9.34,9.34,0,0,0,1.52-.24,1.63,1.63,0,0,0,.08-.46.47.47,0,0,0-.26-.42,1.37,1.37,0,0,0-.7-.15,1.58,1.58,0,0,0-.73.15,1.19,1.19,0,0,0-.49.6Zm4.26,1.91a7.43,7.43,0,0,0-2.13.53.7.7,0,0,0-.32.55.67.67,0,0,0,.23.53.91.91,0,0,0,.58.18,1.56,1.56,0,0,0,1-.4,2.24,2.24,0,0,0,.65-1.39Zm9.3-3.79-.4,1.88h-1.38l-.5,2.42a1.26,1.26,0,0,0-.05.33c0,.31.2.47.61.47a5.46,5.46,0,0,0,.81-.12l-.39,1.88a14.13,14.13,0,0,1-1.75.16,2,2,0,0,1-1.57-.53,1.76,1.76,0,0,1-.46-1.16,9.72,9.72,0,0,1,.19-1.1l.49-2.35h-.94l.39-1.88h1l.23-1.07,2.94-1.47-.54,2.54Zm4.71-.16a3.47,3.47,0,0,1,2.69.93,3.17,3.17,0,0,1,.84,2.18,4.4,4.4,0,0,1-.48,1.94,3.64,3.64,0,0,1-1.46,1.55,4.59,4.59,0,0,1-2.4.58,3.53,3.53,0,0,1-2.66-.89,3.06,3.06,0,0,1-.86-2.21,4.35,4.35,0,0,1,.51-2,3.72,3.72,0,0,1,1.5-1.52,4.71,4.71,0,0,1,2.32-.55Zm-.64,5.4a1.29,1.29,0,0,0,1.17-.75,3.28,3.28,0,0,0,.44-1.67,1.06,1.06,0,0,0-1.06-1.21,1.35,1.35,0,0,0-1.25.76,3.17,3.17,0,0,0-.42,1.55,1.41,1.41,0,0,0,.33,1,1,1,0,0,0,.79.37Zm17.13-.14a3.37,3.37,0,0,1-1.5,1.47,5.3,5.3,0,0,1-2.32.45,3.84,3.84,0,0,1-2.89-.91,3.19,3.19,0,0,1-.86-2.25,3.91,3.91,0,0,1,.4-1.72,4.32,4.32,0,0,1,1.09-1.37,3.92,3.92,0,0,1,1.35-.73,5.63,5.63,0,0,1,1.56-.2,3.75,3.75,0,0,1,2.75.84,2.77,2.77,0,0,1,.84,2,8.62,8.62,0,0,1-.18,1.37h-5.23c.08.92.49,1.38,1.24,1.38a1.41,1.41,0,0,0,1.21-.62Zm-2.19-2.27a1.37,1.37,0,0,0,0-.39,1,1,0,0,0-.31-.79,1.13,1.13,0,0,0-.77-.27,1.32,1.32,0,0,0-.9.36,2.29,2.29,0,0,0-.62,1.09Zm1.8-5.61-2.36,1.93h-1.28l1.43-1.93Zm11.55,2.78-.4,1.88h-1.38l-.5,2.42a1,1,0,0,0-.06.33c0,.31.21.47.62.47a5.72,5.72,0,0,0,.82-.12l-.4,1.88a13.81,13.81,0,0,1-1.75.16,2,2,0,0,1-1.56-.53,1.72,1.72,0,0,1-.47-1.16,9.72,9.72,0,0,1,.19-1.1l.5-2.35h-1l.39-1.88h1l.23-1.07,2.94-1.47-.54,2.54Zm6.64,0-1,2a2.21,2.21,0,0,0-.53-.07,1.58,1.58,0,0,0-1.24.54,4.12,4.12,0,0,0-.73,1.74l-.54,2.57h-2.64l1.46-6.86h2.46l-.3,1.35,0,0a4.63,4.63,0,0,1,1.08-1.23,1.85,1.85,0,0,1,1-.31,2.22,2.22,0,0,1,.9.21Zm.38,1.83a2.4,2.4,0,0,1,1.09-1.51,5.17,5.17,0,0,1,2.64-.53,5.09,5.09,0,0,1,2.73.51,1.71,1.71,0,0,1,.71,1.48,11,11,0,0,1-.36,2.12,10.36,10.36,0,0,0-.33,2,2.69,2.69,0,0,0,.17.95h-2.57a3.59,3.59,0,0,1-.09-.78,3.34,3.34,0,0,1-2.31.94,2.42,2.42,0,0,1-1.86-.61,1.94,1.94,0,0,1-.57-1.41,1.86,1.86,0,0,1,.5-1.39,2.7,2.7,0,0,1,1.26-.64,16.17,16.17,0,0,1,2-.31,9.55,9.55,0,0,0,1.52-.24,2.1,2.1,0,0,0,.08-.46.48.48,0,0,0-.27-.42,1.36,1.36,0,0,0-.69-.15,1.52,1.52,0,0,0-.73.15,1.15,1.15,0,0,0-.5.6Zm4.27,1.91a7.55,7.55,0,0,0-2.14.53.69.69,0,0,0-.31.55.67.67,0,0,0,.22.53.94.94,0,0,0,.59.18,1.51,1.51,0,0,0,1-.4,2.3,2.3,0,0,0,.66-1.39Zm12.79-6.41-2,9.48h-2.44l.13-.69,0,0a3.49,3.49,0,0,1-1,.7,2.85,2.85,0,0,1-1.07.18,2.13,2.13,0,0,1-1.78-.77,3.26,3.26,0,0,1-.62-2.08,5.05,5.05,0,0,1,.93-3,2.78,2.78,0,0,1,2.35-1.3,2.47,2.47,0,0,1,2.18,1.08l.75-3.53Zm-5.38,7.91a1.23,1.23,0,0,0,1.12-.81,3.89,3.89,0,0,0,.39-1.68,1.16,1.16,0,0,0-.31-.89,1,1,0,0,0-.7-.31,1.19,1.19,0,0,0-1,.74,3.55,3.55,0,0,0-.41,1.76,1.35,1.35,0,0,0,.25.89.77.77,0,0,0,.65.3Zm9.7-7.91-.38,1.81h-2.63l.37-1.81Zm-.55,2.62-1.47,6.86h-2.64l1.46-6.86Zm8.79,2.38-2.38.13a1.08,1.08,0,0,0-1.21-.9,1.68,1.68,0,0,0-1.48.79,2.93,2.93,0,0,0-.52,1.69,1,1,0,0,0,.37.85,1.25,1.25,0,0,0,.8.3,1.66,1.66,0,0,0,1.56-1.16l2.46.26a3.84,3.84,0,0,1-4,2.68h-.27v0a1.54,1.54,0,0,1,.89.29.93.93,0,0,1,.43.85,1.12,1.12,0,0,1-.28.74,1.73,1.73,0,0,1-.84.52,4.35,4.35,0,0,1-1.42.19,12.78,12.78,0,0,1-1.88-.18l.36-.71a9.16,9.16,0,0,0,1.18.11c.91,0,1.36-.21,1.36-.61a.45.45,0,0,0-.19-.35,1.06,1.06,0,0,0-.6-.14l-.61.05.26-.69a5.06,5.06,0,0,1,1-.1v0a3.45,3.45,0,0,1-2.29-.82,2.81,2.81,0,0,1-.78-2.12,4.16,4.16,0,0,1,1.19-3,4.49,4.49,0,0,1,3.37-1.24,4.39,4.39,0,0,1,2.5.64,2.57,2.57,0,0,1,1.09,1.9Zm1.29-.5a2.42,2.42,0,0,1,1.08-1.51,5.17,5.17,0,0,1,2.64-.53,5,5,0,0,1,2.73.51,1.69,1.69,0,0,1,.71,1.48,10.25,10.25,0,0,1-.36,2.12,10.36,10.36,0,0,0-.33,2,2.93,2.93,0,0,0,.17.95h-2.56a3.63,3.63,0,0,1-.1-.78,3.33,3.33,0,0,1-2.3.94,2.45,2.45,0,0,1-1.87-.61,2,2,0,0,1-.57-1.41,1.86,1.86,0,0,1,.5-1.39,2.75,2.75,0,0,1,1.26-.64,16.47,16.47,0,0,1,2-.31,9.34,9.34,0,0,0,1.52-.24,1.63,1.63,0,0,0,.08-.46.47.47,0,0,0-.26-.42,1.43,1.43,0,0,0-.7-.15,1.52,1.52,0,0,0-.73.15,1.14,1.14,0,0,0-.49.6Zm4.26,1.91a7.43,7.43,0,0,0-2.13.53.7.7,0,0,0-.32.55.67.67,0,0,0,.23.53.89.89,0,0,0,.58.18,1.56,1.56,0,0,0,1-.4,2.24,2.24,0,0,0,.65-1.39Zm2.28-6.46a2.5,2.5,0,0,1-.42,1.34,1,1,0,0,1-.86.44,3.4,3.4,0,0,1-1.06-.26l-.44-.16a1.23,1.23,0,0,0-.44-.11c-.21,0-.35.18-.42.55h-1a2,2,0,0,1,.45-1.3,1.19,1.19,0,0,1,.93-.45,3,3,0,0,1,1,.22,2.89,2.89,0,0,0,.85.23c.24,0,.38-.17.42-.5Zm6,2.51a3.47,3.47,0,0,1,2.69.93,3.13,3.13,0,0,1,.84,2.18,4.4,4.4,0,0,1-.48,1.94,3.61,3.61,0,0,1-1.45,1.55,4.61,4.61,0,0,1-2.4.58,3.54,3.54,0,0,1-2.67-.89,3.06,3.06,0,0,1-.86-2.21,4.35,4.35,0,0,1,.51-2,3.66,3.66,0,0,1,1.5-1.52,4.74,4.74,0,0,1,2.32-.55Zm-.64,5.4a1.28,1.28,0,0,0,1.17-.75,3.18,3.18,0,0,0,.44-1.67,1.06,1.06,0,0,0-1.06-1.21,1.35,1.35,0,0,0-1.25.76,3.17,3.17,0,0,0-.42,1.55,1.41,1.41,0,0,0,.33,1,1,1,0,0,0,.79.37Z"/><rect class="cls-11" width="300" height="300"/></g></g></svg>