<svg xmlns="http://www.w3.org/2000/svg" viewBox="0 0 300 300"><defs><style>.cls-1{fill:#9b9b9b;}.cls-2{fill:none;}</style></defs><title>logo13</title><g id="Layer_2" data-name="Layer 2"><g id="Layer_1-2" data-name="Layer 1"><path class="cls-1" d="M49.84,161.3c0,1.86.39,3.16,1.16,3.91H40a3.54,3.54,0,0,0,1-1.78,12,12,0,0,0,.12-2.1V139.28a11.75,11.75,0,0,0-.12-2.09,3.57,3.57,0,0,0-1-1.79H51.12q12,0,12,9.44t-12,9.43H49.84Zm.54-20.4h-.56v6.68h0q5,0,5-3.22,0-3.47-4.46-3.46Z"/><path class="cls-1" d="M74.93,140.9h-.56v6.68h0q5,0,5-3.22,0-3.47-4.45-3.46Zm-9.6-5.5H76.4c3.6,0,6.31.59,8.16,1.76q3.34,2.15,3.35,7.1c0,3.66-2.73,7.14-6.33,8.54,1.76,3.83,6,7.88,8.84,11A8.3,8.3,0,0,0,92,165.21H82.6c-1.68-1.34-7.15-8.19-8.23-11.81v7.9c0,1.86.39,3.16,1.16,3.91H65.33a3.62,3.62,0,0,0,1-1.78,12,12,0,0,0,.12-2.1V139.28a11.75,11.75,0,0,0-.12-2.09,3.65,3.65,0,0,0-1-1.79Z"/><path class="cls-1" d="M140.71,143.37l2.45-4.09a17.8,17.8,0,0,0,1.35-2.44,2,2,0,0,0,.1-.68,1.94,1.94,0,0,0-.14-.76h10.91a13.11,13.11,0,0,0-3.45,3.88l-6.76,10.08,7.79,12a12.22,12.22,0,0,0,3.62,3.89H144.71a2.15,2.15,0,0,0,.15-.77,2.25,2.25,0,0,0-.11-.71,25.3,25.3,0,0,0-1.32-2.43L140.55,156l-3.33,5.33a14.85,14.85,0,0,0-1.34,2.46,2.14,2.14,0,0,0-.13.66,2.09,2.09,0,0,0,.17.8H124.76a11.12,11.12,0,0,0,3.62-3.91l7.17-11.93L129,139.28c-.77-1.17-1.27-1.89-1.48-2.16a7.32,7.32,0,0,0-2-1.72h11.32a1.78,1.78,0,0,0-.15.76,2.24,2.24,0,0,0,.1.68,12.59,12.59,0,0,0,1.33,2.44Z"/><path class="cls-1" d="M166.92,139.28v22c0,1.86.39,3.16,1.16,3.91H157.4a3.47,3.47,0,0,0,1-1.78,11,11,0,0,0,.12-2.1V139.28a10.84,10.84,0,0,0-.12-2.09,3.5,3.5,0,0,0-1-1.79h10.68a5.31,5.31,0,0,0-1.16,3.88Z"/><path class="cls-1" d="M189.08,158.33h0l-2.7-3.66-4.72-6.08,0,12.71a18.86,18.86,0,0,0,0,2.45,3.22,3.22,0,0,0,.76,1.46H171.65a5,5,0,0,0,1.57-3.88l.06-21c0-.93-1.23-3-3.69-4.94h12.34a.73.73,0,0,0-.05.3,5.66,5.66,0,0,0,1.33,3.58l5.87,7.43,5.85-7.43a5.63,5.63,0,0,0,1.34-3.58.94.94,0,0,0-.05-.3h12.33c-2.46,2-3.69,4-3.69,4.94l.06,21a5,5,0,0,0,1.59,3.88H195.79a3.32,3.32,0,0,0,.76-1.46,17.57,17.57,0,0,0,0-2.45l0-12.71-4.72,6.08-2.69,3.66Z"/><path class="cls-1" d="M226,152.35l-2.95-8.1-3,8.1Zm1.66,5.77h-9.22l-1.12,3.17a9.13,9.13,0,0,0-.68,2.64,2.28,2.28,0,0,0,.41,1.28H206.91a5.17,5.17,0,0,0,1.56-2c.16-.34.43-1.13.94-2.34l9.1-21.63a9.14,9.14,0,0,0,.86-3.1,1.55,1.55,0,0,0-.19-.78h8.09a1.46,1.46,0,0,0-.19.78,8.55,8.55,0,0,0,.85,3.1l9.43,21.63c.52,1.2.78,2,.94,2.34a5.41,5.41,0,0,0,1.56,2H229.11a2.3,2.3,0,0,0,.43-1.31,8.82,8.82,0,0,0-.67-2.62Z"/><path class="cls-1" d="M250.35,159.71c3-.31,7.88,0,9.65-2.75l-2.86,8.25H240.83a3.49,3.49,0,0,0,1-1.78,12,12,0,0,0,.12-2.1V139.28a11.75,11.75,0,0,0-.12-2.09,3.52,3.52,0,0,0-1-1.79h10.69c-.78.75-1.17,2-1.17,3.89Z"/><path class="cls-1" d="M120,139.25q-4.44-4.62-12-4.63t-12,4.64a16.08,16.08,0,0,0,0,21.44q4.45,4.67,12,4.67a17.59,17.59,0,0,0,8.39-2,13.89,13.89,0,0,0,5.88-5.85A15.61,15.61,0,0,0,124,150,15,15,0,0,0,120,139.25Zm-7.77,20.24c-10.58,1.48-15.68-11-8.55-19C114.24,139,119.33,151.49,112.2,159.49Z"/><rect class="cls-2" width="300" height="300"/></g></g></svg>