<svg xmlns="http://www.w3.org/2000/svg" viewBox="0 0 300 300"><defs><style>.cls-1{fill:#d3d3d3;}.cls-1,.cls-2,.cls-3{fill-rule:evenodd;}.cls-2{fill:#9b9b9b;}.cls-3,.cls-4{fill:#fefefe;}.cls-5{fill:none;}</style></defs><title>logo28</title><g id="Layer_2" data-name="Layer 2"><g id="Layer_1-2" data-name="Layer 1"><path class="cls-1" d="M119.23,218.25c-1-3.19-4.72-6.2-4.16-4.41a18.73,18.73,0,0,1,2.17,8.27c.33-.59,2.64-.92,4-.22,10.47,5.39,26.37-2.14,38.54-9.73,4.72-2.93,8.62-6.51,11.93-8.08l-.8-1.79c-8.14,8-39.93,29.16-51.67,16Z"/><path class="cls-1" d="M101.27,211.92a4.15,4.15,0,0,0-.48,1.43c3,1.41,11.09-2.23,14.45,3a19.09,19.09,0,0,0-1-3c-4.35-4.09-8.34-.61-13-1.45Z"/><path class="cls-1" d="M100.65,219.17a15,15,0,0,1,0-5c5.74.71,11.34-2.44,14.71,2.66a14,14,0,0,1,.71,5.94c-5.31,2.54-10.77-2.81-15.41-3.63Z"/><path class="cls-1" d="M138.1,222c-2.25-.83-3.89-1.78-4.87-3.71a8.52,8.52,0,0,0,5.77,3c1.73-10.54-7.69-5-10.27-10.33,1,7.89,4.18,11.46,9.37,11Z"/><path class="cls-1" d="M140.86,220.28a5.34,5.34,0,0,0,1.86-3.74,5.82,5.82,0,0,1-2.61,3.6c-4.24-5.93,3.18-5.39,3.15-9.42,1.77,5.12.92,8.26-2.4,9.56Z"/><path class="cls-1" d="M182.38,218.25c1-3.19,4.72-6.2,4.17-4.41a18.74,18.74,0,0,0-2.18,8.27c-.32-.59-2.64-.92-4-.22-10.48,5.39-26.37-2.14-38.55-9.73-4.71-2.93-8.62-6.51-11.93-8.08l.81-1.79c8.13,8,39.93,29.16,51.66,16Z"/><path class="cls-1" d="M200.35,211.92a4.15,4.15,0,0,1,.47,1.43c-3,1.41-11.08-2.23-14.45,3a20.17,20.17,0,0,1,1-3c4.35-4.09,8.33-.61,13-1.45Z"/><path class="cls-1" d="M201,219.17a15,15,0,0,0,0-5c-5.73.71-11.34-2.44-14.71,2.66a13.78,13.78,0,0,0-.7,5.94c5.31,2.54,10.76-2.81,15.4-3.63Z"/><path class="cls-1" d="M163.51,222c2.25-.83,3.89-1.78,4.88-3.71a8.52,8.52,0,0,1-5.78,3c-1.73-10.54,7.69-5,10.27-10.33-1,7.89-4.17,11.46-9.37,11Z"/><path class="cls-1" d="M160.75,220.28a5.42,5.42,0,0,1-1.86-3.74,5.89,5.89,0,0,0,2.61,3.6c4.25-5.93-3.17-5.39-3.15-9.42-1.78,5.12-.91,8.26,2.4,9.56Z"/><path class="cls-2" d="M79.24,157.35c8.42,33.92,40.09,55.32,71.74,55.29,31.4,0,62.78-21.2,71.39-54.71-19.45-5.94-44.81-9.53-72.53-9.53-26.82,0-51.41,3.36-70.6,8.95Z"/><path class="cls-3" d="M91.72,179.29a24.38,24.38,0,0,0,1.38,2,80,80,0,0,0,13,13.35c5.38,4.6,14.11,9.19,21.54,11.74,17.56,6,38.58,4.86,55.1-3.7,6.92-3.58,8.6-4.92,14-9.25a54.64,54.64,0,0,0,8.58-8.35c1.4-1.76,2.56-3.13,4.47-5.82h-2.21c-3.84,5.89-7,9.19-13.31,14-11.94,9-25.48,15.15-43.35,15.22-22.1.07-44.61-10.92-57.11-29.19Z"/><path class="cls-2" d="M238.46,131.57a75.84,75.84,0,0,1-3.37,22.57,52,52,0,0,1-12.6,21.59C198,173.15,171.83,168.88,146,169c-23.29.12-46.28,4.38-68.5,6.72-11.77-11.69-16-29.39-16-44.16,54.29-23.88,122.67-23.86,176.92,0Z"/><path class="cls-2" d="M143.25,105.52l-30.69,9.18c23.31-12.9-4.94-25,24.19-35A16.31,16.31,0,0,0,134,83.49c-16,6.69-4,18.17-14.5,28.47,10.37-8.81,4.88-20.9,13.61-25.48-.7,7.61,11.19,11.91,10.15,19Z"/><path class="cls-2" d="M147.52,101.5a11.34,11.34,0,0,0-.88-2,1.78,1.78,0,0,0-2.09-.82,0,0,0,0,1,0,0,.11.11,0,0,0,0,0,3.35,3.35,0,0,1,1,1.17,4.75,4.75,0,0,1,.59,1.83c-.94-.07-2.16.06-2.78-.46a12,12,0,0,0-1.84-6.39L141,94c-.13-.21-.07-.23-.4-.3a5.77,5.77,0,0,1-.6-.09c-5.07-1.09-6.5-7.07-3.56-11.28a14.76,14.76,0,0,1,9.22-6.09c-.18.35-1.74,1.87-2.1,3.58-.15.66.33.76,1.27,2,.18.23.26.4.43.64s.33.46.46.69a29,29,0,0,1,3.92,12c.17,1.34.26,3,.3,4.25,0,1,.16.82-.85,1.43a5.26,5.26,0,0,1-1.61.66Z"/><path class="cls-2" d="M158.37,105.52l30.69,9.18c-23.32-12.9,4.94-25-24.19-35a17.23,17.23,0,0,1,2.76,3.83c16,6.69,4,18.17,14.48,28.47-10.36-8.81-4.86-20.9-13.6-25.48.71,7.61-11.18,11.91-10.14,19Z"/><path class="cls-2" d="M154.1,101.5a10.48,10.48,0,0,1,.87-2,1.8,1.8,0,0,1,2.1-.82s0,0,0,0,0,0-.05,0a3.69,3.69,0,0,0-1,1.17,4.92,4.92,0,0,0-.57,1.83c.93-.07,2.16.06,2.77-.46A12.11,12.11,0,0,1,160,94.87l.57-.83c.14-.21.08-.23.4-.3s.39,0,.61-.09c5.06-1.09,6.5-7.07,3.55-11.28a14.7,14.7,0,0,0-9.22-6.09c.18.35,1.74,1.87,2.11,3.58.14.66-.33.76-1.28,2-.17.23-.26.4-.42.64s-.34.46-.47.69a29.19,29.19,0,0,0-3.92,12c-.16,1.34-.26,3-.29,4.25,0,1-.16.82.85,1.43a5.16,5.16,0,0,0,1.61.66Z"/><path class="cls-1" d="M231.47,125.46c0,16.73-3.83,36.77-14.57,50a525.44,525.44,0,0,0-132.31,0C73.85,162.23,70,142.19,70,125.46c49.54-27,111.94-27,161.45,0Z"/><path class="cls-4" d="M165.73,204V200.4l1-.2a2.62,2.62,0,0,0,1.37-.54,2.69,2.69,0,0,0,.34-1.7V184.39a2.9,2.9,0,0,0-.32-1.74c-.19-.21-.67-.3-1.41-.29l-1,0v-3.55h12.61a12.88,12.88,0,0,1,6,1.1,3.4,3.4,0,0,1,1.91,3.21,4.3,4.3,0,0,1-1.11,2.83,9.85,9.85,0,0,1-3.22,2.4,7.78,7.78,0,0,1,4.06.84,2.78,2.78,0,0,1,1.34,2.57,6.45,6.45,0,0,1-2.15,4.69A19.38,19.38,0,0,1,178,200.6,99,99,0,0,1,165.73,204Zm9.65-5.64,1.33-.38a5.12,5.12,0,0,0,2.74-1.63,4.62,4.62,0,0,0,.83-2.89,2.56,2.56,0,0,0-.87-2.24,3.65,3.65,0,0,0-2.72-.28c-.44.08-.88.15-1.31.24v7.18Zm0-10.16c.38,0,.76-.1,1.14-.15a3.93,3.93,0,0,0,2.42-1.05,3.27,3.27,0,0,0,.77-2.31,2.58,2.58,0,0,0-.71-2.06,3.44,3.44,0,0,0-2.37-.53l-1.25.06v6Z"/><path class="cls-4" d="M154.39,196.37a8.82,8.82,0,0,1-.76,4.28c-1,1.68-4.61,1.68-5.63,0a8.82,8.82,0,0,1-.76-4.28V184.79a3.5,3.5,0,0,1,.31-1.86,2,2,0,0,1,1.44-.36h1.16v-3.73H137.53v3.59l1.07,0a2,2,0,0,1,1.42.4,3.27,3.27,0,0,1,.32,1.83v12.63a8.4,8.4,0,0,0,2.33,6.19c3.38,3.38,12.9,3.38,16.29,0a8.44,8.44,0,0,0,2.33-6.19V184.68a3.3,3.3,0,0,1,.31-1.83,2,2,0,0,1,1.43-.4l1.07,0v-3.59H151.48v3.73h1.16a2,2,0,0,1,1.43.36,3.37,3.37,0,0,1,.32,1.86v11.58Z"/><path class="cls-4" d="M128.3,178.84c2.94,0,5.11.55,6.47,1.68s2.06,2.95,2.06,5.36-.68,4.17-2.05,5.14-3.52,1.26-6.48.79c-1.34-.21-2.68-.48-4-.74v4.73a2.89,2.89,0,0,0,.32,1.66,2.82,2.82,0,0,0,1.4.72l1.18.34v3.25a129.12,129.12,0,0,1-12.6-5.08v-2.52l1,.41a2.48,2.48,0,0,0,1.42.3c.21-.09.32-.51.32-1.25V183.17a2,2,0,0,0-.32-1.39,2.55,2.55,0,0,0-1.42-.35l-1-.08v-2.51Zm-4,9.53,1.37.19a4.17,4.17,0,0,0,3.07-.37,3.11,3.11,0,0,0,.9-2.59,3.33,3.33,0,0,0-.86-2.57,4.8,4.8,0,0,0-3-.87l-1.49-.08v6.29Z"/><path class="cls-4" d="M121.94,112c-1.17,2.28-2.34,4.59-3.51,6.9v46.86l2.15,3.39q7-.39,13.93-.7c.83-1.21,1.65-2.42,2.49-3.63,0-1.07,0-2.15,0-3.22v-6.9c-1.23,1.57-2.45,3.15-3.68,4.73q-4,.21-7.91.49V122.16c.68-1,1.39-2,2.09-3a251.81,251.81,0,0,1,29.4-1.56c2.29-2.7,4.59-5.29,6.87-7.87a185.09,185.09,0,0,0-20.93-.33A181.84,181.84,0,0,0,121.94,112Z"/><path class="cls-4" d="M139.14,114.87v53.36c2-.06,4-.1,6-.14.25,0,.49-.06.74-.09a.2.2,0,0,0,0,.09v-.9q-.36-.41-.69-.84V140.86c.18-.53.37-1.06.56-1.59l1,.08c.15.49.31,1,.49,1.48v27.25c2.22,0,4.45,0,6.69,0v-1c-.24-.29-.46-.59-.67-.88V133.73c-.24-.57-.46-1.15-.68-1.75l-2-1.29-4,.08c-.42.29-.84.55-1.26.82,0-.72,0-1.44-.07-2.17V110.11c-2,1.55-4,3.16-6,4.76Z"/><path class="cls-4" d="M158.33,130.84l-2.83,2.73v32.59c.48.62.94,1.25,1.42,1.87,3.54.05,7.07.14,10.63.24.46-.59.94-1.18,1.41-1.77.18-.26.36-.51.52-.78s.12-.69.2-1v-8.25l-.72-.05c-.94,1.17-1.89,2.33-2.82,3.54l-2.84-.1c-.23-.32-.45-.62-.67-1l-.72-.94c0-.31,0-.61,0-.92,1.17-1.5,2.35-3,3.52-4.47l1.4-.87,1.42-.88c.46-.58.93-1.15,1.41-1.73V134.35l-2.06-3c-3.1-.2-6.2-.4-9.29-.54Zm5,8.57V144l-.68.88-.71,0v-5.52l1.39.06Z"/><path class="cls-4" d="M171.83,123.28V168.5c2.54.14,5.08.32,7.64.5v-.86c-.43-.69-.84-1.37-1.26-2.06-.09-.32-.18-.66-.26-1,0-1.91,0-3.84,0-5.75V145.2c.68-.7,1.35-1.41,2-2.1h0v-7.71c-.69-1-1.36-1.93-2-2.89,0-2.79,0-5.58,0-8.39h0v-1.79l2.71-2.21q12.31,2.49,24.63,6.27,3.43-2.43,6.89-4.71c-6.2-2.4-12.35-4.67-18.57-6.44a187.73,187.73,0,0,0-18.53-4.16C174,113,172.9,115,171.83,117v6.33Z"/><path class="cls-4" d="M182.92,133.28c-.55.73-1.11,1.46-1.65,2.21a1.18,1.18,0,0,0,0,.27v7.54l.73,1,3.73-3.16,2.19.34v3.68L186.5,145l-3,2.36-.75.87c-.74.84-1.48,1.71-2.21,2.56V165.1c.09.39.17.78.26,1.16.4.59.81,1.16,1.22,1.75l.73,1,5.19.4c.25-.29.49-.58.75-.86l.74,1c2.23.2,4.45.4,6.67.62v-.89c-.25-.62-.49-1.25-.74-1.87V138.31c-.73-1.05-1.47-2.1-2.2-3.16-3.42-.71-6.84-1.29-10.25-1.87Zm5,20.22,1.49.18v3.87c-.06.51-.11,1-.15,1.51-.11.23-.22.47-.32.7s-.17.32-.27.47l-1.47-.14v-5.76l.72-.83Z"/><path class="cls-4" d="M182.92,127.71c-.55,1-1.11,2-1.65,3.06a1.41,1.41,0,0,0,0,.28v1.89c.54-.58,1.08-1.15,1.63-1.72l5.12.95h0c1.7.29,3.4.66,5.12,1,.54-1,1.1-1.9,1.66-2.85a1.09,1.09,0,0,1,0-.26v-1.2c-.56.29-1.1.59-1.65.9-1.7-.4-3.41-.8-5.1-1.14h0l-5.13-.94Z"/><path class="cls-4" d="M198.39,138.86v29.63l.71,1.32,1,.81q5.2.58,10.39,1.27l1.05-.29c.19-.37.37-.74.57-1.1,0-.28,0-.56,0-.84,0-4.58-.07-9.18-.1-13.77s-.06-9.19-.08-13.78c-.81-.93-1.6-1.84-2.39-2.77-3-.88-6-1.72-9-2.47m4.35,8.22c.24.06.5.13.76.18.22.61.45,1.2.68,1.8v16l-.75.68-.71-.12c-.24-.32-.49-.63-.73-.94V146.58c.24-.51.49-1,.75-1.49Z"/><path class="cls-4" d="M90.91,121.57c-.36.51-.71,1-1.06,1.56-.18.6-.34,1.2-.5,1.8,0,.63,0,1.26,0,1.88v32.48c.33.56.66,1.11,1,1.66l1.37.81c5-.87,10-1.62,15-2.33l1.91-1.62c.15-.94.3-1.88.46-2.84V117.68c-.22-.45-.44-.91-.65-1.38l-1.25-.52-1,0c-4.6,1.44-9.19,2.94-13.79,4.69l-1.51,1.06Zm7.7,10,1.08-.37,1,1.19c0,2.41,0,4.81,0,7.23s0,4.81,0,7.22c-.37.5-.72,1-1.09,1.49l-1,.21-1.08-1.09V133.21l1-1.64Z"/><path class="cls-3" d="M90.77,166.37l-1.3,1.46v4.9a184.73,184.73,0,0,1,19.9-2.61c0-1.59-.06-3.17-.08-4.76l-1.58-1.69a63.3,63.3,0,0,0-16.94,2.7Z"/><path class="cls-2" d="M199.51,108.51c-.08-.26.16-.26-.29-.43a14.28,14.28,0,0,0-1.91-.64c-.53.55-.31,1.92-1.41,2a12.66,12.66,0,0,1-2.67-.86c-.92-.32-1.83-.66-2.75-1-.68-.23-2-.93-2.45-.4.18,0,.34,0,.59,0,.59.1,6.93,2.61,7.86,3s2,1.06,2.34-.06l2.13.75L212.63,115l1.14.39,1.26.45,5.49,1.93c.41.15,1.41.6,1.73.47a2.46,2.46,0,0,0,.3-.76c-.34-.23-6.35-2.34-7.37-2.71l-1-.39-13.32-4.81-.62-.23-.94-.34.2-.5M181.54,92.56c.06-.06.27.47.32.59.31.71.66.17.89.82.12.34-.21.42-.62.61-.15.06-.09.06-.18,0a8,8,0,0,1-.41-2ZM184,91.07c-.17.1-.14.21,0,.27s0,0,.11,0-.05-.19-.12-.26Zm-.14,0a.26.26,0,0,1,.47.23c-.14.39-.63.09-.47-.23Zm15.28,15.87c.17-.39.2-.34.05-.62.25.19.2.33.08.68a1.8,1.8,0,0,1,.35-.12c.24.29,0,.64,0,1v0l0,.09c-.07,0,0-.07.24,0l.72.27a6.09,6.09,0,0,0,1.47.5c.12,0,.28-.11.25.09a0,0,0,0,0,0,0,1.22,1.22,0,0,1-.2.35c.69.24,1.39.53,2.07.79l1,.39c.44.16.53.2.85,0s.38-.12.87,0l1,.34,5.69,2,.2,0c.67.19,1.48.55,2,.72l.11,0a1.84,1.84,0,0,1,.25.09l1.47.51c0-.06.21-.25.24-.29a13.08,13.08,0,0,0-1.54-.6l-.15,0-.48-.17c-.45-.16-2-.67-2.35-.84l-.14,0c-1.78-.62-3.55-1.27-5.32-1.9-.41-.14-.92-.3-1.32-.47s-.19-.24-.41-.36-.42-.17-.63-.28c-1.73-1-1.06-2.44-2.08-2.16-.36.09-.34-.23-.21-.25.35-.06-.13.07.2.07.53,0,.69-.12.93.72a2.26,2.26,0,0,0,.48.86c.63.8,3.72,1.77,4.87,2.18l3.42,1.25.05,0L219,114c.36.12.9.11.9.56,0,.19-.11.41-.1.6a.67.67,0,0,0,.18.47,9,9,0,0,0,1.33.52c.64.23.66.2,1,.66s.51.49.33,1c-.32.86-.4.88-1.22,1a2.17,2.17,0,0,0-.52.08c-.63.28-1.86-.26-1.91-.89-.85-.33-1.75-.62-2.61-.92-.34-.12-.79-.32-1.09-.4-.81-.21-1.88-.65-2.7-.94-.22-.08-.46-.14-.67-.24l-.21-.08c-.47-.1-7.18-2.52-7.94-2.79s-1.54-.5-2.28-.79l-.25-.1c-.81-.24-1.69-.59-2.51-.87a1.11,1.11,0,0,1-.57.33,1.15,1.15,0,0,1-.76-.13l-8.71-3.3c-1.35-.5-1.46-.37-1.8-.92-.83-1.17-1.05-.41-1.45,0-.24.28-1,.75-1.12.45s.31-.29.45-.61a5.29,5.29,0,0,1,.42-.82,1,1,0,0,1,.59-.44,3,3,0,0,0,.36-.12l.08,0,.07,0c.28-.16.09-.46.1-.92a4.16,4.16,0,0,1,.12-.83c.23-1,.48-1,.84-1.54a2.53,2.53,0,0,1-.58-1.57c0-.16.08-.47,0-.59s-1.56-.6-2-.88a6.79,6.79,0,0,1-2.18-2.56,1.84,1.84,0,0,1-.17-.38,10,10,0,0,1-.4-1.13,5.24,5.24,0,0,0,.56-.24c.69-.31.43-.63-.06-1.66a23,23,0,0,0-1-2.12l-.14-.16c-.06-.31,0-1.22,0-1.6a31.77,31.77,0,0,0-.08-3.25c0-.26-.2-.54.08-.76a.93.93,0,0,1,.76,0c1.57.44,4.1,1.41,5.8,2s.71.35,1.3.63.15.49-.23,1.09a10,10,0,0,0-1.6,5.31,4.87,4.87,0,0,0,.5,1.87,13,13,0,0,0,1.76,1.31c.57-.24,1.15-1.32,2.26-1.4a4.92,4.92,0,0,1,2.89,1.23,1.31,1.31,0,0,1,.22.25l.06.08c.07,0,.07,0,0,.08s0,0,.12.11a.17.17,0,0,1,0,.12,1.83,1.83,0,0,1,.28,1.14c.05.11,0,0,0,.15s0,.14,0,.18a2.79,2.79,0,0,1-.06.33c-.16.49-.31.77-.09,1.18s.55.44.54.91c-.77-.33-6.09-3.22-6.33-3.14l6.38,3.26.25.13s.09,0,.14.07,0,0,.07.09c.3,0,.75.45,1,.45,0-.12-.16-.16-.29-.23l-1.14-.59.12-.11c.12-.12-.1,0,.09-.07s1.19.7,1.43.84a10.29,10.29,0,0,1,1.37.86c.52.48.53,1.19,1.44,1.62.44.2.28.24.38.53l1.5.69c.25.11.49.21.73.33s.57.26.27.43c-.24,0,0,0-.23-.16s-1.93-.88-2.16-1a1.12,1.12,0,0,0,.09.53c.07.2.14.23.39.34.41.17.81.37,1.22.54h0a2.32,2.32,0,0,1,.61.31.66.66,0,0,1,0,.5c-.26.07-.61-.12-.86-.17s-.54.13-.75-.11l-.26-.21a3.23,3.23,0,0,0-.42-.2c-.24-.11-.67-.28-.87-.4l.5-1.34,0,0h0l-.06,0c-.08-.06,0,0-.11-.08s0-.08-.05-.21c-.79-.41-.77-.77-1.15-1.4a3.85,3.85,0,0,0-1.63-1.17c.32.45,1.8.84,1.66,2a12.09,12.09,0,0,0-1.45-.95c-1.14-.44-2.15-.77-3.1-1.11a17.09,17.09,0,0,0-2.84-.91c.7.31,1.6.62,2.34.88.59.21,2.91,1,3.4,1.27l.18.11a3,3,0,0,1,1,.81c.33.49.74,1.2,0,1.45-1,.32-1-.23-1.35,1,.14-.15.27-.62.44-.71s.52,0,.65-.14c-.05.21-.14.35-.07.52a.61.61,0,0,0,.43.26c0-.24-.21-.66-.16-.78s.13.05.19.22c.2.72.08.35.28.47Zm-4.32-9.36-.14-.16a.13.13,0,0,1-.06-.07c-.07-.08,0,0-.05-.08a3.52,3.52,0,0,0-1.26-.84c.19.36,1.35.57,1.66,1.82a1.62,1.62,0,0,1-.68,2c-.14.08-.15,0-.27.1a3.9,3.9,0,0,0,1,.63,3,3,0,0,1,.17-1.27l.06-.7v-.09a.59.59,0,0,1,0-.14l0-.08a.89.89,0,0,1-.08-.33l0,0s0,0,0,0l-.16-.43a.21.21,0,0,0-.05-.07l0-.06Zm-8.4,8.52c.57.31.61,1,1,1.15.54-.75.1-.9-.14-2.35-.3-1.82.48-1.92.5-2.48a1.52,1.52,0,0,0-.42-.18l-.1.07a2.86,2.86,0,0,0-.75,1.72c-.14,1.18.43,1.11-.45,1.56-1,.25-.94.91-1.5,1.56.73,0,.88-1.43,1.82-1Zm1.36-4.07.51.25c0-.25-.08-.2-.22-.37h0a1.52,1.52,0,0,1-.88-1.25,2.9,2.9,0,0,1,.07-.85c0-.38-.29-.34-.5-.57.09-.29.23-.25.44-.4a2.59,2.59,0,0,0,.44-.35c.43-.42.49-1.19.76-1.16l.28.16c.33.23.72.6,1.14.6,0-.07,0,0-.08-.09l-.33-.25-.45-.33a5.35,5.35,0,0,0-.9-.62,4,4,0,0,1-.18,1,2,2,0,0,1-1.31,1,4.35,4.35,0,0,0-.82.14c0,.26.57.51.83.63.49.23.3.36.3.86a1.78,1.78,0,0,0,.89,1.59Zm1.12-13.37c.16-.23.39-.49.37-.73-.2-.09-.23,0-.33.15l-.84,1.59a9.9,9.9,0,0,0-1,4.08,6.87,6.87,0,0,0,.19,1.1,8.07,8.07,0,0,1,.11-2.61,10.79,10.79,0,0,1,.77-2.24,11.67,11.67,0,0,1,.74-1.34Zm-5.49,1.92c.19.06.26-.12.5-.19a1.18,1.18,0,0,1,.63.08c.15-.34.46-1.23.56-1.59s-.07-.38-.28-.57c-1-1-.63-.59-1,.71a7.47,7.47,0,0,0-.42,1.56Zm6.39,6.87a.67.67,0,0,0,.43.25c.43-1.16.7-1.28,1.71-1.55-.59-.17-1.3.45-1.65.86-.06.07-.15.2-.21.26s-.07,0-.28.18Zm2.66-1c.41.25-.35.7-.58,1.79-.18.89.1.95.84,1.36,1,.57,1,.75,1.61.36a1.45,1.45,0,0,0,.55-1.59A2.15,2.15,0,0,0,194,97c-.92-.66-2.64-1.21-3.25.07-.34.71-.13,1.43.35,1.57a2.59,2.59,0,0,1,1.42-2.25Zm-.94,2.54a2.71,2.71,0,0,1,.18-1.34c.31-.72.74-.79.69-1-.21,0-.69.62-.83.85a2.4,2.4,0,0,0-.34,1.29Zm-8.08-7.21c0,.26,0,.75,0,1A7.24,7.24,0,0,0,185,97.5c.29.34,0,.71.45.89a2.1,2.1,0,0,0,1.16.19,1.69,1.69,0,0,0,.88-.45c.29-.46-.35-.59-.7-.75a5.28,5.28,0,0,1-2.47-4.3c0-.25,0-.91,0-1.07-.63,0-.46-.08-.86-.29Zm8.27,8.63c-.25,0-.23.18-.52-.07l0,.11a.22.22,0,0,0,.25.13.3.3,0,0,0,.25-.17Zm-9.3-5c-.1.55,1.21,2.76,2.51,3.45.37.2.51.29.66.15-.09-.12-.2-.12-.37-.18a3.49,3.49,0,0,1-.87-.56,7.29,7.29,0,0,1-1.43-1.84c-.25-.44-.45-.93-.5-1Zm10.67,6.82a.91.91,0,0,0,.63.23c0-.06.07,0-.09-.12ZM189,100.67c0-.18,0-.33-.25-.38s-.32.09-.36.31a1.88,1.88,0,0,0,.61.07Zm11.47,4.51c0,.14.12.16.24.14-.06-.12-.11-.16-.24-.14ZM189,100.79a2.48,2.48,0,0,1-.29,0,2.36,2.36,0,0,0-.29,0,.73.73,0,0,0,.34.14c.22.06.19.06.24-.13Zm7.12,6.15c-.06.65-.28,1.21-.29,1.41a21.94,21.94,0,0,0,1.7-4.47c-.15.07-.56.73-.76.92a26.27,26.27,0,0,1-3.18-1.1c-.31-.12-1.41-.45-1.52-.66a1.21,1.21,0,0,0-.85-1c0,.33.61.41.46,1-.28-.12-.48-.33-.78-.35a15.4,15.4,0,0,0-.9,2c-.17.49.2.33.56.24.56-.14,5,1.76,5.56,2Zm1.06-.4c-.22,0-.3,0-.39.19a.8.8,0,0,0,.47.12.49.49,0,0,0-.08-.31Zm22.22,8.14c-.12.21-.48.46-.5.71s.57.41.78.41c.09-.23-.14-.44-.09-.79s.2-.57-.27-.72l-.1.19c-.14,0-.4-.14-.54-.21s-.41-.39-.56,0,.35.28.35.28c.25,0,.58.26.83.22Zm-29.54-9.26.47,0c-.15-.12-.35-.26-.47,0Zm.65-3.21a2,2,0,0,0-1.38,0,1.69,1.69,0,0,0,.19,3.16c0-.18-.28-.29-.41-.42a1.5,1.5,0,0,1-.38-1.57,1.16,1.16,0,0,1,.81-.77,4.24,4.24,0,0,1,1.09-.09.83.83,0,0,0,.08-.35Zm-.85,3.78c-.24.47.82.45,1-.07-.2.11-.17.17-.44.19a1.2,1.2,0,0,1-.54-.12Zm6.93,2.36c-.25,0-.4,0-.52.16s.18.19.29.14.18-.2.23-.3Zm-5.37-1.61a1.35,1.35,0,0,0,.73.35l0-.16a1,1,0,0,0-.77-.19Zm28.44,11.76-.09-.18.56.17c-.29-.54-1.54-.42-.47,0Z"/><path class="cls-2" d="M102.11,108.51c.08-.26-.16-.26.29-.43a14.55,14.55,0,0,1,1.89-.64c.54.55.33,1.92,1.42,2a12.93,12.93,0,0,0,2.68-.86c.92-.32,1.82-.66,2.74-1,.68-.23,2-.93,2.45-.4-.17,0-.33,0-.59,0-.59.1-6.93,2.61-7.85,3s-2,1.06-2.35-.06l-2.13.75L89,115l-1.14.39-1.26.45-5.48,1.93c-.41.15-1.42.6-1.73.47a2.24,2.24,0,0,1-.3-.76c.33-.23,6.35-2.34,7.36-2.71l1-.39,13.32-4.81.61-.23.95-.34-.2-.5m17.92-15.94c-.07-.06-.26.47-.32.59-.3.71-.65.17-.89.82-.12.34.22.42.63.61.14.06.09.06.18,0a8.89,8.89,0,0,0,.27-1,5.19,5.19,0,0,0,.13-1Zm-2.48-1.49c.16.1.14.21,0,.27s0,0-.11,0,0-.19.12-.26Zm.14,0a.27.27,0,0,0-.48.23c.15.39.62.09.48-.23ZM102.44,106.9c-.17-.39-.19-.34,0-.62-.25.19-.21.33-.08.68a2.06,2.06,0,0,0-.35-.12c-.25.29,0,.64,0,1v0l0,.09c.08,0,0-.07-.24,0l-.71.27a6.09,6.09,0,0,1-1.47.5c-.13,0-.28-.11-.25.09a0,0,0,0,0,0,0c0,.14.13.23.2.35-.7.24-1.39.53-2.08.79l-1,.39c-.44.16-.53.2-.86,0s-.37-.12-.87,0l-1,.34-5.7,2a.93.93,0,0,1-.2,0c-.67.19-1.47.55-2,.72l-.11,0-.25.09-1.46.51-.24-.29a11.29,11.29,0,0,1,1.54-.6l.14,0,.48-.17c.46-.16,2-.67,2.36-.84l.14,0c1.77-.62,3.54-1.27,5.31-1.9.42-.14.92-.3,1.32-.47s.19-.24.42-.36.41-.17.63-.28c1.72-1,1-2.44,2.08-2.16.34.09.33-.23.2-.25-.34-.06.13.07-.19.07-.55,0-.69-.12-.94.72a2.26,2.26,0,0,1-.48.86c-.63.8-3.71,1.77-4.86,2.18l-3.42,1.25,0,0L82.65,114c-.37.12-.9.11-.9.56,0,.19.11.41.1.6a.68.68,0,0,1-.19.47,9.32,9.32,0,0,1-1.32.52c-.64.23-.67.2-1,.66s-.51.49-.34,1c.33.86.4.88,1.22,1a2.18,2.18,0,0,1,.53.08c.62.28,1.85-.26,1.91-.89.84-.33,1.74-.62,2.61-.92.34-.12.79-.32,1.08-.4.82-.21,1.88-.65,2.71-.94.22-.08.45-.14.66-.24l.22-.08c.47-.1,7.17-2.52,7.94-2.79s1.53-.5,2.27-.79l.25-.1c.82-.24,1.7-.59,2.51-.87a1.14,1.14,0,0,0,.58.33,1.16,1.16,0,0,0,.76-.13l8.71-3.3c1.35-.5,1.46-.37,1.78-.92.85-1.17,1.07-.41,1.47,0,.24.28,1,.75,1.12.45s-.32-.29-.46-.61a4.54,4.54,0,0,0-.42-.82,1,1,0,0,0-.59-.44,3,3,0,0,1-.36-.12l-.07,0-.08,0c-.27-.16-.08-.46-.1-.92a5,5,0,0,0-.11-.83c-.23-1-.48-1-.85-1.54a2.48,2.48,0,0,0,.58-1.57c0-.16-.08-.47,0-.59s1.57-.6,2-.88A6.76,6.76,0,0,0,119,96.37a2.64,2.64,0,0,0,.18-.38c.12-.37.31-.73.4-1.13a5.24,5.24,0,0,1-.56-.24c-.69-.31-.44-.63.06-1.66a23,23,0,0,1,1-2.12l.14-.16c0-.31,0-1.22,0-1.6,0-1,0-2.32.08-3.25,0-.26.2-.54-.07-.76a.93.93,0,0,0-.76,0c-1.57.44-4.11,1.41-5.8,2s-.72.35-1.3.63-.15.49.22,1.09a9.81,9.81,0,0,1,1.6,5.31,4.54,4.54,0,0,1-.5,1.87A12.39,12.39,0,0,1,112,97.26c-.56-.24-1.14-1.32-2.26-1.4a4.92,4.92,0,0,0-2.89,1.23,1.73,1.73,0,0,0-.21.25l-.06.08c-.08,0-.08,0,0,.08s0,0-.12.11a.26.26,0,0,0,0,.12,1.83,1.83,0,0,0-.28,1.14c0,.11,0,0,0,.15s0,.14,0,.18a2.72,2.72,0,0,0,.07.33c.16.49.3.77.09,1.18s-.55.44-.54.91c.76-.33,6.09-3.22,6.32-3.14l-6.37,3.26-.25.13-.14.07c-.14.1,0,0-.07.09-.31,0-.75.45-1,.45,0-.12.17-.16.3-.23l1.13-.59-.11-.11c-.12-.12.1,0-.09-.07l-1.43.84a9.8,9.8,0,0,0-1.38.86c-.51.48-.54,1.19-1.44,1.62-.43.2-.28.24-.38.53l-1.5.69c-.25.11-.49.21-.73.33s-.56.26-.27.43c.24,0,0,0,.24-.16s1.92-.88,2.15-1a1,1,0,0,1-.08.53c-.07.2-.14.23-.4.34s-.8.37-1.21.54h0a2.39,2.39,0,0,0-.62.31.62.62,0,0,0,0,.5c.26.07.61-.12.86-.17s.54.13.75-.11l.26-.21a2.71,2.71,0,0,1,.42-.2c.24-.11.66-.28.87-.4l-.5-1.34,0,0h0l.08,0c.08-.06,0,0,.11-.08s0-.08,0-.21c.8-.41.77-.77,1.15-1.4a4,4,0,0,1,1.63-1.17c-.31.45-1.79.84-1.65,2a12.09,12.09,0,0,1,1.45-.95c1.14-.44,2.15-.77,3.09-1.11a17.48,17.48,0,0,1,2.85-.91c-.71.31-1.6.62-2.35.88-.58.21-2.9,1-3.4,1.27l-.18.11a3,3,0,0,0-1,.81c-.34.49-.74,1.2,0,1.45,1,.32,1-.23,1.34,1-.13-.15-.28-.62-.43-.71s-.53,0-.65-.14c0,.21.14.35.06.52a.56.56,0,0,1-.42.26c-.05-.24.21-.66.15-.78s-.13.05-.18.22c-.21.72-.09.35-.29.47Zm4.33-9.36c.06-.07.07-.07.14-.16l.06-.07c.07-.08,0,0,0-.08a3.47,3.47,0,0,1,1.25-.84c-.19.36-1.35.57-1.65,1.82a1.6,1.6,0,0,0,.68,2c.13.08.14,0,.26.1a3.73,3.73,0,0,1-1,.63,2.82,2.82,0,0,0-.16-1.27l-.06-.7v-.09a.32.32,0,0,0,0-.14l0-.08a.73.73,0,0,0,.08-.33,0,0,0,0,0,0,0s0,0,0,0l.17-.43a.21.21,0,0,1,0-.07v-.06Zm8.4,8.52c-.58.31-.61,1-1,1.15-.55-.75-.1-.9.14-2.35.3-1.82-.48-1.92-.5-2.48a1.4,1.4,0,0,1,.42-.18l.1.07A2.92,2.92,0,0,1,115,104c.14,1.18-.44,1.11.44,1.56,1,.25,1,.91,1.5,1.56-.73,0-.88-1.43-1.81-1ZM113.81,102l-.51.25c0-.25.08-.2.21-.37h0a1.54,1.54,0,0,0,.88-1.25,2.9,2.9,0,0,0-.07-.85c0-.38.28-.34.5-.57-.1-.29-.23-.25-.45-.4a2.55,2.55,0,0,1-.43-.35c-.43-.42-.5-1.19-.76-1.16l-.28.16c-.33.23-.72.6-1.14.6,0-.07,0,0,.07-.09l.33-.25a4.59,4.59,0,0,0,.44-.33,5.94,5.94,0,0,1,.92-.62,3,3,0,0,0,.18,1,2,2,0,0,0,1.31,1,4.35,4.35,0,0,1,.82.14c0,.26-.59.51-.84.63-.5.23-.29.36-.29.86a1.78,1.78,0,0,1-.89,1.59Zm-1.12-13.37c-.16-.23-.39-.49-.37-.73.2-.09.23,0,.33.15l.83,1.59a9.6,9.6,0,0,1,1,4.08,6.87,6.87,0,0,1-.19,1.1,7.78,7.78,0,0,0-.1-2.61,10.79,10.79,0,0,0-.77-2.24c-.23-.48-.47-.89-.74-1.34Zm5.49,1.92c-.2.06-.27-.12-.5-.19a1.17,1.17,0,0,0-.63.08c-.15-.34-.46-1.23-.57-1.59s.08-.38.27-.57c1-1,.65-.59,1,.71a7.55,7.55,0,0,1,.43,1.56Zm-6.39,6.87a.7.7,0,0,1-.45.25c-.41-1.16-.68-1.28-1.69-1.55.58-.17,1.29.45,1.64.86a2.75,2.75,0,0,0,.22.26c.11.11.06,0,.28.18Zm-2.66-1c-.42.25.34.7.57,1.79.19.89-.09.95-.83,1.36-1,.57-1.05.75-1.62.36a1.45,1.45,0,0,1-.55-1.59,2.17,2.17,0,0,1,1-1.31c.91-.66,2.64-1.21,3.25.07.34.71.12,1.43-.35,1.57a2.65,2.65,0,0,0-.46-1.4,2.6,2.6,0,0,0-1-.85Zm.94,2.54a2.71,2.71,0,0,0-.18-1.34c-.32-.72-.74-.79-.7-1,.21,0,.7.62.84.85a2.4,2.4,0,0,1,.34,1.29Zm8.08-7.21c0,.26,0,.75,0,1a7.19,7.19,0,0,1-1.53,4.73c-.28.34,0,.71-.44.89a2.11,2.11,0,0,1-1.16.19,1.69,1.69,0,0,1-.88-.45c-.31-.46.34-.59.69-.75a5.27,5.27,0,0,0,2.48-4.3c0-.25-.06-.91,0-1.07.63,0,.45-.08.86-.29Zm-8.27,8.63c.25,0,.22.18.52-.07l0,.11a.22.22,0,0,1-.24.13.29.29,0,0,1-.25-.17Zm9.3-5c.1.55-1.21,2.76-2.51,3.45-.37.2-.51.29-.66.15.09-.12.2-.12.35-.18a3.07,3.07,0,0,0,.88-.56,7.11,7.11,0,0,0,1.44-1.84c.24-.44.44-.93.5-1Zm-10.67,6.82a.94.94,0,0,1-.63.23c0-.06-.08,0,.09-.12Zm4.15-1.48c0-.18,0-.33.25-.38s.31.09.35.31a1.82,1.82,0,0,1-.6.07Zm-11.47,4.51c0,.14-.12.16-.24.14.06-.12.11-.16.24-.14Zm11.47-4.39a2.48,2.48,0,0,0,.29,0,2.23,2.23,0,0,1,.27,0,.65.65,0,0,1-.33.14c-.21.06-.19.06-.23-.13Zm-7.13,6.15c.07.65.28,1.21.29,1.41a22.5,22.5,0,0,1-1.69-4.47c.15.07.55.73.76.92a25.58,25.58,0,0,0,3.17-1.1c.32-.12,1.42-.45,1.52-.66a1.23,1.23,0,0,1,.86-1c0,.33-.62.41-.47,1,.29-.12.48-.33.79-.35a16.86,16.86,0,0,1,.9,2c.16.49-.21.33-.57.24-.55-.14-5,1.76-5.56,2Zm-1-.4c.21,0,.3,0,.39.19a.8.8,0,0,1-.47.12c0-.16,0-.2.08-.31Zm-22.22,8.14c.12.21.48.46.49.71s-.58.41-.77.41c-.09-.23.14-.44.07-.79s-.18-.57.29-.72l.08.19a4.63,4.63,0,0,0,.56-.21c.1,0,.41-.39.56,0s-.36.28-.36.28c-.25,0-.57.26-.82.22Zm29.54-9.26-.48,0c.15-.12.36-.26.48,0Zm-.65-3.21a2,2,0,0,1,1.38,0,1.68,1.68,0,0,1-.2,3.16c0-.18.28-.29.41-.42a1.51,1.51,0,0,0,.39-1.57,1.17,1.17,0,0,0-.81-.77,4.33,4.33,0,0,0-1.11-.09,1,1,0,0,1-.06-.35ZM112,106c.22.47-.83.45-1-.07.19.11.17.17.43.19A1.22,1.22,0,0,0,112,106Zm-6.94,2.36c.25,0,.41,0,.53.16a.28.28,0,0,1-.3.14c-.09,0-.17-.2-.23-.3Zm5.37-1.61a1.32,1.32,0,0,1-.73.35l0-.16a1,1,0,0,1,.76-.19ZM82,118.5l.09-.18-.56.17c.27-.54,1.53-.42.47,0Z"/><rect class="cls-5" width="300" height="300"/></g></g></svg>