<svg xmlns="http://www.w3.org/2000/svg" viewBox="0 0 300 300"><defs><style>.cls-1{font-size:15.81px;font-family:Humanist777BT-BlackCondensedB, Humnst777 BlkCn BT;letter-spacing:0.6em;}.cls-1,.cls-2{fill:#9b9b9b;}.cls-3{fill:none;}</style></defs><title>logo25</title><g id="Layer_2" data-name="Layer 2"><g id="Layer_1-2" data-name="Layer 1"><text class="cls-1" transform="translate(84.95 194.8)">SISTEMAS</text><path class="cls-2" d="M201.71,116.76,177.2,146.38h-29l14.11,17.37,12.59,0,5.68,6.85H156.77l-19.7-24.2-12.92-.11-3.93-7.76H172.8l10.92-13.69H109.11l-7-8.06Z"/><polygon class="cls-2" points="48.77 162.68 53.31 169.09 62.43 158.22 52.15 158.22 48.77 162.68"/><polygon class="cls-2" points="97.41 170.75 107.1 170.59 130.53 138.53 120.22 138.51 97.41 170.75"/><path class="cls-2" d="M90.58,170.58H54.36l-5.48-7.68H86.16L91.84,156l6.58-9.15H62l24-29.74h11.1l6.63,8.24H92.59l-1.09-1.45L79.71,138.5H115l-13,17.42L91.62,170.58Z"/><polygon class="cls-2" points="255.42 162.71 249.35 167.63 241.43 158.24 251.73 158.22 255.42 162.71"/><path class="cls-2" d="M187.74,170.58l-12.31-14.92,14.38-17.34h34.92l-11.9-14.73-1.53,1.46H200.18l7.09-8.29h11.12l24,29.63h-47.9l-7.57,9.2,6,6.92h62.61l-6.19,8.06Z"/><rect class="cls-2" x="65.45" y="177.05" width="173.79" height="0.36"/><rect class="cls-3" width="300" height="300"/></g></g></svg>