<svg xmlns="http://www.w3.org/2000/svg" viewBox="0 0 300 300"><defs><style>.cls-1{fill:#878787;}.cls-2{fill:#b8b8b8;}.cls-3{fill:none;}</style></defs><title>logo4</title><g id="Layer_2" data-name="Layer 2"><g id="Layer_1-2" data-name="Layer 1"><path class="cls-1" d="M172.14,136.39c-3.89-4.6-6.69-9.1-7.42-13.42H135.43c-.79,4.21-3.65,8.74-7.42,13.42v6.26a20.19,20.19,0,0,0,9.24,17c3,1.93,9,3,12.83,3s9.81-1.11,12.82-3a20.19,20.19,0,0,0,9.24-17Zm-22.08,13.39a8.62,8.62,0,0,1-8.62-8.62v-4.77H159v4.77A8.86,8.86,0,0,1,150.06,149.78Z"/><path class="cls-2" d="M150.08,84.94a23.64,23.64,0,0,0-8.88,1.72v31.48H159V86.66A23.55,23.55,0,0,0,150.08,84.94Z"/><path class="cls-1" d="M141.2,68.55V82.42a23.63,23.63,0,0,1,17.75,0V68.55a37,37,0,0,0-17.75,0Z"/><path class="cls-2" d="M136.51,85V70.05a36.89,36.89,0,0,0-23.31,34.06v.24a35.79,35.79,0,0,0,6.35,20.7c1.53,2.17,3.85,4.47,6,7.91,3.36-4.57,5.81-9,6.62-13.17l-.06-.09h0c-.34-.4-.67-.8-1-1.22h0A23.66,23.66,0,0,1,136.51,85Z"/><path class="cls-2" d="M187,104.11a36.9,36.9,0,0,0-23.31-34.06V85a23.66,23.66,0,0,1,5.41,33.51h0c-.31.42-.64.82-1,1.22h0l-.07.09c.74,4.28,3.15,8.71,6.58,13.24,2.13-3.48,4.48-5.8,6-8a35.8,35.8,0,0,0,6.36-20.7Z"/><path class="cls-2" d="M60.9,210.87V175.56a23.11,23.11,0,0,1,11.09,0v35.31Z"/><path class="cls-2" d="M99.81,210.87a.93.93,0,0,1-.76-.39l-12-16.94H87v16.4a.93.93,0,0,1-.93.93H77.87a.92.92,0,0,1-.92-.93V176.49a.92.92,0,0,1,.92-.93h9.35a.91.91,0,0,1,.75.38l11.26,15.47h.1V176.49a.93.93,0,0,1,.93-.93h8.15a.93.93,0,0,1,.93.93v33.45a.93.93,0,0,1-.93.93Z"/><path class="cls-2" d="M129.81,211.47c-8.12,0-15.8-3.27-15.8-13.67v-9.07c0-9.56,7.48-13.77,15.65-13.77s16,3.42,16,13.77v9C145.61,207.85,137.64,211.47,129.81,211.47Zm4.61-23.08a4.45,4.45,0,0,0-4.66-4.76c-3,0-4.55,1.54-4.55,4.76v9.41c0,3.22,1.58,5,4.65,5,2.82,0,4.56-1.83,4.56-4.81Z"/><path class="cls-2" d="M168.68,210.92H158.36a.94.94,0,0,1-.89-.65l-10.28-33.51a.93.93,0,0,1,.89-1.2h9.12a.92.92,0,0,1,.89.7l5.77,23.12h.2l6.06-23.13a.92.92,0,0,1,.9-.69h8.32a.93.93,0,0,1,.88,1.21l-10.65,33.5A.93.93,0,0,1,168.68,210.92Z"/><path class="cls-2" d="M199.43,210.21l-1.29-4.32a.92.92,0,0,0-.89-.66H186.89a.9.9,0,0,0-.88.66l-1.29,4.32a.93.93,0,0,1-.89.66h-8.32a.93.93,0,0,1-.88-1.22l11.31-33.51a.92.92,0,0,1,.88-.63h11.59a.92.92,0,0,1,.88.64l11.08,33.5a.93.93,0,0,1-.88,1.22h-9.17A.93.93,0,0,1,199.43,210.21Zm-7.28-24.6H192l-3,10.26a.92.92,0,0,0,.89,1.18h4.41a.92.92,0,0,0,.89-1.18Z"/><path class="cls-1" d="M64.64,229.94a2.53,2.53,0,0,0,1.07-.22,2.48,2.48,0,0,0,.84-.64,3.39,3.39,0,0,0,.59-1,5.29,5.29,0,0,0,.32-1.33l1-8.23h3.1l-1,8.23a7.59,7.59,0,0,1-.67,2.33,6.13,6.13,0,0,1-1.32,1.83,5.78,5.78,0,0,1-1.89,1.19,6.23,6.23,0,0,1-2.36.43,5.41,5.41,0,0,1-2.25-.43,4.18,4.18,0,0,1-1.6-1.19,4.58,4.58,0,0,1-.87-1.83,6.4,6.4,0,0,1-.09-2.33l1-8.23h3.1l-1,8.23a4.9,4.9,0,0,0,0,1.33,2.53,2.53,0,0,0,.36,1,1.74,1.74,0,0,0,.68.64A2.11,2.11,0,0,0,64.64,229.94Z"/><path class="cls-1" d="M85.44,218.53a.61.61,0,0,1,.25.07.53.53,0,0,1,.19.15l.18.24,4.86,8.56c0-.22,0-.43,0-.63s0-.4.07-.57l.93-7.83h2.74L93,232.38H91.38a1.07,1.07,0,0,1-1-.52l-4.85-8.55c0,.18,0,.35,0,.51s0,.33,0,.47l-1,8.09H81.76l1.71-13.86h2Z"/><path class="cls-1" d="M108.17,232.38h-3.12l1.69-13.86h3.12Z"/><path class="cls-1" d="M129.86,220.9h-5.12l-.46,3.66h4.29l-.32,2.39H124l-.67,5.43H120.2l1.71-13.86h8.26Z"/><path class="cls-1" d="M153.27,224.56a8.44,8.44,0,0,1-.27,2.15,8.14,8.14,0,0,1-.74,1.91,7.41,7.41,0,0,1-1.16,1.61,7.19,7.19,0,0,1-1.52,1.23,7.74,7.74,0,0,1-1.84.79,7.46,7.46,0,0,1-2.08.28,6,6,0,0,1-2.46-.48,5.4,5.4,0,0,1-1.85-1.31,5.78,5.78,0,0,1-1.17-2,7.2,7.2,0,0,1-.4-2.43,8.52,8.52,0,0,1,.26-2.16,8.05,8.05,0,0,1,.74-1.92,7.39,7.39,0,0,1,1.17-1.6,6.77,6.77,0,0,1,1.53-1.24,7.5,7.5,0,0,1,3.93-1.07,6.05,6.05,0,0,1,2.45.48,5.48,5.48,0,0,1,1.84,1.32,5.8,5.8,0,0,1,1.16,2A7.21,7.21,0,0,1,153.27,224.56Zm-3.18.07a5.33,5.33,0,0,0-.21-1.55,3.37,3.37,0,0,0-.59-1.2,2.79,2.79,0,0,0-1-.77,3,3,0,0,0-1.29-.27,3.65,3.65,0,0,0-1.71.39,4,4,0,0,0-1.28,1.11,5.16,5.16,0,0,0-.8,1.72,8.12,8.12,0,0,0-.29,2.22,5.71,5.71,0,0,0,.2,1.55,3.59,3.59,0,0,0,.59,1.19,2.56,2.56,0,0,0,1,.76,2.86,2.86,0,0,0,1.3.28,3.71,3.71,0,0,0,1.71-.39,3.67,3.67,0,0,0,1.28-1.11,5.22,5.22,0,0,0,.81-1.71A8.06,8.06,0,0,0,150.09,224.63Z"/><path class="cls-1" d="M167.39,227.2l-.63,5.18h-3.09l1.7-13.86h4.2a7.55,7.55,0,0,1,2.17.27,4.22,4.22,0,0,1,1.47.74,2.86,2.86,0,0,1,.84,1.13,3.88,3.88,0,0,1,.26,1.41,5,5,0,0,1-.21,1.46,4.28,4.28,0,0,1-.59,1.26,4.62,4.62,0,0,1-1,1,5,5,0,0,1-1.29.73,2.5,2.5,0,0,1,.53.39,2.45,2.45,0,0,1,.41.57l2,4.88h-2.79a1.28,1.28,0,0,1-.65-.16.88.88,0,0,1-.38-.43l-1.5-4.1a.8.8,0,0,0-.29-.37.87.87,0,0,0-.51-.12Zm.79-6.37-.52,4.23h1.13a2.89,2.89,0,0,0,1.13-.2,2.07,2.07,0,0,0,.76-.55,2.19,2.19,0,0,0,.42-.8,3.71,3.71,0,0,0,.13-1,2,2,0,0,0-.12-.71,1.3,1.3,0,0,0-.35-.54,1.74,1.74,0,0,0-.61-.35,2.79,2.79,0,0,0-.86-.12Z"/><path class="cls-1" d="M192.69,227.52c.1-.21.2-.42.31-.62s.23-.41.35-.61l4.25-7.3a2.65,2.65,0,0,1,.25-.24.9.9,0,0,1,.23-.15,1,1,0,0,1,.26-.06,1.72,1.72,0,0,1,.34,0h2.38l-1.71,13.86h-2.72l1-8.07q0-.26.09-.57c0-.2.08-.42.13-.64l-4.16,7.16a1.49,1.49,0,0,1-.5.47,1.34,1.34,0,0,1-.66.16h-.42a1.18,1.18,0,0,1-.63-.16.93.93,0,0,1-.38-.47l-2.43-7.18c0,.22,0,.43,0,.63s0,.39,0,.55l-.95,8.12h-2.74l1.71-13.86h2.36a1.72,1.72,0,0,1,.34,0,.84.84,0,0,1,.24.06.53.53,0,0,1,.19.15,1.8,1.8,0,0,1,.2.24l2.44,7.3C192.48,226.69,192.59,227.1,192.69,227.52Z"/><path class="cls-1" d="M221.05,220.9h-5.12l-.42,3.35h3.93l-.31,2.31h-3.91L214.8,230H220l-.3,2.39h-8.28l1.71-13.86h8.26Z"/><path class="cls-1" d="M239.62,221.29a1.28,1.28,0,0,1-.33.33.64.64,0,0,1-.39.11.84.84,0,0,1-.44-.14c-.14-.1-.31-.2-.49-.31a4,4,0,0,0-.62-.32,2.29,2.29,0,0,0-.83-.14,2.2,2.2,0,0,0-.76.12,1.6,1.6,0,0,0-.55.34,1.36,1.36,0,0,0-.33.52,1.93,1.93,0,0,0-.11.65.91.91,0,0,0,.22.63,1.89,1.89,0,0,0,.57.45,5.46,5.46,0,0,0,.8.36l.92.35c.31.13.62.28.92.44a3.49,3.49,0,0,1,.81.62,2.72,2.72,0,0,1,.57.89,3.39,3.39,0,0,1,.21,1.26,5.38,5.38,0,0,1-.36,2,4.71,4.71,0,0,1-2.67,2.7,5.61,5.61,0,0,1-2.18.41,6.12,6.12,0,0,1-1.2-.13,6.56,6.56,0,0,1-1.16-.38,5.17,5.17,0,0,1-1-.58,3.61,3.61,0,0,1-.81-.74l1.1-1.44a1.09,1.09,0,0,1,.33-.27.81.81,0,0,1,.39-.1.89.89,0,0,1,.52.18l.56.41a3.68,3.68,0,0,0,.71.41,2.43,2.43,0,0,0,1,.18,1.8,1.8,0,0,0,1.34-.47,1.88,1.88,0,0,0,.47-1.39,1,1,0,0,0-.22-.7A1.73,1.73,0,0,0,236,227a4.47,4.47,0,0,0-.79-.34c-.3-.1-.6-.2-.91-.32a8.26,8.26,0,0,1-.92-.4,2.85,2.85,0,0,1-1.35-1.53,3.6,3.6,0,0,1-.22-1.35,4.69,4.69,0,0,1,.35-1.77,4.6,4.6,0,0,1,1-1.51,4.92,4.92,0,0,1,1.57-1,5.32,5.32,0,0,1,2.08-.39,4.8,4.8,0,0,1,1.14.13,5,5,0,0,1,1.05.34,5.1,5.1,0,0,1,.88.52,3.84,3.84,0,0,1,.68.65Z"/><path class="cls-1" d="M60.9,171.3a23.62,23.62,0,0,1,11.09,0v-5.59a36.81,36.81,0,0,0-11.09,0Z"/><path class="cls-2" d="M232.31,198.18a.93.93,0,0,1,.36-1.26,11.26,11.26,0,0,0,5.53-10.12c0-5.89-3.87-11.24-13.28-11.24h-16a.93.93,0,0,0-.93.93v10.16a.93.93,0,0,0,.05.29l7.91,23.93h2.21a.93.93,0,0,0,.93-.93v-9.83a.93.93,0,0,1,.92-.93h.83a.93.93,0,0,1,.83.52l5.19,10.65a.92.92,0,0,0,.83.52h10a.92.92,0,0,0,.81-1.37Zm-8.87-6.57H220a.93.93,0,0,1-.92-.93v-5.87a.92.92,0,0,1,.92-.93h3.49a3.69,3.69,0,0,1,3.91,3.86A3.75,3.75,0,0,1,223.44,191.61Z"/><rect class="cls-3" width="300" height="300"/></g></g></svg>