<svg xmlns="http://www.w3.org/2000/svg" xmlns:xlink="http://www.w3.org/1999/xlink" viewBox="0 0 300 300"><defs><style>.cls-1{fill:#b7b7b7;}.cls-2{fill:url(#linear-gradient);}.cls-3{fill:#fff;}.cls-4{font-size:17.66px;fill:#9e9e9e;font-family:Raleway-Regular, Raleway;letter-spacing:0.4em;}.cls-5{fill:none;}</style><linearGradient id="linear-gradient" x1="43.85" y1="183.55" x2="82.59" y2="116.45" gradientUnits="userSpaceOnUse"><stop offset="0" stop-color="#878787"/><stop offset="1" stop-color="#9e9e9e"/></linearGradient></defs><title>logo1</title><g id="Layer_2" data-name="Layer 2"><g id="Layer_1-2" data-name="Layer 1"><path class="cls-1" d="M148.13,158.89a6.22,6.22,0,0,0,2.58-.54,4.27,4.27,0,0,1,3.87.22l2.89,1.66c-2.12,2.94-5.32,4.45-9.43,4.45-7.39,0-12-5-12-11.41a11.08,11.08,0,0,1,11.5-11.42c6.31,0,11,4.89,11,11.42a12.78,12.78,0,0,1-.26,2.59H143.81a.55.55,0,0,0-.47.83C144.31,158.3,146.08,158.89,148.13,158.89Zm3.21-7.87a.55.55,0,0,0,.5-.77,4.94,4.94,0,0,0-8.76,0,.55.55,0,0,0,.5.77Z"/><path class="cls-1" d="M183,150.8v13.27h-4.11a2.37,2.37,0,0,1-2.38-2.37v-9.95a3.56,3.56,0,0,0-3.76-3.93c-2.38,0-4,1.38-4,4.45v9.15a2.65,2.65,0,0,1-2.65,2.65h-3.83V142.46h4.45a2,2,0,0,1,2,2h0c1.17-1.6,3.33-2.64,6.18-2.64C179.26,141.85,183,145,183,150.8Z"/><path class="cls-1" d="M195.64,148.68v7.66c0,1.25.73,1.74,2.08,1.87a2.64,2.64,0,0,1,2.38,2.62v3.24c-8.48.87-10.94-1.68-10.94-7.73v-7.66H185.7V145.5a3,3,0,0,1,3-3h.42v-1.59a3.38,3.38,0,0,1,2.41-3.24l4.07-1.23v6.06h4.46v1.77a4.46,4.46,0,0,1-4.46,4.45Z"/><path class="cls-1" d="M224.65,142.46v21.61H220.2a2,2,0,0,1-2-2h0c-1.17,1.6-3.33,2.64-6.18,2.64-4.37,0-8.09-3.11-8.09-9V142.46h3a3.43,3.43,0,0,1,3.44,3.43v8.89a3.56,3.56,0,0,0,3.76,3.93c2.38,0,4-1.38,4-4.45V146.9a4.44,4.44,0,0,1,4.45-4.44Z"/><path class="cls-1" d="M242.38,142v7.35c-2.68-.43-6.48.65-6.48,4.93v7.76a2,2,0,0,1-2,2h-4.47V145.53a3.06,3.06,0,0,1,3.07-3.07h3.42v3.84C236.76,143.41,239.66,142,242.38,142Z"/><path class="cls-1" d="M266.94,142.46v21.61h-4.46a2,2,0,0,1-2-2h0a8.08,8.08,0,0,1-6.44,2.64c-5.66,0-10.33-5-10.33-11.41s4.67-11.42,10.33-11.42a8.11,8.11,0,0,1,6.44,2.64h0a2,2,0,0,1,2-2Zm-6.49,10.81a5.15,5.15,0,1,0-5.14,5.27A4.93,4.93,0,0,0,260.45,153.27Z"/><path class="cls-1" d="M107.83,133.81h4.65a5.27,5.27,0,0,1,5,3.75l5.12,17a.47.47,0,0,0,.9,0l5.12-17a5.27,5.27,0,0,1,5.05-3.75h4.35l-10,28.45a2.62,2.62,0,0,1-2.5,1.81h-5a2.62,2.62,0,0,1-2.5-1.81Z"/><path class="cls-2" d="M102,168.4V131.6a6.86,6.86,0,0,0-3.44-5.95l-31.87-18.4a6.86,6.86,0,0,0-6.87,0l-31.87,18.4a6.86,6.86,0,0,0-3.44,5.95v36.8a6.86,6.86,0,0,0,3.44,5.95l31.87,18.4a6.86,6.86,0,0,0,6.87,0l31.87-18.4A6.86,6.86,0,0,0,102,168.4Z"/><path class="cls-3" d="M67.79,130.78l-2.44,13.1a.7.7,0,0,0,.42.79L69,146.08a.72.72,0,0,0,1-.5l1-5.22a.6.6,0,0,1,1-.27l9.83,11.42a.71.71,0,0,1-.1,1L66.78,164.73l1.93-12-4.47-2.09-2.93,16.53c0,.1.71,1,.74,1.14h4.23c.14.5-3,4.64-2.58,4.31l24.21-19.83a.73.73,0,0,0,.08-1L69,130.43A.73.73,0,0,0,67.79,130.78Z"/><path class="cls-3" d="M68.41,168.45v-5l-1.63,1.31.32-2h-5l-.78,4.4c0,.1.71,1,.74,1.14h4.23a.33.33,0,0,1,0,.18Z"/><path class="cls-3" d="M35.44,129.54l27,43a.72.72,0,0,0,1.07.17l24.24-19.8a.75.75,0,0,0,0-1.3L36.35,128.5A.72.72,0,0,0,35.44,129.54Zm12.63,9.12,31.22,14a.73.73,0,0,1,.16,1.22L64.57,166a.73.73,0,0,1-1.07-.18L47.13,139.74A.75.75,0,0,1,48.07,138.66Z"/><text class="cls-4" transform="translate(161.33 181.81)">MAKERS</text><rect class="cls-5" width="300" height="300"/></g></g></svg>