<svg xmlns="http://www.w3.org/2000/svg" viewBox="0 0 300 300"><defs><style>.cls-1,.cls-2{fill:#9b9b9b;}.cls-1{fill-rule:evenodd;}.cls-3{fill:none;}</style></defs><title>logo24</title><g id="Layer_2" data-name="Layer 2"><g id="Layer_1-2" data-name="Layer 1"><path class="cls-1" d="M48.67,83.75c2.86-2,7.36-1.17,11.1,3v2.71c-5.55-8-12.86-4.5-12.61,1.88.27,7,8.11,11.29,11.08,14.66h-.3c-8.33-6.36-12.52-8-12.86-14.57a8.74,8.74,0,0,1,3.59-7.68ZM59.52,106c3.87-4,7.61-6.48,9.24-9.87a10.29,10.29,0,0,0,.9-6.29c-1.13-4.24-5.1-4.32-9.86-.39V86.78l.12.14c3-3,9.62-4.71,11.59.4,1.06,2.9,1,6.87-1,9.47C67.26,101,62.9,103.27,59.7,106Z"/><path class="cls-1" d="M57.94,106,46.23,178.72c-1.09,6.74-2.81,10-8,13.84H57.94Z"/><polygon class="cls-1" points="58.15 195.28 42.57 195.28 41.3 202.88 58.15 209.59 58.15 195.28"/><path class="cls-1" d="M59.7,106l5.69,72.47c1.06,6.69-.41,8.45,7.31,13.84h-13Z"/><polygon class="cls-1" points="59.72 195.03 70.1 195.03 71.87 204.89 59.72 209.32 59.72 195.03"/><polygon class="cls-1" points="57.94 82.72 59.7 82.72 59.7 90.25 67.4 90.25 67.4 92.01 59.7 92.01 59.7 106.01 57.94 106.01 57.94 92.01 50.2 92.01 50.2 90.25 57.94 90.25 57.94 82.72"/><path class="cls-2" d="M201.93,184.94h-6.39l-1.1,3.15a6.09,6.09,0,0,0-.41,1.75,1.07,1.07,0,0,0,.36.81,2.68,2.68,0,0,0,1.54.45v.54h-5.2v-.54a2.5,2.5,0,0,0,1.34-.58,9.67,9.67,0,0,0,1.37-2.89l5.8-16.54h.41l5.73,16.72a8.41,8.41,0,0,0,1.25,2.62,2.35,2.35,0,0,0,1.58.67v.54h-6.5v-.54a2.09,2.09,0,0,0,1.33-.4,1.14,1.14,0,0,0,.34-.84,7.34,7.34,0,0,0-.48-2.06Zm-.38-1.09-2.77-8.11-2.85,8.11Z"/><path class="cls-2" d="M223.45,171.09l.38,6.82h-.38a9.08,9.08,0,0,0-2.14-4.41,4.63,4.63,0,0,0-3.34-1.35,4.72,4.72,0,0,0-2.95,1,6.56,6.56,0,0,0-2.07,3.24,17.14,17.14,0,0,0-.76,5.52,14,14,0,0,0,.72,4.73,6.32,6.32,0,0,0,2.14,3.07,5.35,5.35,0,0,0,3.27,1.06,4.83,4.83,0,0,0,2.82-.83,10.52,10.52,0,0,0,2.68-3.32l.38.3a10.09,10.09,0,0,1-2.88,3.92,6.39,6.39,0,0,1-3.92,1.24,7,7,0,0,1-6.32-3.71,12.28,12.28,0,0,1-1.67-6.48,13.72,13.72,0,0,1,1.1-5.53,9.28,9.28,0,0,1,3-3.91,7.1,7.1,0,0,1,4.22-1.38,6.58,6.58,0,0,1,3.51,1.07,1.78,1.78,0,0,0,.72.33.73.73,0,0,0,.57-.29,2.53,2.53,0,0,0,.45-1.11ZM217,191.64h.73l-.61,1.19a2,2,0,0,1,1.14.79,2.34,2.34,0,0,1,.38,1.36,2.65,2.65,0,0,1-.73,1.86,2.4,2.4,0,0,1-1.88.81,8,8,0,0,1-1.14-.11v-.62a3.45,3.45,0,0,0,.58.06,1.33,1.33,0,0,0,1.05-.5,1.66,1.66,0,0,0,.43-1.13,1.13,1.13,0,0,0-.28-.77.88.88,0,0,0-.69-.33l-.32,0Z"/><path class="cls-2" d="M236.46,184.94h-6.39l-1.1,3.15a6.09,6.09,0,0,0-.41,1.75,1.1,1.1,0,0,0,.36.81,2.68,2.68,0,0,0,1.54.45v.54h-5.19v-.54a2.46,2.46,0,0,0,1.33-.58,9.43,9.43,0,0,0,1.37-2.89l5.8-16.54h.41l5.73,16.72a8.15,8.15,0,0,0,1.26,2.62,2.31,2.31,0,0,0,1.57.67v.54h-6.5v-.54a2.09,2.09,0,0,0,1.33-.4,1.11,1.11,0,0,0,.35-.84,7.1,7.1,0,0,0-.49-2.06Zm-.37-1.09-2.78-8.11-2.85,8.11Zm-5.9-14.3h-.4a5.68,5.68,0,0,1,.69-3,1.93,1.93,0,0,1,1.6-.92,2.13,2.13,0,0,1,.91.2,8.54,8.54,0,0,1,1.55,1.06,2.93,2.93,0,0,0,1.48.81.88.88,0,0,0,.69-.4,4.16,4.16,0,0,0,.47-1.67h.37a6.07,6.07,0,0,1-.3,2.2,2.87,2.87,0,0,1-.87,1.26,1.82,1.82,0,0,1-1.14.45,4,4,0,0,1-2.37-1.2,7.19,7.19,0,0,0-1-.78,1.16,1.16,0,0,0-.52-.14.89.89,0,0,0-.79.55,7.81,7.81,0,0,0-.34,1.55Z"/><path class="cls-2" d="M252.1,171.09a6.9,6.9,0,0,1,5.55,3,11.56,11.56,0,0,1,2.35,7.42,12,12,0,0,1-2.37,7.6,7,7,0,0,1-11.43.07,12,12,0,0,1-2.31-7.63,11.37,11.37,0,0,1,2.67-7.81,7.17,7.17,0,0,1,5.54-2.62Zm-.23,1.06a4.06,4.06,0,0,0-3.53,2q-1.67,2.5-1.66,7.3t1.71,7.57a4,4,0,0,0,3.49,2,4.51,4.51,0,0,0,3.83-2.21c1-1.48,1.51-3.79,1.51-7,0-3.44-.56-6-1.66-7.69a4.19,4.19,0,0,0-3.69-2Z"/><path class="cls-2" d="M100.33,147.83H95.92l-5.6-9.4-1,0H89l-.36,0v5.85a4.94,4.94,0,0,0,.33,2.35,1.57,1.57,0,0,0,1.38.65H91v.55H83.94v-.55h.61a1.57,1.57,0,0,0,1.5-.82,5.65,5.65,0,0,0,.25-2.18v-13a4.8,4.8,0,0,0-.34-2.35,1.64,1.64,0,0,0-1.41-.65h-.61v-.55h6a11.84,11.84,0,0,1,3.87.47,4.5,4.5,0,0,1,2.11,1.72,5.09,5.09,0,0,1,.87,3,5.3,5.3,0,0,1-1,3.21,5.37,5.37,0,0,1-3.07,1.93l3.41,5.76a10,10,0,0,0,2,2.64,4.42,4.42,0,0,0,2.19.83ZM88.64,137.49h.67a4.66,4.66,0,0,0,3.51-1.24A4.45,4.45,0,0,0,94,133.09a4.71,4.71,0,0,0-1-3.06,3.12,3.12,0,0,0-2.53-1.18,9.15,9.15,0,0,0-1.88.28Z"/><path class="cls-2" d="M105.29,128.82v8h3.63a2.56,2.56,0,0,0,1.88-.52,3.76,3.76,0,0,0,.71-2.39H112v7h-.44a10,10,0,0,0-.34-1.89,1.67,1.67,0,0,0-.72-.81,3,3,0,0,0-1.53-.3h-3.63v6.63a7.06,7.06,0,0,0,.1,1.62.88.88,0,0,0,.34.46,1.76,1.76,0,0,0,.92.17h2.79a6.14,6.14,0,0,0,2-.24,3,3,0,0,0,1.21-.93,11.83,11.83,0,0,0,1.55-2.77h.49l-1.42,5h-12.7v-.55h.59a1.93,1.93,0,0,0,1.1-.34,1.17,1.17,0,0,0,.53-.71,8,8,0,0,0,.15-1.95V131.22a5.1,5.1,0,0,0-.32-2.35,1.71,1.71,0,0,0-1.46-.59h-.59v-.55H113.3l.17,4.43H113a8,8,0,0,0-.57-2.2,2.05,2.05,0,0,0-.91-.91,4.53,4.53,0,0,0-1.71-.23Z"/><path class="cls-2" d="M115.7,147.83v-.55h.62a1.54,1.54,0,0,0,1.48-.81,5.49,5.49,0,0,0,.27-2.19v-13a4.81,4.81,0,0,0-.35-2.35,1.62,1.62,0,0,0-1.4-.65h-.62v-.55h6.7a12.3,12.3,0,0,1,5.62,1,7.4,7.4,0,0,1,3.09,3.41,12.37,12.37,0,0,1,1.17,5.51,11.48,11.48,0,0,1-2.08,7c-1.57,2.09-3.94,3.14-7.14,3.14Zm4.7-1.48a10.19,10.19,0,0,0,2.58.42,5.66,5.66,0,0,0,4.67-2.42,12.52,12.52,0,0,0,0-13.1,5.78,5.78,0,0,0-4.77-2.4,8.79,8.79,0,0,0-2.48.43Z"/><path class="cls-2" d="M138.43,128.82v8h3.63a2.57,2.57,0,0,0,1.88-.52,3.77,3.77,0,0,0,.7-2.39h.45v7h-.45a8.56,8.56,0,0,0-.34-1.89,1.6,1.6,0,0,0-.71-.81,3,3,0,0,0-1.53-.3h-3.63v6.63a8.06,8.06,0,0,0,.09,1.62.93.93,0,0,0,.34.46,1.81,1.81,0,0,0,.93.17h2.78a6.21,6.21,0,0,0,2-.24,3,3,0,0,0,1.21-.93,11.86,11.86,0,0,0,1.54-2.77h.5l-1.42,5h-12.7v-.55h.58a2,2,0,0,0,1.11-.34,1.17,1.17,0,0,0,.53-.71,8.16,8.16,0,0,0,.14-1.95V131.22a5.15,5.15,0,0,0-.31-2.35,1.73,1.73,0,0,0-1.47-.59h-.58v-.55h12.7l.18,4.43h-.48a8.09,8.09,0,0,0-.56-2.2,2.1,2.1,0,0,0-.91-.91,4.55,4.55,0,0,0-1.72-.23Z"/><path class="cls-2" d="M95,159.47a4.59,4.59,0,0,1,3.74,4.76A5.71,5.71,0,0,1,98,167.1a4.6,4.6,0,0,1-2.13,2,10.39,10.39,0,0,1-4.12.63H83.94v-.55h.61a1.56,1.56,0,0,0,1.47-.8,5.41,5.41,0,0,0,.28-2.2v-13a4.82,4.82,0,0,0-.35-2.34,1.6,1.6,0,0,0-1.4-.65h-.61v-.55H91a11.4,11.4,0,0,1,3.18.35A5,5,0,0,1,97,151.88,5.27,5.27,0,0,1,98,155a5,5,0,0,1-.75,2.7A4.4,4.4,0,0,1,95,159.47Zm-6.35-.82a6.71,6.71,0,0,0,1,.15,12.47,12.47,0,0,0,1.27,0,5.93,5.93,0,0,0,2.66-.46A3.05,3.05,0,0,0,95,157a4.55,4.55,0,0,0,.47-2.09,4.2,4.2,0,0,0-1.17-3,4.51,4.51,0,0,0-3.43-1.24,7,7,0,0,0-2.18.32Zm0,9.63a10.43,10.43,0,0,0,2.78.4,4.48,4.48,0,0,0,3.37-1.21,4.15,4.15,0,0,0,1.15-3,5,5,0,0,0-.53-2.25,3.82,3.82,0,0,0-1.72-1.7,6.08,6.08,0,0,0-2.91-.62c-.5,0-.93,0-1.28,0a5.37,5.37,0,0,0-.86.1Z"/><path class="cls-2" d="M105.29,150.73v7.94h3.63a2.56,2.56,0,0,0,1.88-.51,3.82,3.82,0,0,0,.71-2.4H112v7h-.44a9.68,9.68,0,0,0-.34-1.88,1.74,1.74,0,0,0-.72-.82,3.15,3.15,0,0,0-1.53-.3h-3.63v6.63a7,7,0,0,0,.1,1.62.84.84,0,0,0,.34.46,1.67,1.67,0,0,0,.92.17h2.79a6.2,6.2,0,0,0,2-.23,2.94,2.94,0,0,0,1.21-.94,11.43,11.43,0,0,0,1.55-2.77h.49l-1.42,5h-12.7v-.55h.59a1.93,1.93,0,0,0,1.1-.34,1.19,1.19,0,0,0,.53-.72,7.83,7.83,0,0,0,.15-1.94V153.13a5.07,5.07,0,0,0-.32-2.35,1.68,1.68,0,0,0-1.46-.59h-.59v-.55H113.3l.17,4.42H113a8,8,0,0,0-.57-2.19,2.13,2.13,0,0,0-.91-.92,4.8,4.8,0,0,0-1.71-.22Z"/><path class="cls-2" d="M132.09,169.74h-4.41l-5.6-9.4-1,0h-.33l-.37,0v5.85a4.8,4.8,0,0,0,.34,2.35,1.6,1.6,0,0,0,1.38.65h.64v.55H115.7v-.55h.62a1.56,1.56,0,0,0,1.49-.83,5.52,5.52,0,0,0,.26-2.17v-13a4.71,4.71,0,0,0-.35-2.34,1.6,1.6,0,0,0-1.4-.65h-.62v-.55h6a12.18,12.18,0,0,1,3.87.46,4.48,4.48,0,0,1,2.11,1.73,5.08,5.08,0,0,1,.87,3,5,5,0,0,1-4.06,5.15l3.41,5.76a10,10,0,0,0,2,2.64,4.34,4.34,0,0,0,2.18.83ZM120.4,159.4h.67a4.63,4.63,0,0,0,3.52-1.24,4.41,4.41,0,0,0,1.18-3.17,4.76,4.76,0,0,0-1-3.06,3.1,3.1,0,0,0-2.53-1.18,9,9,0,0,0-1.89.27Z"/><path class="cls-2" d="M146.13,164.19l.4.11-1.42,5.44H132.36v-.55H133a1.56,1.56,0,0,0,1.49-.82,5.72,5.72,0,0,0,.25-2.18v-13a4.8,4.8,0,0,0-.34-2.34,1.61,1.61,0,0,0-1.4-.65h-.62v-.55h7.46v.55a3.72,3.72,0,0,0-1.85.29,1.61,1.61,0,0,0-.72.77,7.66,7.66,0,0,0-.19,2.24v12.67a5,5,0,0,0,.19,1.69,1,1,0,0,0,.45.47,7.06,7.06,0,0,0,1.9.14h1.2a7.49,7.49,0,0,0,2.67-.33,3.73,3.73,0,0,0,1.4-1.21,10.71,10.71,0,0,0,1.26-2.73Z"/><path class="cls-2" d="M158.44,163h-6.39l-1.1,3.15a6.07,6.07,0,0,0-.42,1.74,1.06,1.06,0,0,0,.37.81,2.68,2.68,0,0,0,1.54.45v.55h-5.2v-.55a2.59,2.59,0,0,0,1.34-.57,9.94,9.94,0,0,0,1.37-2.89l5.8-16.55h.41l5.73,16.72a8.08,8.08,0,0,0,1.25,2.62,2.31,2.31,0,0,0,1.58.67v.55h-6.5v-.55a2.11,2.11,0,0,0,1.33-.4,1.1,1.1,0,0,0,.34-.83,7.27,7.27,0,0,0-.48-2.06Zm-.38-1.09-2.77-8.11L152.44,162Z"/><path class="cls-2" d="M176.39,163H170l-1.1,3.15a6,6,0,0,0-.41,1.74,1.09,1.09,0,0,0,.36.81,2.68,2.68,0,0,0,1.54.45v.55H165.2v-.55a2.59,2.59,0,0,0,1.33-.57,9.68,9.68,0,0,0,1.37-2.89l5.8-16.55h.41l5.73,16.72a8.29,8.29,0,0,0,1.25,2.62,2.31,2.31,0,0,0,1.58.67v.55h-6.5v-.55a2.09,2.09,0,0,0,1.33-.4,1.11,1.11,0,0,0,.35-.83,7.38,7.38,0,0,0-.49-2.06ZM176,162l-2.78-8.11L170.39,162Z"/><path class="cls-2" d="M199.76,169.74h-4.41l-5.6-9.4-1,0h-.33l-.37,0v5.85a4.8,4.8,0,0,0,.34,2.35,1.6,1.6,0,0,0,1.38.65h.64v.55h-7.06v-.55H184a1.56,1.56,0,0,0,1.49-.83,5.59,5.59,0,0,0,.25-2.17v-13a4.92,4.92,0,0,0-.33-2.34,1.63,1.63,0,0,0-1.41-.65h-.62v-.55h6a12.14,12.14,0,0,1,3.87.46,4.48,4.48,0,0,1,2.11,1.73,5.09,5.09,0,0,1,.88,3,5,5,0,0,1-4.07,5.15l3.41,5.76a10,10,0,0,0,2,2.64,4.34,4.34,0,0,0,2.18.83ZM188.07,159.4h.67a4.63,4.63,0,0,0,3.52-1.24,4.41,4.41,0,0,0,1.18-3.17,4.76,4.76,0,0,0-.95-3.06,3.1,3.1,0,0,0-2.53-1.18,9,9,0,0,0-1.89.27Z"/><path class="cls-2" d="M83.94,191.64v-.54h.61a1.55,1.55,0,0,0,1.48-.82,5.43,5.43,0,0,0,.27-2.18v-13a4.88,4.88,0,0,0-.34-2.35,1.64,1.64,0,0,0-1.41-.65h-.61v-.54h6.7a12.12,12.12,0,0,1,5.61,1,7.32,7.32,0,0,1,3.1,3.41,12.37,12.37,0,0,1,1.17,5.51,11.46,11.46,0,0,1-2.09,7c-1.56,2.1-3.94,3.14-7.14,3.14Zm4.7-1.47a10,10,0,0,0,2.58.41,5.65,5.65,0,0,0,4.66-2.41,12.52,12.52,0,0,0,0-13.1,5.76,5.76,0,0,0-4.76-2.4,8.34,8.34,0,0,0-2.48.43Z"/><path class="cls-2" d="M106.66,172.64v7.94h3.63a2.51,2.51,0,0,0,1.88-.52,3.7,3.7,0,0,0,.71-2.39h.44v7h-.44a9.23,9.23,0,0,0-.34-1.89,1.76,1.76,0,0,0-.72-.81,3,3,0,0,0-1.53-.3h-3.63v6.63a7.67,7.67,0,0,0,.1,1.62.88.88,0,0,0,.34.46,1.67,1.67,0,0,0,.92.17h2.79a6.25,6.25,0,0,0,2-.24,3,3,0,0,0,1.21-.93,12,12,0,0,0,1.54-2.77h.49l-1.42,5H102v-.54h.59a1.94,1.94,0,0,0,1.1-.35,1.16,1.16,0,0,0,.54-.71,8.64,8.64,0,0,0,.14-1.94V175a5.13,5.13,0,0,0-.32-2.35,1.71,1.71,0,0,0-1.46-.59H102v-.54h12.71l.17,4.42h-.47a8.11,8.11,0,0,0-.57-2.2,2.05,2.05,0,0,0-.91-.91,4.54,4.54,0,0,0-1.71-.22Z"/><path class="cls-2" d="M128.06,172.64v7.94h3.63a2.51,2.51,0,0,0,1.88-.52,3.76,3.76,0,0,0,.71-2.39h.44v7h-.44a10,10,0,0,0-.34-1.89,1.76,1.76,0,0,0-.72-.81,3,3,0,0,0-1.53-.3h-3.63v6.63a7.67,7.67,0,0,0,.1,1.62.83.83,0,0,0,.34.46,1.67,1.67,0,0,0,.92.17h2.79a6.14,6.14,0,0,0,2-.24,2.91,2.91,0,0,0,1.21-.93,11.63,11.63,0,0,0,1.55-2.77h.49l-1.42,5h-12.7v-.54H124a1.94,1.94,0,0,0,1.1-.35,1.11,1.11,0,0,0,.53-.71,8.06,8.06,0,0,0,.14-1.94V175a5.18,5.18,0,0,0-.31-2.35,1.71,1.71,0,0,0-1.46-.59h-.59v-.54h12.71l.17,4.42h-.47a8.6,8.6,0,0,0-.56-2.2,2.13,2.13,0,0,0-.92-.91,4.54,4.54,0,0,0-1.71-.22Z"/><path class="cls-2" d="M138.47,191.64v-.54h.62a1.55,1.55,0,0,0,1.48-.82,5.49,5.49,0,0,0,.26-2.18v-13a5.05,5.05,0,0,0-.33-2.35,1.65,1.65,0,0,0-1.41-.65h-.62v-.54h6.7a12.17,12.17,0,0,1,5.62,1,7.31,7.31,0,0,1,3.09,3.41,12.24,12.24,0,0,1,1.17,5.51,11.45,11.45,0,0,1-2.08,7c-1.56,2.1-3.94,3.14-7.14,3.14Zm4.7-1.47a10.12,10.12,0,0,0,2.58.41,5.66,5.66,0,0,0,4.67-2.41,12.52,12.52,0,0,0,0-13.1,5.78,5.78,0,0,0-4.77-2.4,8.45,8.45,0,0,0-2.48.43Z"/><path class="cls-2" d="M167.89,172.09v-.54h5.79v.54h-.62a1.62,1.62,0,0,0-1.49,1,5.48,5.48,0,0,0-.25,2.13v8.15a17.38,17.38,0,0,1-.49,4.69,5.9,5.9,0,0,1-1.93,2.86A6,6,0,0,1,165,192.1,6.33,6.33,0,0,1,160.9,191a6.1,6.1,0,0,1-2-3.07,20.57,20.57,0,0,1-.39-4.95v-7.85a4.59,4.59,0,0,0-.42-2.42,1.55,1.55,0,0,0-1.35-.58h-.62v-.54h7.11v.54h-.63a1.52,1.52,0,0,0-1.45.78,5.26,5.26,0,0,0-.31,2.22v8.76a23,23,0,0,0,.18,2.68,6.52,6.52,0,0,0,.64,2.35,3.79,3.79,0,0,0,1.33,1.4,4,4,0,0,0,2.13.54A5.08,5.08,0,0,0,168,190a4.33,4.33,0,0,0,1.74-2.2,15.44,15.44,0,0,0,.47-4.54v-8.14a4.88,4.88,0,0,0-.34-2.35,1.64,1.64,0,0,0-1.41-.65Z"/><path class="cls-2" d="M188.92,171.09l.37,6.82h-.37a9.08,9.08,0,0,0-2.14-4.41,4.63,4.63,0,0,0-3.34-1.35,4.7,4.7,0,0,0-2.95,1,6.63,6.63,0,0,0-2.08,3.24,17.44,17.44,0,0,0-.75,5.52,14.23,14.23,0,0,0,.71,4.73,6.4,6.4,0,0,0,2.15,3.07,5.35,5.35,0,0,0,3.27,1.06,4.82,4.82,0,0,0,2.81-.83,10.39,10.39,0,0,0,2.69-3.32l.38.3a10.11,10.11,0,0,1-2.89,3.92,6.34,6.34,0,0,1-3.91,1.24,7,7,0,0,1-6.32-3.71,12.28,12.28,0,0,1-1.67-6.48,13.55,13.55,0,0,1,1.1-5.53,9.2,9.2,0,0,1,3-3.91,7.07,7.07,0,0,1,4.21-1.38,6.53,6.53,0,0,1,3.51,1.07,1.8,1.8,0,0,0,.73.33.76.76,0,0,0,.57-.29,2.41,2.41,0,0,0,.44-1.11Z"/><rect class="cls-3" width="300" height="300"/></g></g></svg>