<svg xmlns="http://www.w3.org/2000/svg" viewBox="0 0 300 300"><defs><style>.cls-1{fill:#606060;}.cls-1,.cls-2,.cls-3,.cls-4{fill-rule:evenodd;}.cls-2{fill:#9b9b9b;}.cls-3{fill:#d3d3d3;}.cls-4{fill:#0c487c;}.cls-5{fill:none;}</style></defs><title>logo29</title><g id="Layer_2" data-name="Layer 2"><g id="Layer_1-2" data-name="Layer 1"><polygon class="cls-1" points="235.67 208.52 240.01 208.52 244.75 175.89 221.66 150.44 252.43 122.83 257.33 89.15 253.67 89.15 223.75 118.48 188.7 149.16 214.26 179.33 235.67 208.52"/><polygon class="cls-2" points="231.37 208.52 235.67 208.52 240.5 177.18 216.71 150.44 248.83 120.51 253.67 89.15 249.69 89.15 220.09 118.48 185.04 149.16 210.61 179.33 231.37 208.52"/><path class="cls-3" d="M45.74,208.86l30.92,0h31q11.06-9.48,22.14-18.95c7.38-6.3,14.76-12.64,22.15-18.95l4.16,5h43q-11.26-13.41-22.46-26.85,15.66-13.71,31.32-27.43H164.18l-5.46,5.4q-8.24-9.53-16.4-19.05L125.93,89,95,89.06l-30.91,0q12.11,14.64,24.27,29.28h19.06c4.36,5.07,8.7,10.16,13,15.22s8.71,10.13,13,15.19l-17.74,15.3L98.05,179.33H79q-16.64,14.77-33.24,29.54Z"/><path class="cls-4" d="M113.17,208.89h0Z"/><polygon class="cls-3" points="148.13 179.33 113.57 208.89 231.37 208.52 235.88 179.33 211.43 150.44 245.14 118.48 249.69 89.15 202.96 89.08 168.44 118.32 216.12 118.48 181.06 149.16 206.63 179.33 148.13 179.33"/><path class="cls-2" d="M41,208.82h.31q16.57-14.74,33.17-29.5h0q2.33-15.24,4.65-30.47t4.66-30.46Q71.67,103.72,59.58,89q-4.65,30-9.29,59.9T41,208.82Z"/><rect class="cls-5" width="300" height="300"/></g></g></svg>