<svg xmlns="http://www.w3.org/2000/svg" xmlns:xlink="http://www.w3.org/1999/xlink" viewBox="0 0 300 300"><defs><style>.cls-1,.cls-2,.cls-3{fill:#9b9b9b;}.cls-1{clip-rule:evenodd;}.cls-3,.cls-5{fill-rule:evenodd;}.cls-4{clip-path:url(#clip-path);}.cls-5{fill:#d3d3d3;}.cls-6{fill:none;}</style><clipPath id="clip-path"><path class="cls-1" d="M84.82,213.87H85a12.43,12.43,0,0,0,3.19-.42,8.91,8.91,0,0,0,2.59-1.16,5.71,5.71,0,0,0,1.7-1.73,4.23,4.23,0,0,0,.63-2.26,4.17,4.17,0,0,0-.18-1.26,4.52,4.52,0,0,0-.48-1,5.35,5.35,0,0,0-.67-.8,4.46,4.46,0,0,0-.76-.59,7.77,7.77,0,0,0-1-.53,9,9,0,0,0-1.15-.43c-.43-.13-.9-.25-1.44-.37l-1.8-.4-2-.46-1.35-.34a8.05,8.05,0,0,1-.91-.27,4.4,4.4,0,0,1-.65-.26A1.69,1.69,0,0,1,80,201a1.4,1.4,0,0,1-.27-.86,1.66,1.66,0,0,1,.25-.9,2.28,2.28,0,0,1,.83-.69,5,5,0,0,1,1.77-.57,13.5,13.5,0,0,1,2.47-.2,11,11,0,0,1,2,.17,5.51,5.51,0,0,1,1.5.46,3.82,3.82,0,0,1,1.08.77,5.76,5.76,0,0,1,.79,1.09l2.07-1.09a8.17,8.17,0,0,0-1.29-1.68,6,6,0,0,0-1.61-1.14,7.1,7.1,0,0,0-2-.62,14.08,14.08,0,0,0-2.56-.2,16.9,16.9,0,0,0-3,.24,8.16,8.16,0,0,0-2.4.79,4.22,4.22,0,0,0-1.74,1.55,3.88,3.88,0,0,0-.54,1.95,3.6,3.6,0,0,0,.18,1.22,4,4,0,0,0,.45,1,3.94,3.94,0,0,0,.65.75,3.84,3.84,0,0,0,.78.53l.69.32c.24.1.55.2.92.31s.84.24,1.4.37,1.27.31,2.12.5,1.53.33,2.08.47,1,.25,1.38.36a7.8,7.8,0,0,1,.89.29,3.85,3.85,0,0,1,.61.29,2.61,2.61,0,0,1,.83.7,1.83,1.83,0,0,1,.38,1.23,2.11,2.11,0,0,1-.33,1.12,2.94,2.94,0,0,1-1,.94,7.68,7.68,0,0,1-1.91.86,8.89,8.89,0,0,1-2.62.35,9.6,9.6,0,0,1-4-.7,6.74,6.74,0,0,1-2.6-2l-1.82,1.5A10.67,10.67,0,0,0,78.18,212,8.57,8.57,0,0,0,80,213a9.46,9.46,0,0,0,2.21.63,16.7,16.7,0,0,0,2.57.21Zm172.61-9.11v-.14a9.45,9.45,0,0,0-.81-4,8.64,8.64,0,0,0-2.18-2.87,9.16,9.16,0,0,0-3.09-1.71,11.72,11.72,0,0,0-7.16,0,9.33,9.33,0,0,0-3.09,1.7,8.25,8.25,0,0,0-2.17,2.86,10.32,10.32,0,0,0,0,8.11,8.48,8.48,0,0,0,2.17,2.87,9.15,9.15,0,0,0,3.09,1.7,11.63,11.63,0,0,0,3.52.57h.12a11.63,11.63,0,0,0,3.52-.57,9.11,9.11,0,0,0,3.09-1.69,8.6,8.6,0,0,0,2.18-2.86,9.46,9.46,0,0,0,.81-4Zm-154,9.11h.12a11.63,11.63,0,0,0,3.52-.57,9.25,9.25,0,0,0,3.1-1.69,8.44,8.44,0,0,0,2.17-2.86,10.44,10.44,0,0,0,0-8.11,8.48,8.48,0,0,0-2.17-2.87,9.3,9.3,0,0,0-3.1-1.71,11.69,11.69,0,0,0-7.15,0,9.27,9.27,0,0,0-3.1,1.7,8.23,8.23,0,0,0-2.16,2.86,10.32,10.32,0,0,0,0,8.11,8.46,8.46,0,0,0,2.16,2.87,9.1,9.1,0,0,0,3.1,1.7,11.62,11.62,0,0,0,3.51.57Zm45.43,0H149a16,16,0,0,0,1.73-.12,10.5,10.5,0,0,0,1.73-.38,12.3,12.3,0,0,0,1.73-.7,13.94,13.94,0,0,0,1.83-1v-6.86h-8.81V207h6.48v3.39a8.92,8.92,0,0,1-2.26.91,9.91,9.91,0,0,1-2.36.3,8.93,8.93,0,0,1-2.86-.46,6.73,6.73,0,0,1-2.31-1.35,6.09,6.09,0,0,1-1.53-2.17,8,8,0,0,1,.12-6.23,6,6,0,0,1,1.75-2.14,6.79,6.79,0,0,1,2.33-1.16,8.92,8.92,0,0,1,2.43-.37,7.32,7.32,0,0,1,1.64.17,5,5,0,0,1,1.35.54,5.9,5.9,0,0,1,1.25,1,19.52,19.52,0,0,1,1.3,1.49l1.92-1.26a17.9,17.9,0,0,0-1.61-1.83,7.77,7.77,0,0,0-1.66-1.31,7.15,7.15,0,0,0-1.91-.77,10.06,10.06,0,0,0-2.37-.26,10.93,10.93,0,0,0-2.07.21,10.43,10.43,0,0,0-2.14.68,9.51,9.51,0,0,0-2,1.19,8.29,8.29,0,0,0-1.65,1.74,8.5,8.5,0,0,0-1.15,2.36,10,10,0,0,0-.43,3,9.32,9.32,0,0,0,.79,3.91,8.68,8.68,0,0,0,2.09,2.87,8.57,8.57,0,0,0,3,1.78,10.37,10.37,0,0,0,3.51.62Zm18.89,0h.12a11.68,11.68,0,0,0,3.52-.57,9.3,9.3,0,0,0,3.09-1.69,8.34,8.34,0,0,0,2.18-2.86,10.56,10.56,0,0,0,0-8.11,8.38,8.38,0,0,0-2.18-2.87,9.35,9.35,0,0,0-3.09-1.71,11.69,11.69,0,0,0-7.15,0,9.08,9.08,0,0,0-3.1,1.7,8.13,8.13,0,0,0-2.17,2.86,10.44,10.44,0,0,0,0,8.11,8.36,8.36,0,0,0,2.17,2.87,8.92,8.92,0,0,0,3.1,1.7,11.62,11.62,0,0,0,3.51.57ZM41.64,195.81v17.74h6a13.75,13.75,0,0,0,4.37-.63,8.69,8.69,0,0,0,3.13-1.78A7.37,7.37,0,0,0,57,208.35,10.95,10.95,0,0,0,57,201a7.33,7.33,0,0,0-1.88-2.8A8.69,8.69,0,0,0,52,196.45a13.46,13.46,0,0,0-4.37-.64Zm13.65,8.88a8.36,8.36,0,0,1-.41,2.67,5.15,5.15,0,0,1-1.34,2.09,6.38,6.38,0,0,1-2.36,1.36,11.49,11.49,0,0,1-3.51.48H44V198.08h3.7a11.19,11.19,0,0,1,3.51.48,6.24,6.24,0,0,1,2.36,1.36A5.12,5.12,0,0,1,54.88,202a8.48,8.48,0,0,1,.41,2.69Zm6.55,8.86V195.81H59.51v17.74Zm15.51,0v-2.26H66.77V195.81H64.44v17.74Zm33.52-8.88a7.46,7.46,0,0,1-.6,3.06,6,6,0,0,1-1.6,2.16,6.5,6.5,0,0,1-2.34,1.28,8.81,8.81,0,0,1-2.79.43,8.94,8.94,0,0,1-2.81-.43,6.62,6.62,0,0,1-2.33-1.28,6,6,0,0,1-1.6-2.16,8.26,8.26,0,0,1,0-6.13,6.16,6.16,0,0,1,1.6-2.16,6.65,6.65,0,0,1,2.33-1.29,9.13,9.13,0,0,1,2.78-.43,9.39,9.39,0,0,1,2.82.43,6.52,6.52,0,0,1,2.34,1.29,6.16,6.16,0,0,1,1.6,2.16,7.44,7.44,0,0,1,.6,3.07Zm19.37,8.88V195.81h-2.33V204c0,2.23,0,4.06,0,5.51l-4.5-5.52q-2.75-3.37-6.6-8.18h-2v17.74h2.33v-8.16c0-2.24,0-4.1,0-5.56l4.5,5.58,6.59,8.14Zm44.94-8.88a7.46,7.46,0,0,1-.59,3.06,6,6,0,0,1-1.6,2.16,6.58,6.58,0,0,1-2.34,1.28,9.33,9.33,0,0,1-5.6,0,6.54,6.54,0,0,1-2.33-1.28,5.76,5.76,0,0,1-1.6-2.16,8.13,8.13,0,0,1,0-6.13,5.93,5.93,0,0,1,1.6-2.16,6.56,6.56,0,0,1,2.33-1.29,9.13,9.13,0,0,1,2.78-.43,9.39,9.39,0,0,1,2.82.43,6.69,6.69,0,0,1,2.34,1.29,6.16,6.16,0,0,1,1.6,2.16,7.44,7.44,0,0,1,.59,3.07Zm20.18,0a10.19,10.19,0,0,0-.63-3.66,7.33,7.33,0,0,0-1.88-2.8,8.61,8.61,0,0,0-3.13-1.78,13.39,13.39,0,0,0-4.36-.64h-6v17.74h6a13.68,13.68,0,0,0,4.36-.63,8.61,8.61,0,0,0,3.13-1.78,7.37,7.37,0,0,0,1.88-2.79,10.11,10.11,0,0,0,.63-3.66Zm-2.34,0a8.09,8.09,0,0,1-.41,2.67,5.23,5.23,0,0,1-1.33,2.09,6.38,6.38,0,0,1-2.36,1.36,11.58,11.58,0,0,1-3.51.48H181.7V198.08h3.71a11.28,11.28,0,0,1,3.51.48,6.24,6.24,0,0,1,2.36,1.36,5.2,5.2,0,0,1,1.33,2.08,8.21,8.21,0,0,1,.41,2.69Zm6.55,8.86V195.81h-2.33v17.74Zm18,0V195.81h-2.33V204c0,2.23,0,4.06,0,5.51-1.17-1.43-2.67-3.28-4.51-5.52s-4-5-6.6-8.18h-2v17.74h2.34v-8.16c0-2.24,0-4.1,0-5.56,1.18,1.46,2.68,3.33,4.51,5.58s4,5,6.59,8.14Zm18.23,0V195.81h-2.33v7.34h-11v-7.34h-2.33v17.74h2.33v-8.14h11v8.14Zm19.32-8.88a7.46,7.46,0,0,1-.59,3.06,5.89,5.89,0,0,1-1.61,2.16,6.54,6.54,0,0,1-2.33,1.28,9.33,9.33,0,0,1-5.6,0,6.54,6.54,0,0,1-2.33-1.28,5.89,5.89,0,0,1-1.61-2.16,8.26,8.26,0,0,1,0-6.13,6.06,6.06,0,0,1,1.61-2.16,6.56,6.56,0,0,1,2.33-1.29,9.09,9.09,0,0,1,2.78-.43,9.33,9.33,0,0,1,2.81.43,6.52,6.52,0,0,1,2.34,1.29,6.06,6.06,0,0,1,1.61,2.16,7.44,7.44,0,0,1,.59,3.07Z"/></clipPath></defs><title>logo21</title><g id="Layer_2" data-name="Layer 2"><g id="Layer_1-2" data-name="Layer 1"><path class="cls-2" d="M99.12,188.59v-5.24h-.69v2.17H95.19v-2.17H94.5v5.24h.69v-2.41h3.24v2.41ZM114.71,186a2.82,2.82,0,0,0-.24-1.2,2.37,2.37,0,0,0-.65-.84,2.47,2.47,0,0,0-.91-.51,3.56,3.56,0,0,0-2.11,0,2.69,2.69,0,0,0-.91.5,2.47,2.47,0,0,0-.65.84A2.82,2.82,0,0,0,109,186a2.87,2.87,0,0,0,.24,1.21,2.5,2.5,0,0,0,1.56,1.34,3.36,3.36,0,0,0,2.11,0,2.43,2.43,0,0,0,.91-.49,2.5,2.5,0,0,0,.65-.85,2.79,2.79,0,0,0,.24-1.2Zm-.69,0a2.27,2.27,0,0,1-.17.91,1.83,1.83,0,0,1-.48.64,2,2,0,0,1-.69.38,2.77,2.77,0,0,1-.83.13,2.93,2.93,0,0,1-.83-.13,2.16,2.16,0,0,1-.68-.38,1.83,1.83,0,0,1-.48-.64,2.37,2.37,0,0,1,0-1.81,1.83,1.83,0,0,1,.48-.64A2,2,0,0,1,111,184a2.88,2.88,0,0,1,.83-.13,2.83,2.83,0,0,1,.83.13,1.94,1.94,0,0,1,.69.38,1.83,1.83,0,0,1,.48.64,2.26,2.26,0,0,1,.17.9ZM128.75,187a1.51,1.51,0,0,0-.06-.38,1.38,1.38,0,0,0-.14-.3,1.59,1.59,0,0,0-.2-.24l-.22-.17-.29-.16-.34-.13-.43-.11-.53-.11-.6-.14-.4-.09-.27-.09-.19-.08a.68.68,0,0,1-.21-.17.46.46,0,0,1-.08-.25.48.48,0,0,1,.08-.27.86.86,0,0,1,.24-.21,1.73,1.73,0,0,1,.53-.17,4.12,4.12,0,0,1,.73-.05,2.69,2.69,0,0,1,.6.05,1.64,1.64,0,0,1,.44.13,1.17,1.17,0,0,1,.33.24,1.39,1.39,0,0,1,.23.32l.61-.33a2.85,2.85,0,0,0-.38-.5,1.78,1.78,0,0,0-.48-.33,2.55,2.55,0,0,0-.59-.19,5.81,5.81,0,0,0-.76-.05,4.76,4.76,0,0,0-.88.07,2.14,2.14,0,0,0-.7.23,1.18,1.18,0,0,0-.52.46,1.14,1.14,0,0,0-.17.57,1.43,1.43,0,0,0,.06.37,1,1,0,0,0,.14.28,1,1,0,0,0,.18.23,1.58,1.58,0,0,0,.24.15l.2.1.27.09.42.11.62.15.62.13.41.11.26.09.18.08a1,1,0,0,1,.25.21.57.57,0,0,1,.11.36.64.64,0,0,1-.1.33.93.93,0,0,1-.28.28,2.32,2.32,0,0,1-.57.26,2.52,2.52,0,0,1-.77.1,2.83,2.83,0,0,1-1.17-.2,2.11,2.11,0,0,1-.76-.6l-.54.44a2.91,2.91,0,0,0,.47.46,2.73,2.73,0,0,0,.55.32,3.36,3.36,0,0,0,.66.18,4.79,4.79,0,0,0,.79.06,3.26,3.26,0,0,0,1-.12,2.57,2.57,0,0,0,.77-.34,1.62,1.62,0,0,0,.5-.51,1.3,1.3,0,0,0,.19-.67ZM143,185a1.38,1.38,0,0,0-.67-1.23,4.1,4.1,0,0,0-2-.41h-1.81v5.24h.69v-1.94h1a4.44,4.44,0,0,0,2.13-.41A1.33,1.33,0,0,0,143,185Zm-.68,0a.8.8,0,0,1-.09.36.7.7,0,0,1-.32.32,2.27,2.27,0,0,1-.66.23,5.5,5.5,0,0,1-1.11.09h-1v-2h1.17a5.3,5.3,0,0,1,1,.08,2,2,0,0,1,.61.24.71.71,0,0,1,.29.31.81.81,0,0,1,.08.34Zm11,3.6v-5.24h-.69v5.24ZM167.5,184v-.67h-4.57V184h1.94v4.57h.69V184Zm12.7,4.57-2.33-5.24h-.44l-2.32,5.24h.75l.72-1.63h2.13l.73,1.63Zm-1.79-2.31h-1.53l.43-1,.17-.38.17-.4c.06.14.11.27.17.4s.12.27.17.41Zm15.31,2.31v-.67h-3.13v-4.57h-.69v5.24Z"/><path class="cls-3" d="M84.82,213.87H85a12.43,12.43,0,0,0,3.19-.42,8.91,8.91,0,0,0,2.59-1.16,5.71,5.71,0,0,0,1.7-1.73,4.23,4.23,0,0,0,.63-2.26,4.17,4.17,0,0,0-.18-1.26,4.52,4.52,0,0,0-.48-1,5.35,5.35,0,0,0-.67-.8,4.46,4.46,0,0,0-.76-.59,7.77,7.77,0,0,0-1-.53,9,9,0,0,0-1.15-.43c-.43-.13-.9-.25-1.44-.37l-1.8-.4-2-.46-1.35-.34a8.05,8.05,0,0,1-.91-.27,4.4,4.4,0,0,1-.65-.26A1.69,1.69,0,0,1,80,201a1.4,1.4,0,0,1-.27-.86,1.66,1.66,0,0,1,.25-.9,2.28,2.28,0,0,1,.83-.69,5,5,0,0,1,1.77-.57,13.5,13.5,0,0,1,2.47-.2,11,11,0,0,1,2,.17,5.51,5.51,0,0,1,1.5.46,3.82,3.82,0,0,1,1.08.77,5.76,5.76,0,0,1,.79,1.09l2.07-1.09a8.17,8.17,0,0,0-1.29-1.68,6,6,0,0,0-1.61-1.14,7.1,7.1,0,0,0-2-.62,14.08,14.08,0,0,0-2.56-.2,16.9,16.9,0,0,0-3,.24,8.16,8.16,0,0,0-2.4.79,4.22,4.22,0,0,0-1.74,1.55,3.88,3.88,0,0,0-.54,1.95,3.6,3.6,0,0,0,.18,1.22,4,4,0,0,0,.45,1,3.94,3.94,0,0,0,.65.75,3.84,3.84,0,0,0,.78.53l.69.32c.24.1.55.2.92.31s.84.24,1.4.37,1.27.31,2.12.5,1.53.33,2.08.47,1,.25,1.38.36a7.8,7.8,0,0,1,.89.29,3.85,3.85,0,0,1,.61.29,2.61,2.61,0,0,1,.83.7,1.83,1.83,0,0,1,.38,1.23,2.11,2.11,0,0,1-.33,1.12,2.94,2.94,0,0,1-1,.94,7.68,7.68,0,0,1-1.91.86,8.89,8.89,0,0,1-2.62.35,9.6,9.6,0,0,1-4-.7,6.74,6.74,0,0,1-2.6-2l-1.82,1.5A10.67,10.67,0,0,0,78.18,212,8.57,8.57,0,0,0,80,213a9.46,9.46,0,0,0,2.21.63,16.7,16.7,0,0,0,2.57.21Zm172.61-9.11v-.14a9.45,9.45,0,0,0-.81-4,8.64,8.64,0,0,0-2.18-2.87,9.16,9.16,0,0,0-3.09-1.71,11.72,11.72,0,0,0-7.16,0,9.33,9.33,0,0,0-3.09,1.7,8.25,8.25,0,0,0-2.17,2.86,10.32,10.32,0,0,0,0,8.11,8.48,8.48,0,0,0,2.17,2.87,9.15,9.15,0,0,0,3.09,1.7,11.63,11.63,0,0,0,3.52.57h.12a11.63,11.63,0,0,0,3.52-.57,9.11,9.11,0,0,0,3.09-1.69,8.6,8.6,0,0,0,2.18-2.86,9.46,9.46,0,0,0,.81-4Zm-154,9.11h.12a11.63,11.63,0,0,0,3.52-.57,9.25,9.25,0,0,0,3.1-1.69,8.44,8.44,0,0,0,2.17-2.86,10.44,10.44,0,0,0,0-8.11,8.48,8.48,0,0,0-2.17-2.87,9.3,9.3,0,0,0-3.1-1.71,11.69,11.69,0,0,0-7.15,0,9.27,9.27,0,0,0-3.1,1.7,8.23,8.23,0,0,0-2.16,2.86,10.32,10.32,0,0,0,0,8.11,8.46,8.46,0,0,0,2.16,2.87,9.1,9.1,0,0,0,3.1,1.7,11.62,11.62,0,0,0,3.51.57Zm45.43,0H149a16,16,0,0,0,1.73-.12,10.5,10.5,0,0,0,1.73-.38,12.3,12.3,0,0,0,1.73-.7,13.94,13.94,0,0,0,1.83-1v-6.86h-8.81V207h6.48v3.39a8.92,8.92,0,0,1-2.26.91,9.91,9.91,0,0,1-2.36.3,8.93,8.93,0,0,1-2.86-.46,6.73,6.73,0,0,1-2.31-1.35,6.09,6.09,0,0,1-1.53-2.17,8,8,0,0,1,.12-6.23,6,6,0,0,1,1.75-2.14,6.79,6.79,0,0,1,2.33-1.16,8.92,8.92,0,0,1,2.43-.37,7.32,7.32,0,0,1,1.64.17,5,5,0,0,1,1.35.54,5.9,5.9,0,0,1,1.25,1,19.52,19.52,0,0,1,1.3,1.49l1.92-1.26a17.9,17.9,0,0,0-1.61-1.83,7.77,7.77,0,0,0-1.66-1.31,7.15,7.15,0,0,0-1.91-.77,10.06,10.06,0,0,0-2.37-.26,10.93,10.93,0,0,0-2.07.21,10.43,10.43,0,0,0-2.14.68,9.51,9.51,0,0,0-2,1.19,8.29,8.29,0,0,0-1.65,1.74,8.5,8.5,0,0,0-1.15,2.36,10,10,0,0,0-.43,3,9.32,9.32,0,0,0,.79,3.91,8.68,8.68,0,0,0,2.09,2.87,8.57,8.57,0,0,0,3,1.78,10.37,10.37,0,0,0,3.51.62Zm18.89,0h.12a11.68,11.68,0,0,0,3.52-.57,9.3,9.3,0,0,0,3.09-1.69,8.34,8.34,0,0,0,2.18-2.86,10.56,10.56,0,0,0,0-8.11,8.38,8.38,0,0,0-2.18-2.87,9.35,9.35,0,0,0-3.09-1.71,11.69,11.69,0,0,0-7.15,0,9.08,9.08,0,0,0-3.1,1.7,8.13,8.13,0,0,0-2.17,2.86,10.44,10.44,0,0,0,0,8.11,8.36,8.36,0,0,0,2.17,2.87,8.92,8.92,0,0,0,3.1,1.7,11.62,11.62,0,0,0,3.51.57ZM41.64,195.81v17.74h6a13.75,13.75,0,0,0,4.37-.63,8.69,8.69,0,0,0,3.13-1.78A7.37,7.37,0,0,0,57,208.35,10.95,10.95,0,0,0,57,201a7.33,7.33,0,0,0-1.88-2.8A8.69,8.69,0,0,0,52,196.45a13.46,13.46,0,0,0-4.37-.64Zm13.65,8.88a8.36,8.36,0,0,1-.41,2.67,5.15,5.15,0,0,1-1.34,2.09,6.38,6.38,0,0,1-2.36,1.36,11.49,11.49,0,0,1-3.51.48H44V198.08h3.7a11.19,11.19,0,0,1,3.51.48,6.24,6.24,0,0,1,2.36,1.36A5.12,5.12,0,0,1,54.88,202a8.48,8.48,0,0,1,.41,2.69Zm6.55,8.86V195.81H59.51v17.74Zm15.51,0v-2.26H66.77V195.81H64.44v17.74Zm33.52-8.88a7.46,7.46,0,0,1-.6,3.06,6,6,0,0,1-1.6,2.16,6.5,6.5,0,0,1-2.34,1.28,8.81,8.81,0,0,1-2.79.43,8.94,8.94,0,0,1-2.81-.43,6.62,6.62,0,0,1-2.33-1.28,6,6,0,0,1-1.6-2.16,8.26,8.26,0,0,1,0-6.13,6.16,6.16,0,0,1,1.6-2.16,6.65,6.65,0,0,1,2.33-1.29,9.13,9.13,0,0,1,2.78-.43,9.39,9.39,0,0,1,2.82.43,6.52,6.52,0,0,1,2.34,1.29,6.16,6.16,0,0,1,1.6,2.16,7.44,7.44,0,0,1,.6,3.07Zm19.37,8.88V195.81h-2.33V204c0,2.23,0,4.06,0,5.51l-4.5-5.52q-2.75-3.37-6.6-8.18h-2v17.74h2.33v-8.16c0-2.24,0-4.1,0-5.56l4.5,5.58,6.59,8.14Zm44.94-8.88a7.46,7.46,0,0,1-.59,3.06,6,6,0,0,1-1.6,2.16,6.58,6.58,0,0,1-2.34,1.28,9.33,9.33,0,0,1-5.6,0,6.54,6.54,0,0,1-2.33-1.28,5.76,5.76,0,0,1-1.6-2.16,8.13,8.13,0,0,1,0-6.13,5.93,5.93,0,0,1,1.6-2.16,6.56,6.56,0,0,1,2.33-1.29,9.13,9.13,0,0,1,2.78-.43,9.39,9.39,0,0,1,2.82.43,6.69,6.69,0,0,1,2.34,1.29,6.16,6.16,0,0,1,1.6,2.16,7.44,7.44,0,0,1,.59,3.07Zm20.18,0a10.19,10.19,0,0,0-.63-3.66,7.33,7.33,0,0,0-1.88-2.8,8.61,8.61,0,0,0-3.13-1.78,13.39,13.39,0,0,0-4.36-.64h-6v17.74h6a13.68,13.68,0,0,0,4.36-.63,8.61,8.61,0,0,0,3.13-1.78,7.37,7.37,0,0,0,1.88-2.79,10.11,10.11,0,0,0,.63-3.66Zm-2.34,0a8.09,8.09,0,0,1-.41,2.67,5.23,5.23,0,0,1-1.33,2.09,6.38,6.38,0,0,1-2.36,1.36,11.58,11.58,0,0,1-3.51.48H181.7V198.08h3.71a11.28,11.28,0,0,1,3.51.48,6.24,6.24,0,0,1,2.36,1.36,5.2,5.2,0,0,1,1.33,2.08,8.21,8.21,0,0,1,.41,2.69Zm6.55,8.86V195.81h-2.33v17.74Zm18,0V195.81h-2.33V204c0,2.23,0,4.06,0,5.51-1.17-1.43-2.67-3.28-4.51-5.52s-4-5-6.6-8.18h-2v17.74h2.34v-8.16c0-2.24,0-4.1,0-5.56,1.18,1.46,2.68,3.33,4.51,5.58s4,5,6.59,8.14Zm18.23,0V195.81h-2.33v7.34h-11v-7.34h-2.33v17.74h2.33v-8.14h11v8.14Zm19.32-8.88a7.46,7.46,0,0,1-.59,3.06,5.89,5.89,0,0,1-1.61,2.16,6.54,6.54,0,0,1-2.33,1.28,9.33,9.33,0,0,1-5.6,0,6.54,6.54,0,0,1-2.33-1.28,5.89,5.89,0,0,1-1.61-2.16,8.26,8.26,0,0,1,0-6.13,6.06,6.06,0,0,1,1.61-2.16,6.56,6.56,0,0,1,2.33-1.29,9.09,9.09,0,0,1,2.78-.43,9.33,9.33,0,0,1,2.81.43,6.52,6.52,0,0,1,2.34,1.29,6.06,6.06,0,0,1,1.61,2.16,7.44,7.44,0,0,1,.59,3.07Z"/><g class="cls-4"><rect class="cls-2" x="41.64" y="207.61" width="215.79" height="6.26"/><rect class="cls-2" x="41.64" y="207.58" width="215.79" height="0.04"/><rect class="cls-2" x="41.64" y="207.56" width="215.79" height="0.04"/><rect class="cls-2" x="41.64" y="207.54" width="215.79" height="0.04"/><rect class="cls-2" x="41.64" y="207.51" width="215.79" height="0.04"/><rect class="cls-2" x="41.64" y="207.49" width="215.79" height="0.04"/><rect class="cls-2" x="41.64" y="207.47" width="215.79" height="0.04"/><rect class="cls-2" x="41.64" y="207.45" width="215.79" height="0.03"/><rect class="cls-2" x="41.64" y="207.43" width="215.79" height="0.03"/><rect class="cls-2" x="41.64" y="207.4" width="215.79" height="0.03"/><rect class="cls-2" x="41.64" y="207.38" width="215.79" height="0.03"/><rect class="cls-2" x="41.64" y="207.36" width="215.79" height="0.03"/><rect class="cls-2" x="41.64" y="207.33" width="215.79" height="0.03"/><rect class="cls-2" x="41.64" y="207.31" width="215.79" height="0.03"/><rect class="cls-2" x="41.64" y="207.29" width="215.79" height="0.03"/><rect class="cls-2" x="41.64" y="207.27" width="215.79" height="0.03"/><rect class="cls-2" x="41.64" y="207.24" width="215.79" height="0.03"/><rect class="cls-2" x="41.64" y="207.22" width="215.79" height="0.03"/><rect class="cls-2" x="41.64" y="207.2" width="215.79" height="0.03"/><rect class="cls-2" x="41.64" y="207.17" width="215.79" height="0.03"/><rect class="cls-2" x="41.64" y="207.15" width="215.79" height="0.03"/><rect class="cls-2" x="41.64" y="207.13" width="215.79" height="0.04"/><rect class="cls-2" x="41.64" y="207.1" width="215.79" height="0.04"/><rect class="cls-2" x="41.64" y="207.08" width="215.79" height="0.04"/><rect class="cls-2" x="41.64" y="207.06" width="215.79" height="0.04"/><rect class="cls-2" x="41.64" y="207.03" width="215.79" height="0.04"/><rect class="cls-2" x="41.64" y="207.01" width="215.79" height="0.04"/><rect class="cls-2" x="41.64" y="206.99" width="215.79" height="0.04"/><rect class="cls-2" x="41.64" y="206.96" width="215.79" height="0.04"/><rect class="cls-2" x="41.64" y="206.94" width="215.79" height="0.04"/><rect class="cls-2" x="41.64" y="206.92" width="215.79" height="0.04"/><rect class="cls-2" x="41.64" y="206.89" width="215.79" height="0.04"/><rect class="cls-2" x="41.64" y="206.87" width="215.79" height="0.04"/><rect class="cls-2" x="41.64" y="206.85" width="215.79" height="0.03"/><rect class="cls-2" x="41.64" y="206.83" width="215.79" height="0.03"/><rect class="cls-2" x="41.64" y="206.81" width="215.79" height="0.03"/><rect class="cls-2" x="41.64" y="206.78" width="215.79" height="0.03"/><rect class="cls-2" x="41.64" y="206.76" width="215.79" height="0.03"/><rect class="cls-2" x="41.64" y="206.74" width="215.79" height="0.03"/><rect class="cls-2" x="41.64" y="206.72" width="215.79" height="0.03"/><rect class="cls-2" x="41.64" y="206.69" width="215.79" height="0.03"/><rect class="cls-2" x="41.64" y="206.67" width="215.79" height="0.03"/><rect class="cls-2" x="41.64" y="206.65" width="215.79" height="0.03"/><rect class="cls-2" x="41.64" y="206.62" width="215.79" height="0.03"/><rect class="cls-2" x="41.64" y="206.6" width="215.79" height="0.03"/><rect class="cls-2" x="41.64" y="206.58" width="215.79" height="0.03"/><rect class="cls-2" x="41.64" y="206.55" width="215.79" height="0.03"/><rect class="cls-2" x="41.64" y="206.53" width="215.79" height="0.04"/><rect class="cls-2" x="41.64" y="206.51" width="215.79" height="0.04"/><rect class="cls-2" x="41.64" y="206.48" width="215.79" height="0.04"/><rect class="cls-2" x="41.64" y="206.46" width="215.79" height="0.04"/><rect class="cls-2" x="41.64" y="206.44" width="215.79" height="0.04"/><rect class="cls-2" x="41.64" y="206.41" width="215.79" height="0.04"/><rect class="cls-2" x="41.64" y="206.39" width="215.79" height="0.04"/><rect class="cls-2" x="41.64" y="206.37" width="215.79" height="0.04"/><rect class="cls-2" x="41.64" y="206.34" width="215.79" height="0.04"/><rect class="cls-2" x="41.64" y="206.32" width="215.79" height="0.04"/><rect class="cls-2" x="41.64" y="206.3" width="215.79" height="0.04"/><rect class="cls-2" x="41.64" y="206.28" width="215.79" height="0.03"/><rect class="cls-2" x="41.64" y="206.26" width="215.79" height="0.03"/><rect class="cls-2" x="41.64" y="206.23" width="215.79" height="0.03"/><rect class="cls-2" x="41.64" y="206.21" width="215.79" height="0.03"/><rect class="cls-2" x="41.64" y="206.19" width="215.79" height="0.03"/><rect class="cls-2" x="41.64" y="206.16" width="215.79" height="0.03"/><rect class="cls-2" x="41.64" y="206.14" width="215.79" height="0.03"/><rect class="cls-2" x="41.64" y="206.12" width="215.79" height="0.03"/><rect class="cls-2" x="41.64" y="206.1" width="215.79" height="0.03"/><rect class="cls-2" x="41.64" y="206.07" width="215.79" height="0.03"/><rect class="cls-2" x="41.64" y="206.05" width="215.79" height="0.03"/><rect class="cls-2" x="41.64" y="206.03" width="215.79" height="0.03"/><rect class="cls-2" x="41.64" y="206" width="215.79" height="0.03"/><rect class="cls-2" x="41.64" y="205.98" width="215.79" height="0.03"/><rect class="cls-2" x="41.64" y="205.96" width="215.79" height="0.03"/><rect class="cls-2" x="41.64" y="205.93" width="215.79" height="0.04"/><rect class="cls-2" x="41.64" y="205.91" width="215.79" height="0.04"/><rect class="cls-2" x="41.64" y="205.89" width="215.79" height="0.04"/><rect class="cls-2" x="41.64" y="205.86" width="215.79" height="0.04"/><rect class="cls-2" x="41.64" y="205.84" width="215.79" height="0.04"/><rect class="cls-2" x="41.64" y="205.82" width="215.79" height="0.04"/><rect class="cls-2" x="41.64" y="205.79" width="215.79" height="0.04"/><rect class="cls-2" x="41.64" y="205.77" width="215.79" height="0.04"/><rect class="cls-2" x="41.64" y="205.75" width="215.79" height="0.04"/><rect class="cls-2" x="41.64" y="205.72" width="215.79" height="0.04"/><rect class="cls-2" x="41.64" y="205.7" width="215.79" height="0.04"/><rect class="cls-2" x="41.64" y="205.68" width="215.79" height="0.03"/><rect class="cls-2" x="41.64" y="205.66" width="215.79" height="0.03"/><rect class="cls-2" x="41.64" y="205.64" width="215.79" height="0.03"/><rect class="cls-2" x="41.64" y="205.61" width="215.79" height="0.03"/><rect class="cls-2" x="41.64" y="205.59" width="215.79" height="0.03"/><rect class="cls-2" x="41.64" y="205.57" width="215.79" height="0.03"/><rect class="cls-2" x="41.64" y="205.55" width="215.79" height="0.03"/><rect class="cls-2" x="41.64" y="205.52" width="215.79" height="0.03"/><rect class="cls-2" x="41.64" y="205.5" width="215.79" height="0.03"/><rect class="cls-2" x="41.64" y="205.48" width="215.79" height="0.03"/><rect class="cls-2" x="41.64" y="205.45" width="215.79" height="0.03"/><rect class="cls-2" x="41.64" y="205.43" width="215.79" height="0.03"/><rect class="cls-2" x="41.64" y="205.41" width="215.79" height="0.03"/><rect class="cls-2" x="41.64" y="205.38" width="215.79" height="0.03"/><rect class="cls-2" x="41.64" y="205.36" width="215.79" height="0.03"/><rect class="cls-2" x="41.64" y="205.34" width="215.79" height="0.04"/><rect class="cls-2" x="41.64" y="205.31" width="215.79" height="0.04"/><rect class="cls-2" x="41.64" y="205.29" width="215.79" height="0.04"/><rect class="cls-2" x="41.64" y="205.27" width="215.79" height="0.04"/><rect class="cls-2" x="41.64" y="205.24" width="215.79" height="0.04"/><rect class="cls-2" x="41.64" y="205.22" width="215.79" height="0.04"/><rect class="cls-2" x="41.64" y="205.2" width="215.79" height="0.04"/><rect class="cls-2" x="41.64" y="205.17" width="215.79" height="0.04"/><rect class="cls-2" x="41.64" y="205.15" width="215.79" height="0.04"/><rect class="cls-2" x="41.64" y="205.13" width="215.79" height="0.04"/><rect class="cls-2" x="41.64" y="205.1" width="215.79" height="0.04"/><rect class="cls-2" x="41.64" y="205.09" width="215.79" height="0.03"/><rect class="cls-2" x="41.64" y="205.06" width="215.79" height="0.03"/><rect class="cls-2" x="41.64" y="205.04" width="215.79" height="0.03"/><rect class="cls-2" x="41.64" y="205.02" width="215.79" height="0.03"/><rect class="cls-2" x="41.64" y="204.99" width="215.79" height="0.03"/><rect class="cls-2" x="41.64" y="204.97" width="215.79" height="0.03"/><rect class="cls-2" x="41.64" y="204.95" width="215.79" height="0.03"/><rect class="cls-2" x="41.64" y="204.93" width="215.79" height="0.03"/><rect class="cls-2" x="41.64" y="204.9" width="215.79" height="0.03"/><rect class="cls-2" x="41.64" y="204.88" width="215.79" height="0.03"/><rect class="cls-2" x="41.64" y="204.86" width="215.79" height="0.03"/><rect class="cls-2" x="41.64" y="204.83" width="215.79" height="0.03"/><rect class="cls-2" x="41.64" y="204.81" width="215.79" height="0.03"/><rect class="cls-2" x="41.64" y="204.79" width="215.79" height="0.03"/><rect class="cls-2" x="41.64" y="204.76" width="215.79" height="0.03"/><rect class="cls-2" x="41.64" y="204.74" width="215.79" height="0.04"/><rect class="cls-2" x="41.64" y="204.72" width="215.79" height="0.04"/><rect class="cls-2" x="41.64" y="204.69" width="215.79" height="0.04"/><rect class="cls-2" x="41.64" y="204.67" width="215.79" height="0.04"/><rect class="cls-2" x="41.64" y="204.65" width="215.79" height="0.04"/><rect class="cls-2" x="41.64" y="204.62" width="215.79" height="0.04"/><rect class="cls-2" x="41.64" y="204.6" width="215.79" height="0.04"/><rect class="cls-2" x="41.64" y="204.58" width="215.79" height="0.04"/><rect class="cls-2" x="41.64" y="204.55" width="215.79" height="0.04"/><rect class="cls-2" x="41.64" y="204.53" width="215.79" height="0.04"/><rect class="cls-2" x="41.64" y="204.51" width="215.79" height="0.04"/><rect class="cls-2" x="41.64" y="204.49" width="215.79" height="0.03"/><rect class="cls-2" x="41.64" y="204.47" width="215.79" height="0.03"/><rect class="cls-2" x="41.64" y="204.44" width="215.79" height="0.03"/><rect class="cls-2" x="41.64" y="204.42" width="215.79" height="0.03"/><rect class="cls-2" x="41.64" y="204.4" width="215.79" height="0.03"/><rect class="cls-2" x="41.64" y="204.37" width="215.79" height="0.03"/><rect class="cls-2" x="41.64" y="204.35" width="215.79" height="0.03"/><rect class="cls-2" x="41.64" y="204.33" width="215.79" height="0.03"/><rect class="cls-2" x="41.64" y="204.31" width="215.79" height="0.03"/><rect class="cls-2" x="41.64" y="204.28" width="215.79" height="0.03"/><rect class="cls-2" x="41.64" y="204.26" width="215.79" height="0.03"/><rect class="cls-2" x="41.64" y="204.24" width="215.79" height="0.03"/><rect class="cls-2" x="41.64" y="204.21" width="215.79" height="0.03"/><rect class="cls-2" x="41.64" y="204.19" width="215.79" height="0.03"/><rect class="cls-2" x="41.64" y="204.17" width="215.79" height="0.03"/><rect class="cls-2" x="41.64" y="204.14" width="215.79" height="0.04"/><rect class="cls-2" x="41.64" y="204.12" width="215.79" height="0.04"/><rect class="cls-2" x="41.64" y="204.1" width="215.79" height="0.04"/><rect class="cls-2" x="41.64" y="204.07" width="215.79" height="0.04"/><rect class="cls-2" x="41.64" y="204.05" width="215.79" height="0.04"/><rect class="cls-2" x="41.64" y="204.03" width="215.79" height="0.04"/><rect class="cls-2" x="41.64" y="204" width="215.79" height="0.04"/><rect class="cls-2" x="41.64" y="203.98" width="215.79" height="0.04"/><rect class="cls-2" x="41.64" y="203.96" width="215.79" height="0.04"/><rect class="cls-2" x="41.64" y="203.93" width="215.79" height="0.04"/><rect class="cls-2" x="41.64" y="203.91" width="215.79" height="0.04"/><rect class="cls-2" x="41.64" y="203.89" width="215.79" height="0.03"/><rect class="cls-2" x="41.64" y="203.87" width="215.79" height="0.03"/><rect class="cls-2" x="41.64" y="203.85" width="215.79" height="0.03"/><rect class="cls-2" x="41.64" y="203.82" width="215.79" height="0.03"/><rect class="cls-2" x="41.64" y="203.8" width="215.79" height="0.03"/><rect class="cls-2" x="41.64" y="203.78" width="215.79" height="0.03"/><rect class="cls-2" x="41.64" y="203.76" width="215.79" height="0.03"/><rect class="cls-2" x="41.64" y="203.73" width="215.79" height="0.03"/><rect class="cls-2" x="41.64" y="203.71" width="215.79" height="0.03"/><rect class="cls-2" x="41.64" y="203.69" width="215.79" height="0.03"/><rect class="cls-2" x="41.64" y="203.66" width="215.79" height="0.03"/><rect class="cls-2" x="41.64" y="203.64" width="215.79" height="0.03"/><rect class="cls-2" x="41.64" y="203.62" width="215.79" height="0.03"/><rect class="cls-2" x="41.64" y="203.59" width="215.79" height="0.03"/><rect class="cls-2" x="41.64" y="203.57" width="215.79" height="0.03"/><rect class="cls-2" x="41.64" y="203.55" width="215.79" height="0.04"/><rect class="cls-2" x="41.64" y="203.52" width="215.79" height="0.04"/><rect class="cls-2" x="41.64" y="203.5" width="215.79" height="0.04"/><rect class="cls-2" x="41.64" y="203.48" width="215.79" height="0.04"/><rect class="cls-2" x="41.64" y="203.45" width="215.79" height="0.04"/><rect class="cls-2" x="41.64" y="203.43" width="215.79" height="0.04"/><rect class="cls-2" x="41.64" y="203.41" width="215.79" height="0.04"/><rect class="cls-2" x="41.64" y="203.38" width="215.79" height="0.04"/><rect class="cls-2" x="41.64" y="203.36" width="215.79" height="0.04"/><rect class="cls-2" x="41.64" y="203.34" width="215.79" height="0.04"/><rect class="cls-2" x="41.64" y="203.31" width="215.79" height="0.04"/><rect class="cls-2" x="41.64" y="203.3" width="215.79" height="0.03"/><rect class="cls-2" x="41.64" y="203.27" width="215.79" height="0.03"/><rect class="cls-2" x="41.64" y="203.25" width="215.79" height="0.03"/><rect class="cls-2" x="41.64" y="203.23" width="215.79" height="0.03"/><rect class="cls-2" x="41.64" y="203.2" width="215.79" height="0.03"/><rect class="cls-2" x="41.64" y="203.18" width="215.79" height="0.03"/><rect class="cls-2" x="41.64" y="203.16" width="215.79" height="0.03"/><rect class="cls-2" x="41.64" y="203.14" width="215.79" height="0.03"/><rect class="cls-2" x="41.64" y="203.11" width="215.79" height="0.03"/><rect class="cls-2" x="41.64" y="203.09" width="215.79" height="0.03"/><rect class="cls-2" x="41.64" y="203.07" width="215.79" height="0.03"/><rect class="cls-2" x="41.64" y="203.04" width="215.79" height="0.03"/><rect class="cls-2" x="41.64" y="203.02" width="215.79" height="0.03"/><rect class="cls-2" x="41.64" y="203" width="215.79" height="0.03"/><rect class="cls-2" x="41.64" y="202.97" width="215.79" height="0.04"/><rect class="cls-2" x="41.64" y="202.95" width="215.79" height="0.04"/><rect class="cls-2" x="41.64" y="202.93" width="215.79" height="0.04"/><rect class="cls-2" x="41.64" y="202.9" width="215.79" height="0.04"/><rect class="cls-2" x="41.64" y="202.88" width="215.79" height="0.04"/><rect class="cls-2" x="41.64" y="202.86" width="215.79" height="0.04"/><rect class="cls-2" x="41.64" y="202.83" width="215.79" height="0.04"/><rect class="cls-2" x="41.64" y="202.81" width="215.79" height="0.04"/><rect class="cls-2" x="41.64" y="202.79" width="215.79" height="0.04"/><rect class="cls-2" x="41.64" y="202.76" width="215.79" height="0.04"/><rect class="cls-2" x="41.64" y="202.74" width="215.79" height="0.04"/><rect class="cls-2" x="41.64" y="202.72" width="215.79" height="0.04"/><rect class="cls-2" x="41.64" y="202.7" width="215.79" height="0.03"/><rect class="cls-2" x="41.64" y="202.68" width="215.79" height="0.03"/><rect class="cls-2" x="41.64" y="202.65" width="215.79" height="0.03"/><rect class="cls-2" x="41.64" y="202.63" width="215.79" height="0.03"/><rect class="cls-2" x="41.64" y="202.61" width="215.79" height="0.03"/><rect class="cls-2" x="41.64" y="202.59" width="215.79" height="0.03"/><rect class="cls-2" x="41.64" y="202.56" width="215.79" height="0.03"/><rect class="cls-2" x="41.64" y="202.54" width="215.79" height="0.03"/><rect class="cls-2" x="41.64" y="202.52" width="215.79" height="0.03"/><rect class="cls-2" x="41.64" y="202.49" width="215.79" height="0.03"/><rect class="cls-2" x="41.64" y="202.47" width="215.79" height="0.03"/><rect class="cls-2" x="41.64" y="202.45" width="215.79" height="0.03"/><rect class="cls-2" x="41.64" y="202.42" width="215.79" height="0.03"/><rect class="cls-2" x="41.64" y="202.4" width="215.79" height="0.03"/><rect class="cls-2" x="41.64" y="202.38" width="215.79" height="0.04"/><rect class="cls-2" x="41.64" y="202.35" width="215.79" height="0.04"/><rect class="cls-2" x="41.64" y="202.33" width="215.79" height="0.04"/><rect class="cls-2" x="41.64" y="202.31" width="215.79" height="0.04"/><rect class="cls-2" x="41.64" y="202.28" width="215.79" height="0.04"/><rect class="cls-2" x="41.64" y="202.26" width="215.79" height="0.04"/><rect class="cls-2" x="41.64" y="202.24" width="215.79" height="0.04"/><rect class="cls-2" x="41.64" y="202.21" width="215.79" height="0.04"/><rect class="cls-2" x="41.64" y="202.19" width="215.79" height="0.04"/><rect class="cls-2" x="41.64" y="202.17" width="215.79" height="0.04"/><rect class="cls-2" x="41.64" y="202.14" width="215.79" height="0.04"/><rect class="cls-2" x="41.64" y="202.12" width="215.79" height="0.04"/><rect class="cls-2" x="41.64" y="202.1" width="215.79" height="0.03"/><rect class="cls-2" x="41.64" y="202.08" width="215.79" height="0.03"/><rect class="cls-2" x="41.64" y="202.06" width="215.79" height="0.03"/><rect class="cls-2" x="41.64" y="202.03" width="215.79" height="0.03"/><rect class="cls-2" x="41.64" y="202.01" width="215.79" height="0.03"/><rect class="cls-2" x="41.64" y="201.99" width="215.79" height="0.03"/><rect class="cls-2" x="41.64" y="201.97" width="215.79" height="0.03"/><rect class="cls-2" x="41.64" y="201.94" width="215.79" height="0.03"/><rect class="cls-2" x="41.64" y="201.92" width="215.79" height="0.03"/><rect class="cls-2" x="41.64" y="201.9" width="215.79" height="0.03"/><rect class="cls-2" x="41.64" y="201.87" width="215.79" height="0.03"/><rect class="cls-2" x="41.64" y="201.85" width="215.79" height="0.03"/><rect class="cls-2" x="41.64" y="201.83" width="215.79" height="0.03"/><rect class="cls-2" x="41.64" y="201.8" width="215.79" height="0.03"/><rect class="cls-2" x="41.64" y="201.78" width="215.79" height="0.04"/><rect class="cls-2" x="41.64" y="195.5" width="215.79" height="6.29"/></g><path class="cls-5" d="M183.25,99.4c9,42.27-29.73,88.57-74.13,66.13,12.17,1.5,12.23-3.58,19.27-7.32,6.34-3.39,14.57-2.93,16.18,5.3,4.3-6.72-2.65-18.38,2.69-26.56,9.34-14.31,33.07-17.65,36-37.55Z"/><path class="cls-5" d="M147.56,87c19.95,25.6,22.88,57.26,8.89,73.81-13.54,16-48.62,11.45-54.93-22,8.26,12.45,32.94-2.92,41.71,16.73,1.45-10.74-14.1-16.18-13.45-29.53.66-13.74,22.28-21.09,17.78-39Z"/><path class="cls-3" d="M164.05,122.67c2.74,15,.21,28.91-7.6,38.14-8.38,9.91-25,11.94-37.95,4.13,3.75-1.42,5.41-4.35,9.89-6.73,6.34-3.39,14.57-2.93,16.18,5.3,4.3-6.72-2.65-18.38,2.69-26.56,3.92-6,10.39-10.09,16.79-14.28Z"/><rect class="cls-6" width="300" height="300"/></g></g></svg>