<svg xmlns="http://www.w3.org/2000/svg" viewBox="0 0 300 300"><defs><style>.cls-1,.cls-2{fill:#9b9b9b;}.cls-1,.cls-3{fill-rule:evenodd;}.cls-3{fill:#d3d3d3;}.cls-4{fill:none;}</style></defs><title>logo23</title><g id="Layer_2" data-name="Layer 2"><g id="Layer_1-2" data-name="Layer 1"><path class="cls-1" d="M187.21,185.82c7,0,12.09,4.92,11.35,11s-7,11-14,11-12.09-4.92-11.35-11,7-11,14-11Zm1,5.65c2.4,1.29,2.48,3.67,1.63,6.49-1.36,2.73-2.72,4.88-5.63,4.5-2.36,0-3.56-3.31-2.13-7.08,1.17-3.14,3.18-5,6.13-3.91Z"/><path class="cls-1" d="M52.07,186A8,8,0,0,1,58,189.78l2.44-11.52h8.3L62.45,207.8h-8.3l.4-1.92a9.69,9.69,0,0,1-7,2.15c-5.26-.61-8.51-6-7.25-12.11s6.54-10.5,11.8-9.89Zm2.53,5.74c2.19,1.3,2.27,3.67,1.49,6.5-1.25,2.72-2.48,4.87-5.15,4.49-2.16,0-3.26-3.3-1.95-7.07,1.08-3.14,2.92-5,5.61-3.92Z"/><path class="cls-1" d="M117.1,207.92h8.76l2.27-9.94c.88-4.15,3.77-5.55,7.86-5.27l2.95-5.83c-5.5-3.29-7.92,2.23-9.85,3.6l.86-3.86h-8Z"/><path class="cls-1" d="M80.35,191.82c2.06-7.9,21.35-8,21.46-.23l-8,.56c-.06-2-5.38-2.61-6.11-.4s2.08,2.27,6.68,3c7.41,1.41,7.7,8.15,2.25,11.6-5,2.93-20.29,3.41-19.83-4.57l8.37-.66c.11,2.36,3.41,3.24,6.15,1.78,2.52-2.25-.13-3.67-4.26-3.71-4.91-.52-7.51-2.72-6.76-7.37Z"/><polygon class="cls-1" points="134.32 207.6 142.73 207.6 147.42 186.31 139.01 186.31 134.32 207.6"/><path class="cls-1" d="M145.91,207.72h8.42l2.41-10.92c3-6.27,7.64-6.32,6.81-2.08l-2.87,13h8.42l3.28-14.93c1-3.75-1.52-7.12-6.75-6.76-4,.21-6.49,1.88-7.94,4.34h0l1-4H150.6Z"/><path class="cls-1" d="M248.62,186.05c8.59.2,13.2,5,10.71,13h-17c.36,2.88,1.63,4.45,4,4.43a4,4,0,0,0,3.77-2.08l8.39.79a16,16,0,0,1-12.6,5.94c-7.36,0-12.7-4.92-11.92-11s6.14-11.33,14.73-11.13Zm-5.46,9.28h8.36c.19-2.8-.86-4.52-3.56-4.52-2.51-.09-4.37,1.88-4.8,4.52Z"/><path class="cls-1" d="M220.1,196.12c-.36,1.65-.68,3.14-.89,4.46A18,18,0,0,0,219,203l-.16-.08c.05.34.11.66.18,1a4,4,0,0,0,1.25,2.84c1.35,1.66,3.71,2.21,7.62,1.4q1.14-.06,2.46-.18l.63-.07,1.37-5.78c-4.13.47-5.17.79-4.38-2.84l1.59-7,4.53,0,1.15-5.84-4.34,0,.82-3.61h-8.76l-.78,3.65h-2.9L218,192.28h2.95Z"/><path class="cls-1" d="M104.4,196.22c-.35,1.65-.68,3.13-.89,4.45a17.81,17.81,0,0,0-.23,2.38l-.15-.08a9.6,9.6,0,0,0,.17,1,4,4,0,0,0,1.26,2.83c1.35,1.67,3.7,2.22,7.61,1.41.76,0,1.58-.09,2.47-.18l.63-.07,1.36-5.78c-4.13.48-5.17.8-4.38-2.83l1.6-7h4.52l1.15-5.85-4.34,0,.83-3.6h-8.76l-.79,3.65-2.9,0-1.29,5.84,3,0Z"/><path class="cls-1" d="M197.71,207.92h8.75l2.27-9.94c.88-4.15,3.78-5.55,7.86-5.27l2.95-5.83c-5.5-3.29-7.92,2.23-9.85,3.6l.86-3.86h-8Z"/><polygon class="cls-1" points="65.37 207.65 73.78 207.65 78.47 186.36 70.05 186.36 65.37 207.65"/><path class="cls-2" d="M59.25,221.28a2.58,2.58,0,0,0-.63-1.7,2.73,2.73,0,0,0-2.16-.81H53.77v5.91h2.72a3.6,3.6,0,0,0,1.15-.15,3.66,3.66,0,0,0,1-.59,1.63,1.63,0,0,0,.42-.6.59.59,0,0,0,.08-.17l0-.09,0-.09a1.44,1.44,0,0,1,.05-.24c0-.1,0-.18,0-.23s0-.12,0-.21a1.79,1.79,0,0,0,0-.27v-.76Zm-1.37.46V222c0,.12,0,.23,0,.32s0,.27-.06.34,0,.08,0,.14l0,.06-.13.32a.93.93,0,0,1-.56.43l-.14,0-.15,0H55V219.8H56.8l.33.07a.81.81,0,0,1,.51.44,2.3,2.3,0,0,1,.21.71q0,.1,0,.3v.41Z"/><rect class="cls-2" x="62.63" y="218.77" width="1.29" height="5.9"/><path class="cls-2" d="M73,223.21a4.6,4.6,0,0,0-.08-1,1,1,0,0,0-.28-.53l-.18-.15-.14-.1a1,1,0,0,0-.38-.15l-.17,0-.2,0h-.47a7.19,7.19,0,0,1-2.2-.16.61.61,0,0,1-.22-.53.64.64,0,0,1,.26-.55,1.17,1.17,0,0,1,.71-.18h3.07v-1.06H69.42a2.41,2.41,0,0,0-1.49.39,1.79,1.79,0,0,0-.58,1.52,1.42,1.42,0,0,0,.93,1.44,4.49,4.49,0,0,0,1.36.15h.68a2,2,0,0,1,1.2.21.41.41,0,0,1,.07.11.33.33,0,0,1,0,.15,2.32,2.32,0,0,1,0,.37.47.47,0,0,1-.31.41,1.51,1.51,0,0,1-.66.11H67.6v1.06c2.86,0,4.46-.13,4.79-.38a1.3,1.3,0,0,0,.58-1.09Z"/><polygon class="cls-2" points="80.9 219.81 80.9 218.79 75.81 218.79 75.81 219.81 77.71 219.81 77.71 224.68 78.99 224.68 78.99 219.81 80.9 219.81"/><path class="cls-2" d="M89.42,224.68,88,222.2a1.45,1.45,0,0,0,.89-.58,1.76,1.76,0,0,0,.29-1,2.21,2.21,0,0,0-.25-1.06,1.23,1.23,0,0,0-.81-.64l-.19,0h-.11l-.17,0-.23,0H84v5.91h1.24v-2.31h1.45l1.3,2.31Zm-1.52-4.11a.76.76,0,0,1-.21.56,1.43,1.43,0,0,1-.89.2H85.28v-1.5H86.8a1.43,1.43,0,0,1,.91.2.67.67,0,0,1,.19.54Z"/><rect class="cls-2" x="92.72" y="218.77" width="1.3" height="5.9"/><path class="cls-2" d="M102.6,223.26a1.65,1.65,0,0,0-.25-1,1.55,1.55,0,0,0-.64-.51,2.42,2.42,0,0,0,.63-.55,1.12,1.12,0,0,0,.23-.64l0-.48-.07-.36a.83.83,0,0,0-.52-.63,2.2,2.2,0,0,0-.77-.23l-.13,0-.19,0H97.37v5.91h3.24a2.46,2.46,0,0,0,1.44-.35,1.26,1.26,0,0,0,.55-1.07Zm-1.37-2.74a.57.57,0,0,1-.22.52,1.05,1.05,0,0,1-.59.15H98.61v-1.36h1.81a1,1,0,0,1,.61.16.69.69,0,0,1,.2.53Zm0,2.43a.6.6,0,0,1-.22.54,1.21,1.21,0,0,1-.6.14H98.61v-1.39a8.16,8.16,0,0,1,2.42.17.63.63,0,0,1,.22.54Z"/><path class="cls-2" d="M111.2,222.35v-3.58H110c0,2.88-.08,4.43-.26,4.66a1.3,1.3,0,0,1-1.06.36,1.34,1.34,0,0,1-1.06-.36,1.79,1.79,0,0,1-.26-1.11v-3.55h-1.24v4a2,2,0,0,0,.13.78,2,2,0,0,0,.18.35,3.74,3.74,0,0,0,.25.36,1.28,1.28,0,0,0,.56.35,2,2,0,0,0,.43.11,1.94,1.94,0,0,0,.34,0l.67,0,.7,0a2.87,2.87,0,0,0,.39,0l.37-.11a1.16,1.16,0,0,0,.56-.37,2.64,2.64,0,0,0,.46-.87,4.47,4.47,0,0,0,.08-1Z"/><rect class="cls-2" x="114.54" y="218.77" width="1.3" height="5.9"/><path class="cls-2" d="M124.67,221.28a2.58,2.58,0,0,0-.63-1.7,2.7,2.7,0,0,0-2.16-.81h-2.69v5.91h2.73a3.73,3.73,0,0,0,1.15-.15,3.83,3.83,0,0,0,1-.59,1.73,1.73,0,0,0,.41-.6.59.59,0,0,0,.08-.17.3.3,0,0,0,0-.09.12.12,0,0,0,0-.09c0-.09,0-.17.05-.24s0-.18,0-.23,0-.12,0-.21v-1Zm-1.36.46V222c0,.12,0,.23,0,.32a2.78,2.78,0,0,1-.06.34.44.44,0,0,1,0,.14.22.22,0,0,1,0,.06l-.14.32a.9.9,0,0,1-.56.43l-.14,0-.14,0h-1.77V219.8h1.8l.33.07a.87.87,0,0,1,.51.44,2.07,2.07,0,0,1,.2.71,1.87,1.87,0,0,1,0,.3,2.82,2.82,0,0,1,0,.32Z"/><path class="cls-2" d="M133.58,222.15c0-.36,0-.69-.05-1a7.18,7.18,0,0,0-.14-.75,2.24,2.24,0,0,0-1-1.39,4.08,4.08,0,0,0-2-.38,2.63,2.63,0,0,0-2,.79,3.22,3.22,0,0,0-.72,2.28,3.3,3.3,0,0,0,.72,2.31,2.94,2.94,0,0,0,2.23.78,3.94,3.94,0,0,0,1.32-.2,2.07,2.07,0,0,0,.91-.58,2.61,2.61,0,0,0,.74-1.87Zm-1.36-.42a2.62,2.62,0,0,1-.34,1.44,1.15,1.15,0,0,1-.91.62,4.36,4.36,0,0,1-.75,0l-.42-.12a.93.93,0,0,1-.42-.32,1.88,1.88,0,0,1-.22-.48,5,5,0,0,1-.15-1.3,2.09,2.09,0,0,1,.35-1.23,1.39,1.39,0,0,1,1.25-.61,1.41,1.41,0,0,1,1.28.61,2.65,2.65,0,0,1,.33,1.44Z"/><path class="cls-2" d="M142.32,224.68l-1.46-2.48a1.5,1.5,0,0,0,.9-.58,1.91,1.91,0,0,0,.28-1,2,2,0,0,0-.26-1.06,1.19,1.19,0,0,0-.8-.64l-.19,0h-.11l-.17,0-.23,0h-3.35v5.91h1.23v-2.31h1.46l1.3,2.31Zm-1.53-4.11a.76.76,0,0,1-.21.56,1.45,1.45,0,0,1-.9.2h-1.52v-1.5h1.52a1.4,1.4,0,0,1,.91.2.64.64,0,0,1,.2.54Z"/><path class="cls-2" d="M151.13,224.68l-2.52-5.91h-1.32l-2.48,5.91h1.32l.5-1.42h2.58l.54,1.42Zm-2.32-2.46H147l.87-2.26Z"/><path class="cls-2" d="M59.25,221.28a2.58,2.58,0,0,0-.63-1.7,2.73,2.73,0,0,0-2.16-.81H53.77v5.91h2.72a3.6,3.6,0,0,0,1.15-.15,3.66,3.66,0,0,0,1-.59,1.63,1.63,0,0,0,.42-.6.59.59,0,0,0,.08-.17l0-.09,0-.09a1.44,1.44,0,0,1,.05-.24c0-.1,0-.18,0-.23s0-.12,0-.21a1.79,1.79,0,0,0,0-.27v-.76Zm-1.37.46V222c0,.12,0,.23,0,.32s0,.27-.06.34,0,.08,0,.14l0,.06-.13.32a.93.93,0,0,1-.56.43l-.14,0-.15,0H55V219.8H56.8l.33.07a.81.81,0,0,1,.51.44,2.3,2.3,0,0,1,.21.71q0,.1,0,.3v.41Z"/><rect class="cls-2" x="62.63" y="218.77" width="1.29" height="5.9"/><path class="cls-2" d="M73,223.21a4.6,4.6,0,0,0-.08-1,1,1,0,0,0-.28-.53l-.18-.15-.14-.1a1,1,0,0,0-.38-.15l-.17,0-.2,0h-.47a7.19,7.19,0,0,1-2.2-.16.61.61,0,0,1-.22-.53.64.64,0,0,1,.26-.55,1.17,1.17,0,0,1,.71-.18h3.07v-1.06H69.42a2.41,2.41,0,0,0-1.49.39,1.79,1.79,0,0,0-.58,1.52,1.42,1.42,0,0,0,.93,1.44,4.49,4.49,0,0,0,1.36.15h.68a2,2,0,0,1,1.2.21.41.41,0,0,1,.07.11.33.33,0,0,1,0,.15,2.32,2.32,0,0,1,0,.37.47.47,0,0,1-.31.41,1.51,1.51,0,0,1-.66.11H67.6v1.06c2.86,0,4.46-.13,4.79-.38a1.3,1.3,0,0,0,.58-1.09Z"/><polygon class="cls-2" points="80.9 219.81 80.9 218.79 75.81 218.79 75.81 219.81 77.71 219.81 77.71 224.68 78.99 224.68 78.99 219.81 80.9 219.81"/><path class="cls-2" d="M89.42,224.68,88,222.2a1.45,1.45,0,0,0,.89-.58,1.76,1.76,0,0,0,.29-1,2.21,2.21,0,0,0-.25-1.06,1.23,1.23,0,0,0-.81-.64l-.19,0h-.11l-.17,0-.23,0H84v5.91h1.24v-2.31h1.45l1.3,2.31Zm-1.52-4.11a.76.76,0,0,1-.21.56,1.43,1.43,0,0,1-.89.2H85.28v-1.5H86.8a1.43,1.43,0,0,1,.91.2.67.67,0,0,1,.19.54Z"/><rect class="cls-2" x="92.72" y="218.77" width="1.3" height="5.9"/><path class="cls-2" d="M102.6,223.26a1.65,1.65,0,0,0-.25-1,1.55,1.55,0,0,0-.64-.51,2.42,2.42,0,0,0,.63-.55,1.12,1.12,0,0,0,.23-.64l0-.48-.07-.36a.83.83,0,0,0-.52-.63,2.2,2.2,0,0,0-.77-.23l-.13,0-.19,0H97.37v5.91h3.24a2.46,2.46,0,0,0,1.44-.35,1.26,1.26,0,0,0,.55-1.07Zm-1.37-2.74a.57.57,0,0,1-.22.52,1.05,1.05,0,0,1-.59.15H98.61v-1.36h1.81a1,1,0,0,1,.61.16.69.69,0,0,1,.2.53Zm0,2.43a.6.6,0,0,1-.22.54,1.21,1.21,0,0,1-.6.14H98.61v-1.39a8.16,8.16,0,0,1,2.42.17.63.63,0,0,1,.22.54Z"/><path class="cls-2" d="M111.2,222.35v-3.58H110c0,2.88-.08,4.43-.26,4.66a1.3,1.3,0,0,1-1.06.36,1.34,1.34,0,0,1-1.06-.36,1.79,1.79,0,0,1-.26-1.11v-3.55h-1.24v4a2,2,0,0,0,.13.78,2,2,0,0,0,.18.35,3.74,3.74,0,0,0,.25.36,1.28,1.28,0,0,0,.56.35,2,2,0,0,0,.43.11,1.94,1.94,0,0,0,.34,0l.67,0,.7,0a2.87,2.87,0,0,0,.39,0l.37-.11a1.16,1.16,0,0,0,.56-.37,2.64,2.64,0,0,0,.46-.87,4.47,4.47,0,0,0,.08-1Z"/><rect class="cls-2" x="114.54" y="218.77" width="1.3" height="5.9"/><path class="cls-2" d="M124.67,221.28a2.58,2.58,0,0,0-.63-1.7,2.7,2.7,0,0,0-2.16-.81h-2.69v5.91h2.73a3.73,3.73,0,0,0,1.15-.15,3.83,3.83,0,0,0,1-.59,1.73,1.73,0,0,0,.41-.6.59.59,0,0,0,.08-.17.3.3,0,0,0,0-.09.12.12,0,0,0,0-.09c0-.09,0-.17.05-.24s0-.18,0-.23,0-.12,0-.21v-1Zm-1.36.46V222c0,.12,0,.23,0,.32a2.78,2.78,0,0,1-.06.34.44.44,0,0,1,0,.14.22.22,0,0,1,0,.06l-.14.32a.9.9,0,0,1-.56.43l-.14,0-.14,0h-1.77V219.8h1.8l.33.07a.87.87,0,0,1,.51.44,2.07,2.07,0,0,1,.2.71,1.87,1.87,0,0,1,0,.3,2.82,2.82,0,0,1,0,.32Z"/><path class="cls-2" d="M133.58,222.15c0-.36,0-.69-.05-1a7.18,7.18,0,0,0-.14-.75,2.24,2.24,0,0,0-1-1.39,4.08,4.08,0,0,0-2-.38,2.63,2.63,0,0,0-2,.79,3.22,3.22,0,0,0-.72,2.28,3.3,3.3,0,0,0,.72,2.31,2.94,2.94,0,0,0,2.23.78,3.94,3.94,0,0,0,1.32-.2,2.07,2.07,0,0,0,.91-.58,2.61,2.61,0,0,0,.74-1.87Zm-1.36-.42a2.62,2.62,0,0,1-.34,1.44,1.15,1.15,0,0,1-.91.62,4.36,4.36,0,0,1-.75,0l-.42-.12a.93.93,0,0,1-.42-.32,1.88,1.88,0,0,1-.22-.48,5,5,0,0,1-.15-1.3,2.09,2.09,0,0,1,.35-1.23,1.39,1.39,0,0,1,1.25-.61,1.41,1.41,0,0,1,1.28.61,2.65,2.65,0,0,1,.33,1.44Z"/><path class="cls-2" d="M142.32,224.68l-1.46-2.48a1.5,1.5,0,0,0,.9-.58,1.91,1.91,0,0,0,.28-1,2,2,0,0,0-.26-1.06,1.19,1.19,0,0,0-.8-.64l-.19,0h-.11l-.17,0-.23,0h-3.35v5.91h1.23v-2.31h1.46l1.3,2.31Zm-1.53-4.11a.76.76,0,0,1-.21.56,1.45,1.45,0,0,1-.9.2h-1.52v-1.5h1.52a1.4,1.4,0,0,1,.91.2.64.64,0,0,1,.2.54Z"/><path class="cls-2" d="M151.13,224.68l-2.52-5.91h-1.32l-2.48,5.91h1.32l.5-1.42h2.58l.54,1.42Zm-2.32-2.46H147l.87-2.26Z"/><path class="cls-2" d="M162.33,221.28a2.54,2.54,0,0,0-.64-1.7,2.7,2.7,0,0,0-2.16-.81h-2.69v5.91h2.73a3.69,3.69,0,0,0,1.15-.15,3.83,3.83,0,0,0,1-.59,1.75,1.75,0,0,0,.42-.6.35.35,0,0,0,.07-.17.85.85,0,0,0,0-.09.46.46,0,0,0,0-.09,1.5,1.5,0,0,1,0-.24c0-.1,0-.18,0-.23s0-.12,0-.21a1.79,1.79,0,0,0,0-.27v-.76Zm-1.37.46V222a2.69,2.69,0,0,1,0,.32c0,.15,0,.27-.05.34s0,.08,0,.14l0,.06-.13.32a.93.93,0,0,1-.56.43l-.15,0-.14,0h-1.76V219.8h1.79l.33.07a.84.84,0,0,1,.51.44,2.3,2.3,0,0,1,.21.71c0,.07,0,.17,0,.3v.41Z"/><path class="cls-2" d="M169.77,224.68v-1H167.4a1.18,1.18,0,0,1-.31-.05.72.72,0,0,1-.26-.14l-.22-.21a.51.51,0,0,1-.14-.21,1.69,1.69,0,0,1-.08-.24,3.28,3.28,0,0,1,0-.6h3.43v-1h-3.43a1.23,1.23,0,0,1,1.4-1.38h2v-1c-1.58,0-2.49,0-2.74,0a4.94,4.94,0,0,0-.63.15,1.94,1.94,0,0,0-.9.68,2.78,2.78,0,0,0-.45,1,6.49,6.49,0,0,0-.13,1.37,2.85,2.85,0,0,0,.11.79,2.93,2.93,0,0,0,.29.73,2.16,2.16,0,0,0,1.35,1h.08l.06,0,.16,0h.19l.52,0Z"/><path class="cls-2" d="M162.33,221.28a2.54,2.54,0,0,0-.64-1.7,2.7,2.7,0,0,0-2.16-.81h-2.69v5.91h2.73a3.69,3.69,0,0,0,1.15-.15,3.83,3.83,0,0,0,1-.59,1.75,1.75,0,0,0,.42-.6.35.35,0,0,0,.07-.17.85.85,0,0,0,0-.09.46.46,0,0,0,0-.09,1.5,1.5,0,0,1,0-.24c0-.1,0-.18,0-.23s0-.12,0-.21a1.79,1.79,0,0,0,0-.27v-.76Zm-1.37.46V222a2.69,2.69,0,0,1,0,.32c0,.15,0,.27-.05.34s0,.08,0,.14l0,.06-.13.32a.93.93,0,0,1-.56.43l-.15,0-.14,0h-1.76V219.8h1.79l.33.07a.84.84,0,0,1,.51.44,2.3,2.3,0,0,1,.21.71c0,.07,0,.17,0,.3v.41Z"/><path class="cls-2" d="M169.77,224.68v-1H167.4a1.18,1.18,0,0,1-.31-.05.72.72,0,0,1-.26-.14l-.22-.21a.51.51,0,0,1-.14-.21,1.69,1.69,0,0,1-.08-.24,3.28,3.28,0,0,1,0-.6h3.43v-1h-3.43a1.23,1.23,0,0,1,1.4-1.38h2v-1c-1.58,0-2.49,0-2.74,0a4.94,4.94,0,0,0-.63.15,1.94,1.94,0,0,0-.9.68,2.78,2.78,0,0,0-.45,1,6.49,6.49,0,0,0-.13,1.37,2.85,2.85,0,0,0,.11.79,2.93,2.93,0,0,0,.29.73,2.16,2.16,0,0,0,1.35,1h.08l.06,0,.16,0h.19l.52,0Z"/><path class="cls-2" d="M181.42,224.68l-2.52-5.91h-1.31l-2.49,5.91h1.32l.51-1.42h2.57l.54,1.42Zm-2.33-2.46h-1.76l.87-2.26Z"/><path class="cls-2" d="M188.26,224.68v-1a7.72,7.72,0,0,1-2.34-.18.86.86,0,0,1-.46-.72v-4h-1.23c0,3.15.18,4.92.53,5.31a2.25,2.25,0,0,0,1.75.6Z"/><rect class="cls-2" x="191.43" y="218.77" width="1.29" height="5.9"/><polygon class="cls-2" points="202.69 224.68 202.69 218.77 200.88 218.77 199.38 223.29 197.88 218.77 196.05 218.77 196.05 224.68 197.33 224.68 197.2 220.04 198.74 224.68 200.06 224.68 201.57 220.09 201.47 224.68 202.69 224.68"/><path class="cls-2" d="M210.88,224.68v-1H208.5a1.17,1.17,0,0,1-.3-.05.77.77,0,0,1-.27-.14l-.22-.21a.6.6,0,0,1-.13-.21,1,1,0,0,1-.08-.24,2.52,2.52,0,0,1-.06-.6h3.44v-1h-3.44a1.23,1.23,0,0,1,1.4-1.38h2v-1c-1.59,0-2.5,0-2.74,0a4.94,4.94,0,0,0-.63.15,1.89,1.89,0,0,0-.9.68,2.62,2.62,0,0,0-.45,1A6.49,6.49,0,0,0,206,222a3.28,3.28,0,0,0,.1.79,3,3,0,0,0,.31.73,2.09,2.09,0,0,0,1.34,1h.08s0,0,.06,0l.16,0h.18l.53,0Z"/><polygon class="cls-2" points="219.66 224.68 219.66 218.77 218.41 218.77 218.46 223.03 216.06 218.77 214.48 218.77 214.48 224.68 215.75 224.68 215.7 220.22 218.23 224.68 219.66 224.68"/><polygon class="cls-2" points="227.84 219.81 227.84 218.79 222.76 218.79 222.76 219.81 224.65 219.81 224.65 224.68 225.94 224.68 225.94 219.81 227.84 219.81"/><path class="cls-2" d="M236.48,222.15a7.61,7.61,0,0,0,0-1,7.27,7.27,0,0,0-.13-.75,2.22,2.22,0,0,0-1.06-1.39,4,4,0,0,0-1.94-.38,2.58,2.58,0,0,0-2,.79,3.17,3.17,0,0,0-.73,2.28,3.25,3.25,0,0,0,.73,2.31,2.88,2.88,0,0,0,2.22.78,3.94,3.94,0,0,0,1.32-.2,2.13,2.13,0,0,0,.91-.58,2.6,2.6,0,0,0,.73-1.87Zm-1.35-.42a2.72,2.72,0,0,1-.33,1.44,1.17,1.17,0,0,1-.92.62,4.36,4.36,0,0,1-.75,0l-.41-.12a.86.86,0,0,1-.43-.32,1.56,1.56,0,0,1-.21-.48,4.58,4.58,0,0,1-.16-1.3,2.16,2.16,0,0,1,.34-1.23,1.63,1.63,0,0,1,2.54,0,2.65,2.65,0,0,1,.33,1.44Z"/><path class="cls-2" d="M245.09,223.21a4,4,0,0,0-.08-1,1,1,0,0,0-.28-.53l-.18-.15-.14-.1a.85.85,0,0,0-.37-.15l-.17,0-.21,0h-.46a7.14,7.14,0,0,1-2.2-.16.62.62,0,0,1-.23-.53A.65.65,0,0,1,241,220a1.14,1.14,0,0,1,.7-.18h3.07v-1.06h-3.26a2.39,2.39,0,0,0-1.49.39,1.8,1.8,0,0,0-.59,1.52,1.42,1.42,0,0,0,.94,1.44,4.37,4.37,0,0,0,1.35.15h.69a2,2,0,0,1,1.2.21.24.24,0,0,1,.06.11.34.34,0,0,1,.06.15,2.74,2.74,0,0,1,0,.37.46.46,0,0,1-.3.41,1.54,1.54,0,0,1-.66.11h-3.1v1.06c2.86,0,4.46-.13,4.79-.38a1.29,1.29,0,0,0,.57-1.09Z"/><path class="cls-2" d="M181.42,224.68l-2.52-5.91h-1.31l-2.49,5.91h1.32l.51-1.42h2.57l.54,1.42Zm-2.33-2.46h-1.76l.87-2.26Z"/><path class="cls-2" d="M188.26,224.68v-1a7.72,7.72,0,0,1-2.34-.18.86.86,0,0,1-.46-.72v-4h-1.23c0,3.15.18,4.92.53,5.31a2.25,2.25,0,0,0,1.75.6Z"/><rect class="cls-2" x="191.43" y="218.77" width="1.29" height="5.9"/><polygon class="cls-2" points="202.69 224.68 202.69 218.77 200.88 218.77 199.38 223.29 197.88 218.77 196.05 218.77 196.05 224.68 197.33 224.68 197.2 220.04 198.74 224.68 200.06 224.68 201.57 220.09 201.47 224.68 202.69 224.68"/><path class="cls-2" d="M210.88,224.68v-1H208.5a1.17,1.17,0,0,1-.3-.05.77.77,0,0,1-.27-.14l-.22-.21a.6.6,0,0,1-.13-.21,1,1,0,0,1-.08-.24,2.52,2.52,0,0,1-.06-.6h3.44v-1h-3.44a1.23,1.23,0,0,1,1.4-1.38h2v-1c-1.59,0-2.5,0-2.74,0a4.94,4.94,0,0,0-.63.15,1.89,1.89,0,0,0-.9.68,2.62,2.62,0,0,0-.45,1A6.49,6.49,0,0,0,206,222a3.28,3.28,0,0,0,.1.79,3,3,0,0,0,.31.73,2.09,2.09,0,0,0,1.34,1h.08s0,0,.06,0l.16,0h.18l.53,0Z"/><polygon class="cls-2" points="219.66 224.68 219.66 218.77 218.41 218.77 218.46 223.03 216.06 218.77 214.48 218.77 214.48 224.68 215.75 224.68 215.7 220.22 218.23 224.68 219.66 224.68"/><polygon class="cls-2" points="227.84 219.81 227.84 218.79 222.76 218.79 222.76 219.81 224.65 219.81 224.65 224.68 225.94 224.68 225.94 219.81 227.84 219.81"/><path class="cls-2" d="M236.48,222.15a7.61,7.61,0,0,0,0-1,7.27,7.27,0,0,0-.13-.75,2.22,2.22,0,0,0-1.06-1.39,4,4,0,0,0-1.94-.38,2.58,2.58,0,0,0-2,.79,3.17,3.17,0,0,0-.73,2.28,3.25,3.25,0,0,0,.73,2.31,2.88,2.88,0,0,0,2.22.78,3.94,3.94,0,0,0,1.32-.2,2.13,2.13,0,0,0,.91-.58,2.6,2.6,0,0,0,.73-1.87Zm-1.35-.42a2.72,2.72,0,0,1-.33,1.44,1.17,1.17,0,0,1-.92.62,4.36,4.36,0,0,1-.75,0l-.41-.12a.86.86,0,0,1-.43-.32,1.56,1.56,0,0,1-.21-.48,4.58,4.58,0,0,1-.16-1.3,2.16,2.16,0,0,1,.34-1.23,1.63,1.63,0,0,1,2.54,0,2.65,2.65,0,0,1,.33,1.44Z"/><path class="cls-2" d="M245.09,223.21a4,4,0,0,0-.08-1,1,1,0,0,0-.28-.53l-.18-.15-.14-.1a.85.85,0,0,0-.37-.15l-.17,0-.21,0h-.46a7.14,7.14,0,0,1-2.2-.16.62.62,0,0,1-.23-.53A.65.65,0,0,1,241,220a1.14,1.14,0,0,1,.7-.18h3.07v-1.06h-3.26a2.39,2.39,0,0,0-1.49.39,1.8,1.8,0,0,0-.59,1.52,1.42,1.42,0,0,0,.94,1.44,4.37,4.37,0,0,0,1.35.15h.69a2,2,0,0,1,1.2.21.24.24,0,0,1,.06.11.34.34,0,0,1,.06.15,2.74,2.74,0,0,1,0,.37.46.46,0,0,1-.3.41,1.54,1.54,0,0,1-.66.11h-3.1v1.06c2.86,0,4.46-.13,4.79-.38a1.29,1.29,0,0,0,.57-1.09Z"/><path class="cls-3" d="M179,97.81C166,95.94,162.82,101,159.29,112.38c-33.87-13.35-53.13,10.74-47,36.27C92.48,106.18,139.29,67,179,97.81Z"/><path class="cls-1" d="M130.41,132.75c4.34-11.5,12.24-16.17,26.43-10.46-1.23,7-3,14-6.52,20.69-7.38,11.49-25.45,6.08-19.91-10.23Z"/><path class="cls-1" d="M119.87,158.89c11,8.69,35.39,7.72,44.06-13.81,4.54-11.3,8.71-29.87,16.36-45.81,35.87,38.22-14.91,98-60.42,59.62Z"/><rect class="cls-4" width="300" height="300"/></g></g></svg>