<svg xmlns="http://www.w3.org/2000/svg" viewBox="0 0 300 300"><defs><style>.cls-1,.cls-2,.cls-3{fill:#9b9b9b;}.cls-2{font-size:34.3px;font-family:Sacramento-Regular, Sacramento;}.cls-3{font-size:7.98px;font-family:Humanist777BT-BlackCondensedB, Humnst777 BlkCn BT;letter-spacing:1em;}.cls-4{fill:#d3d3d3;}.cls-5{fill:none;}</style></defs><title>logo15</title><g id="Layer_2" data-name="Layer 2"><g id="Layer_1-2" data-name="Layer 1"><path class="cls-1" d="M83.05,150.46a1.51,1.51,0,0,1-2.55,1.06,1.53,1.53,0,0,1,0-2.12,1.75,1.75,0,0,1,.48-.32,1.55,1.55,0,0,1,1.16,0,1.75,1.75,0,0,1,.48.32A1.49,1.49,0,0,1,83.05,150.46Zm-3,4.86a.7.7,0,0,1,.2-.4.59.59,0,0,1,.86,0c.24.28.15.69.13,1a17.64,17.64,0,0,1-.73,2.08c-.25.63-.53,1.07-.75,1.61m.2-.52c-1.79,3.44,1,3.59,1.49,3.28a5.2,5.2,0,0,0,1-.92,11.15,11.15,0,0,0,1-1.42,20.5,20.5,0,0,0,1-1.84.64.64,0,0,1,.23-.26.62.62,0,0,1,.76.11.64.64,0,0,1,.11.71c-.13.25-.3.55-.49.92s-.42.73-.68,1.11-.52.76-.82,1.14a7.71,7.71,0,0,1-1,1,4.52,4.52,0,0,1-1.07.73,2.69,2.69,0,0,1-3.37-.86c-1.54-2.51,1.82-5.87,2-8m1.86-4.34a.53.53,0,0,0-.18-.4.55.55,0,0,0-.79,0,.56.56,0,0,0,.79.79A.51.51,0,0,0,82.14,150.46Z"/><path class="cls-1" d="M97.2,158.75l-.27.55c-.13.28-.31.6-.52,1a12.24,12.24,0,0,1-.75,1.13,7.07,7.07,0,0,1-1,1.09,5.57,5.57,0,0,1-1.13.81A2.54,2.54,0,0,1,90.7,163a3.59,3.59,0,0,1-.94-1.52A4.78,4.78,0,0,1,88.43,163a2.58,2.58,0,0,1-3.47-.3,2.7,2.7,0,0,1-.53-.94,5.12,5.12,0,0,1,1.35-5.06,4.58,4.58,0,0,1,1.48-1,3.7,3.7,0,0,1,3.23.12,3.24,3.24,0,0,1,.47.3,1.18,1.18,0,0,1,.18.16.62.62,0,0,1,0,.87.61.61,0,0,1-.87,0l-.15-.12a1.91,1.91,0,0,0-.31-.19,2.32,2.32,0,0,0-.47-.17,2.72,2.72,0,0,0-1.69.15,3,3,0,0,0-1.05.72,4,4,0,0,0-.8,1.21,4.06,4.06,0,0,0-.25,2.36,1.64,1.64,0,0,0,.23.58,1.29,1.29,0,0,0,.44.43,1.45,1.45,0,0,0,1.37,0,2.73,2.73,0,0,0,.74-.61,4.78,4.78,0,0,0,.64-1,5.4,5.4,0,0,0,.4-1.48.63.63,0,0,1,.21-.39.61.61,0,0,1,.83,0,.68.68,0,0,1,.19.41c0,.21,0,.5.06.88a6.33,6.33,0,0,0,.22,1.12,2.92,2.92,0,0,0,.52,1,1.39,1.39,0,0,0,1.73.19,4.77,4.77,0,0,0,1.46-1.37c.22-.3.43-.6.61-.9s.35-.61.5-.89l.36-.74a.62.62,0,0,1,1.14.49Z"/><path class="cls-1" d="M99.71,161.85l.61-1.19c.23-.43.47-.87.74-1.31s.53-.88.82-1.32.6-.85.91-1.24a3.23,3.23,0,0,1,1-.83,1.63,1.63,0,0,1,2.17.37,3.12,3.12,0,0,1,.39,2c0,.21,0,.42,0,.65s0,.46-.05.7c0,.73-.18,2,.5,2.47s1.34,0,1.77-.32a7,7,0,0,0,1.09-1.15,11,11,0,0,0,.87-1.35,12.24,12.24,0,0,0,.55-1.12.6.6,0,0,1,.24-.28.63.63,0,0,1,.91.77c0,.09-.13.27-.27.55s-.3.58-.51.94a8,8,0,0,1-2.8,3,2.56,2.56,0,0,1-2.46,0,2.1,2.1,0,0,1-.72-.76,3.14,3.14,0,0,1-.35-1,6.84,6.84,0,0,1-.06-1.69q0-.32.06-.66c0-.23,0-.46.07-.69,0-.38.14-1-.14-1.37s-.63-.13-.9.12a5.73,5.73,0,0,0-.7.79,21.81,21.81,0,0,0-1.48,2.33c-.22.4-.43.79-.62,1.16s-.34.66-.45.91a2.5,2.5,0,0,1-.66.92,1.13,1.13,0,0,1-1.43,0,1.48,1.48,0,0,1-.25-1.26c0-.22,0-.49.08-.8s.06-.65.1-1l.09-1.07c0-.36.06-.69.09-1a11.45,11.45,0,0,0,0-1.55.86.86,0,0,0-.13-.46c-.1,0-.28.23-.53.61a13.69,13.69,0,0,0-1,2A.55.55,0,0,1,97,159a.63.63,0,0,1-.79-.09.67.67,0,0,1-.11-.68,11.7,11.7,0,0,1,1.38-2.58c.44-.56,1.21-1.15,1.93-.64a1.83,1.83,0,0,1,.64,1.19,10.55,10.55,0,0,1-.07,3l-.12,1.42C99.78,161.14,99.74,161.54,99.71,161.85Z"/><path class="cls-1" d="M121.73,158.79c-.32.58-.61,1.17-1,1.73a9.69,9.69,0,0,1-2.24,2.41,7.1,7.1,0,0,1-1.61.87,4.77,4.77,0,0,1-3.6,0c-2.2-1-2.66-4-2-6.1a5,5,0,0,1,.76-1.5,4,4,0,0,1,1.12-1,2.73,2.73,0,0,1,2.35-.18,2.32,2.32,0,0,1,.74.51,2.12,2.12,0,0,1,.56,2.11,1.75,1.75,0,0,1-.55.92.59.59,0,0,1-.81,0,.62.62,0,0,1-.12-.67l.14-.2a1.71,1.71,0,0,0,.13-.27.92.92,0,0,0-.27-1,1.41,1.41,0,0,0-1.68,0,2.49,2.49,0,0,0-.73.75,3.77,3.77,0,0,0-.5,1.09,4.86,4.86,0,0,0,0,2.62,3.38,3.38,0,0,0,.49,1.07,2.59,2.59,0,0,0,.83.75,3.41,3.41,0,0,0,2.83,0,6.76,6.76,0,0,0,1.38-.81,7,7,0,0,0,1.09-1.08,8.25,8.25,0,0,0,1.56-2.48.62.62,0,0,1,.22-.26.65.65,0,0,1,.79.11A.68.68,0,0,1,121.73,158.79Z"/><path class="cls-1" d="M133.28,158.75l-.27.55c-.13.28-.31.6-.52,1s-.46.74-.75,1.13a7.07,7.07,0,0,1-1,1.09,5.86,5.86,0,0,1-1.13.81,2.54,2.54,0,0,1-2.88-.29,3.59,3.59,0,0,1-.94-1.52,4.78,4.78,0,0,1-1.33,1.48,2.58,2.58,0,0,1-3.47-.3,2.7,2.7,0,0,1-.53-.94,5.12,5.12,0,0,1,1.35-5.06,4.58,4.58,0,0,1,1.48-1,3.7,3.7,0,0,1,3.23.12,3.24,3.24,0,0,1,.47.3,1.18,1.18,0,0,1,.18.16.63.63,0,0,1,0,.87.61.61,0,0,1-.87,0l-.15-.12a1.91,1.91,0,0,0-.31-.19,2.32,2.32,0,0,0-.47-.17,2.72,2.72,0,0,0-1.69.15,3,3,0,0,0-1,.72,4,4,0,0,0-.8,1.21,4.06,4.06,0,0,0-.25,2.36,1.64,1.64,0,0,0,.23.58,1.21,1.21,0,0,0,.44.43,1.45,1.45,0,0,0,1.37,0,2.73,2.73,0,0,0,.74-.61,5.21,5.21,0,0,0,.64-1,5.4,5.4,0,0,0,.4-1.48.63.63,0,0,1,.21-.39.62.62,0,0,1,.83,0,.68.68,0,0,1,.19.41c0,.21,0,.5.06.88A6.33,6.33,0,0,0,127,161a2.92,2.92,0,0,0,.52,1,1.39,1.39,0,0,0,1.73.19,4.77,4.77,0,0,0,1.46-1.37c.22-.3.43-.6.61-.9s.35-.61.49-.89.27-.53.37-.74a.62.62,0,0,1,1.14.49Z"/><path class="cls-1" d="M70.64,151.93a11.43,11.43,0,0,1,4.08,2A5.33,5.33,0,0,1,75.79,155a6.1,6.1,0,0,1,.61,1.1,4.9,4.9,0,0,1-1.28,5.37,7,7,0,0,1-1.71,1.17,13.28,13.28,0,0,1-2,.77,14.28,14.28,0,0,1-2.18.45,17.47,17.47,0,0,1-9-1.26.62.62,0,0,1-.2-1,.64.64,0,0,1,.67-.12,17.39,17.39,0,0,0,3.13,1,15.5,15.5,0,0,0,7-.1,8.31,8.31,0,0,0,2.61-1.12A4.8,4.8,0,0,0,75,159.65a3.51,3.51,0,0,0-.06-3.63,5.43,5.43,0,0,0-1.56-1.53A10.27,10.27,0,0,0,71,153.34a17,17,0,0,0-3.13-.7c-.75.13-1.48.22-2.19.28s-1.37.08-2,.08h-.38l-.21,0a20.83,20.83,0,0,1-2.81,4.91,18.3,18.3,0,0,1-3.48,3.41c-3.78,2.78-9.7,4-13.58.67a6.69,6.69,0,0,1-1.73-2.31,8.82,8.82,0,0,1,.05-6.62,16.68,16.68,0,0,1,2-3.78A20,20,0,0,1,46.38,146a22.66,22.66,0,0,1,3.27-2.52,24.37,24.37,0,0,1,3.54-1.85A26.94,26.94,0,0,1,68,139.79a8.91,8.91,0,0,1,1-.94l.41-.32a.61.61,0,0,1,.94.41c0,.46-.57.87-.85,1.14,3.68.91,7.56,3.72,5.78,8A6.13,6.13,0,0,1,72.57,151,10.91,10.91,0,0,1,70.64,151.93Zm-20.3-7.4c-4.87,2.61-7.71,8.07-7.65,8.88a7.68,7.68,0,0,0-.1,5.77,5.19,5.19,0,0,0,1.47,1.91c2.33,1.92,5.81,1.95,8.55,1a12.48,12.48,0,0,0,3.4-1.78,18.15,18.15,0,0,0,5.75-7.44,1.31,1.31,0,0,1-.61-.17.63.63,0,0,1,.07-1.12,4.52,4.52,0,0,1,1.18-.28c.29-.9.59-1.79.9-2.69s.64-1.78,1-2.66.78-1.73,1.23-2.58a20,20,0,0,1,1.55-2.48c-.55-.08-1.13-.13-1.72-.16a25,25,0,0,0-8.24.83,26.5,26.5,0,0,0-3.44,1.19,24.42,24.42,0,0,0-3.36,1.75m17.5,6.86a14.11,14.11,0,0,0,3-.86,9,9,0,0,0,1.38-.72,4.92,4.92,0,0,0,1.14-1,4.69,4.69,0,0,0,.77-1.27,4,4,0,0,0-1.24-4.64,10.27,10.27,0,0,0-4.37-1.77A19.19,19.19,0,0,0,67,143.39a27.88,27.88,0,0,0-1.32,2.55c-.41.88-.77,1.77-1.09,2.68a25.57,25.57,0,0,0-.8,2.61c.82,0,1.66,0,2.48,0C66.72,151.28,67.26,151.33,67.84,151.39Z"/><text class="cls-2" transform="translate(177.9 163.67)">Nunes</text><text class="cls-3" transform="translate(78.93 183.68)">MAKEUP ARTIST</text><g id="_Group_" data-name="&lt;Group&gt;"><path id="_Path_" data-name="&lt;Path&gt;" class="cls-1" d="M146.45,150.69s-14-3.29-16-13.66c-1.83-10.69,14.77-18.47,25.47-13.74s13.28,16.77,13.28,16.77-7.24-21-25.36-14.49c-16,5.67-11.25,15.75-6.56,20.5C139.11,147.94,146.45,150.69,146.45,150.69Z"/><path id="_Path_2" data-name="&lt;Path&gt;" class="cls-1" d="M156.09,123.38c9.44-12.24,20-7,22.21,3.94,2.45,12.62-3.54,20.61-4.32,21.61,6.92-10.23,2.22-22.56,2.22-22.56s-5.91-16.1-17.69-1.69C158,125.4,155,125.54,156.09,123.38Z"/><path id="_Path_3" data-name="&lt;Path&gt;" class="cls-1" d="M146.72,151.49c-6,2.27-6.17,8.69-6.31,9.84-.24,11.68,9.65,7.64,15,3.66a110.74,110.74,0,0,1,14-8.25s-7.7,4.75-10,7.89c-10.23,11-19.75,10.07-20.5-1.23C138.6,155.4,145.46,151.06,146.72,151.49Z"/><path id="_Path_4" data-name="&lt;Path&gt;" class="cls-1" d="M168,164.31a40.76,40.76,0,0,1,.92-8.56,8.85,8.85,0,0,1,1.25-2.56,5.39,5.39,0,0,0,.21-6.81.4.4,0,0,1,.5-.16c.47.67,1.44,3.69.73,5.1,4-4.89,6.44-5.68,6.44-5.68a.92.92,0,0,1,.2.48,14.52,14.52,0,0,0-8.18,9.58A24.7,24.7,0,0,0,168,164.31Z"/></g><path class="cls-4" d="M145.72,155.82c-1.43,2.65-1.79,6.73,0,8.12,3.14,2.45,11.86-4.15,19.28-9.77,2.24-1.7,2.71-2.22,2.59-2.68C167,149.05,150.14,147.66,145.72,155.82Z"/><path class="cls-4" d="M140.61,135.46c-2.2,5.28,3.94,12.72,8.86,12.87.77,0,1.15-.14,4-1.32,9.36-3.8,12.75-.89,13.09-1.81,1.19-3.26-7.07-13.1-14-14.23C148.61,130.31,142.36,131.26,140.61,135.46Z"/><path class="cls-4" d="M165.27,124.86c1-1.52,3.41-2.94,6,0,4.3,5,3,14.54,1.39,14.07-.41-.12-.06-2.43-3.21-7.52C166,126,164.27,126.65,165.27,124.86Z"/><rect class="cls-5" width="300" height="300"/></g></g></svg>