<svg xmlns="http://www.w3.org/2000/svg" viewBox="0 0 300 300"><defs><style>.cls-1{fill:#9b9b9b;}.cls-2{fill:#d3d3d3;}.cls-3{fill:none;}</style></defs><title>logo31</title><g id="Layer_2" data-name="Layer 2"><g id="Layer_1-2" data-name="Layer 1"><path class="cls-1" d="M103.42,163.7l23,1.63c-.17,4.33,4.13,7,2.81,10.75-5.89,16.78-22.46,27.24-42,27.24-29.82,0-46.26-23.42-46.95-50.48,0-27.27,12.66-54.92,44.37-55.74,29,0,47.92,16.65,48.26,45.4l-29.63.1c0-8.15-4.38-22.36-14.83-22.36C75.64,120.24,73,141.49,73,150.76c.14,9,2.51,29.61,15.17,30,10.58.34,15.4-11.8,15.4-17.08"/><path class="cls-1" d="M205.06,119.1v19.74h13.79c3.32,0,5.89-1,7.68-2.83a10.17,10.17,0,0,0-.13-14,10.37,10.37,0,0,0-7.83-3ZM175.81,96.79h49.61a39.43,39.43,0,0,1,18.13,3.9,27.13,27.13,0,0,1,11.58,10.89,34.75,34.75,0,0,1,4.27,16.33A36.58,36.58,0,0,1,257.65,139a27.52,27.52,0,0,1-5.6,9.88,23.86,23.86,0,0,1-9.5,6.59l17.13,45.13H227.83l-14.29-39.85h-8.48v36.56H175.81Z"/><path class="cls-2" d="M186.82,174.22c14.59-10,17-18.48,18.44-37.13L175.85,137c.92,8.46-3.58,14.73-7,18.25l-8.5-8.74a28.75,28.75,0,0,0,9.84-6.05,26.32,26.32,0,0,0,6.21-8.8,25.53,25.53,0,0,0,2.09-10.08,21.72,21.72,0,0,0-4.48-14,26.29,26.29,0,0,0-11.62-8.3,43.12,43.12,0,0,0-15.09-2.64q-10.4,0-17.38,3.61a24,24,0,0,0-10.26,9.5,27.32,27.32,0,0,0-3.47,12.68,31.21,31.21,0,0,0,2.46,10.87,21.18,21.18,0,0,0,6,8.18q-22.77,7.36-22.75,29.74a24.88,24.88,0,0,0,5.86,16.17,33.29,33.29,0,0,0,14.45,9.72,55.14,55.14,0,0,0,18.46,3.12,53.7,53.7,0,0,0,16.45-2.44c5.13-1.63,9-3.81,11.5-6.49,4.63,7.43,14.18,9.94,22,9.39,7.1-.5,11.78-1.5,14.4-3.57v-23.4c-1.24,0-5.79,3.37-9,3.39A13.89,13.89,0,0,1,186.82,174.22Zm-44.41,4.69a13.43,13.43,0,0,1-8.74-3.66,10.36,10.36,0,0,1-3.75-7.79q.47-7,7.31-11.14l16.31,18.05A18.49,18.49,0,0,1,142.41,178.91ZM149.32,132q-7-5.35-7.31-10.55a6.17,6.17,0,0,1,2.22-4.86,7.45,7.45,0,0,1,4.81-1.74,6.93,6.93,0,0,1,5,2.18,7.66,7.66,0,0,1,2.16,5.59Q156.21,127.9,149.32,132Z"/><rect class="cls-3" width="300" height="300"/></g></g></svg>