<svg xmlns="http://www.w3.org/2000/svg" viewBox="0 0 300 300"><defs><style>.cls-1{fill:#d3d3d3;}.cls-1,.cls-2{fill-rule:evenodd;}.cls-2,.cls-3{fill:#9b9b9b;}.cls-4{fill:none;}</style></defs><title>logo17</title><g id="Layer_2" data-name="Layer 2"><g id="Layer_1-2" data-name="Layer 1"><path class="cls-1" d="M76.18,128.84c.38,0,.75,0,1.12,0a18.74,18.74,0,0,0-3,.06l.71-2.06,3.91.11.57,2.16a18.08,18.08,0,0,1,9.24,4.72c-.29-.28-.59-.55-.91-.81l2-1,2.69,2.85-1.19,2A18.08,18.08,0,0,1,94.37,147c0,.4,0,.8,0,1.19a17.31,17.31,0,0,0,0-2.79l2.31.79-.12,3.91-2.51.66a18.16,18.16,0,0,1-5.26,9.41,22.91,22.91,0,0,0-25.09,0A18.11,18.11,0,0,1,58,147c0-.45,0-.9,0-1.34a18.29,18.29,0,0,0,.08,3.63l-2.46-.85.11-3.91,2.49-.65a18.1,18.1,0,0,1,5-9.72,16.38,16.38,0,0,0-1.41,1.58l-1-2.11L63.71,131l2,1.17a18.1,18.1,0,0,1,10.47-3.31Zm0,12.68A5.52,5.52,0,1,1,70.67,147a5.52,5.52,0,0,1,5.51-5.51Z"/><path class="cls-2" d="M101.37,122.34a35.14,35.14,0,1,1-50.47,0A35.28,35.28,0,0,0,61,129.6a22.92,22.92,0,1,0,30.31,0,35.28,35.28,0,0,0,10.08-7.26Z"/><path class="cls-3" d="M121.4,139.61v19.13a10.18,10.18,0,0,0,20.36,0V139.61h-6.1v19.13a4.09,4.09,0,0,1-8.17,0V139.61Zm33.39,11.24a2.7,2.7,0,0,1,0-5.4h9.08v-5.84h-9.52a8.45,8.45,0,0,0-8.43,8.46,8.6,8.6,0,0,0,8.43,8.66H158a2.74,2.74,0,1,1,0,5.48H147.35v6h11.33a8.75,8.75,0,0,0,8.58-8.78,8.61,8.61,0,0,0-8.58-8.59Zm16.89,17.37h6.13V139.61h-6.13Zm26.6-5.35,2.21,5.35H207l-12.84-29.14-12.83,29.14h6.5l2.29-5.35Zm-2.08-5.48h-4l2-4.95Zm35.48-7.24a10.58,10.58,0,0,0-10.59-10.54H210.51v28.61h6.12V160.5h3.77c3.11,0,5.15,2.49,5.15,5.52v2.2h6.13V166a9.39,9.39,0,0,0-4-8.3c2.09-1.64,4-3.73,4-7.57Zm-6.25,0a4.92,4.92,0,0,1-4.91,4.87h-3.89v-9.77h3.89a4.92,4.92,0,0,1,4.91,4.9Zm25.87,12.72,2.2,5.35H260l-12.83-29.14-12.84,29.14h6.51l2.28-5.35Zm-2.09-5.48h-4l2-4.95Z"/><rect class="cls-4" width="300" height="300"/></g></g></svg>