<svg xmlns="http://www.w3.org/2000/svg" xmlns:xlink="http://www.w3.org/1999/xlink" viewBox="0 0 300 300"><defs><style>.cls-1{fill:url(#GradientFill_5);}.cls-2,.cls-3{fill:#878787;}.cls-2{fill-rule:evenodd;}.cls-4{fill:none;}</style><radialGradient id="GradientFill_5" cx="150" cy="176.91" r="94.63" gradientUnits="userSpaceOnUse"><stop offset="0" stop-color="#efefef"/><stop offset="1" stop-color="#e2e2e2"/></radialGradient></defs><title>logo9</title><g id="Layer_2" data-name="Layer 2"><g id="Layer_1-2" data-name="Layer 1"><rect class="cls-1" x="59.55" y="149.08" width="180.89" height="55.66" rx="26.04" ry="26.04"/><path class="cls-2" d="M160.49,123.73c.69,3.57-1.18,6.53-2.73,9.41-1.73,2.68-4.58,5-8,4.63a81.2,81.2,0,0,1-22.17-3.39,1.38,1.38,0,0,1-.8-.58,1,1,0,0,1,.34-1c6.37-5.16,13.94-7.55,21.42-10.05,2.8-.81,5.76-1.67,8.9-1.27a3.89,3.89,0,0,1,3.05,2.28Zm26.23-15.26h0c3.57,2.94,6.79,6.94,5.7,11.77-1.79,7.14-9.56,10.94-15.75,13.36a46.52,46.52,0,0,1-10.45,2.62c-.23,0-.6,0-.66-.32l.08-.4a92.79,92.79,0,0,0,12.7-19.23c1.61-3,3.11-6.13,4.49-9.18a1.45,1.45,0,0,1,.64-.44c1.29.12,2.21,1.13,3.25,1.82Zm-50.24-7.6c-.2-.38-.72-.32-1.12-.32a55.49,55.49,0,0,0-11,3c-5.93,2.51-13,6.19-14.8,13.1-1.09,5.3,2.71,9.76,6.91,12.53.84.37,1.73,1.52,2.65.66,4.72-9.93,9.7-19.92,17.28-28.53l.11-.43Zm37.57,1.38a82.15,82.15,0,0,0-22.89-3.17c-3.74.06-6.44,3.54-8,6.51-1.15,2.36-2.48,5.18-1.5,7.89A3.68,3.68,0,0,0,144,115.2c3.94.87,7.51-.69,11.05-1.55,7-2.27,13.79-4.87,19.75-9.53.26-.32.72-.63.49-1.12s-.78-.52-1.21-.75Zm10,.23a56.31,56.31,0,0,0-7.08-3.08,81.8,81.8,0,0,0-35.64-3.54c-11.14,1.52-22,4.17-30.46,11.89-4.06,3.77-6.48,9.44-4.49,14.88,2.59,6.62,9.5,11,15.66,13.59,18.22,7.37,43,7.11,60.66-1.32,6.05-3.05,12.81-8.12,13.65-15.38.72-7.83-6.19-13.7-12.3-17Z"/><path class="cls-2" d="M197.46,165.48c0-1.87.7-3.23,2.55-3.23h11.23v11H197.46v-7.73Zm-8.81-3.56v26.43h8.81v-8.21h13.78v8.21h8.81v-33.9H197.32c-2.18,0-4.76.35-6.33,1.74a5.85,5.85,0,0,0-1.71,2.33A8.89,8.89,0,0,0,188.65,161.92Z"/><path class="cls-2" d="M173.32,168.57h-10.7v-6.32h11.23a2.59,2.59,0,0,1,1.06.22c1.93.81,1.74,4.39.65,5.45a3.19,3.19,0,0,1-2.24.65Zm-10.63,6.93h2.62c.07.26,1.91,2.93,2.1,3.22.65,1,6.08,8.94,6.44,9.63,1.77,0,3.31-.07,5.05-.07h5.18l-8.18-12.13c-.42-.63-.58-.69-.1-.72h.07l-13.18.07Zm13.2-.07a20,20,0,0,0,3.17-.51,12.93,12.93,0,0,0,2.87-1,5.18,5.18,0,0,0,3.17-4.56c.13-.93.22-6.66.11-7.6-.23-2-.52-4.07-2.27-5.47a8.4,8.4,0,0,0-5-1.74c-.42,0-.53-.07-.94-.07H153.81v33.9h8.81c0-1.56-.14-12.31.07-12.85Z"/><rect class="cls-3" x="141.17" y="154.45" width="8.81" height="33.89"/><path class="cls-2" d="M102.5,162.25a3.86,3.86,0,0,1,2.65.93,4.35,4.35,0,0,1,.72,3v22.2h8.81c0-2.58.1-25.65-.07-26.1h8.54a9.66,9.66,0,0,1,3.84.4c1.09.49,1.41,1.35,1.41,2.9,0,7.39-.07,15,0,22.4,0,.53.13.4.68.4h7.46c.51,0,.73.14.75-.33,0-.68,0-1.47,0-2.16V168.78c0-3.91.55-8.39-1.58-11.2a7.54,7.54,0,0,0-2.32-2c-2.3-1.18-4-1.14-7.4-1.14H83.27v33.9h8.81v-26.1Z"/><path class="cls-2" d="M94.19,200.23a.11.11,0,0,1,0,.08.38.38,0,0,1-.11.05l-.21,0H93.2l-.21,0a.38.38,0,0,1-.11-.05.11.11,0,0,1,0-.08v-6.17h0l-3.55,6.2-.07.06a.33.33,0,0,1-.12.05l-.2,0h-.55a.5.5,0,0,1-.19,0,.33.33,0,0,1-.13,0l0-.06-3.41-6.2h0v6.17a.11.11,0,0,1,0,.08.38.38,0,0,1-.11.05l-.21,0h-.65l-.21,0-.1-.05a.11.11,0,0,1,0-.08v-6.51a.35.35,0,0,1,.17-.33.76.76,0,0,1,.39-.1h.83a2.76,2.76,0,0,1,.44,0,1,1,0,0,1,.33.11.63.63,0,0,1,.24.18,1,1,0,0,1,.17.26L88.67,199h0l3-5.11a1.52,1.52,0,0,1,.19-.28.94.94,0,0,1,.5-.28,1.83,1.83,0,0,1,.35,0h.86l.23,0a.75.75,0,0,1,.18.08.49.49,0,0,1,.12.13.33.33,0,0,1,0,.2Z"/><path class="cls-2" d="M122.19,196.57a3.71,3.71,0,0,1-.33,1.59,3.23,3.23,0,0,1-1,1.2,4.79,4.79,0,0,1-1.64.76,10,10,0,0,1-4.53,0,4.33,4.33,0,0,1-1.56-.71,2.85,2.85,0,0,1-.92-1.15,4,4,0,0,1-.3-1.59,3.63,3.63,0,0,1,.33-1.56,3.18,3.18,0,0,1,1-1.19,4.87,4.87,0,0,1,1.64-.75,8.75,8.75,0,0,1,2.3-.27,8.92,8.92,0,0,1,2.2.24,4.64,4.64,0,0,1,1.57.7,2.8,2.8,0,0,1,.93,1.15,3.81,3.81,0,0,1,.31,1.56Zm-1.62.07a3.85,3.85,0,0,0-.17-1.15,2.29,2.29,0,0,0-.58-.92,2.63,2.63,0,0,0-1.07-.6,6.27,6.27,0,0,0-3.33,0,3.1,3.1,0,0,0-1.09.63,2.17,2.17,0,0,0-.6.92,3,3,0,0,0-.19,1.09,4,4,0,0,0,.17,1.18,2.24,2.24,0,0,0,.57.93,2.57,2.57,0,0,0,1.07.6,5.28,5.28,0,0,0,1.67.22,5.06,5.06,0,0,0,1.68-.24,2.79,2.79,0,0,0,1.1-.63,2.33,2.33,0,0,0,.6-.93A3.68,3.68,0,0,0,120.57,196.64Z"/><path class="cls-2" d="M172.75,196.65a3.71,3.71,0,0,1-.33,1.59,3.23,3.23,0,0,1-1,1.2,4.79,4.79,0,0,1-1.64.76,10,10,0,0,1-4.53,0,4.33,4.33,0,0,1-1.56-.71,2.85,2.85,0,0,1-.92-1.15,4,4,0,0,1-.3-1.59,3.63,3.63,0,0,1,.33-1.56,3.18,3.18,0,0,1,1-1.19,4.87,4.87,0,0,1,1.64-.75,8.75,8.75,0,0,1,2.3-.27,8.92,8.92,0,0,1,2.2.24,4.64,4.64,0,0,1,1.57.7,2.8,2.8,0,0,1,.93,1.15,3.81,3.81,0,0,1,.31,1.56Zm-1.62.07a3.85,3.85,0,0,0-.17-1.15,2.29,2.29,0,0,0-.58-.92,2.63,2.63,0,0,0-1.07-.6,5.36,5.36,0,0,0-1.67-.22,5.27,5.27,0,0,0-1.66.23,3.1,3.1,0,0,0-1.09.63,2.23,2.23,0,0,0-.6.92,3.07,3.07,0,0,0-.19,1.1,4,4,0,0,0,.17,1.17,2.24,2.24,0,0,0,.57.93,2.57,2.57,0,0,0,1.07.6,5.28,5.28,0,0,0,1.67.22,5.06,5.06,0,0,0,1.68-.24,2.79,2.79,0,0,0,1.1-.63,2.33,2.33,0,0,0,.6-.93A3.68,3.68,0,0,0,171.13,196.72Z"/><path class="cls-2" d="M146.38,193.68a.9.9,0,0,1,0,.18.31.31,0,0,1-.06.13l-.1.07-.12,0h-3.23v6.3a.13.13,0,0,1,0,.08.32.32,0,0,1-.13,0l-.23,0-.37,0-.36,0-.24,0a.32.32,0,0,1-.13,0,.13.13,0,0,1,0-.08v-6.3h-3.22l-.13,0-.1-.07a.5.5,0,0,1,0-.13.5.5,0,0,1,0-.18.53.53,0,0,1,0-.19.32.32,0,0,1,0-.13.25.25,0,0,1,.1-.08l.13,0h8l.12,0a.25.25,0,0,1,.1.08.23.23,0,0,1,.06.13A.92.92,0,0,1,146.38,193.68Z"/><path class="cls-2" d="M198,200.3a.13.13,0,0,1,0,.08.26.26,0,0,1-.12.06l-.24,0h-.81l-.23,0-.14-.07a.44.44,0,0,1-.08-.11l-1.06-1.71a4.66,4.66,0,0,0-.38-.54,2.16,2.16,0,0,0-.48-.42,2.34,2.34,0,0,0-.64-.28,3.86,3.86,0,0,0-.9-.1h-1v3.1a.1.1,0,0,1,0,.08.33.33,0,0,1-.12.05l-.23,0h-.74l-.24,0a.27.27,0,0,1-.12-.05.12.12,0,0,1,0-.08v-6.72a.32.32,0,0,1,.19-.31.85.85,0,0,1,.38-.09h2.44l.73,0,.51,0a6,6,0,0,1,1.18.23,2.92,2.92,0,0,1,.85.4,1.5,1.5,0,0,1,.52.55,1.37,1.37,0,0,1,.18.69,1.39,1.39,0,0,1-.16.65,1.54,1.54,0,0,1-.45.51,2.89,2.89,0,0,1-.7.38,6.13,6.13,0,0,1-.91.28,2.36,2.36,0,0,1,.51.2,1.8,1.8,0,0,1,.43.29,2.73,2.73,0,0,1,.38.38,4,4,0,0,1,.35.5l1,1.6a2.65,2.65,0,0,1,.16.28.58.58,0,0,1,0,.13Zm-2.3-5.11a1,1,0,0,0-.3-.72,2,2,0,0,0-1-.42c-.15,0-.32,0-.5-.06h-2v2.44h1.49a5.23,5.23,0,0,0,1-.09,2.48,2.48,0,0,0,.73-.26,1.1,1.1,0,0,0,.43-.39A.93.93,0,0,0,195.73,195.19Z"/><path class="cls-2" d="M220.13,198.41a1.44,1.44,0,0,1-.3.9,2.36,2.36,0,0,1-.83.68,4.87,4.87,0,0,1-1.24.42,8.24,8.24,0,0,1-1.54.14,9,9,0,0,1-1.07-.06c-.32-.05-.62-.1-.88-.16s-.47-.12-.64-.18a1.92,1.92,0,0,1-.37-.17.41.41,0,0,1-.15-.17.68.68,0,0,1-.05-.27,1.15,1.15,0,0,1,0-.21.39.39,0,0,1,0-.13.28.28,0,0,1,.09-.07l.13,0a.9.9,0,0,1,.35.1c.15.06.34.13.58.2a6,6,0,0,0,.86.21,5.66,5.66,0,0,0,1.15.1,5,5,0,0,0,.91-.08,3,3,0,0,0,.71-.24,1.25,1.25,0,0,0,.46-.38.91.91,0,0,0,.16-.51.69.69,0,0,0-.22-.52,1.89,1.89,0,0,0-.59-.39,6.45,6.45,0,0,0-.82-.3l-1-.28c-.32-.1-.64-.2-.95-.32a3.93,3.93,0,0,1-.82-.41,2.08,2.08,0,0,1-.59-.55,1.27,1.27,0,0,1-.23-.76,1.32,1.32,0,0,1,.27-.81,2.06,2.06,0,0,1,.72-.6,4,4,0,0,1,1.11-.36,6.74,6.74,0,0,1,1.38-.13,6.62,6.62,0,0,1,.77,0c.26,0,.5.07.73.12a5.83,5.83,0,0,1,.6.15,2.16,2.16,0,0,1,.35.14.39.39,0,0,1,.11.09.28.28,0,0,1,.05.08.36.36,0,0,1,0,.11.92.92,0,0,1,0,.18,1.09,1.09,0,0,1,0,.18.5.5,0,0,1,0,.13.27.27,0,0,1-.07.08l-.12,0a.82.82,0,0,1-.3-.08l-.51-.17a4.71,4.71,0,0,0-.72-.18,4.28,4.28,0,0,0-.92-.09,3.49,3.49,0,0,0-.84.09,2,2,0,0,0-.58.21,1.09,1.09,0,0,0-.35.32.77.77,0,0,0-.11.39.69.69,0,0,0,.22.52,1.89,1.89,0,0,0,.59.39,7.93,7.93,0,0,0,.84.31l1,.28c.32.1.64.2,1,.32a4.08,4.08,0,0,1,.84.4,2.08,2.08,0,0,1,.59.55A1.26,1.26,0,0,1,220.13,198.41Z"/><rect class="cls-4" width="300" height="300"/></g></g></svg>