<svg xmlns="http://www.w3.org/2000/svg" viewBox="0 0 300 300"><defs><style>.cls-1,.cls-4{fill:#939393;}.cls-1,.cls-2,.cls-3{fill-rule:evenodd;}.cls-2{fill:#fefefe;}.cls-3{fill:#d3d3d3;}.cls-5{fill:none;}</style></defs><title>logo12</title><g id="Layer_2" data-name="Layer 2"><g id="Layer_1-2" data-name="Layer 1"><polygon class="cls-1" points="87.35 199.65 231.49 199.65 230.12 207.44 85.99 207.44 87.35 199.65"/><path class="cls-1" d="M183.32,125.52c.66-.38,1.35-.73,2.06-1a21,21,0,0,1,8.38-1.68,18.79,18.79,0,0,1,9.33,2.25,16.27,16.27,0,0,1,6.43,6.82l.22.41,1.41-2.72a11.91,11.91,0,0,1,2.94-4.23,7.71,7.71,0,0,1,2.28-1.3,15.47,15.47,0,0,1,5.54-.56h9l1.1,8.41.4-2.12c.77-4.21,3.87-6.35,8-6.35h11.23l-3.47,18.69h8.31l-2.87,15.37.09.07c4.68,3.43,6.61,8.52,6.61,14.22,0,6.06-2,11.45-6.77,15.35-4.91,4-11.3,5.28-17.51,5.28h-3.12l-2.53,13.86H221.3a18.08,18.08,0,0,1-5.34-.42l0,.18H191.59l-.31-6h-4.41l-2.46,6H163.18a28.82,28.82,0,0,1-3.89,1,27.83,27.83,0,0,1-14.09-1.14,25,25,0,0,1-7.94-4.64,23.43,23.43,0,0,1-6.12-8.45A26.24,26.24,0,0,1,129,182.28a32.13,32.13,0,0,1,1.79-10.78c1.2-3.4,1.3-5.5,3.64-8.24a28.65,28.65,0,0,1,4.05-3.9l-8-1,5.28-28.62c.78-4.21,3.88-6.35,8-6.35H155l-3.47,18.69h2.18l2.14-11.27c.81-4.31,4-7.42,8.53-7.42H183.7Z"/><polygon class="cls-1" points="38 207.43 118.52 115.23 162.25 207.43 38 207.43"/><path class="cls-2" d="M202.71,154.35l12-23a9.24,9.24,0,0,1,1.93-3,4.21,4.21,0,0,1,1.16-.68,14.49,14.49,0,0,1,4.14-.29h5.47l3.51,26.9h-9.57l-.19-3.59h-6.46l-1.48,3.59Zm-67.46,0,4.41-23.91c.48-2.3,1.91-3,4.1-3.09h6.44l-3.47,18.69H155l-1.55,8.31Zm20.19,0,.71-3.79.08-.37,3.53-18.66a4.7,4.7,0,0,1,4.62-4.17h14.55l-1.33,7.32h-8.79l-.5,2.59h8.27l-1.24,6.85h-8.27l-.53,2.92h9.59l-.66,3.56c-.38,2.56-1.66,3.81-4.5,3.75Zm76.44,0,4.4-23.91c.49-2.3,1.91-3,4.11-3.08h6.43l-3.46,18.68h8.3l-1.55,8.31Zm-28.82-3.13a22.47,22.47,0,0,1-5.66,2.89,18.09,18.09,0,0,1-5.83,1,13.76,13.76,0,0,1-9.81-3.51,11.89,11.89,0,0,1-3.75-9.14,16.89,16.89,0,0,1,.94-5.66,15.31,15.31,0,0,1,2.77-4.76,13.83,13.83,0,0,1,5.25-3.9,16.63,16.63,0,0,1,6.79-1.35,14.82,14.82,0,0,1,7.37,1.73A12.27,12.27,0,0,1,206,133.7l-8.75,3.24a4.45,4.45,0,0,0-1.61-1.44,4.74,4.74,0,0,0-2.11-.45,5.27,5.27,0,0,0-4.21,1.88,7.24,7.24,0,0,0-1.62,4.88,5.48,5.48,0,0,0,1.47,4,5.14,5.14,0,0,0,3.88,1.52,5.58,5.58,0,0,0,.7,0,5.78,5.78,0,0,0,.7-.08l.49-2.64h-3.5l1.13-6.12h12.84Zm14.27-6.85h3.44l-.12-2.88c0-.16,0-.38,0-.68-.06-1.2-.09-2.16-.09-2.9v-1.12c0-.28,0-.52,0-.75-.22.71-.45,1.42-.68,2.07s-.45,1.27-.65,1.81Z"/><path class="cls-3" d="M164.11,202l20.12-38.54c.88-1.68,1.78-3.82,3.23-5a7.21,7.21,0,0,1,2-1.13c1.8-.68,5.13-.49,7-.49h9.17l5.9,45.16H195.37l-.32-6H184.2l-2.47,6Zm24.56-16.69h5.77l-.18-4.84c0-.26,0-.65-.07-1.13-.09-2-.15-3.66-.15-4.88,0-.83,0-1.45,0-1.89s0-.88.05-1.26c-.38,1.21-.76,2.38-1.15,3.49s-.75,2.13-1.1,3Z"/><path class="cls-3" d="M165.79,185.62l-3.06,16.31a25.58,25.58,0,0,1-4.15,1.16,23.63,23.63,0,0,1-4.12.36,22.88,22.88,0,0,1-7.9-1.34,21.18,21.18,0,0,1-6.69-3.9,19.54,19.54,0,0,1-5.08-7,22.23,22.23,0,0,1-1.8-8.9,28,28,0,0,1,1.56-9.45,24.9,24.9,0,0,1,4.65-8,24.06,24.06,0,0,1,8.82-6.57,28.49,28.49,0,0,1,17.29-1.63,23.68,23.68,0,0,1,5.48,1.94l-1.24,6.6a7,7,0,0,1-7,6.13,8.68,8.68,0,0,1-1.26-.11,13.83,13.83,0,0,0-2.3-.2,9.58,9.58,0,0,0-7,2.7,9.33,9.33,0,0,0-2.73,6.93,7.53,7.53,0,0,0,2.16,5.65,7.79,7.79,0,0,0,5.74,2.09,14,14,0,0,0,4.24-.72,19.71,19.71,0,0,0,4.37-2Z"/><path class="cls-3" d="M216,201.55a7,7,0,0,1-3.81-5.19,12.24,12.24,0,0,1,.37-4.38l5-27.15a13.93,13.93,0,0,1,1-4,7,7,0,0,1,4.55-3.58,16,16,0,0,1,3.73-.19h9.51q10,0,15,3.65c3.32,2.45,5,6.11,5,11q0,7.89-5.32,12.28t-15,4.37h-6.44L227,202.25H221.3c-1.93,0-3.5.21-5.35-.7Zm15.84-24.93H233a9.94,9.94,0,0,0,5.28-1.1,3.67,3.67,0,0,0,1.72-3.34,2.63,2.63,0,0,0-1.42-2.49,9.79,9.79,0,0,0-4.56-.79h-.78Z"/><polygon class="cls-2" points="114.84 159.15 119.49 147.66 116.86 140.21 110.18 131.82 105.21 122.35 105.98 102.94 108.31 91.45 103.18 83.38 96.36 84.78 88.13 93.47 82.23 108.85 84.87 119.24 89.06 127.94 77.57 129.33 60.18 133.06 49.62 138.96 45.89 146.88 48.07 155.26 56.91 162.87 53.66 167.22 51.02 174.37 53.5 177.78 57.39 182.75 61.89 185.39 63.91 192.53 66.7 200.14 73.07 203.71 79.89 204.48 86.57 204.33 94.64 200.91 101.16 195.64 104.59 190.82 109.86 189.27 114.21 183.37 116.23 174.98 115.14 165.98 113.28 161.64 114.84 159.15"/><path class="cls-1" d="M103.9,194c12.41-5.16,19-13.81,10.65-31.34,5.22-7.35,7.42-14.78,3.48-22.43-4.87-9.47-11.27-8.31-11.55-22.33-.24-11.66,5.68-23,2.93-29.63-2.94-7-13.77-9.86-22.87,3.71-8.34,12.4-8.8,22.82.35,35.25-18.53-1.19-36.59,5.45-41.26,17-2.92,7.05.23,13.76,9,18.48-9.34,8.77-3.67,18,5.26,22.19-3.06,19.51,27.37,30.53,44,9.15ZM88.75,151.45a7.92,7.92,0,0,0-.33-.8c4-2.29,7.62-4.3,10.57-4.94,4.51-1,6.35,1.46,6.87,5.57.75,5.93-3.27,11.68-8.13,15.54-12.46,9.86-45.27-4.06-48.49-15-2.58-15.88,18.52-22.22,40-21.44,3.33,3.61,6.18,6.24,7.28,5.14C85,122.66,79.21,107.75,91.29,92.58c8.23-10.33,17.52-7.07,13.23,8.32-1.42,9.34-2.56,18.29.36,25.33,5,12,19.86,12.3,7,34.09,4.31,12.1,4.57,22.21-5.26,27.38q.87-3.91-3.85-6.89c1.53-3.71,1.71-8.66-.08-15.17,14.45-16.15,4.46-32.45-17.11-18.15-5-3.53-14.11-6.32-16.41-4.85,5.88,2.54,13.12,4.58,15.35,8.44.42.73.41,1.39,1,1.93a2.56,2.56,0,0,0,2.79.12c.91-.49.64-.85.36-1.68Zm12.39,40.61c1.63-3.05,1.75-5.71-.49-7.74-7.32,8.59-25.06,6.73-36.74,2.44,2.2,18.21,24.07,24.41,37.23,5.3Zm-1.81-23.49c-6.27,4.46-15.68,6.56-28.71,2.33a55.09,55.09,0,0,1-12.86-6.07c-22,25.5,57.47,34,41.57,3.74Z"/><path class="cls-4" d="M132.05,120.35l.18-1.57a5.11,5.11,0,0,1-.78.57,3.29,3.29,0,0,1-.74.3,3.49,3.49,0,0,1-.82.09,3.61,3.61,0,0,1-1.25-.22,2.8,2.8,0,0,1-1-.69,3,3,0,0,1-.64-1,3.65,3.65,0,0,1-.22-1.35,4.23,4.23,0,0,1,.43-2,3.25,3.25,0,0,1,1.2-1.36,3.32,3.32,0,0,1,1.78-.48,3.24,3.24,0,0,1,1.38.28,4.84,4.84,0,0,1,1.31.94l.18-1.49a5.27,5.27,0,0,0-1.41-.79,4.54,4.54,0,0,0-1.5-.25,4.49,4.49,0,0,0-2.44.68,4.78,4.78,0,0,0-1.75,1.87,5.42,5.42,0,0,0-.64,2.61,4.83,4.83,0,0,0,.57,2.32,4.16,4.16,0,0,0,1.58,1.59,4.78,4.78,0,0,0,3.43.44,5.79,5.79,0,0,0,1.15-.48Zm6-.66-.82-.74a2.35,2.35,0,0,1-1.83.91q-1.5,0-1.56-1.74h4.51a9.48,9.48,0,0,0-.09-1.38,2.47,2.47,0,0,0-.34-.84,2.4,2.4,0,0,0-2.15-1.14,3.13,3.13,0,0,0-1.65.44,3,3,0,0,0-1.14,1.21,3.72,3.72,0,0,0-.4,1.74,3.09,3.09,0,0,0,.34,1.51,2.29,2.29,0,0,0,1,1,3.19,3.19,0,0,0,1.52.35,3.3,3.3,0,0,0,1.46-.32,3.52,3.52,0,0,0,1.19-1Zm-4.08-2.5a1.4,1.4,0,0,1,.32-.71,1.59,1.59,0,0,1,.6-.46,1.92,1.92,0,0,1,.73-.16,1.83,1.83,0,0,1,.7.15,1.38,1.38,0,0,1,.52.44,1.57,1.57,0,0,1,.21.74Zm4.43,3.58h1.24l.32-2.48a4.37,4.37,0,0,1,.55-1.76,1.18,1.18,0,0,1,1-.52,1.3,1.3,0,0,1,.65.19l.56-1.13a1.74,1.74,0,0,0-.85-.24,2,2,0,0,0-1.61,1l.08-.82h-1.24Zm4.18-4.79h1l-.59,4.79h1.23l.59-4.79h1.31l.11-1H145l.3-2.33H144l-.29,2.33h-1Zm3.22,4.79h1.23l.76-5.81h-1.27Zm1.55-8.55a.66.66,0,0,0-.53.23.9.9,0,0,0-.19.56.84.84,0,0,0,.2.54.61.61,0,0,0,.52.24.75.75,0,0,0,.57-.23.85.85,0,0,0,.2-.55.88.88,0,0,0-.19-.56.72.72,0,0,0-.58-.23ZM148,116h1l-.56,4.79h1.23l.59-4.79h1.28l.11-1h-1.29l.27-1.93a2.24,2.24,0,0,1,.26-.83.58.58,0,0,1,.53-.24,1.59,1.59,0,0,1,.77.26l.19-1.08a2.13,2.13,0,0,0-1.13-.33,1.65,1.65,0,0,0-1,.27,1.86,1.86,0,0,0-.64.85,6.08,6.08,0,0,0-.32,1.49l-.19,1.54h-1Zm3.34,4.79h1.25l.75-5.81h-1.27Zm1.56-8.55a.67.67,0,0,0-.53.23.89.89,0,0,0-.18.56.88.88,0,0,0,.18.54.65.65,0,0,0,.53.24.72.72,0,0,0,.57-.23.81.81,0,0,0,.21-.55.79.79,0,0,0-.21-.56.69.69,0,0,0-.57-.23Zm5.05,8.26.16-1.28a3.53,3.53,0,0,1-2,.66,1.43,1.43,0,0,1-1.13-.48,1.8,1.8,0,0,1-.43-1.26,2.4,2.4,0,0,1,.27-1.14,2,2,0,0,1,1.82-1.09,2.06,2.06,0,0,1,.88.17,3.14,3.14,0,0,1,.86.61l.17-1.3a3.31,3.31,0,0,0-2-.61,3.17,3.17,0,0,0-1.68.44,2.89,2.89,0,0,0-1.15,1.2,3.55,3.55,0,0,0-.41,1.74,3.06,3.06,0,0,0,.34,1.49,2.36,2.36,0,0,0,1,1,3.05,3.05,0,0,0,1.5.36,3,3,0,0,0,.88-.12,3.93,3.93,0,0,0,.89-.37Zm4.81-.38-.09.67h1.26l.72-5.81h-1.28l-.11.82a2,2,0,0,0-1.83-1,2.71,2.71,0,0,0-1.53.45,3.36,3.36,0,0,0-1.1,1.23,3.67,3.67,0,0,0-.39,1.68,3.14,3.14,0,0,0,.32,1.43,2.69,2.69,0,0,0,.92,1,2.49,2.49,0,0,0,1.32.36,2.21,2.21,0,0,0,1-.19,2.68,2.68,0,0,0,.82-.65Zm-1.26-4.2a1.37,1.37,0,0,1,1.14.49,2,2,0,0,1,.38,1.21,2.8,2.8,0,0,1-.23,1.08,2.09,2.09,0,0,1-.63.85,1.61,1.61,0,0,1-1.82.09,1.47,1.47,0,0,1-.52-.63,2,2,0,0,1-.18-.86,2.47,2.47,0,0,1,.24-1,2,2,0,0,1,.65-.85,1.54,1.54,0,0,1,1-.33Zm8.7,4.86h-1.27l.09-.67a2.36,2.36,0,0,1-.8.64,2.17,2.17,0,0,1-1,.2,2.49,2.49,0,0,1-1.32-.36,2.46,2.46,0,0,1-.9-1,3,3,0,0,1-.34-1.42,3.73,3.73,0,0,1,.39-1.7,3.28,3.28,0,0,1,1.1-1.23,2.71,2.71,0,0,1,1.53-.45,2,2,0,0,1,1.82,1l.62-4.81h1.26Zm-2.44-4.86a1.59,1.59,0,0,0-1,.33,2,2,0,0,0-.64.85,2.65,2.65,0,0,0-.23,1,2.2,2.2,0,0,0,.17.86,1.47,1.47,0,0,0,.52.63,1.61,1.61,0,0,0,1.82-.09,2,2,0,0,0,.63-.85,2.8,2.8,0,0,0,.23-1.08,1.86,1.86,0,0,0-.39-1.2,1.33,1.33,0,0,0-1.13-.5Zm6.39-1.14a3.22,3.22,0,0,0-1.64.44,3.19,3.19,0,0,0-1.61,2.8,3.26,3.26,0,0,0,.37,1.53,2.72,2.72,0,0,0,1.05,1,2.86,2.86,0,0,0,1.49.39,3.2,3.2,0,0,0,1.65-.43,3,3,0,0,0,1.15-1.17,3.37,3.37,0,0,0,.41-1.68,3.17,3.17,0,0,0-.36-1.5,2.71,2.71,0,0,0-1-1,2.82,2.82,0,0,0-1.48-.39Zm-.06,1.14a1.5,1.5,0,0,1,.9.25,1.46,1.46,0,0,1,.57.66,2.29,2.29,0,0,1,.17.87,2.72,2.72,0,0,1-.21,1,2.13,2.13,0,0,1-.67.82,1.66,1.66,0,0,1-1,.32,1.52,1.52,0,0,1-1.24-.51,1.89,1.89,0,0,1-.43-1.26,2.55,2.55,0,0,1,.23-1,2,2,0,0,1,.68-.82,1.58,1.58,0,0,1,1-.32Zm11.48,4.86h-1.27l.09-.67a2.43,2.43,0,0,1-.79.64,2.23,2.23,0,0,1-1,.2,2.45,2.45,0,0,1-1.3-.36,2.58,2.58,0,0,1-.92-1,3.06,3.06,0,0,1-.33-1.42,3.73,3.73,0,0,1,.4-1.7,3.19,3.19,0,0,1,1.1-1.23,2.66,2.66,0,0,1,1.53-.45,2,2,0,0,1,1.81,1l.63-4.81h1.25Zm-2.44-4.86a1.54,1.54,0,0,0-1,.33,2.06,2.06,0,0,0-.65.85,2.82,2.82,0,0,0-.22,1,2,2,0,0,0,.17.86,1.34,1.34,0,0,0,.52.63,1.42,1.42,0,0,0,.85.24,1.49,1.49,0,0,0,1-.33,2.2,2.2,0,0,0,.64-.85,3,3,0,0,0,.22-1.08,1.85,1.85,0,0,0-.38-1.2,1.37,1.37,0,0,0-1.14-.5Zm8.68,3.79L191,119a2.37,2.37,0,0,1-1.84.91c-1,0-1.51-.58-1.55-1.74h4.5a8.24,8.24,0,0,0-.09-1.38,2.28,2.28,0,0,0-.34-.84,2.39,2.39,0,0,0-2.14-1.14,3.19,3.19,0,0,0-1.66.44,3,3,0,0,0-1.13,1.21,3.72,3.72,0,0,0-.41,1.74,3.09,3.09,0,0,0,.34,1.51,2.37,2.37,0,0,0,1,1,3.18,3.18,0,0,0,1.51.35,3.31,3.31,0,0,0,1.47-.32,3.62,3.62,0,0,0,1.19-1Zm-4.08-2.5a1.39,1.39,0,0,1,.31-.71,1.67,1.67,0,0,1,.6-.46,1.93,1.93,0,0,1,.74-.16,1.74,1.74,0,0,1,.69.15,1.22,1.22,0,0,1,.51.44,1.38,1.38,0,0,1,.23.74Zm14.37,3.16.18-1.57a6.32,6.32,0,0,1-.78.57,3.29,3.29,0,0,1-.74.3,3.43,3.43,0,0,1-.82.09,3.65,3.65,0,0,1-1.25-.22,2.89,2.89,0,0,1-1-.69,2.79,2.79,0,0,1-.63-1,3.65,3.65,0,0,1-.24-1.35,4.49,4.49,0,0,1,.43-2,3.2,3.2,0,0,1,3-1.84,3.3,3.3,0,0,1,1.4.28,4.81,4.81,0,0,1,1.3.94l.18-1.49a5.38,5.38,0,0,0-1.4-.79,4.63,4.63,0,0,0-1.5-.25,4.52,4.52,0,0,0-2.45.68,4.71,4.71,0,0,0-1.75,1.87,5.42,5.42,0,0,0-.63,2.61,4.72,4.72,0,0,0,.57,2.32,4.07,4.07,0,0,0,1.57,1.59,4.78,4.78,0,0,0,3.43.44,5.56,5.56,0,0,0,1.15-.48Zm3.77-5.59a3.27,3.27,0,0,0-2.83,1.61,3.31,3.31,0,0,0-.43,1.63,3.15,3.15,0,0,0,.38,1.53,2.67,2.67,0,0,0,1,1,2.89,2.89,0,0,0,1.5.39,3.14,3.14,0,0,0,1.64-.43,3,3,0,0,0,1.16-1.17,3.38,3.38,0,0,0,.42-1.68,3.07,3.07,0,0,0-.38-1.5,2.75,2.75,0,0,0-1-1,2.81,2.81,0,0,0-1.47-.39Zm-.07,1.14a1.57,1.57,0,0,1,.91.25,1.42,1.42,0,0,1,.55.66,2,2,0,0,1,.18.87,2.72,2.72,0,0,1-.21,1,2.13,2.13,0,0,1-.67.82,1.69,1.69,0,0,1-1,.32,1.54,1.54,0,0,1-1.24-.51,1.94,1.94,0,0,1-.43-1.26,2.41,2.41,0,0,1,.24-1,2,2,0,0,1,.67-.82,1.6,1.6,0,0,1,1-.32Zm3,4.87H210l.41-3.16a2.36,2.36,0,0,1,.53-1.26,1.34,1.34,0,0,1,1-.45c.36,0,.58.1.68.29a1.85,1.85,0,0,1,.15.85l-.44,3.73h1.24l.46-3.58c0-.46.06-.74.06-.82a1.49,1.49,0,0,0-.23-.8,1.53,1.53,0,0,0-.62-.56,2,2,0,0,0-.89-.19,2.12,2.12,0,0,0-1.72.87l.11-.73h-1.26Zm5.7-4.79h1l-.59,4.79h1.24l.59-4.79H218l.11-1h-1.29l.31-2.33h-1.26l-.3,2.33h-1Zm3.3,4.79H219l.33-2.48a4.54,4.54,0,0,1,.55-1.76,1.19,1.19,0,0,1,1-.52,1.33,1.33,0,0,1,.65.19l.55-1.13a1.63,1.63,0,0,0-.85-.24,2,2,0,0,0-1.61,1l.08-.82h-1.23Zm3.81,0h1.24l.74-5.81h-1.25Zm1.55-8.55a.66.66,0,0,0-.53.23.89.89,0,0,0-.18.56.83.83,0,0,0,.19.54.63.63,0,0,0,.52.24.75.75,0,0,0,.57-.23.8.8,0,0,0,.2-.55.79.79,0,0,0-.2-.56.71.71,0,0,0-.57-.23Zm2.18,3.43a2.74,2.74,0,0,1,.79-.67,2.2,2.2,0,0,1,.93-.19,2.54,2.54,0,0,1,1.34.36,2.59,2.59,0,0,1,.93,1,3,3,0,0,1,.33,1.43,3.46,3.46,0,0,1-.4,1.69,3.07,3.07,0,0,1-1.1,1.21,2.61,2.61,0,0,1-1.52.45,2.33,2.33,0,0,1-1.06-.23,2.19,2.19,0,0,1-.8-.75l-.11.8h-1.23l1.2-9.83h1.27Zm1.53.24a1.54,1.54,0,0,0-1,.33,2.13,2.13,0,0,0-.66.85,2.63,2.63,0,0,0-.23,1.06,2.2,2.2,0,0,0,.17.86,1.47,1.47,0,0,0,.52.63,1.5,1.5,0,0,0,.86.24,1.72,1.72,0,0,0,1-.28,1.85,1.85,0,0,0,.63-.79,2.86,2.86,0,0,0,.22-1.16,1.93,1.93,0,0,0-.39-1.27,1.38,1.38,0,0,0-1.11-.47Zm8.39-.93-.42,3.31c-.21,1.77-1.1,2.64-2.66,2.64a2.14,2.14,0,0,1-1.6-.58,2.11,2.11,0,0,1-.6-1.54,2.29,2.29,0,0,1,0-.43l.42-3.4h1.26l-.46,3.7a1.32,1.32,0,0,0,.25.81,1,1,0,0,0,.77.31,1.24,1.24,0,0,0,.9-.34,1.51,1.51,0,0,0,.39-1L234,115Zm-.21,5.81h1.24L237,115h-1.26Zm1.56-8.55a.65.65,0,0,0-.53.23.84.84,0,0,0-.18.56.78.78,0,0,0,.19.54.61.61,0,0,0,.52.24.75.75,0,0,0,.57-.23.85.85,0,0,0,.2-.55.83.83,0,0,0-.2-.56.71.71,0,0,0-.57-.23Zm2.72,8.72-.78.89.29.34a.91.91,0,0,1,.43-.1c.3,0,.46.12.46.39s-.18.4-.52.4a2.27,2.27,0,0,1-.88-.18l-.27.5a2.72,2.72,0,0,0,1.28.3,1.76,1.76,0,0,0,1-.27,1,1,0,0,0,.4-.84.8.8,0,0,0-.29-.66,1,1,0,0,0-.67-.23l-.24,0,.44-.51a3.58,3.58,0,0,0,.84-.16,6.19,6.19,0,0,0,.85-.36l.14-1.28a3.51,3.51,0,0,1-1.95.66,1.44,1.44,0,0,1-1.13-.48,1.84,1.84,0,0,1-.42-1.26,2.39,2.39,0,0,1,.26-1.14,2.12,2.12,0,0,1,.76-.81,2,2,0,0,1,1.07-.28,2,2,0,0,1,.87.17,3.16,3.16,0,0,1,.87.61l.17-1.3a4,4,0,0,0-1-.47,3.8,3.8,0,0,0-1.07-.14,3.14,3.14,0,0,0-1.67.44,2.89,2.89,0,0,0-1.15,1.2,3.67,3.67,0,0,0-.42,1.74,2.89,2.89,0,0,0,.59,1.89,2.77,2.77,0,0,0,1.7.91Zm7.13-.84-.09.67h1.27l.73-5.81H247l-.11.82a2,2,0,0,0-1.82-1,2.66,2.66,0,0,0-1.53.45,3.19,3.19,0,0,0-1.1,1.23,3.56,3.56,0,0,0-.4,1.68,2.91,2.91,0,0,0,.34,1.43,2.46,2.46,0,0,0,2.22,1.36,2.2,2.2,0,0,0,1-.19,2.44,2.44,0,0,0,.81-.65Zm-1.26-4.2a1.38,1.38,0,0,1,1.14.49,1.9,1.9,0,0,1,.38,1.21,3,3,0,0,1-.22,1.08,2,2,0,0,1-.64.85,1.47,1.47,0,0,1-1,.33,1.42,1.42,0,0,1-.85-.24,1.34,1.34,0,0,1-.52-.63,2,2,0,0,1-.17-.86,2.48,2.48,0,0,1,.22-1,2.06,2.06,0,0,1,.65-.85,1.54,1.54,0,0,1,1-.33Zm-1.16-3,.4.62a1.64,1.64,0,0,1,.85-.26,1.36,1.36,0,0,1,.49.08l.35.16a1.8,1.8,0,0,0,.66.16,1.83,1.83,0,0,0,1.29-.65l-.44-.68a1.26,1.26,0,0,1-.8.35,1.44,1.44,0,0,1-.56-.14,2.25,2.25,0,0,0-.92-.23,1.93,1.93,0,0,0-1.32.59Zm7.56,1.82a3.24,3.24,0,0,0-3.26,3.24,3.15,3.15,0,0,0,.38,1.53,2.67,2.67,0,0,0,1,1,2.89,2.89,0,0,0,1.5.39,3.16,3.16,0,0,0,1.64-.43,2.9,2.9,0,0,0,1.16-1.17,3.38,3.38,0,0,0,.42-1.68,3.07,3.07,0,0,0-.38-1.5,2.75,2.75,0,0,0-1-1,2.84,2.84,0,0,0-1.47-.39Zm-.07,1.14a1.59,1.59,0,0,1,.91.25,1.48,1.48,0,0,1,.55.66,2,2,0,0,1,.18.87,2.56,2.56,0,0,1-.22,1,2,2,0,0,1-.66.82,1.65,1.65,0,0,1-1,.32,1.5,1.5,0,0,1-1.23-.51,1.9,1.9,0,0,1-.44-1.26,2.41,2.41,0,0,1,.24-1,2.08,2.08,0,0,1,.67-.82,1.64,1.64,0,0,1,1-.32Z"/><path class="cls-4" d="M51.68,227.74l.25-2.23a7.58,7.58,0,0,1-1.08.81,3.85,3.85,0,0,1-1,.42,4.57,4.57,0,0,1-1.14.13,4.75,4.75,0,0,1-1.76-.32,3.92,3.92,0,0,1-1.38-1,4.11,4.11,0,0,1-.91-1.46,5.61,5.61,0,0,1-.32-1.88,6.1,6.1,0,0,1,.62-2.77,4.43,4.43,0,0,1,1.69-1.89,4.56,4.56,0,0,1,2.47-.68,5,5,0,0,1,1.94.38,7.18,7.18,0,0,1,1.82,1.33l.26-2.08a7.26,7.26,0,0,0-2-1.1,6,6,0,0,0-2.09-.36,6.36,6.36,0,0,0-3.43,1,6.72,6.72,0,0,0-2.44,2.6,7.6,7.6,0,0,0-.88,3.65,6.63,6.63,0,0,0,.79,3.25,5.71,5.71,0,0,0,2.21,2.23,6.35,6.35,0,0,0,3.16.81,5.83,5.83,0,0,0,1.62-.21,7.26,7.26,0,0,0,1.61-.64ZM61,215.09a7.24,7.24,0,0,0-2.85.56,6.61,6.61,0,0,0-2.32,1.51,6.93,6.93,0,0,0-1.54,2.26,7.16,7.16,0,0,0-.56,2.81,6.5,6.5,0,0,0,.83,3.23,6,6,0,0,0,2.26,2.28,6.2,6.2,0,0,0,3.18.85,7.05,7.05,0,0,0,3.62-1A7.26,7.26,0,0,0,66.29,225a6.86,6.86,0,0,0,1-3.58,6.23,6.23,0,0,0-3.09-5.49,6.18,6.18,0,0,0-3.14-.84Zm-.13,1.83a4.44,4.44,0,0,1,2.26.57,3.88,3.88,0,0,1,1.54,1.57,5,5,0,0,1,.55,2.36,5.69,5.69,0,0,1-.39,2.11,5,5,0,0,1-1.09,1.72,4.91,4.91,0,0,1-3.65,1.54,4.45,4.45,0,0,1-2.23-.56,3.91,3.91,0,0,1-1.53-1.59,4.75,4.75,0,0,1-.56-2.35,6.2,6.2,0,0,1,.37-2.14,5.13,5.13,0,0,1,1.08-1.71,4.72,4.72,0,0,1,1.62-1.14,5.68,5.68,0,0,1,2-.38Zm7.21,11.38,1.69-13.57,7.71,9.74,1.08-9.09h1.88l-1.64,13.5-7.71-9.76L70,228.3ZM81.54,217l.27-1.66H90L89.73,217H86.57L85.19,228.3H83.34L84.69,217Zm8.19,11.26,1.6-12.92h3.1a4.29,4.29,0,0,1,2.82.79,2.83,2.83,0,0,1,1,2.34,4.08,4.08,0,0,1-.46,2,3.54,3.54,0,0,1-1.34,1.35,5.18,5.18,0,0,1-2.11.63l4,5.85h-2l-4-5.89-.75,5.89Zm2.76-7.24h1.2a3,3,0,0,0,1.39-.3,2.15,2.15,0,0,0,.94-.82,2.24,2.24,0,0,0,.34-1.2c0-1.21-.76-1.82-2.28-1.82H93Zm7.14,7.24,1.6-12.92h1.84l-1.59,12.92Zm3.65,0,1.6-12.92h2.67c2.32,0,3.49,1,3.49,2.85a4.27,4.27,0,0,1-.25,1.44,3.43,3.43,0,0,1-.7,1.14,2.85,2.85,0,0,1-1.07.67,2.24,2.24,0,0,1,1.72.86,3.15,3.15,0,0,1,.63,2.06,4.28,4.28,0,0,1-.48,2,3.54,3.54,0,0,1-1.36,1.38,4.17,4.17,0,0,1-2,.47Zm2-1.46h.91a7,7,0,0,0,1.66-.19,2.54,2.54,0,0,0,1.19-.71,2,2,0,0,0,.46-1.42,1.88,1.88,0,0,0-.66-1.61,3.2,3.2,0,0,0-2-.53h-1Zm.71-6h.8a3.07,3.07,0,0,0,1.33-.27,2.08,2.08,0,0,0,1.21-2,1.61,1.61,0,0,0-.51-1.28,2,2,0,0,0-1.43-.46h-.9Zm17.4-5.48-1.06,8.42a7.42,7.42,0,0,1-.55,2,4.8,4.8,0,0,1-1,1.57,4.15,4.15,0,0,1-1.5,1,5.1,5.1,0,0,1-1.9.34,5.27,5.27,0,0,1-1.94-.34,3.74,3.74,0,0,1-1.47-.95,3.24,3.24,0,0,1-.64-1,5.12,5.12,0,0,1-.25-1.88v-.25l1.05-8.92H116l-1,8.17a6.73,6.73,0,0,0-.12,1.18,2.11,2.11,0,0,0,.69,1.65,2.61,2.61,0,0,0,1.78.61,2.89,2.89,0,0,0,2.13-.83,3.7,3.7,0,0,0,1-2.27l1.1-8.51Zm.22,12.92,1.6-12.92h1.83l-1.6,12.92Zm9,.13-1.21,1.36.4.43a2.51,2.51,0,0,1,.62-.1c.44,0,.67.18.67.55s-.25.56-.75.56a3.15,3.15,0,0,1-1.26-.25l-.32.64a3,3,0,0,0,1.74.48,2.39,2.39,0,0,0,1.4-.4,1.27,1.27,0,0,0,.58-1.16,1.15,1.15,0,0,0-.4-.92,1.46,1.46,0,0,0-1-.32l-.35,0,.67-.79c.28,0,.5.05.64.05a7.3,7.3,0,0,0,3.26-.85l.25-2.23a8.23,8.23,0,0,1-1.09.81,3.92,3.92,0,0,1-1,.42,4.71,4.71,0,0,1-1.15.13,4.83,4.83,0,0,1-1.76-.32,4,4,0,0,1-1.38-1,4.11,4.11,0,0,1-.91-1.46,5.61,5.61,0,0,1-.31-1.88,6.23,6.23,0,0,1,.6-2.77,4.54,4.54,0,0,1,4.17-2.57,5,5,0,0,1,1.94.38,7.18,7.18,0,0,1,1.82,1.33l.26-2.08a7.11,7.11,0,0,0-2-1.1,6,6,0,0,0-2.08-.36,6.4,6.4,0,0,0-3.44,1,6.79,6.79,0,0,0-2.44,2.6,7.6,7.6,0,0,0-.88,3.65,6.88,6.88,0,0,0,.55,2.79,5.83,5.83,0,0,0,1.61,2.15,6.42,6.42,0,0,0,2.51,1.19Zm5.91-.13h1.93l1.74-3.25h5l.9,3.25h2L149,224.64l-3-9.91-2,3.66Zm4.45-4.83,2.55-4.92,1.32,4.92Zm.53-9.84.57.86a2.16,2.16,0,0,1,1.21-.38,2,2,0,0,1,.66.1l.49.24a1.78,1.78,0,0,0,.9.25,2.65,2.65,0,0,0,1.84-.91l-.64-1a1.63,1.63,0,0,1-1.11.5,1.77,1.77,0,0,1-.79-.2,3.05,3.05,0,0,0-1.3-.37,2.79,2.79,0,0,0-1.83.87Zm15.86,1.46a7.23,7.23,0,0,0-2.84.56,6.61,6.61,0,0,0-2.32,1.51,6.92,6.92,0,0,0-2.1,5.07,6.4,6.4,0,0,0,.83,3.23,6,6,0,0,0,2.26,2.28,6.2,6.2,0,0,0,3.18.85,7.1,7.1,0,0,0,3.62-1,7.34,7.34,0,0,0,2.64-2.61,7,7,0,0,0,1-3.58,6.21,6.21,0,0,0-6.24-6.33Zm-.12,1.83a4.44,4.44,0,0,1,2.26.57,3.8,3.8,0,0,1,1.53,1.57,4.84,4.84,0,0,1,.55,2.36,5.69,5.69,0,0,1-.38,2.11,5.18,5.18,0,0,1-2.73,2.86,4.94,4.94,0,0,1-2,.4,4.45,4.45,0,0,1-2.23-.56,3.91,3.91,0,0,1-1.53-1.59,4.75,4.75,0,0,1-.56-2.35,6,6,0,0,1,.37-2.14,4.83,4.83,0,0,1,1.08-1.71,4.63,4.63,0,0,1,1.62-1.14,5.68,5.68,0,0,1,2-.38Zm11.33,11.38,1.57-12.92h3.12a4.6,4.6,0,0,1,2,.39,2.81,2.81,0,0,1,1.31,1.16,3.55,3.55,0,0,1,.45,1.81,4.42,4.42,0,0,1-.45,2,3.46,3.46,0,0,1-1.3,1.43,5.66,5.66,0,0,1-2.85.57h-1.33l-.7,5.56Zm2.75-7.2h1.27c1.7,0,2.55-.76,2.55-2.26a1.73,1.73,0,0,0-.51-1.41A2.8,2.8,0,0,0,175,217h-1.1Zm6.24,7.2,1.6-12.92h3.09a4.36,4.36,0,0,1,2.83.79,2.86,2.86,0,0,1,.95,2.34,4.09,4.09,0,0,1-.47,2,3.45,3.45,0,0,1-1.33,1.35,5.23,5.23,0,0,1-2.11.63l4,5.85h-2l-3.94-5.89-.75,5.89Zm2.75-7.24h1.21a2.93,2.93,0,0,0,1.37-.3,2.18,2.18,0,0,0,.95-.82,2.16,2.16,0,0,0,.34-1.2c0-1.21-.76-1.82-2.28-1.82h-1.05Zm7.15,7.24,1.6-12.92h6.69l-.2,1.62h-4.85l-.41,3.57h4.8l-.19,1.63h-4.87l-.53,4.52h5l-.21,1.58Zm8,0,4.06-13.89,3.5,10.72,6.22-10.72.87,13.89h-1.86l-.34-8.47-5.26,9-3.06-9.11-2.24,8.53Zm16.13,0,1.6-12.92h1.84l-1.59,12.92Zm3.26,0h1.94l1.73-3.25h5l.89,3.25h2l-1.16-3.66-3-9.91-2,3.66Zm4.45-4.83,2.56-4.92,1.31,4.92Zm1.61-8.49h1.4l2.58-2.54h-2.3Zm7.95.4h2l2.3,9.35,4.51-9.35h2L234.65,229Zm10.52,12.92,1.6-12.92h6.69l-.19,1.62h-4.85l-.42,3.57H249l-.19,1.63H244l-.54,4.52h5l-.2,1.58Zm8.33,0,1.57-12.92h1.87l-1.4,11.34h4.5l-.18,1.58Z"/><rect class="cls-5" width="300" height="300"/></g></g></svg>