<svg xmlns="http://www.w3.org/2000/svg" viewBox="0 0 300 300"><defs><style>.cls-1{fill:#9b9b9b;}.cls-2{fill:#e6e6e6;}.cls-3{fill:#c6c6c6;}.cls-4{fill:none;}</style></defs><title>logo10</title><g id="Layer_2" data-name="Layer 2"><g id="Layer_1-2" data-name="Layer 1"><rect class="cls-1" x="123.32" y="104.68" width="8.64" height="33.44" rx="1.79" ry="1.79"/><rect class="cls-1" x="159.03" y="104.68" width="8.64" height="33.44" rx="1.79" ry="1.79"/><path class="cls-1" d="M149.92,126.06h0a1.56,1.56,0,0,1-1.18.55h-6.48a1.53,1.53,0,0,1-1.18-.55L125.41,107.2a1.54,1.54,0,0,1,1.18-2.52h6.48a1.52,1.52,0,0,1,1.18.56l15.67,18.85A1.55,1.55,0,0,1,149.92,126.06Z"/><path class="cls-1" d="M142.26,126.61h6.48a1.56,1.56,0,0,0,1.18-.55l15.66-18.86a1.54,1.54,0,0,0-1.18-2.52h-6.47a1.5,1.5,0,0,0-1.18.56l-15.67,18.85a1.55,1.55,0,0,0,0,2h0A1.53,1.53,0,0,0,142.26,126.61Z"/><path class="cls-2" d="M134,91.52a32,32,0,0,1,11.53-2.14h0a32,32,0,0,1,32,31.12h7.75A39.78,39.78,0,0,0,145.5,81.63h0a39.63,39.63,0,0,0-14.77,2.84Z"/><path class="cls-3" d="M130.52,149.71a32,32,0,0,1-17.05-28.31h0a32,32,0,0,1,17.05-28.31l-3.24-7a39.76,39.76,0,0,0-21.55,35.36h0a39.75,39.75,0,0,0,21.55,35.36Z"/><path class="cls-1" d="M177.39,124.29a32,32,0,0,1-31.89,29.14h0A32,32,0,0,1,134,151.29l-3.24,7.05a39.62,39.62,0,0,0,14.77,2.83h0a39.77,39.77,0,0,0,39.66-36.88Z"/><rect class="cls-1" x="75.72" y="169.72" width="8.64" height="33.44" rx="1.79" ry="1.79"/><rect class="cls-1" x="111.43" y="169.72" width="8.64" height="33.44" rx="1.79" ry="1.79"/><path class="cls-1" d="M102.31,191.1h0a1.53,1.53,0,0,1-1.18.55H94.66a1.53,1.53,0,0,1-1.18-.55L77.81,172.24A1.54,1.54,0,0,1,79,169.72h6.47a1.53,1.53,0,0,1,1.18.56l15.67,18.86A1.54,1.54,0,0,1,102.31,191.1Z"/><path class="cls-1" d="M94.66,191.65h6.47a1.53,1.53,0,0,0,1.18-.55L118,172.24a1.54,1.54,0,0,0-1.18-2.52h-6.48a1.57,1.57,0,0,0-1.18.56L93.47,189.14a1.54,1.54,0,0,0,0,2h0A1.53,1.53,0,0,0,94.66,191.65Z"/><rect class="cls-1" x="160.55" y="169.72" width="35.71" height="9.11" rx="1.79" ry="1.79"/><rect class="cls-1" x="197.29" y="189.45" width="18.98" height="9.11" rx="1.31" ry="1.31"/><rect class="cls-1" x="173.85" y="169.72" width="9.11" height="33.44" rx="1.79" ry="1.79"/><path class="cls-1" d="M142.8,169.72h-2.27a16.73,16.73,0,0,0-16.72,16.73h0a16.73,16.73,0,0,0,16.72,16.72h2.27a16.73,16.73,0,0,0,16.72-16.72h0A16.73,16.73,0,0,0,142.8,169.72Zm7,16.73a7.66,7.66,0,0,1-7.66,7.65h-1a7.65,7.65,0,0,1-7.65-7.65h0a7.64,7.64,0,0,1,7.65-7.65h1a7.65,7.65,0,0,1,7.66,7.65Z"/><path class="cls-1" d="M224.65,202.62h0a1.56,1.56,0,0,1-1.18.55H217a1.53,1.53,0,0,1-1.18-.55l-12.9-30.38a1.54,1.54,0,0,1,1.18-2.52h6.47a1.53,1.53,0,0,1,1.18.56l12.91,30.37A1.55,1.55,0,0,1,224.65,202.62Z"/><path class="cls-1" d="M189.64,202.62h0a1.56,1.56,0,0,0,1.18.55h6.48a1.53,1.53,0,0,0,1.18-.55l12.9-30.38a1.54,1.54,0,0,0-1.18-2.52h-6.47a1.53,1.53,0,0,0-1.18.56l-12.91,30.37A1.55,1.55,0,0,0,189.64,202.62Z"/><path class="cls-1" d="M75.55,207.88H83V209H77v3.5h5.79v1.27H77v3.6H83.2v1.28H75.55Z"/><path class="cls-1" d="M91.05,207.88h1.74l5.32,8.7v-8.7h1.4v10.8H97.88l-5.44-8.6v8.6H91.05Z"/><path class="cls-1" d="M108.62,209.23a5.05,5.05,0,0,1,3.93-1.58,4.66,4.66,0,0,1,2.94,1,3.31,3.31,0,0,1,1.36,2.49h-1.4a1.09,1.09,0,0,0-.07-.3,2.3,2.3,0,0,0-.15-.32,3.38,3.38,0,0,0-1.08-1.09,3,3,0,0,0-1.71-.49h-.27l-.28,0a4.19,4.19,0,0,0-2.32,1.19,4.07,4.07,0,0,0-1.06,3.07,2.72,2.72,0,0,0,0,.28v.27a5.42,5.42,0,0,0,.87,2.65,3.07,3.07,0,0,0,2.83,1.21,4.14,4.14,0,0,0,.66-.06,4.71,4.71,0,0,0,.78-.2,3.42,3.42,0,0,0,1.44-1,3,3,0,0,0,.59-2.19h-3.36v-1.28H117v5.81h-1l-.23-1.28a5.87,5.87,0,0,1-1.41,1,5.28,5.28,0,0,1-1.52.49l-.4.06H112a4.72,4.72,0,0,1-3.54-1.61,5.89,5.89,0,0,1-1.3-4.68A6.64,6.64,0,0,1,108.62,209.23Z"/><path class="cls-1" d="M125.16,207.88h7.41V209h-6v3.5h5.8v1.27h-5.8v3.6h6.25v1.28h-7.64Z"/><path class="cls-1" d="M140.66,207.88h1.73l5.33,8.7v-8.7h1.39v10.8h-1.63l-5.44-8.6v8.6h-1.38Z"/><path class="cls-1" d="M157.19,207.88h1.38v4.53H164v-4.53h1.4v10.8H164V213.8h-5.44v4.88h-1.38Z"/><path class="cls-1" d="M176.61,207.88h1.74l3.93,10.8h-1.62l-1.16-3.14h-4.05l-1,3.14h-1.62Zm2.43,6.39-1.5-4.53-1.75,4.53Z"/><path class="cls-1" d="M189.66,207.88h5.45a2.74,2.74,0,0,1,1.93.74,3.25,3.25,0,0,1,1,2q0,.27,0,.57a3.46,3.46,0,0,1-.12.61,2.64,2.64,0,0,1-.44.8,2.69,2.69,0,0,1-.91.69,1.89,1.89,0,0,1,1,1,4,4,0,0,1,.25,1.32v.58a7.5,7.5,0,0,0,.05,1.18,1.14,1.14,0,0,0,.52.86v.36h-1.74a4.18,4.18,0,0,1-.15-.61,6.07,6.07,0,0,1-.07-.63c0-.1,0-.2,0-.31s0-.21,0-.31v-.16a6.68,6.68,0,0,0-.25-1.7q-.21-.75-1.47-.93h-3.58v4.65h-1.4Zm5.1,4.87.09,0h.09a1.42,1.42,0,0,0,1.14-.57,1.94,1.94,0,0,0,.48-1.23v-.09a1.68,1.68,0,0,0-.51-1.13,2.41,2.41,0,0,0-1.64-.6h-3.35v3.6Z"/><path class="cls-1" d="M206.19,207.88h1.39v10.8h-1.39Z"/><path class="cls-1" d="M218.81,207.88h1.73l3.93,10.8h-1.62l-1.16-3.14h-4.05l-1,3.14H215Zm2.42,6.39-1.5-4.53L218,214.27Z"/><rect class="cls-4" width="300" height="300"/></g></g></svg>