<svg xmlns="http://www.w3.org/2000/svg" viewBox="0 0 300 300"><defs><style>.cls-1,.cls-2{fill:#9b9b9b;}.cls-2,.cls-3{fill-rule:evenodd;}.cls-3{fill:#d3d3d3;}.cls-4{fill:none;}</style></defs><title>logo16</title><g id="Layer_2" data-name="Layer 2"><g id="Layer_1-2" data-name="Layer 1"><rect class="cls-1" x="163.25" y="175.08" width="0.97" height="8.17"/><path class="cls-1" d="M166.62,183.24v-5.1h.85v.78a2.22,2.22,0,0,1,.8-.73,2.37,2.37,0,0,1,1.06-.24,1.94,1.94,0,0,1,1.41.48,1.74,1.74,0,0,1,.51,1.34v3.47h-.89v-3a1.73,1.73,0,0,0-.33-1.15,1.24,1.24,0,0,0-1-.37,1.64,1.64,0,0,0-.71.14,1.44,1.44,0,0,0-.54.4,1.23,1.23,0,0,0-.22.46,3.72,3.72,0,0,0-.07.9v2.63Z"/><path class="cls-1" d="M173,182.38l.75-.5a1.54,1.54,0,0,0,.54.61,1.35,1.35,0,0,0,.76.2,1.1,1.1,0,0,0,.7-.21.68.68,0,0,0,.26-.56.6.6,0,0,0-.18-.44,1.75,1.75,0,0,0-.62-.33l-.14-.05c-1.25-.42-1.87-1-1.87-1.6a1.42,1.42,0,0,1,.5-1.12A1.91,1.91,0,0,1,175,178a2.3,2.3,0,0,1,1.15.27,1.52,1.52,0,0,1,.67.75l-.7.44a1.14,1.14,0,0,0-.47-.54,1.25,1.25,0,0,0-.7-.19.92.92,0,0,0-.63.21.71.71,0,0,0-.24.55c0,.31.34.58,1,.79l.31.09a2.75,2.75,0,0,1,1.15.61,1.25,1.25,0,0,1,.33.9,1.44,1.44,0,0,1-.52,1.17,1.91,1.91,0,0,1-1.34.45,2.56,2.56,0,0,1-1.22-.26,2.08,2.08,0,0,1-.8-.81Z"/><polygon class="cls-1" points="178.8 178.86 177.86 178.86 177.86 178.13 178.8 178.13 178.8 176.08 179.69 176.08 179.69 178.13 180.62 178.13 180.62 178.86 179.69 178.86 179.69 183.24 178.8 183.24 178.8 178.86"/><path class="cls-1" d="M182,175.68a.6.6,0,0,1,.19-.45.63.63,0,0,1,.9,0,.62.62,0,0,1,.19.46.6.6,0,0,1-.19.45.65.65,0,0,1-.9,0,.6.6,0,0,1-.19-.46Zm.2,7.56v-5.1h.89v5.1Z"/><polygon class="cls-1" points="185.55 178.86 184.61 178.86 184.61 178.13 185.55 178.13 185.55 176.08 186.44 176.08 186.44 178.13 187.38 178.13 187.38 178.86 186.44 178.86 186.44 183.24 185.55 183.24 185.55 178.86"/><path class="cls-1" d="M189.71,178.14v2.51a2.62,2.62,0,0,0,.32,1.53,1.27,1.27,0,0,0,1.1.45,1.29,1.29,0,0,0,1.1-.44,2.74,2.74,0,0,0,.32-1.54v-2.51h.89v3a2.39,2.39,0,0,1-.59,1.74,2.35,2.35,0,0,1-1.74.59,2.33,2.33,0,0,1-1.73-.59,2.35,2.35,0,0,1-.59-1.74v-3Z"/><polygon class="cls-1" points="195.78 178.86 194.84 178.86 194.84 178.13 195.78 178.13 195.78 176.08 196.67 176.08 196.67 178.13 197.61 178.13 197.61 178.86 196.67 178.86 196.67 183.24 195.78 183.24 195.78 178.86"/><path class="cls-1" d="M199.63,180.7a1.85,1.85,0,0,0,.54,1.37,1.8,1.8,0,0,0,2.61,0,2,2,0,0,0,0-2.73,1.74,1.74,0,0,0-1.3-.57,1.76,1.76,0,0,0-1.32.57,1.88,1.88,0,0,0-.53,1.36Zm-.93,0a2.86,2.86,0,0,1,.2-1.06,2.83,2.83,0,0,1,.61-.89,2.56,2.56,0,0,1,.9-.59,2.72,2.72,0,0,1,1.07-.21,2.66,2.66,0,0,1,1.05.21,2.88,2.88,0,0,1,.91.6,2.6,2.6,0,0,1,.6.88,2.75,2.75,0,0,1,.21,1.06,2.67,2.67,0,0,1-.21,1.06,2.56,2.56,0,0,1-.6.87,2.75,2.75,0,0,1-.91.61,2.7,2.7,0,0,1-1.05.21,2.91,2.91,0,0,1-1.07-.2,2.73,2.73,0,0,1-.9-.6,2.94,2.94,0,0,1-.61-.89,2.86,2.86,0,0,1-.2-1.06Z"/><path class="cls-1" d="M213.39,180.72a2,2,0,0,0-.47-1.38,1.78,1.78,0,0,0-2.46-.05,1.87,1.87,0,0,0-.43,1.32,2.21,2.21,0,0,0,.44,1.47,1.47,1.47,0,0,0,1.21.53,1.62,1.62,0,0,0,1.26-.5,2,2,0,0,0,.45-1.39Zm.85-6.12v8.64h-.85v-.92a2,2,0,0,1-.78.84,1.93,1.93,0,0,1-1.07.29,2.24,2.24,0,0,1-1.77-.75,3.34,3.34,0,0,1,0-4,2.24,2.24,0,0,1,1.75-.75,2,2,0,0,1,1.1.29,2,2,0,0,1,.76.86v-4.5Z"/><path class="cls-1" d="M220.16,180.11a1.5,1.5,0,0,0-.45-1,1.58,1.58,0,0,0-1.11-.37,1.55,1.55,0,0,0-1.06.38,1.53,1.53,0,0,0-.49,1Zm.93.71h-4v.08a1.83,1.83,0,0,0,.47,1.32,1.56,1.56,0,0,0,1.22.5,1.68,1.68,0,0,0,.93-.27,2.39,2.39,0,0,0,.72-.83l.66.44a2.68,2.68,0,0,1-1,1.05,2.73,2.73,0,0,1-1.39.34,2.46,2.46,0,0,1-1.88-.76,3.14,3.14,0,0,1,0-4,2.44,2.44,0,0,1,1.84-.76,2.29,2.29,0,0,1,1.79.73,2.82,2.82,0,0,1,.66,2Z"/><path class="cls-1" d="M226.38,183.24v-8.16h1.7a6.19,6.19,0,0,1,1.32.09,2,2,0,0,1,.74.31,1.92,1.92,0,0,1,.6.75,2.35,2.35,0,0,1,.22,1,1.75,1.75,0,0,1-.31,1.08,1.62,1.62,0,0,1-.9.61,1.7,1.7,0,0,1,1.14.65,2.14,2.14,0,0,1,.42,1.36,2.4,2.4,0,0,1-.17.93,2.18,2.18,0,0,1-.5.77,1.93,1.93,0,0,1-.85.48,7.44,7.44,0,0,1-1.71.14Zm1-3.83v3h.75a7.29,7.29,0,0,0,1.12-.06,1.38,1.38,0,0,0,.55-.21,1.1,1.1,0,0,0,.39-.5,1.72,1.72,0,0,0,0-1.47,1.2,1.2,0,0,0-.5-.52,1.5,1.5,0,0,0-.45-.17,5,5,0,0,0-.8-.05h-1Zm0-3.49v2.73h.75a2.63,2.63,0,0,0,1.46-.3,1.16,1.16,0,0,0,.42-1,1.36,1.36,0,0,0-.39-1.11,2.52,2.52,0,0,0-1.49-.31Z"/><path class="cls-1" d="M236.84,180.11a1.42,1.42,0,0,0-.45-1,1.59,1.59,0,0,0-2.66,1Zm.94.71h-4.05v.08a1.87,1.87,0,0,0,.47,1.32,1.58,1.58,0,0,0,1.22.5,1.64,1.64,0,0,0,.93-.27,2.41,2.41,0,0,0,.73-.83l.67.44a2.72,2.72,0,0,1-1,1.05,2.69,2.69,0,0,1-1.38.34,2.49,2.49,0,0,1-1.89-.76,2.88,2.88,0,0,1-.71-2,2.82,2.82,0,0,1,.71-2,2.4,2.4,0,0,1,1.83-.76,2.26,2.26,0,0,1,1.79.73,2.78,2.78,0,0,1,.67,2Z"/><rect class="cls-1" x="239.65" y="174.6" width="0.89" height="8.64"/><path class="cls-1" d="M246.51,180.11a1.42,1.42,0,0,0-.45-1,1.57,1.57,0,0,0-1.11-.37,1.55,1.55,0,0,0-1.06.38,1.57,1.57,0,0,0-.49,1Zm.93.71h-4v.08a1.87,1.87,0,0,0,.47,1.32,1.58,1.58,0,0,0,1.22.5,1.68,1.68,0,0,0,.93-.27,2.41,2.41,0,0,0,.73-.83l.66.44a2.51,2.51,0,0,1-2.36,1.39,2.49,2.49,0,0,1-1.89-.76,3.18,3.18,0,0,1,0-4,2.44,2.44,0,0,1,1.84-.76,2.29,2.29,0,0,1,1.79.73,2.82,2.82,0,0,1,.66,2Z"/><polygon class="cls-1" points="248.56 183.24 251.48 178.9 248.74 178.9 248.74 178.13 253.02 178.13 250.1 182.48 253 182.48 253 183.24 248.56 183.24"/><path class="cls-1" d="M258.62,180.74a2,2,0,0,0-.47-1.39,1.58,1.58,0,0,0-1.23-.53,1.56,1.56,0,0,0-1.23.49,1.94,1.94,0,0,0-.44,1.35,2.11,2.11,0,0,0,.44,1.43,1.63,1.63,0,0,0,1.27.5,1.57,1.57,0,0,0,1.22-.49,2,2,0,0,0,.44-1.36Zm.85-2.6v5.1h-.85v-.92a2.32,2.32,0,0,1-.79.85,2,2,0,0,1-1.06.28,2.24,2.24,0,0,1-1.77-.75,3.32,3.32,0,0,1,0-4,2.18,2.18,0,0,1,1.74-.75,2,2,0,0,1,1.88,1.15v-1Z"/><path class="cls-2" d="M109,172.44l-6.74-16.59H106l3,7.79,3-7.79h3.74Zm-7.54-18.56-6-14.8h4.13l5.69,14.8Zm11.28,0,5.65-14.8h4.12l-6,14.8Zm24.33,7.47a7.87,7.87,0,0,0-1.86-5.47l0,0h5.2v15.33h-3.32v-3.64a8.68,8.68,0,0,1-3.08,3.34,7.84,7.84,0,0,1-4.2,1.15,8.84,8.84,0,0,1-7-3,11.44,11.44,0,0,1-2.64-7.86,13.58,13.58,0,0,1,1-5.35h4.27a7.73,7.73,0,0,0-1.61,5.19,8.15,8.15,0,0,0,1.74,5.6,7.09,7.09,0,0,0,9.76.07,7.7,7.7,0,0,0,1.74-5.36Zm-5.59-7.47a7.91,7.91,0,0,0-1.1-.08,8.84,8.84,0,0,0-1.17.08h-6.9c.14-.19.29-.38.45-.56a8.66,8.66,0,0,1,6.86-2.93,8.29,8.29,0,0,1,4.37,1.13,7.71,7.71,0,0,1,2.4,2.36Zm8.91-2.77v2.77H137v-2.77Zm5.7,20.07V155.85h3.5v15.33Zm0-17.3V137.2h3.5v16.68Zm24.7,7.38a7.7,7.7,0,0,0-1.86-5.4h5.18v15.33h-3.32v-3.62a8.71,8.71,0,0,1-3.07,3.31,7.82,7.82,0,0,1-4.21,1.16,8.83,8.83,0,0,1-7-3,11.39,11.39,0,0,1-2.64-7.86,13.41,13.41,0,0,1,1-5.35h4.2a7.43,7.43,0,0,0-1.55,5,8.86,8.86,0,0,0,1.72,5.8,5.89,5.89,0,0,0,4.79,2.09,6.3,6.3,0,0,0,4.94-2,7.84,7.84,0,0,0,1.79-5.47Zm-5.65-7.38a8.35,8.35,0,0,0-1.13-.08,8.84,8.84,0,0,0-1.17.08h-6.79c.14-.19.29-.37.45-.55a8.73,8.73,0,0,1,6.88-2.94,8.16,8.16,0,0,1,4.34,1.13,7.78,7.78,0,0,1,2.39,2.36Zm9-16.68v16.68h-3.41V137.2Zm5,7.2a2.44,2.44,0,0,1,.73-1.76,2.48,2.48,0,0,1,1.8-.74,2.38,2.38,0,0,1,1.77.76,2.49,2.49,0,0,1,.74,1.79,2.41,2.41,0,0,1-.73,1.76,2.52,2.52,0,0,1-4.31-1.81Zm.81,26.78V155.85h3.46v15.33Zm0-17.3v-2.77h3.46v2.77Zm16,18.56-7.73-16.59h3.7l4,9.28,4-9.28h3.71Zm-8.65-18.56L186,151.11h3.86l1.19,2.77Zm13.46,0,1.19-2.77h3.87l-1.29,2.77Zm6.77-9.69a2.51,2.51,0,0,1,2.53-2.5,2.35,2.35,0,0,1,1.76.75,2.51,2.51,0,0,1,0,3.55,2.52,2.52,0,0,1-4.3-1.8Zm.81,27V155.85h3.46v15.33Zm0-17.3v-2.77h3.46v2.77Zm9.34,17.3V155.85H222a5,5,0,0,0-.65,1.45,15.47,15.47,0,0,0-.27,3.51v10.37Zm0-17.3v-2.77H221v2.77Zm3.6,0a8.37,8.37,0,0,1,2.88-2.55,9.16,9.16,0,0,1,4.21-.94,7.79,7.79,0,0,1,5.55,1.89,5.89,5.89,0,0,1,1.2,1.6h-5.26a6.24,6.24,0,0,0-2.69-.52,6.79,6.79,0,0,0-2.71.52Zm14.5,2a9.92,9.92,0,0,1,.13,1.67v13.66h-3.5V159.37a8.46,8.46,0,0,0-.63-3.52Zm20.92,5.5a7.86,7.86,0,0,0-1.85-5.47l0,0H260v15.33h-3.33v-3.64a8.68,8.68,0,0,1-3.08,3.34A7.81,7.81,0,0,1,249.4,172a8.82,8.82,0,0,1-7-3,11.4,11.4,0,0,1-2.65-7.86,13.41,13.41,0,0,1,1-5.35H245a7.78,7.78,0,0,0-1.6,5.19,8.15,8.15,0,0,0,1.74,5.6,7.08,7.08,0,0,0,9.75.07,7.7,7.7,0,0,0,1.74-5.36Zm-5.59-7.47a7.66,7.66,0,0,0-1.09-.08,8.72,8.72,0,0,0-1.17.08h-6.91c.14-.19.29-.38.45-.56a8.68,8.68,0,0,1,6.86-2.93,8.24,8.24,0,0,1,4.37,1.13,7.71,7.71,0,0,1,2.4,2.36Zm8.92-2.77v2.77h-3.41v-2.77Z"/><path class="cls-2" d="M63.05,181.7C49.75,156.27,85.74,149.8,75,131.44l-.08-.14a26.06,26.06,0,0,1-8.83,50.57,27.19,27.19,0,0,1-3-.17ZM43.79,169.36a26.07,26.07,0,0,1,19.43-39.45h0c14,17.45-14.94,24.52-19.44,39.45Z"/><path class="cls-3" d="M66.38,129.77c.44,0,.88,0,1.32,0v.06C82.8,155.48,44.75,158.32,57,180.23h0a26.12,26.12,0,0,1-8-4.78h0c-5.77-20.75,32.77-27.83,17.44-45.68Z"/><rect class="cls-4" width="300" height="300"/></g></g></svg>