<svg xmlns="http://www.w3.org/2000/svg" viewBox="0 0 300 300"><defs><style>.cls-1,.cls-3{fill:#9b9b9b;}.cls-1,.cls-2{fill-rule:evenodd;}.cls-2,.cls-4{fill:#d3d3d3;}.cls-5{fill:none;}</style></defs><title>logo20</title><g id="Layer_2" data-name="Layer 2"><g id="Layer_1-2" data-name="Layer 1"><path class="cls-1" d="M106.49,98h14A52.08,52.08,0,0,1,148,73.72H94.31A24.27,24.27,0,0,0,70,98v72.81H94.31V140.37h23.42a51.81,51.81,0,0,1-2.89-24.27H94.31V110a12,12,0,0,1,12.18-12Z"/><path class="cls-1" d="M166.38,73.72a48.54,48.54,0,0,1,42.21,72.51l24.73,24.56-34.56-.06-7.07-7.06a48.54,48.54,0,1,1-25.31-89.95Zm42.16,72.49-17.1-17.1a26,26,0,1,0-16.6,17.71l16.85,16.85a74.77,74.77,0,0,0,16.85-17.46Z"/><path class="cls-2" d="M166.38,73.72a48.56,48.56,0,0,1,47.17,37.08C195.91,88.62,168,80.41,147.79,92.68c-19.59,11.87-25.47,39-15.33,64.28a48.53,48.53,0,0,1,33.92-83.24Z"/><path class="cls-2" d="M129.65,85.58A50.51,50.51,0,0,1,148,73.72H94.31A24.27,24.27,0,0,0,70,98v35.17C73,116.65,72,92,94.31,87c8.33-1.84,19.52-2.48,35.34-1.44Z"/><path class="cls-3" d="M70.6,181.79v18.48h1.32c0-1.42,0-7.93,0-8.46h7.2v-1.34h-7.2v-7.36h8.51v-1.32Zm13.47,1.32h8.49v-1.32H82.75v14.92c0,2.51,2.69,3.56,4.93,3.53v0h4.88v-1.34H87.68c-1.23,0-3.09-.42-3.5-1.66a52.58,52.58,0,0,1-.11-5.56h8.49v-1.35H84.07Zm16.13,15.82c-1.6,0-3.66-.63-3.66-2.62V181.79H95.2v14.52c0,2.94,2.47,4,5,4H104v-1.34Zm6.14-17.14v18.48h1.32V181.79Zm5.7,10.05v-8.76h3.66c1.34,0,3.59.56,3.59,2.25v4.26h0c0,1.51-1.82,2.25-3.62,2.25Zm3.63,1.32c2.46,0,4.91-1.19,4.91-3.57h0v-4.26c0-2.48-2.74-3.54-4.88-3.54h-5v18.48H112v-7.11Zm8.5-10h8.48v-1.32h-9.8v14.92c0,2.51,2.69,3.56,4.93,3.53v0h4.87v-1.34h-4.87c-1.25,0-3.09-.42-3.51-1.66a55.55,55.55,0,0,1-.1-5.56h8.48v-1.35h-8.48Zm26.14,15.4c-1.6.89-6.56,1-7.3-1.11a2.54,2.54,0,0,1-.08-.66V185.16c0-3,8.49-3.1,8.49,0v11.58a2.15,2.15,0,0,1-.13.84l-.95-.92-1.76,0Zm-8.72-1.67c0,4,7.09,4.33,9.67,2.64l.8.93h1.79l-1.62-1.85a3,3,0,0,0,.51-1.72V185.16c0-4.69-11.15-4.71-11.15,0Zm19.14,2.27a6,6,0,0,1-3-.63,1.87,1.87,0,0,1-1-1.66v-15h-1.32v15a3.19,3.19,0,0,0,1.66,2.79,7.46,7.46,0,0,0,3.8.82h.26a7.46,7.46,0,0,0,3.8-.82,3.21,3.21,0,0,0,1.65-2.79v-15h-1.31v15a2,2,0,0,1-1,1.72,6.54,6.54,0,0,1-3.14.57Zm18.1-16.63a9.33,9.33,0,0,0-7.87,0,3.09,3.09,0,0,0-1.64,2.71h0v15.08h1.32v-7.22h8.54v7.22h1.32V185.19h0a3.09,3.09,0,0,0-1.64-2.71Zm-7.19,1.11a8.06,8.06,0,0,1,6.51,0,1.91,1.91,0,0,1,1,1.6h0v6.54h-8.54v-6.54h0a1.88,1.88,0,0,1,1-1.6Zm21.51,13.65c-.42,1.27-2.3,1.69-3.53,1.69h-4.88V183.11h5c1.37,0,3.48.66,3.48,2.24,0,2.24.08,11.36-.11,11.89Zm-3.53,3c2.27,0,5-1.05,5-3.59V185.35c0-2.47-2.66-3.56-4.8-3.56h-6.41v18.48Zm16.26-10.52c0,1.82-2.26,2.27-3.69,2.27h-3.56V183h3.66c1.35,0,3.59.68,3.59,2.37Zm-3.69,3.46c1.35,0,3.69.55,3.69,2.34v4.72h1.32v-4.72a3,3,0,0,0-2.5-2.87,3.06,3.06,0,0,0,2.5-2.93v-4.42c0-3.49-4.27-3.54-4.91-3.54h-4.95v18.48h1.29v-7.06Zm17.24,4.24c-.79,2.3-7.49,2.3-8.28,0a2,2,0,0,1-.08-.69l0-11.62c0-3.11,8.49-3.11,8.49,0l0,11.62a2,2,0,0,1-.08.69Zm-9.7-.55c0,4.8,11.12,4.8,11.12,0V185.14c0-4.72-11.12-4.72-11.12,0ZM233.11,185c0-3.88-6.51-4.35-8.88-2.11a5,5,0,0,0-.3,6.51,8.16,8.16,0,0,0,4,1.84c2.18.56,4.61,1.72,4.58,4.54a3.31,3.31,0,0,1-1.23,2.56,5.69,5.69,0,0,1-5.18.71,2.7,2.7,0,0,1-2-2.3l-1.29,0a3.58,3.58,0,0,0,2.66,3.38h0c2,.66,4.93.63,6.61-.77a4.63,4.63,0,0,0,1.72-3.55c0-3.59-2.46-4.93-5.56-5.72a6.5,6.5,0,0,1-3.46-1.62,3.68,3.68,0,0,1,.3-4.61c1.71-1.6,6.69-1.49,6.66,1.14Z"/><rect class="cls-4" x="64.89" y="205.85" width="170.21" height="0.69"/><path class="cls-3" d="M70.41,222.87l2.26-2.39,2.25,2.39h.31l2-2.1a1.66,1.66,0,0,0,.63-1.38v-4.61h-.83v4.61a.82.82,0,0,1-.27.7l-1.72,1.8-1.71-1.8a.77.77,0,0,1-.3-.7h0v-4.61h-.81v4.61h0a.77.77,0,0,1-.3.7l-1.71,1.8-1.71-1.8a.8.8,0,0,1-.28-.7v-4.61h-.83v4.61a1.69,1.69,0,0,0,.63,1.38l2,2.1Zm17.1-6c0-.63.56-1.05,1.26-1.25a4,4,0,0,1,1.94,0,1.61,1.61,0,0,1,.33,3,9.41,9.41,0,0,1-3.53.37Zm0,2.86c1.1,0,2.77.22,3.92-.39a2.43,2.43,0,0,0-.51-4.5,4.3,4.3,0,0,0-2.36,0,2.19,2.19,0,0,0-1.88,2v3.63a2.11,2.11,0,0,0,.36,1.24,3.08,3.08,0,0,0,2,1.07,4.23,4.23,0,0,0,1.42,0,2.8,2.8,0,0,0,2.1-1.21l-.7-.43h0a2.1,2.1,0,0,1-1.52.83,3.5,3.5,0,0,1-1.29,0,2.11,2.11,0,0,1-1.35-.73,1.12,1.12,0,0,1-.2-.69Zm13.94-8.44v11.49h.76v-.89a3.44,3.44,0,0,0,3.48.9,2.17,2.17,0,0,0,1.87-2h0v-3.61c0-2.43-3.94-3-5.29-1.43v-4.43Zm.82,5.72c0-1.78,4.46-1.94,4.46.11v3.64h0c0,.64-.56,1.06-1.25,1.25a3.77,3.77,0,0,1-1,.12c-1,0-2.25-.49-2.25-1.73Zm19.38-5.72v4.43c-1.34-1.59-5.29-1-5.29,1.43v3.61h0a2.18,2.18,0,0,0,1.86,2,3.45,3.45,0,0,0,3.49-.9v.89h.75V211.29Zm0,9.11c0,1.24-1.21,1.73-2.24,1.73a3.71,3.71,0,0,1-1-.12c-.72-.19-1.27-.61-1.27-1.25h0v-3.64c0-2.05,4.46-1.89,4.46-.11Zm10.46-3.53c0-.63.55-1.05,1.25-1.25a4,4,0,0,1,1.94,0,1.61,1.61,0,0,1,.32,3,9.31,9.31,0,0,1-3.51.37Zm0,2.86c1.08,0,2.76.22,3.9-.39a2.43,2.43,0,0,0-.49-4.5,4.34,4.34,0,0,0-2.37,0,2.19,2.19,0,0,0-1.88,2v3.63a2.11,2.11,0,0,0,.36,1.24,3.05,3.05,0,0,0,2,1.07,4.17,4.17,0,0,0,1.41,0,2.81,2.81,0,0,0,2.11-1.21l-.7-.43h0A2.12,2.12,0,0,1,135,222a3.5,3.5,0,0,1-1.29,0,2.13,2.13,0,0,1-1.36-.73,1.11,1.11,0,0,1-.19-.69Zm17.07,3.14,2.21-2.1a1.62,1.62,0,0,0,.63-1.38v-4.61h-.81v4.61a.77.77,0,0,1-.29.7l-1.9,1.8-1.89-1.8a.75.75,0,0,1-.28-.7v-4.61H146v4.61a1.62,1.62,0,0,0,.63,1.38l2.21,2.1Zm12.29-6c0-.63.56-1.05,1.26-1.25a4,4,0,0,1,1.94,0,1.61,1.61,0,0,1,.32,3,9.34,9.34,0,0,1-3.52.37Zm0,2.86c1.09,0,2.77.22,3.91-.39a2.43,2.43,0,0,0-.5-4.5,4.3,4.3,0,0,0-2.36,0,2.19,2.19,0,0,0-1.88,2v3.63a2.18,2.18,0,0,0,.35,1.24,3.1,3.1,0,0,0,2,1.07,4.17,4.17,0,0,0,1.41,0,2.82,2.82,0,0,0,2.11-1.21l-.7-.43h0a2.14,2.14,0,0,1-1.52.83,3.5,3.5,0,0,1-1.29,0,2.16,2.16,0,0,1-1.36-.73,1.18,1.18,0,0,1-.19-.69Zm16,2.38c-.85,0-1.19-.2-1.19-1v-9.72h-.82v9.7c0,1.45.67,1.88,2,1.8Zm12.56-.22a3.77,3.77,0,0,1-1.8.12c-.84-.14-1.57-.61-1.57-1.35v-3.79c0-.65.55-1.05,1.25-1.25a3.87,3.87,0,0,1,1-.13,3.93,3.93,0,0,1,1,.13c.69.2,1.25.62,1.25,1.25h0v3.79a1.4,1.4,0,0,1-1.09,1.23Zm1.9-5h0a2.17,2.17,0,0,0-1.85-2,3.93,3.93,0,0,0-1.19-.16,4,4,0,0,0-1.19.16,2.18,2.18,0,0,0-1.86,2v3.79c0,1.23,1,1.92,2.27,2.13a4.73,4.73,0,0,0,2.18-.14,2.12,2.12,0,0,0,1.64-2Zm9.6,9.41V222c1.34,1.58,5.29,1,5.29-1.44v-3.7h0a2.21,2.21,0,0,0-1.86-2.05,3.42,3.42,0,0,0-3.49.92v-.9h-.76v11.48Zm0-9.09c0-1.24,1.21-1.73,2.24-1.73a3.77,3.77,0,0,1,1,.11c.72.19,1.27.62,1.27,1.26h0v3.73c0,2.06-4.45,1.9-4.45.1Zm14.93-.32c0-.63.55-1.05,1.26-1.25a4,4,0,0,1,1.94,0,1.62,1.62,0,0,1,.33,3,9.42,9.42,0,0,1-3.53.37Zm0,2.86c1.1,0,2.78.22,3.92-.39a2.43,2.43,0,0,0-.51-4.5,4.34,4.34,0,0,0-2.37,0,2.18,2.18,0,0,0-1.87,2v3.63a2.11,2.11,0,0,0,.36,1.24,3.08,3.08,0,0,0,2,1.07,4.29,4.29,0,0,0,1.43,0,2.82,2.82,0,0,0,2.1-1.21l-.71-.43h0a2.07,2.07,0,0,1-1.51.83,3.5,3.5,0,0,1-1.29,0,2.08,2.08,0,0,1-1.35-.73,1.12,1.12,0,0,1-.2-.69Zm14.77,3.05v-5.73c0-1.3,2.15-1.86,3.22-1.49l.14-.78a3.32,3.32,0,0,0-3.4.88v-.88h-.8v8Z"/><rect class="cls-5" width="300" height="300"/></g></g></svg>