<svg xmlns="http://www.w3.org/2000/svg" viewBox="0 0 300 300"><defs><style>.cls-1,.cls-3{fill:#9b9b9b;}.cls-1,.cls-2{fill-rule:evenodd;}.cls-2{fill:#d3d3d3;}.cls-4{fill:none;}</style></defs><title>logo30</title><g id="Layer_2" data-name="Layer 2"><g id="Layer_1-2" data-name="Layer 1"><path class="cls-1" d="M228.26,214.67V239.1a11,11,0,0,0,.55,4.42c1.16,2.27,3.6,3.44,6.7,3.44s5.58-1.17,6.75-3.44a10.93,10.93,0,0,0,.56-4.42V209c0-3-.06-7.92-.56-9.47a7.08,7.08,0,0,0-13.45,0c-.5,1.55-.55,6.47-.55,9.47Zm-31.53-19.43-4.94,51.1h3.07l.65-7.62h6.56l.66,7.62H207l-5.16-51.1Zm1.66,6.18h.39c1.06,12.22,2.05,22.73,3,35.15h-6.19Zm-133.59,45c2,0,7.37-.5,7.37-7.18V200.94c0-4.2-3.77-5.7-6.48-5.7H57.45v51.21Zm3.25-32.09h0c0,5,0,21.76,0,23.59v2.37c0,2.76-1.38,4.19-3.15,4.19H61.71V197.18h3.71c2.76,0,2.65,2.75,2.65,6.52,0,1.42,0,5.87,0,10.66Zm8.49,32.09H80.8V195.24H76.54v51.21Zm7.85-49H89.6v48.94h4.26V197.4h5.25v-2.16H84.39Zm32.27,2.16a7.08,7.08,0,0,0-13.45,0c-.5,1.55-.56,6.47-.56,9.47V239.1a10.76,10.76,0,0,0,.56,4.42c1.16,2.27,3.6,3.44,6.7,3.44s5.58-1.17,6.75-3.44a11.16,11.16,0,0,0,.54-4.42V209c0-3,0-7.92-.54-9.47Zm-9.88,16h0c0-4.71,0-9.36,0-14,0-2.88.27-4.88,3.1-4.88h0c2.82,0,3.1,2.06,3.1,5v35.11c0,6.08.06,8.13-3.1,8.13h0c-2.83,0-3.16-2.05-3.16-4.92,0-4.4,0-18.87,0-24.5Zm33.72-10.11h4.21V201c0-3.16-2.38-6.31-7.42-6.31-3.42,0-6.08,1.56-7,4.48-.49,1.55-.28,6.86-.28,9.86v27.46c0,2.88,0,5.38.72,6.87,1.14,2.27,3.27,3.6,6.69,3.6,4.88,0,7.26-3.21,7.26-5.66v-6.13H140.5v6c0,3-.83,3.76-3.21,3.76-3.76,0-3.07-3.66-3.09-8.13,0-3.76,0-16.82,0-21.29h0c0-7.26,0-11.76,0-14.54,0-2.94.61-4.32,3-4.32,2.65,0,3.21,1.5,3.21,4.32Zm12.07-10.19-4.95,51.1h3.07l.65-7.62h6.56l.66,7.62h4.24l-5.14-51.1Zm1.65,6.18h.39c1.06,12.22,2.06,22.73,3,35.15h-6.2Zm11-6.18,0,20.3h0l0,30.8H176.3v-2.2h-6.75l0-29.17h0l0-19.73Zm13.44,0,0,20.3h0l0,30.8h11.06v-2.2H183l0-30.8h0l0-18.1Zm38.07,51.21c2,0,7.35-.5,7.35-7.18V200.94c0-4.2-3.76-5.7-6.47-5.7h-8.24v51.21Zm3.24-32.4h0c0,5,0,22.07,0,23.9v2.37c0,2.76-1.39,4.19-3.16,4.19H213.6V197.18h3.7c2.77,0,2.66,2.75,2.66,6.52,0,1.39,0,5.69,0,10.35Zm18.72.62v22.16c0,6.08.06,8.13-3.1,8.13h-.05c-2.82,0-3.15-2.05-3.15-4.92,0-4.46,0-19,0-24.5h0c0-4.71,0-9.36,0-14,0-2.88.28-4.88,3.1-4.88h.05c2.83,0,3.1,2.06,3.1,5Z"/><path class="cls-2" d="M228.26,228.6v10.5a10.44,10.44,0,0,0,.58,4.42c1.15,2.27,3.57,3.44,6.67,3.44s5.57-1.17,6.72-3.44a10.42,10.42,0,0,0,.59-4.42v-9.92l-4.16-.18v7.83c0,6.08.06,8.13-3.1,8.13h-.05c-2.83,0-3.15-2.05-3.15-4.92V228.75l-4.1-.15Zm-170.81.58,4.26-.18v15.51h3.15c1.78,0,3.15-1.43,3.15-4.19V228.75c1.42,0,2.79-.1,4.15-.16v10.68c0,6.68-5.36,7.18-7.36,7.18H57.45Zm19.07-.74,4.26-.13v18.14H76.52ZM89.6,228l4.26-.11v18.41H89.6Zm13-.33,4.1-.08V240c0,2.87.37,4.92,3.15,4.92h.06c3.15,0,3.1-2.05,3.1-8.13v-9.31l4.15-.07V239.1a11.65,11.65,0,0,1-.52,4.42c-1.17,2.27-3.63,3.44-6.79,3.44s-5.51-1.17-6.67-3.44a10.6,10.6,0,0,1-.58-4.42Zm27.43-.41,4.15,0c-.06,4-.06,7.8,0,9.56,0,4.48-.68,8.13,3.1,8.13,2.36,0,3.21-.77,3.21-3.76v-6h4.2v6.14c0,2.44-2.37,5.65-7.25,5.65-3.42,0-5.57-1.33-6.73-3.61-.73-1.48-.68-4-.68-6.86Zm19.39-.09h2.73l-.73,9.36h6.2c-.27-3.22-.53-6.32-.74-9.35h4l1.89,19.11h-4.21l-.67-7.62h-6.57l-.64,7.62h-3.09Zm15.76.06c1.47,0,2.89,0,4.3,0l.06,16.84h6.73v2.2h-11Zm13.45.12,4.31.06.06,16.69h6.71v2.2H178.66Zm14.92.24c.95,0,1.84,0,2.73.06l-.67,8.88h6.19c-.27-3-.47-5.92-.74-8.78l4,.1L207,246.34h-4.25l-.69-7.62h-6.52l-.67,7.62h-3Zm15.76.37,4.26.12v16.39h3.15c1.79,0,3.16-1.43,3.16-4.19v-12l4.14.13v10.82c0,6.68-5.35,7.18-7.35,7.18h-7.36Z"/><polygon class="cls-2" points="121.41 69.48 127.6 69.48 133.8 75.68 133.8 138.96 127.6 145.15 121.41 145.15 121.41 69.48"/><polygon class="cls-2" points="150.9 40 150.9 40 157.1 46.2 157.1 101.12 150.9 107.32 150.9 107.32 144.7 101.12 144.7 46.2 150.9 40"/><polygon class="cls-2" points="180.39 69.48 174.2 69.48 168 75.68 168 138.96 174.2 145.15 180.39 145.15 180.39 69.48"/><polygon class="cls-2" points="109.71 81.09 110.51 81.09 110.51 133.54 109.71 133.54 108.91 132.74 108.91 81.88 109.71 81.09"/><polygon class="cls-2" points="191.28 81.09 192.08 81.09 192.88 81.88 192.88 132.74 192.08 133.54 191.28 133.54 191.28 81.09"/><polygon class="cls-2" points="150.9 174.64 150.9 174.64 157.1 168.43 157.1 113.52 150.9 107.32 150.9 107.32 144.7 113.52 144.7 168.43 150.9 174.64"/><path class="cls-2" d="M98.52,117c4.93.86-7-4.44-2.87-8.4.61,3.8,1.5-1,8.16-1.52h.71q-.75,0,0,0h-.71c-6.66-.47-7.55-5.33-8.16-1.51-4.13-4,7.8-9.27,2.87-8.41-5.2-4.17-2.51,7.39-9.2,7.41,4.49,1.63,5,3.3,0,5,6.69,0,4.71,13,9.2,7.41Z"/><path class="cls-2" d="M203.28,117c-4.94.86,7-4.44,2.86-8.4-.6,3.8-1.49-1-8.15-1.52h-.71q.74,0,0,0H198c6.66-.47,7.55-5.33,8.15-1.51,4.14-4-7.8-9.27-2.86-8.41,5.19-4.17,2.51,7.39,9.19,7.41-4.49,1.63-5,3.3,0,5-6.68,0-4.71,13-9.19,7.41Z"/><polygon class="cls-3" points="57.45 260 57.45 258.74 58.08 258.74 58.08 252.52 57.45 252.52 57.45 251.27 63.07 251.27 63.07 253.15 61.82 253.15 61.82 252.52 59.32 252.52 59.32 255.01 60.56 255.01 60.56 254.39 61.82 254.39 61.82 256.88 60.56 256.88 60.56 256.26 59.32 256.26 59.32 258.74 59.95 258.74 59.95 260 57.45 260"/><path class="cls-3" d="M78.7,260l-1-1v-6.71l1-1h3l1,1V259l-1,1Zm.25-1.26h2.49v-6.22H79Z"/><polygon class="cls-3" points="99.2 260 99.2 258.74 99.82 258.74 99.82 252.52 98.59 252.52 98.59 253.15 97.33 253.15 97.33 251.27 103.56 251.27 103.56 253.15 102.31 253.15 102.31 252.52 101.07 252.52 101.07 258.74 101.69 258.74 101.69 260 99.2 260"/><path class="cls-3" d="M119.2,260l-1-1v-6.71l1-1h3l1,1V259l-1,1Zm.25-1.26h2.49v-6.22h-2.49Z"/><polygon class="cls-3" points="138.84 260 137.83 259 137.83 252.28 138.84 251.27 141.82 251.27 142.82 252.28 142.82 253.76 141.57 253.76 141.57 252.52 139.09 252.52 139.09 258.74 141.57 258.74 141.57 256.26 140.32 256.26 140.32 255.01 142.82 255.01 142.82 259 141.82 260 138.84 260"/><path class="cls-3" d="M157.45,260v-1.26h.62v-6.22h-.62v-1.25h4.61l1,1v3l-.38.38.38.37v2.73h.62V260h-2.49v-1.26h.62v-2.47h-2.48v2.47h.61V260Zm1.88-5h2.48v-2.49h-2.48Z"/><path class="cls-3" d="M178.32,260v-1.26H179l1.87-7.47h1.24l1.87,7.47h.63V260h-2.5v-1.26h.62l-.32-1.23H180.5l-.31,1.23h.63V260Zm3.12-6.22-.62,2.49h1.24Z"/><polygon class="cls-3" points="199.19 260 199.19 258.74 199.82 258.74 199.82 252.52 199.19 252.52 199.19 251.27 204.82 251.27 204.82 253.15 203.56 253.15 203.56 252.52 201.06 252.52 201.06 255.01 202.32 255.01 202.32 254.39 203.56 254.39 203.56 256.88 202.32 256.88 202.32 256.26 201.06 256.26 201.06 258.74 201.69 258.74 201.69 260 199.19 260"/><polygon class="cls-3" points="219.44 260 219.44 258.74 220.07 258.74 220.07 252.52 219.44 252.52 219.44 251.27 221.94 251.27 221.94 252.52 221.31 252.52 221.31 258.74 221.94 258.74 221.94 260 219.44 260"/><path class="cls-3" d="M236.57,260v-1.26h.63l1.87-7.47h1.25l1.87,7.47h.62V260h-2.49v-1.26h.61l-.31-1.23h-1.86l-.31,1.23h.62V260Zm3.12-6.22-.62,2.49h1.25Z"/><rect class="cls-4" width="300" height="300"/></g></g></svg>